G04 Generated by Ultiboard 14.1 *
%FSLAX25Y25*%
%MOIN*%

%ADD10C,0.00001*%
%ADD11C,0.00500*%
%ADD12C,0.02000*%
%ADD13C,0.01000*%
%ADD14C,0.04000*%
%ADD15C,0.04156*%
%ADD16C,0.01772*%
%ADD17C,0.06334*%
%ADD18R,0.02083X0.02083*%
%ADD19C,0.03917*%


G04 ColorRGB 0000FF for the following layer *
%LNCopper Bottom*%
%LPD*%
G54D10*
G54D11*
X112800Y127100D02*
X116500Y130800D01*
X143700Y130800D01*
X80100Y114300D02*
X115100Y114300D01*
X71300Y93000D02*
X180400Y93000D01*
X65400Y132600D02*
X94998Y132600D01*
X98517Y136118D01*
X72000Y146000D02*
X92900Y146000D01*
X96706Y149806D01*
X96706Y153682D01*
X119300Y73300D02*
X133200Y73300D01*
X105400Y71200D02*
X135200Y71200D01*
X105400Y71200D02*
X104800Y71800D01*
X92000Y70000D02*
X102200Y70000D01*
X106500Y65700D01*
X146600Y65700D01*
X84600Y77300D02*
X98500Y77300D01*
X100700Y79500D01*
X126300Y79500D01*
X128800Y77000D01*
X135700Y77000D01*
X104300Y101200D02*
X168800Y101200D01*
X115200Y114200D02*
X151300Y114200D01*
X219900Y98600D02*
X234200Y98600D01*
X220100Y98600D02*
X218200Y96700D01*
X164900Y96700D01*
X163000Y98600D01*
X109400Y98600D01*
X95500Y109000D02*
X207400Y109000D01*
X210100Y111700D01*
X240200Y111700D01*
X242500Y109400D01*
X198800Y63600D02*
X221800Y63600D01*
X224000Y61400D01*
X154100Y81400D02*
X178200Y81400D01*
X179900Y79700D01*
X238700Y79700D01*
X241100Y82100D01*
X244176Y82100D01*
X248394Y77882D01*
X154300Y77200D02*
X236100Y77200D01*
X241000Y72300D01*
X248718Y72300D01*
X254300Y77882D01*
X180300Y54500D02*
X224300Y54500D01*
X225400Y55600D01*
X231900Y55600D01*
X236300Y51200D01*
X243313Y51200D01*
X248594Y56482D01*
X182900Y50100D02*
X203500Y50100D01*
X205100Y51700D01*
X216200Y51700D01*
X218800Y49100D01*
X250800Y49100D01*
X254500Y52800D01*
X254500Y56482D01*
X92200Y122200D02*
X168000Y122200D01*
X169900Y120300D01*
X192800Y120300D01*
X194300Y121800D01*
X116900Y135100D02*
X230100Y135100D01*
X231500Y133700D01*
X240300Y133700D01*
X243250Y136650D01*
X166100Y138400D02*
X225100Y138400D01*
X227300Y140600D01*
X259113Y140600D01*
X263218Y136494D01*
X108900Y68900D02*
X157500Y68900D01*
X161500Y72900D01*
X236000Y72900D01*
X237900Y71000D01*
X266000Y71000D01*
X268000Y73000D01*
X75082Y83582D02*
X92818Y83582D01*
X63200Y99200D02*
X93100Y99200D01*
X195700Y75000D02*
X219900Y75000D01*
X227000Y75000D01*
G54D12*
X74894Y136118D02*
X61518Y136118D01*
X49500Y124100D01*
X49500Y47200D01*
X58000Y38700D01*
X82200Y38700D01*
X85094Y35806D01*
X94118Y35806D01*
X74894Y136118D02*
X74894Y140794D01*
X76800Y142700D01*
X107600Y142700D01*
X113400Y148500D01*
X183900Y148500D01*
X187700Y152300D01*
X212800Y152300D01*
X268900Y149500D02*
X265400Y153000D01*
X260700Y153000D01*
X255200Y147500D01*
X217600Y147500D01*
X212800Y152300D02*
X217600Y147500D01*
X268900Y86576D02*
X268900Y149500D01*
X268900Y86576D02*
X260206Y77882D01*
G54D13*
X175084Y86800D02*
X173184Y84900D01*
X180800Y126500D02*
X197800Y126500D01*
X200700Y123600D01*
X54600Y114200D02*
X54600Y52700D01*
X63500Y43800D01*
X224000Y65700D02*
X195500Y65700D01*
X182600Y42300D02*
X176100Y42300D01*
X173700Y44700D01*
X162800Y44700D01*
X157700Y49800D01*
X203200Y6618D02*
X203200Y12000D01*
X192200Y23000D01*
X192200Y30300D01*
X54600Y114200D02*
X66200Y125800D01*
X84300Y125800D01*
X160100Y116300D02*
X201400Y116300D01*
X208700Y123600D01*
X222700Y87700D02*
X221800Y86800D01*
X175084Y86800D02*
X221800Y86800D01*
X89900Y120200D02*
X156200Y120200D01*
X160100Y116300D01*
X84300Y125800D02*
X89900Y120200D01*
G54D14*
X17917Y10700D02*
X17917Y148588D01*
G54D15*
X96706Y153682D03*
X90800Y153682D03*
X84894Y153682D03*
X78989Y153682D03*
X73083Y153682D03*
X197294Y6618D03*
X203200Y6618D03*
X209106Y6618D03*
X215011Y6618D03*
X220917Y6618D03*
X263218Y148306D03*
X263218Y142400D03*
X263218Y136494D03*
X263218Y130589D03*
X248394Y28718D03*
X254300Y28718D03*
X260206Y28718D03*
X56282Y18694D03*
X56282Y24600D03*
X56282Y30506D03*
X75082Y18794D03*
X75082Y24700D03*
X75082Y30606D03*
X260406Y56482D03*
X254500Y56482D03*
X248594Y56482D03*
X242689Y56482D03*
X74894Y136118D03*
X80800Y136118D03*
X86706Y136118D03*
X92611Y136118D03*
X98517Y136118D03*
X104422Y136118D03*
X260206Y77882D03*
X254300Y77882D03*
X248394Y77882D03*
X242489Y77882D03*
X94118Y18089D03*
X94118Y23994D03*
X94118Y29900D03*
X94118Y35806D03*
G54D16*
X112800Y127100D03*
X143800Y130900D03*
X80100Y114300D03*
X115200Y114200D03*
X104800Y71800D03*
X135300Y71100D03*
X71300Y93000D03*
X180600Y92800D03*
X65400Y132600D03*
X73297Y69697D03*
X72000Y146000D03*
X90067Y81667D03*
X87900Y79800D03*
X119300Y73300D03*
X133400Y73500D03*
X92000Y70000D03*
X146600Y65700D03*
X85700Y71500D03*
X84600Y77300D03*
X135700Y77000D03*
X104300Y101200D03*
X168900Y101100D03*
X166800Y42200D03*
X134900Y51700D03*
X131600Y83000D03*
X220917Y106683D03*
X213900Y109200D03*
X217600Y147500D03*
X123000Y50000D03*
X123000Y81600D03*
X151500Y114000D03*
X109400Y98600D03*
X234200Y98600D03*
X95500Y109000D03*
X242500Y109400D03*
X198800Y63600D03*
X224000Y61400D03*
X195700Y75000D03*
X227000Y53300D03*
X154100Y81400D03*
X154300Y77200D03*
X164700Y48500D03*
X176700Y102300D03*
X180300Y54500D03*
X178764Y100636D03*
X182900Y50100D03*
X75500Y95500D03*
X194300Y121800D03*
X80900Y95900D03*
X116900Y135100D03*
X84000Y101600D03*
X228400Y137500D03*
X83600Y69500D03*
X166100Y138400D03*
X108900Y68900D03*
X268000Y73000D03*
X180800Y126500D03*
X200700Y123600D03*
X208700Y123600D03*
X63500Y43800D03*
X195300Y65500D03*
X182600Y42300D03*
X157700Y49800D03*
X192200Y30300D03*
X179200Y20800D03*
X158600Y28700D03*
X222700Y88000D03*
X92200Y122200D03*
X243200Y136700D03*
X92818Y83582D03*
X75082Y83582D03*
X93100Y99200D03*
X63200Y99200D03*
X205900Y82700D03*
X173200Y85000D03*
X216200Y148900D03*
X227000Y75000D03*
X224000Y65700D03*
X77200Y69500D03*
X111500Y86000D03*
X80400Y121700D03*
X59400Y87500D03*
X103700Y77700D03*
X120200Y125300D03*
X35000Y82000D03*
X115000Y75900D03*
X244800Y152300D03*
X255100Y152500D03*
X235200Y137700D03*
X237000Y137700D03*
X230300Y151900D03*
X182000Y83000D03*
X163900Y118500D03*
X130200Y96000D03*
X147800Y86900D03*
X165100Y69200D03*
X172800Y103000D03*
X159700Y20900D03*
X126400Y88000D03*
X170000Y48300D03*
X200500Y84000D03*
X174100Y122800D03*
X234300Y103100D03*
X191500Y46100D03*
X139300Y151700D03*
X207400Y29300D03*
X229700Y41000D03*
X218600Y61400D03*
X210600Y48900D03*
X116700Y49400D03*
X108800Y33000D03*
X122100Y26000D03*
X125800Y45500D03*
X209300Y131900D03*
X209200Y129900D03*
X214300Y118400D03*
X240000Y119200D03*
X240000Y117300D03*
X248700Y118300D03*
X127200Y10000D03*
X207300Y149900D03*
X217300Y141400D03*
X262600Y97100D03*
X53000Y146200D03*
X216700Y98800D03*
G54D17*
X17917Y20700D03*
X17917Y40700D03*
X17917Y30700D03*
X17917Y10700D03*
X7917Y20700D03*
X7917Y30700D03*
X7917Y10700D03*
X27917Y40700D03*
X27917Y30700D03*
X27917Y20700D03*
X27917Y10700D03*
X17917Y74644D03*
X17917Y94644D03*
X17917Y84644D03*
X17917Y64644D03*
X7917Y74644D03*
X7917Y84644D03*
X7917Y64644D03*
X27917Y94644D03*
X27917Y84644D03*
X27917Y74644D03*
X27917Y64644D03*
X17917Y128588D03*
X17917Y148588D03*
X17917Y138588D03*
X17917Y118588D03*
X7917Y128588D03*
X7917Y138588D03*
X7917Y118588D03*
X27917Y148588D03*
X27917Y138588D03*
X27917Y128588D03*
X27917Y118588D03*
G54D18*
X7917Y40700D03*
X7917Y94644D03*
X7917Y148588D03*
G54D19*
X6876Y39659D02*
X8958Y39659D01*
X8958Y41741D01*
X6876Y41741D01*
X6876Y39659D01*D02*
X6876Y93603D02*
X8958Y93603D01*
X8958Y95685D01*
X6876Y95685D01*
X6876Y93603D01*D02*
X6876Y147547D02*
X8958Y147547D01*
X8958Y149629D01*
X6876Y149629D01*
X6876Y147547D01*D02*

M02*
