G04 Generated by Ultiboard 14.1 *
%FSLAX26Y26*%
%MOIN*%

%ADD10C,0.000001*%
%ADD11C,0.000039*%
%ADD12R,0.023622X0.027559*%
%ADD13R,0.027559X0.023622*%
%ADD14C,0.017717*%
%ADD15O,0.025591X0.011811*%
%ADD16R,0.025591X0.049213*%
%ADD17R,0.041680X0.010840*%
%ADD18C,0.016660*%
%ADD19C,0.041559*%
%ADD20R,0.039370X0.019685*%
%ADD21C,0.063340*%
%ADD22R,0.020830X0.020830*%
%ADD23C,0.039170*%
%ADD24R,0.011811X0.019685*%
%ADD25R,0.019685X0.011811*%
%ADD26R,0.019685X0.027559*%
%ADD27R,0.036220X0.042520*%
%ADD28R,0.031496X0.031496*%
%ADD29R,0.061024X0.023622*%
%ADD30R,0.039370X0.023622*%
%ADD31R,0.023622X0.011811*%
%ADD32R,0.011811X0.023622*%
%ADD33R,0.011811X0.061024*%
%ADD34R,0.061024X0.011811*%
%ADD35O,0.011811X0.025591*%
%ADD36R,0.049213X0.025591*%
%ADD37R,0.010840X0.041680*%
%ADD38R,0.015748X0.053150*%
%ADD39R,0.070866X0.074803*%
%ADD40R,0.090551X0.051181*%


G04 ColorRGB FF00CC for the following layer *
%LNSolder Mask Top*%
%LPD*%
G54D10*
G54D11*
G36*
X1135260Y428882D02*
X1135260Y428882D01*
X1135260Y440693D01*
X1154945Y440693D01*
X1154945Y432819D01*
X1151008Y428882D01*
X1135260Y428882D01*
D02*
G37*
X1135260Y440693D01*
X1154945Y440693D01*
X1154945Y432819D01*
X1151008Y428882D01*
X1135260Y428882D01*
G36*
X1158882Y405260D02*
X1158882Y405260D01*
X1170693Y405260D01*
X1170693Y424945D01*
X1162819Y424945D01*
X1158882Y421008D01*
X1158882Y405260D01*
D02*
G37*
X1170693Y405260D01*
X1170693Y424945D01*
X1162819Y424945D01*
X1158882Y421008D01*
X1158882Y405260D01*
G36*
X1269118Y405260D02*
X1269118Y405260D01*
X1257307Y405260D01*
X1257307Y424945D01*
X1265181Y424945D01*
X1269118Y421008D01*
X1269118Y405260D01*
D02*
G37*
X1257307Y405260D01*
X1257307Y424945D01*
X1265181Y424945D01*
X1269118Y421008D01*
X1269118Y405260D01*
G36*
X1292740Y428882D02*
X1292740Y428882D01*
X1292740Y440693D01*
X1273055Y440693D01*
X1273055Y432819D01*
X1276992Y428882D01*
X1292740Y428882D01*
D02*
G37*
X1292740Y440693D01*
X1273055Y440693D01*
X1273055Y432819D01*
X1276992Y428882D01*
X1292740Y428882D01*
G36*
X1158882Y562740D02*
X1158882Y562740D01*
X1170693Y562740D01*
X1170693Y543055D01*
X1162819Y543055D01*
X1158882Y546992D01*
X1158882Y562740D01*
D02*
G37*
X1170693Y562740D01*
X1170693Y543055D01*
X1162819Y543055D01*
X1158882Y546992D01*
X1158882Y562740D01*
G36*
X1135260Y539118D02*
X1135260Y539118D01*
X1135260Y527307D01*
X1154945Y527307D01*
X1154945Y535181D01*
X1151008Y539118D01*
X1135260Y539118D01*
D02*
G37*
X1135260Y527307D01*
X1154945Y527307D01*
X1154945Y535181D01*
X1151008Y539118D01*
X1135260Y539118D01*
G36*
X1269118Y562740D02*
X1269118Y562740D01*
X1257307Y562740D01*
X1257307Y543055D01*
X1265181Y543055D01*
X1269118Y546992D01*
X1269118Y562740D01*
D02*
G37*
X1257307Y562740D01*
X1257307Y543055D01*
X1265181Y543055D01*
X1269118Y546992D01*
X1269118Y562740D01*
G36*
X1292740Y539118D02*
X1292740Y539118D01*
X1292740Y527307D01*
X1273055Y527307D01*
X1273055Y535181D01*
X1276992Y539118D01*
X1292740Y539118D01*
D02*
G37*
X1292740Y527307D01*
X1273055Y527307D01*
X1273055Y535181D01*
X1276992Y539118D01*
X1292740Y539118D01*
G36*
X1542362Y1435394D02*
X1542362Y1486575D01*
X1632913Y1486575D01*
X1632913Y1435394D01*
X1542362Y1435394D01*
G37*
G36*
X1449843Y1423583D02*
X1449843Y1498386D01*
X1520709Y1498386D01*
X1520709Y1423583D01*
X1449843Y1423583D01*
G37*
G36*
X1247087Y1435394D02*
X1247087Y1486575D01*
X1337638Y1486575D01*
X1337638Y1435394D01*
X1247087Y1435394D01*
G37*
G36*
X1359291Y1423583D02*
X1359291Y1498386D01*
X1430157Y1498386D01*
X1430157Y1423583D01*
X1359291Y1423583D01*
G37*
G54D12*
X779370Y1180000D03*
X740000Y1180000D03*
X1080000Y760000D03*
X1119370Y760000D03*
X1600000Y1160000D03*
X1639370Y1160000D03*
X1979370Y840000D03*
X1940000Y840000D03*
X2173370Y1240000D03*
X2134000Y1240000D03*
X1926000Y1419000D03*
X1965370Y1419000D03*
X2206000Y1414000D03*
X2245370Y1414000D03*
X2448000Y1142000D03*
X2487370Y1142000D03*
X2151037Y292000D03*
X2111667Y292000D03*
X1923000Y357000D03*
X1962370Y357000D03*
X1915000Y426000D03*
X1954370Y426000D03*
X1619370Y560000D03*
X1580000Y560000D03*
X1182000Y296000D03*
X1221370Y296000D03*
X1221370Y354000D03*
X1182000Y354000D03*
X2151667Y232000D03*
X2112297Y232000D03*
X2151667Y352000D03*
X2112297Y352000D03*
X1914630Y494723D03*
X1954000Y494723D03*
X760630Y560000D03*
X800000Y560000D03*
X2114630Y657000D03*
X2154000Y657000D03*
X380630Y860000D03*
X420000Y860000D03*
X2383000Y1521000D03*
X2343630Y1521000D03*
X1906000Y1261000D03*
X1945370Y1261000D03*
X1340000Y880000D03*
X1300630Y880000D03*
X2128630Y1024000D03*
X2168000Y1024000D03*
X2169000Y951000D03*
X2129630Y951000D03*
X1203630Y1197000D03*
X1243000Y1197000D03*
G54D13*
X1080000Y860630D03*
X1080000Y900000D03*
X2260000Y449000D03*
X2260000Y409630D03*
X2018000Y546000D03*
X2018000Y585370D03*
X2543000Y913000D03*
X2543000Y873630D03*
X2073000Y1428000D03*
X2073000Y1467370D03*
X1426000Y550000D03*
X1426000Y510630D03*
X1740000Y1199370D03*
X1740000Y1160000D03*
X2071000Y1190000D03*
X2071000Y1150630D03*
X2267000Y1474000D03*
X2267000Y1513370D03*
X2475000Y912000D03*
X2475000Y872630D03*
X1340000Y1000000D03*
X1340000Y960630D03*
X1700000Y520630D03*
X1700000Y560000D03*
X708000Y554000D03*
X708000Y514630D03*
X1082000Y523000D03*
X1082000Y483630D03*
X1089000Y363630D03*
X1089000Y403000D03*
X1349000Y484000D03*
X1349000Y444630D03*
X2472000Y1357630D03*
X2472000Y1397000D03*
X2308000Y1030000D03*
X2308000Y1069370D03*
X2380000Y1031630D03*
X2380000Y1071000D03*
X2466000Y1258370D03*
X2466000Y1219000D03*
X1073000Y214000D03*
X1073000Y174630D03*
X478000Y1462500D03*
X478000Y1423130D03*
X581000Y1462500D03*
X581000Y1423130D03*
X1684000Y49000D03*
X1684000Y88370D03*
G54D14*
X1128000Y1271000D03*
X1438000Y1309000D03*
X801000Y1143000D03*
X1152000Y1142000D03*
X1048000Y718000D03*
X1353000Y711000D03*
X713000Y930000D03*
X1806000Y928000D03*
X654000Y1326000D03*
X732972Y696972D03*
X720000Y1460000D03*
X900665Y816665D03*
X879000Y798000D03*
X1193000Y733000D03*
X1334000Y735000D03*
X920000Y700000D03*
X1466000Y657000D03*
X857000Y715000D03*
X846000Y773000D03*
X1357000Y770000D03*
X1043000Y1012000D03*
X1689000Y1011000D03*
X1668000Y422000D03*
X1349000Y517000D03*
X1316000Y830000D03*
X2209165Y1066835D03*
X2139000Y1092000D03*
X1230000Y500000D03*
X1230000Y816000D03*
X1515000Y1140000D03*
X1094000Y986000D03*
X2342000Y986000D03*
X955000Y1090000D03*
X2425000Y1094000D03*
X1988000Y636000D03*
X2240000Y614000D03*
X1957000Y750000D03*
X2270000Y533000D03*
X1541000Y814000D03*
X1543000Y772000D03*
X1647000Y485000D03*
X1767000Y1023000D03*
X1803000Y545000D03*
X1787638Y1006362D03*
X1829000Y501000D03*
X755000Y955000D03*
X1943000Y1218000D03*
X809000Y959000D03*
X1169000Y1351000D03*
X840000Y1016000D03*
X2284000Y1375000D03*
X836000Y695000D03*
X1661000Y1384000D03*
X1089000Y689000D03*
X2680000Y730000D03*
X1808000Y1265000D03*
X2007000Y1236000D03*
X2087000Y1236000D03*
X635000Y438000D03*
X1953000Y655000D03*
X1826000Y423000D03*
X1577000Y498000D03*
X1922000Y303000D03*
X1792000Y208000D03*
X2227000Y880000D03*
X2270000Y750000D03*
X1784000Y258000D03*
X2294000Y1475000D03*
X1062000Y1421000D03*
X609000Y746000D03*
X578000Y1225000D03*
X922000Y1222000D03*
X2432000Y1367000D03*
X1764000Y1438000D03*
X928181Y835819D03*
X750819Y835819D03*
X931000Y992000D03*
X647000Y992000D03*
X1732000Y850000D03*
X2240000Y657000D03*
X2313000Y1475000D03*
X2059000Y827000D03*
X772000Y695000D03*
X1115000Y860000D03*
X804000Y1217000D03*
X594000Y875000D03*
X1037000Y777000D03*
X1203000Y1241000D03*
X350000Y820000D03*
X1150000Y759000D03*
X2167000Y988000D03*
X2448000Y1523000D03*
X2551000Y1525000D03*
X2352000Y1377000D03*
X2370000Y1377000D03*
X2303000Y1519000D03*
X1820000Y830000D03*
X1639000Y1185000D03*
X1302000Y960000D03*
X1478000Y869000D03*
X1651000Y692000D03*
X1728000Y1030000D03*
X1597000Y209000D03*
X1264000Y880000D03*
X1700000Y483000D03*
X2005000Y840000D03*
X1741000Y1228000D03*
X2343000Y1031000D03*
X1915000Y461000D03*
X1232000Y1450000D03*
X2074000Y293000D03*
X2297000Y410000D03*
X2186000Y614000D03*
X2106000Y489000D03*
X1167000Y494000D03*
X1088000Y330000D03*
X1221000Y260000D03*
X1258000Y455000D03*
X2093000Y1319000D03*
X2092000Y1299000D03*
X2143000Y1184000D03*
X2400000Y1192000D03*
X2400000Y1173000D03*
X2487000Y1183000D03*
X1278142Y100000D03*
X2073000Y1499000D03*
X2173000Y1414000D03*
X2548000Y1043000D03*
X530000Y1462000D03*
G54D15*
X2321630Y1448591D03*
X2400370Y1448591D03*
X2321630Y1423000D03*
X2321630Y1397409D03*
X2400370Y1423000D03*
X2400370Y1397409D03*
G54D16*
X2361000Y1423000D03*
G54D17*
X2499000Y1524000D03*
X2499000Y1464000D03*
G54D18*
X2478160Y1518580D02*
X2519840Y1518580D01*
X2519840Y1529420D01*
X2478160Y1529420D01*
X2478160Y1518580D01*D02*
X2478160Y1458580D02*
X2519840Y1458580D01*
X2519840Y1469420D01*
X2478160Y1469420D01*
X2478160Y1458580D01*D02*
X2542580Y966160D02*
X2553420Y966160D01*
X2553420Y1007840D01*
X2542580Y1007840D01*
X2542580Y966160D01*D02*
X2602580Y966160D02*
X2613420Y966160D01*
X2613420Y1007840D01*
X2602580Y1007840D01*
X2602580Y966160D01*D02*
G54D19*
X2483945Y287181D03*
X2543000Y287181D03*
X2602055Y287181D03*
X562819Y186945D03*
X562819Y246000D03*
X562819Y305055D03*
X750819Y187945D03*
X750819Y247000D03*
X750819Y306055D03*
X2604055Y564819D03*
X2545000Y564819D03*
X2485945Y564819D03*
X2426890Y564819D03*
X748945Y1361181D03*
X808000Y1361181D03*
X867055Y1361181D03*
X926110Y1361181D03*
X985165Y1361181D03*
X1044220Y1361181D03*
X2602055Y778819D03*
X2543000Y778819D03*
X2483945Y778819D03*
X2424890Y778819D03*
X941181Y180890D03*
X941181Y239945D03*
X941181Y299000D03*
X941181Y358055D03*
X2629181Y1484055D03*
X2629181Y1425000D03*
X2629181Y1365945D03*
X2629181Y1306890D03*
X2629181Y1247835D03*
X2629181Y1188780D03*
G54D20*
X2011000Y433000D03*
X2011000Y476307D03*
G54D21*
X179167Y207000D03*
X179167Y407000D03*
X179167Y307000D03*
X179167Y107000D03*
X79167Y207000D03*
X79167Y307000D03*
X79167Y107000D03*
X279167Y407000D03*
X279167Y307000D03*
X279167Y207000D03*
X279167Y107000D03*
X179167Y746439D03*
X179167Y946439D03*
X179167Y846439D03*
X179167Y646439D03*
X79167Y746439D03*
X79167Y846439D03*
X79167Y646439D03*
X279167Y946439D03*
X279167Y846439D03*
X279167Y746439D03*
X279167Y646439D03*
X179167Y1285878D03*
X179167Y1485878D03*
X179167Y1385878D03*
X179167Y1185878D03*
X79167Y1285878D03*
X79167Y1385878D03*
X79167Y1185878D03*
X279167Y1485878D03*
X279167Y1385878D03*
X279167Y1285878D03*
X279167Y1185878D03*
X2044000Y82000D03*
X2144000Y82000D03*
X2344000Y82000D03*
X2244000Y82000D03*
X979000Y1517000D03*
X879000Y1517000D03*
X679000Y1517000D03*
X779000Y1517000D03*
G54D22*
X79167Y407000D03*
X79167Y946439D03*
X79167Y1485878D03*
X1944000Y82000D03*
X1079000Y1517000D03*
G54D23*
X68752Y396585D02*
X89582Y396585D01*
X89582Y417415D01*
X68752Y417415D01*
X68752Y396585D01*D02*
X68752Y936024D02*
X89582Y936024D01*
X89582Y956854D01*
X68752Y956854D01*
X68752Y936024D01*D02*
X68752Y1475463D02*
X89582Y1475463D01*
X89582Y1496293D01*
X68752Y1496293D01*
X68752Y1475463D01*D02*
X1933585Y71585D02*
X1954415Y71585D01*
X1954415Y92415D01*
X1933585Y92415D01*
X1933585Y71585D01*D02*
X1068585Y1506585D02*
X1089415Y1506585D01*
X1089415Y1527415D01*
X1068585Y1527415D01*
X1068585Y1506585D01*D02*
G54D24*
X1184472Y415102D03*
X1204157Y415102D03*
X1223843Y415102D03*
X1243528Y415102D03*
X1184472Y552898D03*
X1204157Y552898D03*
X1223843Y552898D03*
X1243528Y552898D03*
G54D25*
X1145102Y474157D03*
X1145102Y454472D03*
X1282898Y474157D03*
X1282898Y454472D03*
X1145102Y493843D03*
X1145102Y513528D03*
X1282898Y493843D03*
X1282898Y513528D03*
G54D26*
X1253000Y1108000D03*
X1191976Y1108000D03*
X1191976Y1145402D03*
X1253000Y1145402D03*
G54D27*
X1708008Y1344000D03*
X1833992Y1344000D03*
G54D28*
X2064000Y1024000D03*
X2002976Y1024000D03*
X2002976Y951000D03*
X2064000Y951000D03*
X480000Y1288976D03*
X480000Y1350000D03*
X580000Y1350000D03*
X580000Y1288976D03*
X2670024Y1065000D03*
X2609000Y1065000D03*
G54D29*
X1643701Y259000D03*
X1643701Y209000D03*
X1856299Y259000D03*
X1856299Y209000D03*
X1643701Y309000D03*
X1856299Y309000D03*
X1643701Y359000D03*
X1856299Y359000D03*
G54D30*
X1136724Y138000D03*
X1227276Y100598D03*
X1227276Y175402D03*
G54D31*
X2078484Y450787D03*
X2078484Y411417D03*
X2078484Y431102D03*
X2201516Y431102D03*
X2201516Y411417D03*
X2201516Y450787D03*
X2078484Y529528D03*
X2078484Y470472D03*
X2078484Y490157D03*
X2078484Y509843D03*
X2201516Y470472D03*
X2201516Y509843D03*
X2201516Y490157D03*
X2201516Y529528D03*
X2078484Y549213D03*
X2078484Y568898D03*
X2078484Y588583D03*
X2201516Y549213D03*
X2201516Y568898D03*
X2201516Y588583D03*
G54D32*
X2110472Y411417D03*
X2149843Y411417D03*
X2130157Y411417D03*
X2169528Y411417D03*
X2110472Y588583D03*
X2149843Y588583D03*
X2130157Y588583D03*
X2169528Y588583D03*
G54D33*
X634547Y639500D03*
X614862Y639500D03*
X673917Y639500D03*
X654232Y639500D03*
X713287Y639500D03*
X693602Y639500D03*
X752657Y639500D03*
X732972Y639500D03*
X792027Y639500D03*
X772342Y639500D03*
X831397Y639500D03*
X811712Y639500D03*
X870767Y639500D03*
X851082Y639500D03*
X910138Y639500D03*
X890453Y639500D03*
X634547Y1092256D03*
X614862Y1092256D03*
X673917Y1092256D03*
X654232Y1092256D03*
X713287Y1092256D03*
X693602Y1092256D03*
X752657Y1092256D03*
X732972Y1092256D03*
X792027Y1092256D03*
X772342Y1092256D03*
X831397Y1092256D03*
X811712Y1092256D03*
X870767Y1092256D03*
X851082Y1092256D03*
X910138Y1092256D03*
X890453Y1092256D03*
X1492362Y633622D03*
X1512047Y633622D03*
X1551417Y633622D03*
X1531732Y633622D03*
X1571102Y633622D03*
X1590787Y633622D03*
X1630157Y633622D03*
X1610472Y633622D03*
X1649843Y633622D03*
X1669528Y633622D03*
X1708898Y633622D03*
X1689213Y633622D03*
X1728583Y633622D03*
X1748268Y633622D03*
X1787638Y633622D03*
X1767953Y633622D03*
X1492362Y1086378D03*
X1512047Y1086378D03*
X1551417Y1086378D03*
X1531732Y1086378D03*
X1571102Y1086378D03*
X1590787Y1086378D03*
X1630157Y1086378D03*
X1610472Y1086378D03*
X1649843Y1086378D03*
X1669528Y1086378D03*
X1708898Y1086378D03*
X1689213Y1086378D03*
X1728583Y1086378D03*
X1748268Y1086378D03*
X1787638Y1086378D03*
X1767953Y1086378D03*
G54D34*
X536122Y718240D03*
X988878Y718240D03*
X536122Y757610D03*
X536122Y796980D03*
X536122Y777295D03*
X536122Y737925D03*
X988878Y757610D03*
X988878Y777295D03*
X988878Y796980D03*
X988878Y737925D03*
X536122Y836350D03*
X536122Y856035D03*
X536122Y875720D03*
X536122Y816665D03*
X988878Y836350D03*
X988878Y856035D03*
X988878Y875720D03*
X988878Y816665D03*
X536122Y915090D03*
X536122Y954460D03*
X536122Y934775D03*
X536122Y895405D03*
X988878Y915090D03*
X988878Y934775D03*
X988878Y954460D03*
X988878Y895405D03*
X536122Y993830D03*
X536122Y1013516D03*
X536122Y974145D03*
X988878Y993830D03*
X988878Y1013516D03*
X988878Y974145D03*
X1413622Y712362D03*
X1866378Y712362D03*
X1413622Y791102D03*
X1413622Y771417D03*
X1413622Y751732D03*
X1413622Y732047D03*
X1866378Y751732D03*
X1866378Y771417D03*
X1866378Y791102D03*
X1866378Y732047D03*
X1413622Y869843D03*
X1413622Y850157D03*
X1413622Y830472D03*
X1413622Y810787D03*
X1866378Y869843D03*
X1866378Y830472D03*
X1866378Y850157D03*
X1866378Y810787D03*
X1413622Y948583D03*
X1413622Y928898D03*
X1413622Y909213D03*
X1413622Y889528D03*
X1866378Y909213D03*
X1866378Y928898D03*
X1866378Y948583D03*
X1866378Y889528D03*
X1413622Y1007638D03*
X1413622Y987953D03*
X1413622Y968268D03*
X1866378Y987953D03*
X1866378Y1007638D03*
X1866378Y968268D03*
G54D35*
X2351630Y1145260D03*
X2371315Y1224000D03*
X2391000Y1224000D03*
X2331945Y1145260D03*
X2371315Y1145260D03*
X2391000Y1145260D03*
X2331945Y1224000D03*
X2351630Y1224000D03*
X2079000Y1273260D03*
X2039630Y1273260D03*
X2079000Y1352000D03*
X2019945Y1273260D03*
X2019945Y1352000D03*
X2039630Y1352000D03*
X2059315Y1352000D03*
X2059315Y1273260D03*
G54D36*
X2361000Y1184000D03*
X2049000Y1312000D03*
G54D37*
X2548000Y987000D03*
X2608000Y987000D03*
G54D38*
X1414409Y1354685D03*
X1388819Y1354685D03*
X1440000Y1354685D03*
X1491181Y1354685D03*
X1465591Y1354685D03*
G54D39*
X1394724Y1460000D03*
X1485276Y1460000D03*
G54D40*
X1292362Y1460000D03*
X1587638Y1460000D03*

M02*
