M48
INCH,TZ
VER,1
FMAT,2
DETECT,ON
ATC,ON
T1C0.02756
T2C0.00787
T3C0.03500
T4C0.03917
T5C0.02362
%
T1
X96706Y153682
X90800
X84894
X78989
X73083
X197294Y6618
X203200
X209106
X215011
X220917
X263218Y148306
Y142400
Y136494
Y130589
X248394Y28718
X254300
X260206
X56282Y18694
Y24600
Y30506
X75082Y18794
Y24700
Y30606
X260406Y56482
X254500
X248594
X242689
X74894Y136118
X80800
X86706
X92611
X98517
X104422
X260206Y77882
X254300
X248394
X242489
X94118Y18089
Y23994
Y29900
Y35806
T2
X112800Y127100
X143800Y130900
X80100Y114300
X115200Y114200
X104800Y71800
X135300Y71100
X71300Y93000
X180600Y92800
X65400Y132600
X73297Y69697
X72000Y146000
X90067Y81667
X87900Y79800
X119300Y73300
X133400Y73500
X92000Y70000
X146600Y65700
X85700Y71500
X84600Y77300
X135700Y77000
X104300Y101200
X168900Y101100
X166800Y42200
X134900Y51700
X131600Y83000
X220917Y106683
X213900Y109200
X217600Y147500
X123000Y50000
Y81600
X151500Y114000
X109400Y98600
X234200
X95500Y109000
X242500Y109400
X198800Y63600
X224000Y61400
X195700Y75000
X227000Y53300
X154100Y81400
X154300Y77200
X164700Y48500
X176700Y102300
X180300Y54500
X178764Y100636
X182900Y50100
X75500Y95500
X194300Y121800
X80900Y95900
X116900Y135100
X84000Y101600
X228400Y137500
X83600Y69500
X166100Y138400
X108900Y68900
X268000Y73000
X180800Y126500
X200700Y123600
X208700
X63500Y43800
X195300Y65500
X182600Y42300
X157700Y49800
X192200Y30300
X179200Y20800
X158600Y28700
X222700Y88000
X92200Y122200
X243200Y136700
X92818Y83582
X75082
X93100Y99200
X63200
X205900Y82700
X173200Y85000
X216200Y148900
X227000Y75000
X224000Y65700
X77200Y69500
X111500Y86000
X80400Y121700
X59400Y87500
X103700Y77700
X120200Y125300
X35000Y82000
X115000Y75900
X244800Y152300
X255100Y152500
X235200Y137700
X237000
X230300Y151900
X182000Y83000
X163900Y118500
X130200Y96000
X147800Y86900
X165100Y69200
X172800Y103000
X159700Y20900
X126400Y88000
X170000Y48300
X200500Y84000
X174100Y122800
X234300Y103100
X191500Y46100
X139300Y151700
X207400Y29300
X229700Y41000
X218600Y61400
X210600Y48900
X116700Y49400
X108800Y33000
X122100Y26000
X125800Y45500
X209300Y131900
X209200Y129900
X214300Y118400
X240000Y119200
Y117300
X248700Y118300
X127200Y10000
X207300Y149900
X217300Y141400
X262600Y97100
X53000Y146200
X216700Y98800
T3
X17917Y20700
Y40700
Y30700
Y10700
X7917Y20700
Y30700
Y10700
X27917Y40700
Y30700
Y20700
Y10700
X17917Y74644
Y94644
Y84644
Y64644
X7917Y74644
Y84644
Y64644
X27917Y94644
Y84644
Y74644
Y64644
X17917Y128588
Y148588
Y138588
Y118588
X7917Y128588
Y138588
Y118588
X27917Y148588
Y138588
Y128588
Y118588
T4
X7917Y40700
Y94644
Y148588
T5
X151874Y137535
X136126
M30
