G04 Generated by Ultiboard 14.1 *
%FSLAX26Y26*%
%MOIN*%

%ADD10C,0.000001*%
%ADD11C,0.005000*%
%ADD12C,0.020000*%
%ADD13C,0.010000*%
%ADD14C,0.040000*%
%ADD15C,0.017717*%
%ADD16C,0.041559*%
%ADD17C,0.063340*%
%ADD18R,0.020830X0.020830*%
%ADD19C,0.039170*%


G04 ColorRGB 0000FF for the following layer *
%LNCopper Bottom*%
%LPD*%
G54D10*
G54D11*
X1128000Y1271000D02*
X1165000Y1308000D01*
X1437000Y1308000D01*
X801000Y1143000D02*
X1151000Y1143000D01*
X713000Y930000D02*
X1804000Y930000D01*
X654000Y1326000D02*
X949984Y1326000D01*
X985165Y1361181D01*
X1193000Y733000D02*
X1332000Y733000D01*
X1054000Y712000D02*
X1352000Y712000D01*
X1054000Y712000D02*
X1048000Y718000D01*
X846000Y773000D02*
X985000Y773000D01*
X1007000Y795000D01*
X1263000Y795000D01*
X1288000Y770000D01*
X1357000Y770000D01*
X1043000Y1012000D02*
X1688000Y1012000D01*
X1152000Y1142000D02*
X1513000Y1142000D01*
X2199000Y986000D02*
X2342000Y986000D01*
X2201000Y986000D02*
X2182000Y967000D01*
X1649000Y967000D01*
X1630000Y986000D01*
X1094000Y986000D01*
X955000Y1090000D02*
X2074000Y1090000D01*
X2101000Y1117000D01*
X2402000Y1117000D01*
X2425000Y1094000D01*
X1988000Y636000D02*
X2218000Y636000D01*
X2240000Y614000D01*
X1541000Y814000D02*
X1782000Y814000D01*
X1799000Y797000D01*
X2387000Y797000D01*
X2411000Y821000D01*
X2441764Y821000D01*
X2483945Y778819D01*
X1543000Y772000D02*
X2361000Y772000D01*
X2410000Y723000D01*
X2487181Y723000D01*
X2543000Y778819D01*
X1803000Y545000D02*
X2243000Y545000D01*
X2254000Y556000D01*
X2319000Y556000D01*
X2363000Y512000D01*
X2433126Y512000D01*
X2485945Y564819D01*
X1829000Y501000D02*
X2035000Y501000D01*
X2051000Y517000D01*
X2162000Y517000D01*
X2188000Y491000D01*
X2508000Y491000D01*
X2545000Y528000D01*
X2545000Y564819D01*
X922000Y1222000D02*
X1680000Y1222000D01*
X1699000Y1203000D01*
X1928000Y1203000D01*
X1943000Y1218000D01*
X1169000Y1351000D02*
X2301000Y1351000D01*
X2315000Y1337000D01*
X2403000Y1337000D01*
X2432500Y1366500D01*
X1661000Y1384000D02*
X2251000Y1384000D01*
X1089000Y689000D02*
X1575000Y689000D01*
X1615000Y729000D01*
X2360000Y729000D01*
X2379000Y710000D01*
X2660000Y710000D01*
X2680000Y730000D01*
X1957000Y750000D02*
X2199000Y750000D01*
X2270000Y750000D01*
X720000Y1460000D02*
X1052000Y1460000D01*
X1079000Y1487000D01*
X1079000Y1517000D01*
X2251000Y1384000D02*
X2273000Y1406000D01*
X2629181Y1306890D02*
X2609110Y1306890D01*
X2510000Y1406000D01*
X2273000Y1406000D02*
X2510000Y1406000D01*
X1065000Y657000D02*
X1466000Y657000D01*
X1022000Y700000D02*
X1065000Y657000D01*
X920000Y700000D02*
X1022000Y700000D01*
X750819Y835819D02*
X928181Y835819D01*
X647000Y992000D02*
X931000Y992000D01*
G54D12*
X748945Y1361181D02*
X615181Y1361181D01*
X495000Y1241000D01*
X495000Y472000D01*
X580000Y387000D01*
X822000Y387000D01*
X850945Y358055D01*
X2689000Y1495000D02*
X2654000Y1530000D01*
X2607000Y1530000D01*
X2552000Y1475000D01*
X2689000Y865764D02*
X2689000Y1495000D01*
X2689000Y865764D02*
X2602055Y778819D01*
X2604055Y564819D02*
X2604055Y471055D01*
X2491055Y358055D01*
X850945Y358055D02*
X2491055Y358055D01*
X2552000Y1475000D02*
X2294000Y1475000D01*
G54D13*
X1750843Y868000D02*
X1731843Y849000D01*
X1808000Y1265000D02*
X1978000Y1265000D01*
X2007000Y1236000D01*
X546000Y1142000D02*
X546000Y527000D01*
X635000Y438000D01*
X2240000Y657000D02*
X1955000Y657000D01*
X1826000Y423000D02*
X1761000Y423000D01*
X1737000Y447000D01*
X1628000Y447000D01*
X1577000Y498000D01*
X1922000Y230000D02*
X1922000Y303000D01*
X546000Y1142000D02*
X662000Y1258000D01*
X843000Y1258000D01*
X1601000Y1163000D02*
X2014000Y1163000D01*
X2087000Y1236000D01*
X2227000Y877000D02*
X2218000Y868000D01*
X1750843Y868000D02*
X2218000Y868000D01*
X899000Y1202000D02*
X1562000Y1202000D01*
X1601000Y1163000D01*
X843000Y1258000D02*
X899000Y1202000D01*
X2044000Y82000D02*
X2044000Y108000D01*
X1922000Y230000D01*
X1764000Y1438000D02*
X1713000Y1438000D01*
X1062000Y1421000D02*
X1696000Y1421000D01*
X1713000Y1438000D02*
X1698000Y1423000D01*
G54D14*
X179167Y107000D02*
X179167Y1485878D01*
G54D15*
X1128000Y1271000D03*
X1438000Y1309000D03*
X801000Y1143000D03*
X1152000Y1142000D03*
X1048000Y718000D03*
X1353000Y711000D03*
X713000Y930000D03*
X1806000Y928000D03*
X654000Y1326000D03*
X732972Y696972D03*
X720000Y1460000D03*
X900665Y816665D03*
X879000Y798000D03*
X1193000Y733000D03*
X1334000Y735000D03*
X920000Y700000D03*
X1466000Y657000D03*
X857000Y715000D03*
X846000Y773000D03*
X1357000Y770000D03*
X1043000Y1012000D03*
X1689000Y1011000D03*
X1668000Y422000D03*
X1349000Y517000D03*
X1316000Y830000D03*
X2209165Y1066835D03*
X2139000Y1092000D03*
X1230000Y500000D03*
X1230000Y816000D03*
X1515000Y1140000D03*
X1094000Y986000D03*
X2342000Y986000D03*
X955000Y1090000D03*
X2425000Y1094000D03*
X1988000Y636000D03*
X2240000Y614000D03*
X1957000Y750000D03*
X2270000Y533000D03*
X1541000Y814000D03*
X1543000Y772000D03*
X1647000Y485000D03*
X1767000Y1023000D03*
X1803000Y545000D03*
X1787638Y1006362D03*
X1829000Y501000D03*
X755000Y955000D03*
X1943000Y1218000D03*
X809000Y959000D03*
X1169000Y1351000D03*
X840000Y1016000D03*
X2284000Y1375000D03*
X836000Y695000D03*
X1661000Y1384000D03*
X1089000Y689000D03*
X2680000Y730000D03*
X1808000Y1265000D03*
X2007000Y1236000D03*
X2087000Y1236000D03*
X635000Y438000D03*
X1953000Y655000D03*
X1826000Y423000D03*
X1577000Y498000D03*
X1922000Y303000D03*
X1792000Y208000D03*
X2227000Y880000D03*
X2270000Y750000D03*
X1784000Y258000D03*
X2294000Y1475000D03*
X1062000Y1421000D03*
X609000Y746000D03*
X578000Y1225000D03*
X922000Y1222000D03*
X2432000Y1367000D03*
X1764000Y1438000D03*
X928181Y835819D03*
X750819Y835819D03*
X931000Y992000D03*
X647000Y992000D03*
X1732000Y850000D03*
X2240000Y657000D03*
X2313000Y1475000D03*
X2059000Y827000D03*
X772000Y695000D03*
X1115000Y860000D03*
X804000Y1217000D03*
X594000Y875000D03*
X1037000Y777000D03*
X1203000Y1241000D03*
X350000Y820000D03*
X1150000Y759000D03*
X2167000Y988000D03*
X2448000Y1523000D03*
X2551000Y1525000D03*
X2352000Y1377000D03*
X2370000Y1377000D03*
X2303000Y1519000D03*
X1820000Y830000D03*
X1639000Y1185000D03*
X1302000Y960000D03*
X1478000Y869000D03*
X1651000Y692000D03*
X1728000Y1030000D03*
X1597000Y209000D03*
X1264000Y880000D03*
X1700000Y483000D03*
X2005000Y840000D03*
X1741000Y1228000D03*
X2343000Y1031000D03*
X1915000Y461000D03*
X1232000Y1450000D03*
X2074000Y293000D03*
X2297000Y410000D03*
X2186000Y614000D03*
X2106000Y489000D03*
X1167000Y494000D03*
X1088000Y330000D03*
X1221000Y260000D03*
X1258000Y455000D03*
X2093000Y1319000D03*
X2092000Y1299000D03*
X2143000Y1184000D03*
X2400000Y1192000D03*
X2400000Y1173000D03*
X2487000Y1183000D03*
X1278142Y100000D03*
X2073000Y1499000D03*
X2173000Y1414000D03*
X2548000Y1043000D03*
X530000Y1462000D03*
G54D16*
X2483945Y287181D03*
X2543000Y287181D03*
X2602055Y287181D03*
X562819Y186945D03*
X562819Y246000D03*
X562819Y305055D03*
X750819Y187945D03*
X750819Y247000D03*
X750819Y306055D03*
X2604055Y564819D03*
X2545000Y564819D03*
X2485945Y564819D03*
X2426890Y564819D03*
X748945Y1361181D03*
X808000Y1361181D03*
X867055Y1361181D03*
X926110Y1361181D03*
X985165Y1361181D03*
X1044220Y1361181D03*
X2602055Y778819D03*
X2543000Y778819D03*
X2483945Y778819D03*
X2424890Y778819D03*
X941181Y180890D03*
X941181Y239945D03*
X941181Y299000D03*
X941181Y358055D03*
X2629181Y1484055D03*
X2629181Y1425000D03*
X2629181Y1365945D03*
X2629181Y1306890D03*
X2629181Y1247835D03*
X2629181Y1188780D03*
G54D17*
X179167Y207000D03*
X179167Y407000D03*
X179167Y307000D03*
X179167Y107000D03*
X79167Y207000D03*
X79167Y307000D03*
X79167Y107000D03*
X279167Y407000D03*
X279167Y307000D03*
X279167Y207000D03*
X279167Y107000D03*
X179167Y746439D03*
X179167Y946439D03*
X179167Y846439D03*
X179167Y646439D03*
X79167Y746439D03*
X79167Y846439D03*
X79167Y646439D03*
X279167Y946439D03*
X279167Y846439D03*
X279167Y746439D03*
X279167Y646439D03*
X179167Y1285878D03*
X179167Y1485878D03*
X179167Y1385878D03*
X179167Y1185878D03*
X79167Y1285878D03*
X79167Y1385878D03*
X79167Y1185878D03*
X279167Y1485878D03*
X279167Y1385878D03*
X279167Y1285878D03*
X279167Y1185878D03*
X2044000Y82000D03*
X2144000Y82000D03*
X2344000Y82000D03*
X2244000Y82000D03*
X979000Y1517000D03*
X879000Y1517000D03*
X679000Y1517000D03*
X779000Y1517000D03*
G54D18*
X79167Y407000D03*
X79167Y946439D03*
X79167Y1485878D03*
X1944000Y82000D03*
X1079000Y1517000D03*
G54D19*
X68752Y396585D02*
X89582Y396585D01*
X89582Y417415D01*
X68752Y417415D01*
X68752Y396585D01*D02*
X68752Y936024D02*
X89582Y936024D01*
X89582Y956854D01*
X68752Y956854D01*
X68752Y936024D01*D02*
X68752Y1475463D02*
X89582Y1475463D01*
X89582Y1496293D01*
X68752Y1496293D01*
X68752Y1475463D01*D02*
X1933585Y71585D02*
X1954415Y71585D01*
X1954415Y92415D01*
X1933585Y92415D01*
X1933585Y71585D01*D02*
X1068585Y1506585D02*
X1089415Y1506585D01*
X1089415Y1527415D01*
X1068585Y1527415D01*
X1068585Y1506585D01*D02*

M02*
