G04 Generated by Ultiboard 14.1 *
%FSLAX26Y26*%
%MOIN*%

%ADD10C,0.000001*%
%ADD11C,0.006000*%
%ADD12C,0.007000*%
%ADD13C,0.000039*%
%ADD14C,0.008000*%
%ADD15C,0.010000*%
%ADD16C,0.009843*%
%ADD17C,0.007874*%
%ADD18C,0.019685*%
%ADD19C,0.01414*%
%ADD20C,0.02236*%
%ADD21C,0.06604*%


G04 ColorRGB FFFF00 for the following layer *
%LNSilkscreen Top*%
%LPD*%
G54D10*
G54D11*
X759049Y1216429D02*
X754498Y1211857D01*
X749947Y1211857D01*
X745396Y1216429D01*
X745396Y1230143D01*
X749947Y1234714D01*
X754498Y1234714D01*
X759049Y1230143D01*
X765876Y1216429D02*
X770427Y1211857D01*
X774978Y1211857D01*
X779529Y1216429D01*
X779529Y1225571D01*
X779529Y1230143D01*
X774978Y1234714D01*
X770427Y1234714D01*
X765876Y1230143D01*
X765876Y1225571D01*
X770427Y1221000D01*
X774978Y1221000D01*
X779529Y1225571D01*
X720000Y1202000D02*
X800000Y1202000D01*
X800000Y1158723D01*
X720000Y1158723D01*
X720000Y1202000D01*
X1116429Y891191D02*
X1111857Y895742D01*
X1111857Y900293D01*
X1116429Y904844D01*
X1130143Y904844D01*
X1134714Y900293D01*
X1134714Y895742D01*
X1130143Y891191D01*
X1130143Y882089D02*
X1134714Y877538D01*
X1111857Y877538D01*
X1111857Y884364D02*
X1111857Y870711D01*
X1132429Y861609D02*
X1134714Y859333D01*
X1134714Y854782D01*
X1130143Y850231D01*
X1125571Y850231D01*
X1123286Y852507D01*
X1121000Y850231D01*
X1116429Y850231D01*
X1111857Y854782D01*
X1111857Y859333D01*
X1114143Y861609D01*
X1123286Y859333D02*
X1123286Y852507D01*
X1102000Y920000D02*
X1058723Y920000D01*
X1058723Y840000D01*
X1102000Y840000D01*
X1102000Y920000D01*
X1088809Y796429D02*
X1084258Y791857D01*
X1079707Y791857D01*
X1075156Y796429D01*
X1075156Y810143D01*
X1079707Y814714D01*
X1084258Y814714D01*
X1088809Y810143D01*
X1097911Y810143D02*
X1102462Y814714D01*
X1102462Y791857D01*
X1095636Y791857D02*
X1109289Y791857D01*
X1116116Y810143D02*
X1120667Y814714D01*
X1125218Y814714D01*
X1129769Y810143D01*
X1129769Y807857D01*
X1116116Y791857D01*
X1129769Y791857D01*
X1129769Y794143D01*
X1060000Y782000D02*
X1140000Y782000D01*
X1140000Y738723D01*
X1060000Y738723D01*
X1060000Y782000D01*
X1608809Y1196429D02*
X1604258Y1191857D01*
X1599707Y1191857D01*
X1595156Y1196429D01*
X1595156Y1210143D01*
X1599707Y1214714D01*
X1604258Y1214714D01*
X1608809Y1210143D01*
X1615636Y1210143D02*
X1620187Y1214714D01*
X1624738Y1214714D01*
X1629289Y1210143D01*
X1629289Y1207857D01*
X1615636Y1191857D01*
X1629289Y1191857D01*
X1629289Y1194143D01*
X1638391Y1210143D02*
X1642942Y1214714D01*
X1642942Y1191857D01*
X1636116Y1191857D02*
X1649769Y1191857D01*
X1580000Y1182000D02*
X1660000Y1182000D01*
X1660000Y1138723D01*
X1580000Y1138723D01*
X1580000Y1182000D01*
X1948809Y876429D02*
X1944258Y871857D01*
X1939707Y871857D01*
X1935156Y876429D01*
X1935156Y890143D01*
X1939707Y894714D01*
X1944258Y894714D01*
X1948809Y890143D01*
X1955636Y890143D02*
X1960187Y894714D01*
X1964738Y894714D01*
X1969289Y890143D01*
X1969289Y887857D01*
X1955636Y871857D01*
X1969289Y871857D01*
X1969289Y874143D01*
X1976116Y890143D02*
X1980667Y894714D01*
X1985218Y894714D01*
X1989769Y890143D01*
X1989769Y876429D01*
X1985218Y871857D01*
X1980667Y871857D01*
X1976116Y876429D01*
X1976116Y890143D01*
X1989769Y890143D02*
X1976116Y876429D01*
X1920000Y862000D02*
X2000000Y862000D01*
X2000000Y818723D01*
X1920000Y818723D01*
X1920000Y862000D01*
X2296429Y440191D02*
X2291857Y444742D01*
X2291857Y449293D01*
X2296429Y453844D01*
X2310143Y453844D01*
X2314714Y449293D01*
X2314714Y444742D01*
X2310143Y440191D01*
X2310143Y433364D02*
X2314714Y428813D01*
X2314714Y424262D01*
X2310143Y419711D01*
X2307857Y419711D01*
X2291857Y433364D01*
X2291857Y419711D01*
X2294143Y419711D01*
X2291857Y406058D02*
X2303286Y406058D01*
X2310143Y399231D01*
X2314714Y399231D01*
X2314714Y412884D01*
X2310143Y412884D01*
X2282000Y469000D02*
X2238723Y469000D01*
X2238723Y389000D01*
X2282000Y389000D01*
X2282000Y469000D01*
X1985143Y541156D02*
X1962286Y541156D01*
X1962286Y550258D01*
X1966857Y554809D01*
X1969143Y554809D01*
X1973714Y550258D01*
X1973714Y541156D01*
X1973714Y543431D02*
X1985143Y554809D01*
X1966857Y563911D02*
X1962286Y568462D01*
X1985143Y568462D01*
X1985143Y561636D02*
X1985143Y575289D01*
X1966857Y582116D02*
X1962286Y586667D01*
X1962286Y591218D01*
X1966857Y595769D01*
X1969143Y595769D01*
X1985143Y582116D01*
X1985143Y595769D01*
X1982857Y595769D01*
X1996000Y526000D02*
X2039277Y526000D01*
X2039277Y606000D01*
X1996000Y606000D01*
X1996000Y526000D01*
X2167929Y1276429D02*
X2163378Y1271857D01*
X2158827Y1271857D01*
X2154276Y1276429D01*
X2154276Y1290143D01*
X2158827Y1294714D01*
X2163378Y1294714D01*
X2167929Y1290143D01*
X2174756Y1290143D02*
X2179307Y1294714D01*
X2183858Y1294714D01*
X2188409Y1290143D01*
X2188409Y1287857D01*
X2174756Y1271857D01*
X2188409Y1271857D01*
X2188409Y1274143D01*
X2114000Y1262000D02*
X2194000Y1262000D01*
X2194000Y1218723D01*
X2114000Y1218723D01*
X2114000Y1262000D01*
X1931396Y1451857D02*
X1931396Y1474714D01*
X1940498Y1474714D01*
X1945049Y1470143D01*
X1945049Y1467857D01*
X1940498Y1463286D01*
X1931396Y1463286D01*
X1933671Y1463286D02*
X1945049Y1451857D01*
X1954151Y1470143D02*
X1958702Y1474714D01*
X1958702Y1451857D01*
X1951876Y1451857D02*
X1965529Y1451857D01*
X1906000Y1441000D02*
X1986000Y1441000D01*
X1986000Y1397723D01*
X1906000Y1397723D01*
X1906000Y1441000D01*
X2575857Y917844D02*
X2598714Y917844D01*
X2598714Y908742D01*
X2594143Y904191D01*
X2591857Y904191D01*
X2587286Y908742D01*
X2587286Y917844D01*
X2587286Y915569D02*
X2575857Y904191D01*
X2594143Y895089D02*
X2598714Y890538D01*
X2575857Y890538D01*
X2575857Y897364D02*
X2575857Y883711D01*
X2598714Y865507D02*
X2598714Y872333D01*
X2594143Y876884D01*
X2585000Y876884D01*
X2580429Y876884D01*
X2575857Y872333D01*
X2575857Y867782D01*
X2580429Y863231D01*
X2585000Y863231D01*
X2589571Y867782D01*
X2589571Y872333D01*
X2585000Y876884D01*
X2565000Y933000D02*
X2521723Y933000D01*
X2521723Y853000D01*
X2565000Y853000D01*
X2565000Y933000D01*
X2036571Y1447049D02*
X2041143Y1442498D01*
X2041143Y1437947D01*
X2036571Y1433396D01*
X2022857Y1433396D01*
X2018286Y1437947D01*
X2018286Y1442498D01*
X2022857Y1447049D01*
X2018286Y1465253D02*
X2018286Y1458427D01*
X2022857Y1453876D01*
X2032000Y1453876D01*
X2036571Y1453876D01*
X2041143Y1458427D01*
X2041143Y1462978D01*
X2036571Y1467529D01*
X2032000Y1467529D01*
X2027429Y1462978D01*
X2027429Y1458427D01*
X2032000Y1453876D01*
X2051000Y1408000D02*
X2094277Y1408000D01*
X2094277Y1488000D01*
X2051000Y1488000D01*
X2051000Y1408000D01*
X1458857Y554844D02*
X1481714Y554844D01*
X1481714Y545742D01*
X1477143Y541191D01*
X1474857Y541191D01*
X1470286Y545742D01*
X1470286Y554844D01*
X1470286Y552569D02*
X1458857Y541191D01*
X1477143Y532089D02*
X1481714Y527538D01*
X1458857Y527538D01*
X1458857Y534364D02*
X1458857Y520711D01*
X1477143Y513884D02*
X1481714Y509333D01*
X1481714Y504782D01*
X1477143Y500231D01*
X1463429Y500231D01*
X1458857Y504782D01*
X1458857Y509333D01*
X1463429Y513884D01*
X1477143Y513884D01*
X1477143Y500231D02*
X1463429Y513884D01*
X1448000Y570000D02*
X1404723Y570000D01*
X1404723Y490000D01*
X1448000Y490000D01*
X1448000Y570000D01*
X1786571Y1165929D02*
X1791143Y1161378D01*
X1791143Y1156827D01*
X1786571Y1152276D01*
X1772857Y1152276D01*
X1768286Y1156827D01*
X1768286Y1161378D01*
X1772857Y1165929D01*
X1772857Y1172756D02*
X1768286Y1177307D01*
X1768286Y1181858D01*
X1772857Y1186409D01*
X1775143Y1186409D01*
X1791143Y1172756D01*
X1791143Y1186409D01*
X1788857Y1186409D01*
X1772857Y1193236D02*
X1768286Y1197787D01*
X1768286Y1202338D01*
X1772857Y1206889D01*
X1775143Y1206889D01*
X1791143Y1193236D01*
X1791143Y1206889D01*
X1788857Y1206889D01*
X1718000Y1140000D02*
X1761277Y1140000D01*
X1761277Y1220000D01*
X1718000Y1220000D01*
X1718000Y1140000D01*
X2108429Y1154071D02*
X2103857Y1158622D01*
X2103857Y1163173D01*
X2108429Y1167724D01*
X2122143Y1167724D01*
X2126714Y1163173D01*
X2126714Y1158622D01*
X2122143Y1154071D01*
X2124429Y1144969D02*
X2126714Y1142693D01*
X2126714Y1138142D01*
X2122143Y1133591D01*
X2117571Y1133591D01*
X2115286Y1135867D01*
X2113000Y1133591D01*
X2108429Y1133591D01*
X2103857Y1138142D01*
X2103857Y1142693D01*
X2106143Y1144969D01*
X2115286Y1142693D02*
X2115286Y1135867D01*
X2093000Y1210000D02*
X2049723Y1210000D01*
X2049723Y1130000D01*
X2093000Y1130000D01*
X2093000Y1210000D01*
X2203276Y1359857D02*
X2203276Y1382714D01*
X2212378Y1382714D01*
X2216929Y1378143D01*
X2216929Y1375857D01*
X2212378Y1371286D01*
X2203276Y1371286D01*
X2205551Y1371286D02*
X2216929Y1359857D01*
X2230582Y1359857D02*
X2230582Y1371286D01*
X2237409Y1378143D01*
X2237409Y1382714D01*
X2223756Y1382714D01*
X2223756Y1378143D01*
X2186000Y1436000D02*
X2266000Y1436000D01*
X2266000Y1392723D01*
X2186000Y1392723D01*
X2186000Y1436000D01*
X2225571Y1490929D02*
X2230143Y1486378D01*
X2230143Y1481827D01*
X2225571Y1477276D01*
X2211857Y1477276D01*
X2207286Y1481827D01*
X2207286Y1486378D01*
X2211857Y1490929D01*
X2211857Y1500031D02*
X2207286Y1504582D01*
X2230143Y1504582D01*
X2230143Y1497756D02*
X2230143Y1511409D01*
X2230143Y1527338D02*
X2230143Y1522787D01*
X2225571Y1518236D01*
X2221000Y1518236D01*
X2218714Y1520511D01*
X2216429Y1518236D01*
X2211857Y1518236D01*
X2207286Y1522787D01*
X2207286Y1527338D01*
X2211857Y1531889D01*
X2216429Y1531889D01*
X2218714Y1529613D01*
X2221000Y1531889D01*
X2225571Y1531889D01*
X2230143Y1527338D01*
X2218714Y1520511D02*
X2218714Y1529613D01*
X2245000Y1454000D02*
X2288277Y1454000D01*
X2288277Y1534000D01*
X2245000Y1534000D01*
X2245000Y1454000D01*
X2343276Y1352714D02*
X2343276Y1334429D01*
X2347827Y1329857D01*
X2352378Y1329857D01*
X2356929Y1334429D01*
X2356929Y1352714D01*
X2363756Y1334429D02*
X2368307Y1329857D01*
X2372858Y1329857D01*
X2377409Y1334429D01*
X2377409Y1343571D01*
X2377409Y1348143D01*
X2372858Y1352714D01*
X2368307Y1352714D01*
X2363756Y1348143D01*
X2363756Y1343571D01*
X2368307Y1339000D01*
X2372858Y1339000D01*
X2377409Y1343571D01*
X2564571Y1444929D02*
X2569143Y1440378D01*
X2569143Y1435827D01*
X2564571Y1431276D01*
X2550857Y1431276D01*
X2546286Y1435827D01*
X2546286Y1440378D01*
X2550857Y1444929D01*
X2548571Y1454031D02*
X2546286Y1456307D01*
X2546286Y1460858D01*
X2550857Y1465409D01*
X2555429Y1465409D01*
X2557714Y1463133D01*
X2560000Y1465409D01*
X2564571Y1465409D01*
X2569143Y1460858D01*
X2569143Y1456307D01*
X2566857Y1454031D01*
X2557714Y1456307D02*
X2557714Y1463133D01*
X2560000Y1485889D02*
X2560000Y1472236D01*
X2546286Y1483613D01*
X2569143Y1483613D01*
X2569143Y1481338D02*
X2569143Y1485889D01*
X2415857Y921724D02*
X2438714Y921724D01*
X2438714Y912622D01*
X2434143Y908071D01*
X2431857Y908071D01*
X2427286Y912622D01*
X2427286Y921724D01*
X2427286Y919449D02*
X2415857Y908071D01*
X2434143Y898969D02*
X2438714Y894418D01*
X2415857Y894418D01*
X2415857Y901244D02*
X2415857Y887591D01*
X2415857Y873938D02*
X2427286Y873938D01*
X2434143Y867111D01*
X2438714Y867111D01*
X2438714Y880764D01*
X2434143Y880764D01*
X2497000Y932000D02*
X2453723Y932000D01*
X2453723Y852000D01*
X2497000Y852000D01*
X2497000Y932000D01*
X2495929Y1084429D02*
X2491378Y1079857D01*
X2486827Y1079857D01*
X2482276Y1084429D01*
X2482276Y1098143D01*
X2486827Y1102714D01*
X2491378Y1102714D01*
X2495929Y1098143D01*
X2516409Y1089000D02*
X2502756Y1089000D01*
X2514133Y1102714D01*
X2514133Y1079857D01*
X2511858Y1079857D02*
X2516409Y1079857D01*
X2428000Y1164000D02*
X2508000Y1164000D01*
X2508000Y1120723D01*
X2428000Y1120723D01*
X2428000Y1164000D01*
X2357276Y299429D02*
X2361827Y294857D01*
X2366378Y294857D01*
X2370929Y299429D01*
X2370929Y317714D01*
X2380031Y313143D02*
X2384582Y317714D01*
X2384582Y294857D01*
X2377756Y294857D02*
X2391409Y294857D01*
X2400511Y315429D02*
X2402787Y317714D01*
X2407338Y317714D01*
X2411889Y313143D01*
X2411889Y308571D01*
X2409613Y306286D01*
X2411889Y304000D01*
X2411889Y299429D01*
X2407338Y294857D01*
X2402787Y294857D01*
X2400511Y297143D01*
X2402787Y306286D02*
X2409613Y306286D01*
X2424890Y236000D02*
X2661110Y236000D01*
X2661110Y373795D01*
X2424890Y373795D01*
X2424890Y236000D01*
X2000286Y370276D02*
X2023143Y383929D01*
X2023143Y370276D02*
X2000286Y383929D01*
X2004857Y390756D02*
X2000286Y395307D01*
X2000286Y399858D01*
X2004857Y404409D01*
X2007143Y404409D01*
X2023143Y390756D01*
X2023143Y404409D01*
X2020857Y404409D01*
X2195929Y285429D02*
X2191378Y280857D01*
X2186827Y280857D01*
X2182276Y285429D01*
X2182276Y299143D01*
X2186827Y303714D01*
X2191378Y303714D01*
X2195929Y299143D01*
X2202756Y299143D02*
X2207307Y303714D01*
X2211858Y303714D01*
X2216409Y299143D01*
X2216409Y296857D01*
X2202756Y280857D01*
X2216409Y280857D01*
X2216409Y283143D01*
X2223236Y285429D02*
X2227787Y280857D01*
X2232338Y280857D01*
X2236889Y285429D01*
X2236889Y294571D01*
X2236889Y299143D01*
X2232338Y303714D01*
X2227787Y303714D01*
X2223236Y299143D01*
X2223236Y294571D01*
X2227787Y290000D01*
X2232338Y290000D01*
X2236889Y294571D01*
X2091667Y314000D02*
X2171667Y314000D01*
X2171667Y270723D01*
X2091667Y270723D01*
X2091667Y314000D01*
X1950929Y301429D02*
X1946378Y296857D01*
X1941827Y296857D01*
X1937276Y301429D01*
X1937276Y315143D01*
X1941827Y319714D01*
X1946378Y319714D01*
X1950929Y315143D01*
X1960031Y317429D02*
X1962307Y319714D01*
X1966858Y319714D01*
X1971409Y315143D01*
X1971409Y310571D01*
X1969133Y308286D01*
X1971409Y306000D01*
X1971409Y301429D01*
X1966858Y296857D01*
X1962307Y296857D01*
X1960031Y299143D01*
X1962307Y308286D02*
X1969133Y308286D01*
X1980511Y317429D02*
X1982787Y319714D01*
X1987338Y319714D01*
X1991889Y315143D01*
X1991889Y310571D01*
X1989613Y308286D01*
X1991889Y306000D01*
X1991889Y301429D01*
X1987338Y296857D01*
X1982787Y296857D01*
X1980511Y299143D01*
X1982787Y308286D02*
X1989613Y308286D01*
X1903000Y379000D02*
X1983000Y379000D01*
X1983000Y335723D01*
X1903000Y335723D01*
X1903000Y379000D01*
X1847929Y418429D02*
X1843378Y413857D01*
X1838827Y413857D01*
X1834276Y418429D01*
X1834276Y432143D01*
X1838827Y436714D01*
X1843378Y436714D01*
X1847929Y432143D01*
X1857031Y434429D02*
X1859307Y436714D01*
X1863858Y436714D01*
X1868409Y432143D01*
X1868409Y427571D01*
X1866133Y425286D01*
X1868409Y423000D01*
X1868409Y418429D01*
X1863858Y413857D01*
X1859307Y413857D01*
X1857031Y416143D01*
X1859307Y425286D02*
X1866133Y425286D01*
X1877511Y432143D02*
X1882062Y436714D01*
X1882062Y413857D01*
X1875236Y413857D02*
X1888889Y413857D01*
X1895000Y448000D02*
X1975000Y448000D01*
X1975000Y404723D01*
X1895000Y404723D01*
X1895000Y448000D01*
X1265429Y992071D02*
X1260857Y996622D01*
X1260857Y1001173D01*
X1265429Y1005724D01*
X1279143Y1005724D01*
X1283714Y1001173D01*
X1283714Y996622D01*
X1279143Y992071D01*
X1279143Y982969D02*
X1283714Y978418D01*
X1260857Y978418D01*
X1260857Y985244D02*
X1260857Y971591D01*
X1270000Y951111D02*
X1270000Y964764D01*
X1283714Y953387D01*
X1260857Y953387D01*
X1260857Y955662D02*
X1260857Y951111D01*
X1362000Y1020000D02*
X1318723Y1020000D01*
X1318723Y940000D01*
X1362000Y940000D01*
X1362000Y1020000D01*
X1596929Y504429D02*
X1592378Y499857D01*
X1587827Y499857D01*
X1583276Y504429D01*
X1583276Y518143D01*
X1587827Y522714D01*
X1592378Y522714D01*
X1596929Y518143D01*
X1606031Y518143D02*
X1610582Y522714D01*
X1610582Y499857D01*
X1603756Y499857D02*
X1617409Y499857D01*
X1635613Y522714D02*
X1628787Y522714D01*
X1624236Y518143D01*
X1624236Y509000D01*
X1624236Y504429D01*
X1628787Y499857D01*
X1633338Y499857D01*
X1637889Y504429D01*
X1637889Y509000D01*
X1633338Y513571D01*
X1628787Y513571D01*
X1624236Y509000D01*
X1560000Y582000D02*
X1640000Y582000D01*
X1640000Y538723D01*
X1560000Y538723D01*
X1560000Y582000D01*
X1740429Y547071D02*
X1735857Y551622D01*
X1735857Y556173D01*
X1740429Y560724D01*
X1754143Y560724D01*
X1758714Y556173D01*
X1758714Y551622D01*
X1754143Y547071D01*
X1754143Y537969D02*
X1758714Y533418D01*
X1735857Y533418D01*
X1735857Y540244D02*
X1735857Y526591D01*
X1735857Y512938D02*
X1747286Y512938D01*
X1754143Y506111D01*
X1758714Y506111D01*
X1758714Y519764D01*
X1754143Y519764D01*
X1722000Y580000D02*
X1678723Y580000D01*
X1678723Y500000D01*
X1722000Y500000D01*
X1722000Y580000D01*
X648857Y550724D02*
X671714Y550724D01*
X671714Y541622D01*
X667143Y537071D01*
X664857Y537071D01*
X660286Y541622D01*
X660286Y550724D01*
X660286Y548449D02*
X648857Y537071D01*
X667143Y530244D02*
X671714Y525693D01*
X671714Y521142D01*
X667143Y516591D01*
X664857Y516591D01*
X648857Y530244D01*
X648857Y516591D01*
X651143Y516591D01*
X730000Y574000D02*
X686723Y574000D01*
X686723Y494000D01*
X730000Y494000D01*
X730000Y574000D01*
X1029429Y517071D02*
X1024857Y521622D01*
X1024857Y526173D01*
X1029429Y530724D01*
X1043143Y530724D01*
X1047714Y526173D01*
X1047714Y521622D01*
X1043143Y517071D01*
X1043143Y510244D02*
X1047714Y505693D01*
X1047714Y501142D01*
X1043143Y496591D01*
X1040857Y496591D01*
X1024857Y510244D01*
X1024857Y496591D01*
X1027143Y496591D01*
X1034000Y476111D02*
X1034000Y489764D01*
X1047714Y478387D01*
X1024857Y478387D01*
X1024857Y480662D02*
X1024857Y476111D01*
X1104000Y543000D02*
X1060723Y543000D01*
X1060723Y463000D01*
X1104000Y463000D01*
X1104000Y543000D01*
X1042429Y386071D02*
X1037857Y390622D01*
X1037857Y395173D01*
X1042429Y399724D01*
X1056143Y399724D01*
X1060714Y395173D01*
X1060714Y390622D01*
X1056143Y386071D01*
X1056143Y379244D02*
X1060714Y374693D01*
X1060714Y370142D01*
X1056143Y365591D01*
X1053857Y365591D01*
X1037857Y379244D01*
X1037857Y365591D01*
X1040143Y365591D01*
X1060714Y345111D02*
X1060714Y358764D01*
X1051571Y358764D01*
X1051571Y349662D01*
X1047000Y345111D01*
X1042429Y345111D01*
X1037857Y349662D01*
X1037857Y358764D01*
X1111000Y423000D02*
X1067723Y423000D01*
X1067723Y343000D01*
X1111000Y343000D01*
X1111000Y423000D01*
X1109929Y278429D02*
X1105378Y273857D01*
X1100827Y273857D01*
X1096276Y278429D01*
X1096276Y292143D01*
X1100827Y296714D01*
X1105378Y296714D01*
X1109929Y292143D01*
X1116756Y292143D02*
X1121307Y296714D01*
X1125858Y296714D01*
X1130409Y292143D01*
X1130409Y289857D01*
X1116756Y273857D01*
X1130409Y273857D01*
X1130409Y276143D01*
X1148613Y296714D02*
X1141787Y296714D01*
X1137236Y292143D01*
X1137236Y283000D01*
X1137236Y278429D01*
X1141787Y273857D01*
X1146338Y273857D01*
X1150889Y278429D01*
X1150889Y283000D01*
X1146338Y287571D01*
X1141787Y287571D01*
X1137236Y283000D01*
X1162000Y318000D02*
X1242000Y318000D01*
X1242000Y274723D01*
X1162000Y274723D01*
X1162000Y318000D01*
X1261929Y345429D02*
X1257378Y340857D01*
X1252827Y340857D01*
X1248276Y345429D01*
X1248276Y359143D01*
X1252827Y363714D01*
X1257378Y363714D01*
X1261929Y359143D01*
X1268756Y359143D02*
X1273307Y363714D01*
X1277858Y363714D01*
X1282409Y359143D01*
X1282409Y356857D01*
X1268756Y340857D01*
X1282409Y340857D01*
X1282409Y343143D01*
X1291511Y361429D02*
X1293787Y363714D01*
X1298338Y363714D01*
X1302889Y359143D01*
X1302889Y354571D01*
X1300613Y352286D01*
X1302889Y350000D01*
X1302889Y345429D01*
X1298338Y340857D01*
X1293787Y340857D01*
X1291511Y343143D01*
X1293787Y352286D02*
X1300613Y352286D01*
X1162000Y376000D02*
X1242000Y376000D01*
X1242000Y332723D01*
X1162000Y332723D01*
X1162000Y376000D01*
X1382857Y456724D02*
X1405714Y456724D01*
X1405714Y447622D01*
X1401143Y443071D01*
X1398857Y443071D01*
X1394286Y447622D01*
X1394286Y456724D01*
X1394286Y454449D02*
X1382857Y443071D01*
X1401143Y433969D02*
X1405714Y429418D01*
X1382857Y429418D01*
X1382857Y436244D02*
X1382857Y422591D01*
X1401143Y413489D02*
X1405714Y408938D01*
X1382857Y408938D01*
X1382857Y415764D02*
X1382857Y402111D01*
X1371000Y504000D02*
X1327723Y504000D01*
X1327723Y424000D01*
X1371000Y424000D01*
X1371000Y504000D01*
X483355Y400702D02*
X487906Y396130D01*
X492457Y396130D01*
X497008Y400702D01*
X497008Y418987D01*
X503835Y414416D02*
X508386Y418987D01*
X512937Y418987D01*
X517488Y414416D01*
X517488Y412130D01*
X503835Y396130D01*
X517488Y396130D01*
X517488Y398416D01*
X614000Y127890D02*
X476205Y127890D01*
X476205Y364110D01*
X614000Y364110D01*
X614000Y127890D01*
X671796Y401909D02*
X676347Y397337D01*
X680898Y397337D01*
X685449Y401909D01*
X685449Y420194D01*
X694551Y417909D02*
X696827Y420194D01*
X701378Y420194D01*
X705929Y415623D01*
X705929Y411051D01*
X703653Y408766D01*
X705929Y406480D01*
X705929Y401909D01*
X701378Y397337D01*
X696827Y397337D01*
X694551Y399623D01*
X696827Y408766D02*
X703653Y408766D01*
X802000Y128890D02*
X664205Y128890D01*
X664205Y365110D01*
X802000Y365110D01*
X802000Y128890D01*
X2112489Y176429D02*
X2107938Y171857D01*
X2103387Y171857D01*
X2098836Y176429D01*
X2098836Y190143D01*
X2103387Y194714D01*
X2107938Y194714D01*
X2112489Y190143D01*
X2119316Y190143D02*
X2123867Y194714D01*
X2128418Y194714D01*
X2132969Y190143D01*
X2132969Y187857D01*
X2119316Y171857D01*
X2132969Y171857D01*
X2132969Y174143D01*
X2148898Y171857D02*
X2144347Y171857D01*
X2139796Y176429D01*
X2139796Y181000D01*
X2142071Y183286D01*
X2139796Y185571D01*
X2139796Y190143D01*
X2144347Y194714D01*
X2148898Y194714D01*
X2153449Y190143D01*
X2153449Y185571D01*
X2151173Y183286D01*
X2153449Y181000D01*
X2153449Y176429D01*
X2148898Y171857D01*
X2142071Y183286D02*
X2151173Y183286D01*
X2171667Y210000D02*
X2091667Y210000D01*
X2091667Y253277D01*
X2171667Y253277D01*
X2171667Y210000D01*
X2198929Y343429D02*
X2194378Y338857D01*
X2189827Y338857D01*
X2185276Y343429D01*
X2185276Y357143D01*
X2189827Y361714D01*
X2194378Y361714D01*
X2198929Y357143D01*
X2208031Y359429D02*
X2210307Y361714D01*
X2214858Y361714D01*
X2219409Y357143D01*
X2219409Y352571D01*
X2217133Y350286D01*
X2219409Y348000D01*
X2219409Y343429D01*
X2214858Y338857D01*
X2210307Y338857D01*
X2208031Y341143D01*
X2210307Y350286D02*
X2217133Y350286D01*
X2226236Y357143D02*
X2230787Y361714D01*
X2235338Y361714D01*
X2239889Y357143D01*
X2239889Y343429D01*
X2235338Y338857D01*
X2230787Y338857D01*
X2226236Y343429D01*
X2226236Y357143D01*
X2239889Y357143D02*
X2226236Y343429D01*
X2171667Y330000D02*
X2091667Y330000D01*
X2091667Y373277D01*
X2171667Y373277D01*
X2171667Y330000D01*
X1190276Y472714D02*
X1190276Y454429D01*
X1194827Y449857D01*
X1199378Y449857D01*
X1203929Y454429D01*
X1203929Y472714D01*
X1224409Y459000D02*
X1210756Y459000D01*
X1222133Y472714D01*
X1222133Y449857D01*
X1219858Y449857D02*
X1224409Y449857D01*
X1840929Y480429D02*
X1836378Y475857D01*
X1831827Y475857D01*
X1827276Y480429D01*
X1827276Y494143D01*
X1831827Y498714D01*
X1836378Y498714D01*
X1840929Y494143D01*
X1850031Y496429D02*
X1852307Y498714D01*
X1856858Y498714D01*
X1861409Y494143D01*
X1861409Y489571D01*
X1859133Y487286D01*
X1861409Y485000D01*
X1861409Y480429D01*
X1856858Y475857D01*
X1852307Y475857D01*
X1850031Y478143D01*
X1852307Y487286D02*
X1859133Y487286D01*
X1868236Y494143D02*
X1872787Y498714D01*
X1877338Y498714D01*
X1881889Y494143D01*
X1881889Y491857D01*
X1868236Y475857D01*
X1881889Y475857D01*
X1881889Y478143D01*
X1974000Y472723D02*
X1894000Y472723D01*
X1894000Y516000D01*
X1974000Y516000D01*
X1974000Y472723D01*
X2582836Y448429D02*
X2587387Y443857D01*
X2591938Y443857D01*
X2596489Y448429D01*
X2596489Y466714D01*
X2605591Y462143D02*
X2610142Y466714D01*
X2610142Y443857D01*
X2603316Y443857D02*
X2616969Y443857D01*
X2623796Y462143D02*
X2628347Y466714D01*
X2632898Y466714D01*
X2637449Y462143D01*
X2637449Y448429D01*
X2632898Y443857D01*
X2628347Y443857D01*
X2623796Y448429D01*
X2623796Y462143D01*
X2637449Y462143D02*
X2623796Y448429D01*
X2663110Y616000D02*
X2367835Y616000D01*
X2367835Y478205D01*
X2663110Y478205D01*
X2663110Y616000D01*
X785489Y509429D02*
X780938Y504857D01*
X776387Y504857D01*
X771836Y509429D01*
X771836Y523143D01*
X776387Y527714D01*
X780938Y527714D01*
X785489Y523143D01*
X794591Y523143D02*
X799142Y527714D01*
X799142Y504857D01*
X792316Y504857D02*
X805969Y504857D01*
X815071Y523143D02*
X819622Y527714D01*
X819622Y504857D01*
X812796Y504857D02*
X826449Y504857D01*
X820000Y538000D02*
X740000Y538000D01*
X740000Y581277D01*
X820000Y581277D01*
X820000Y538000D01*
X2184836Y673857D02*
X2184836Y696714D01*
X2193938Y696714D01*
X2198489Y692143D01*
X2198489Y689857D01*
X2193938Y685286D01*
X2184836Y685286D01*
X2187111Y685286D02*
X2198489Y673857D01*
X2207591Y692143D02*
X2212142Y696714D01*
X2212142Y673857D01*
X2205316Y673857D02*
X2218969Y673857D01*
X2228071Y694429D02*
X2230347Y696714D01*
X2234898Y696714D01*
X2239449Y692143D01*
X2239449Y687571D01*
X2237173Y685286D01*
X2239449Y683000D01*
X2239449Y678429D01*
X2234898Y673857D01*
X2230347Y673857D01*
X2228071Y676143D01*
X2230347Y685286D02*
X2237173Y685286D01*
X2174000Y635000D02*
X2094000Y635000D01*
X2094000Y678277D01*
X2174000Y678277D01*
X2174000Y635000D01*
X381929Y801429D02*
X377378Y796857D01*
X372827Y796857D01*
X368276Y801429D01*
X368276Y815143D01*
X372827Y819714D01*
X377378Y819714D01*
X381929Y815143D01*
X391031Y815143D02*
X395582Y819714D01*
X395582Y796857D01*
X388756Y796857D02*
X402409Y796857D01*
X409236Y815143D02*
X413787Y819714D01*
X418338Y819714D01*
X422889Y815143D01*
X422889Y801429D01*
X418338Y796857D01*
X413787Y796857D01*
X409236Y801429D01*
X409236Y815143D01*
X422889Y815143D02*
X409236Y801429D01*
X440000Y838000D02*
X360000Y838000D01*
X360000Y881277D01*
X440000Y881277D01*
X440000Y838000D01*
X1123316Y1108714D02*
X1136969Y1085857D01*
X1123316Y1085857D02*
X1136969Y1108714D01*
X1146071Y1104143D02*
X1150622Y1108714D01*
X1150622Y1085857D01*
X1143796Y1085857D02*
X1157449Y1085857D01*
X1752796Y1398101D02*
X1761898Y1398101D01*
X1766449Y1402673D01*
X1766449Y1416387D01*
X1761898Y1420958D01*
X1752796Y1420958D01*
X1755071Y1420958D02*
X1755071Y1398101D01*
X1773276Y1416387D02*
X1777827Y1420958D01*
X1782378Y1420958D01*
X1786929Y1416387D01*
X1786929Y1414101D01*
X1773276Y1398101D01*
X1786929Y1398101D01*
X1786929Y1400387D01*
X2429571Y1507929D02*
X2434143Y1503378D01*
X2434143Y1498827D01*
X2429571Y1494276D01*
X2415857Y1494276D01*
X2411286Y1498827D01*
X2411286Y1503378D01*
X2415857Y1507929D01*
X2415857Y1517031D02*
X2411286Y1521582D01*
X2434143Y1521582D01*
X2434143Y1514756D02*
X2434143Y1528409D01*
X2429571Y1535236D02*
X2434143Y1539787D01*
X2434143Y1544338D01*
X2429571Y1548889D01*
X2420429Y1548889D01*
X2415857Y1548889D01*
X2411286Y1544338D01*
X2411286Y1539787D01*
X2415857Y1535236D01*
X2420429Y1535236D01*
X2425000Y1539787D01*
X2425000Y1544338D01*
X2420429Y1548889D01*
X2403000Y1499000D02*
X2323000Y1499000D01*
X2323000Y1542277D01*
X2403000Y1542277D01*
X2403000Y1499000D01*
X689890Y1310000D02*
X1103276Y1310000D01*
X1103276Y1447795D01*
X689890Y1447795D01*
X689890Y1310000D01*
X2314276Y659429D02*
X2318827Y654857D01*
X2323378Y654857D01*
X2327929Y659429D01*
X2327929Y677714D01*
X2348409Y677714D02*
X2334756Y677714D01*
X2334756Y668571D01*
X2343858Y668571D01*
X2348409Y664000D01*
X2348409Y659429D01*
X2343858Y654857D01*
X2334756Y654857D01*
X2661110Y830000D02*
X2365835Y830000D01*
X2365835Y692205D01*
X2661110Y692205D01*
X2661110Y830000D01*
X945276Y444429D02*
X949827Y439857D01*
X954378Y439857D01*
X958929Y444429D01*
X958929Y462714D01*
X968031Y458143D02*
X972582Y462714D01*
X972582Y439857D01*
X965756Y439857D02*
X979409Y439857D01*
X999889Y462714D02*
X986236Y462714D01*
X986236Y453571D01*
X995338Y453571D01*
X999889Y449000D01*
X999889Y444429D01*
X995338Y439857D01*
X986236Y439857D01*
X890000Y417110D02*
X1027795Y417110D01*
X1027795Y121835D01*
X890000Y121835D01*
X890000Y417110D01*
X2001276Y1051857D02*
X2010378Y1051857D01*
X2014929Y1056429D01*
X2014929Y1070143D01*
X2010378Y1074714D01*
X2001276Y1074714D01*
X2003551Y1074714D02*
X2003551Y1051857D01*
X2033133Y1074714D02*
X2026307Y1074714D01*
X2021756Y1070143D01*
X2021756Y1061000D01*
X2021756Y1056429D01*
X2026307Y1051857D01*
X2030858Y1051857D01*
X2035409Y1056429D01*
X2035409Y1061000D01*
X2030858Y1065571D01*
X2026307Y1065571D01*
X2021756Y1061000D01*
X1997276Y901857D02*
X2006378Y901857D01*
X2010929Y906429D01*
X2010929Y920143D01*
X2006378Y924714D01*
X1997276Y924714D01*
X1999551Y924714D02*
X1999551Y901857D01*
X2031409Y924714D02*
X2017756Y924714D01*
X2017756Y915571D01*
X2026858Y915571D01*
X2031409Y911000D01*
X2031409Y906429D01*
X2026858Y901857D01*
X2017756Y901857D01*
X1911396Y1293857D02*
X1911396Y1316714D01*
X1920498Y1316714D01*
X1925049Y1312143D01*
X1925049Y1309857D01*
X1920498Y1305286D01*
X1911396Y1305286D01*
X1913671Y1305286D02*
X1925049Y1293857D01*
X1945529Y1303000D02*
X1931876Y1303000D01*
X1943253Y1316714D01*
X1943253Y1293857D01*
X1940978Y1293857D02*
X1945529Y1293857D01*
X1886000Y1283000D02*
X1966000Y1283000D01*
X1966000Y1239723D01*
X1886000Y1239723D01*
X1886000Y1283000D01*
X2508857Y1396044D02*
X2531714Y1396044D01*
X2531714Y1386942D01*
X2527143Y1382391D01*
X2524857Y1382391D01*
X2520286Y1386942D01*
X2520286Y1396044D01*
X2520286Y1393769D02*
X2508857Y1382391D01*
X2527143Y1373289D02*
X2531714Y1368738D01*
X2508857Y1368738D01*
X2508857Y1375564D02*
X2508857Y1361911D01*
X2508857Y1345982D02*
X2508857Y1350533D01*
X2513429Y1355084D01*
X2518000Y1355084D01*
X2520286Y1352809D01*
X2522571Y1355084D01*
X2527143Y1355084D01*
X2531714Y1350533D01*
X2531714Y1345982D01*
X2527143Y1341431D01*
X2522571Y1341431D01*
X2520286Y1343707D01*
X2518000Y1341431D01*
X2513429Y1341431D01*
X2508857Y1345982D01*
X2520286Y1352809D02*
X2520286Y1343707D01*
X2494000Y1417000D02*
X2450723Y1417000D01*
X2450723Y1337000D01*
X2494000Y1337000D01*
X2494000Y1417000D01*
X2275143Y1035396D02*
X2252286Y1035396D01*
X2252286Y1044498D01*
X2256857Y1049049D01*
X2259143Y1049049D01*
X2263714Y1044498D01*
X2263714Y1035396D01*
X2263714Y1037671D02*
X2275143Y1049049D01*
X2275143Y1064978D02*
X2275143Y1060427D01*
X2270571Y1055876D01*
X2266000Y1055876D01*
X2263714Y1058151D01*
X2261429Y1055876D01*
X2256857Y1055876D01*
X2252286Y1060427D01*
X2252286Y1064978D01*
X2256857Y1069529D01*
X2261429Y1069529D01*
X2263714Y1067253D01*
X2266000Y1069529D01*
X2270571Y1069529D01*
X2275143Y1064978D01*
X2263714Y1058151D02*
X2263714Y1067253D01*
X2286000Y1010000D02*
X2329277Y1010000D01*
X2329277Y1090000D01*
X2286000Y1090000D01*
X2286000Y1010000D01*
X1730276Y158714D02*
X1730276Y140429D01*
X1734827Y135857D01*
X1739378Y135857D01*
X1743929Y140429D01*
X1743929Y158714D01*
X1753031Y156429D02*
X1755307Y158714D01*
X1759858Y158714D01*
X1764409Y154143D01*
X1764409Y149571D01*
X1762133Y147286D01*
X1764409Y145000D01*
X1764409Y140429D01*
X1759858Y135857D01*
X1755307Y135857D01*
X1753031Y138143D01*
X1755307Y147286D02*
X1762133Y147286D01*
X1110276Y95714D02*
X1110276Y77429D01*
X1114827Y72857D01*
X1119378Y72857D01*
X1123929Y77429D01*
X1123929Y95714D01*
X1139858Y72857D02*
X1135307Y72857D01*
X1130756Y77429D01*
X1130756Y82000D01*
X1133031Y84286D01*
X1130756Y86571D01*
X1130756Y91143D01*
X1135307Y95714D01*
X1139858Y95714D01*
X1144409Y91143D01*
X1144409Y86571D01*
X1142133Y84286D01*
X1144409Y82000D01*
X1144409Y77429D01*
X1139858Y72857D01*
X1133031Y84286D02*
X1142133Y84286D01*
X2129276Y500714D02*
X2129276Y482429D01*
X2133827Y477857D01*
X2138378Y477857D01*
X2142929Y482429D01*
X2142929Y500714D01*
X2163409Y500714D02*
X2149756Y500714D01*
X2149756Y491571D01*
X2158858Y491571D01*
X2163409Y487000D01*
X2163409Y482429D01*
X2158858Y477857D01*
X2149756Y477857D01*
X742295Y876868D02*
X742295Y858582D01*
X746846Y854010D01*
X751398Y854010D01*
X755949Y858582D01*
X755949Y876868D01*
X765051Y872296D02*
X769602Y876868D01*
X769602Y854010D01*
X762775Y854010D02*
X776429Y854010D01*
X1624520Y871714D02*
X1624520Y853429D01*
X1629071Y848857D01*
X1633622Y848857D01*
X1638173Y853429D01*
X1638173Y871714D01*
X1645000Y867143D02*
X1649551Y871714D01*
X1654102Y871714D01*
X1658653Y867143D01*
X1658653Y864857D01*
X1645000Y848857D01*
X1658653Y848857D01*
X1658653Y851143D01*
X1301609Y834429D02*
X1297058Y829857D01*
X1292507Y829857D01*
X1287956Y834429D01*
X1287956Y848143D01*
X1292507Y852714D01*
X1297058Y852714D01*
X1301609Y848143D01*
X1310711Y848143D02*
X1315262Y852714D01*
X1315262Y829857D01*
X1308436Y829857D02*
X1322089Y829857D01*
X1342569Y852714D02*
X1328916Y852714D01*
X1328916Y843571D01*
X1338018Y843571D01*
X1342569Y839000D01*
X1342569Y834429D01*
X1338018Y829857D01*
X1328916Y829857D01*
X1360000Y858000D02*
X1280000Y858000D01*
X1280000Y901277D01*
X1360000Y901277D01*
X1360000Y858000D01*
X2425929Y1039429D02*
X2421378Y1034857D01*
X2416827Y1034857D01*
X2412276Y1039429D01*
X2412276Y1053143D01*
X2416827Y1057714D01*
X2421378Y1057714D01*
X2425929Y1053143D01*
X2446409Y1057714D02*
X2432756Y1057714D01*
X2432756Y1048571D01*
X2441858Y1048571D01*
X2446409Y1044000D01*
X2446409Y1039429D01*
X2441858Y1034857D01*
X2432756Y1034857D01*
X2402000Y1091000D02*
X2358723Y1091000D01*
X2358723Y1011000D01*
X2402000Y1011000D01*
X2402000Y1091000D01*
X2261796Y1195234D02*
X2261796Y1176949D01*
X2266347Y1172377D01*
X2270898Y1172377D01*
X2275449Y1176949D01*
X2275449Y1195234D01*
X2289102Y1172377D02*
X2289102Y1183806D01*
X2295929Y1190663D01*
X2295929Y1195234D01*
X2282276Y1195234D01*
X2282276Y1190663D01*
X2411449Y1278909D02*
X2406898Y1274337D01*
X2402347Y1274337D01*
X2397796Y1278909D01*
X2397796Y1292623D01*
X2402347Y1297194D01*
X2406898Y1297194D01*
X2411449Y1292623D01*
X2420551Y1292623D02*
X2425102Y1297194D01*
X2425102Y1274337D01*
X2418276Y1274337D02*
X2431929Y1274337D01*
X2444000Y1199000D02*
X2487277Y1199000D01*
X2487277Y1279000D01*
X2444000Y1279000D01*
X2444000Y1199000D01*
X461276Y1228857D02*
X470378Y1228857D01*
X474929Y1233429D01*
X474929Y1247143D01*
X470378Y1251714D01*
X461276Y1251714D01*
X463551Y1251714D02*
X463551Y1228857D01*
X484031Y1249429D02*
X486307Y1251714D01*
X490858Y1251714D01*
X495409Y1247143D01*
X495409Y1242571D01*
X493133Y1240286D01*
X495409Y1238000D01*
X495409Y1233429D01*
X490858Y1228857D01*
X486307Y1228857D01*
X484031Y1231143D01*
X486307Y1240286D02*
X493133Y1240286D01*
X564276Y1223857D02*
X573378Y1223857D01*
X577929Y1228429D01*
X577929Y1242143D01*
X573378Y1246714D01*
X564276Y1246714D01*
X566551Y1246714D02*
X566551Y1223857D01*
X598409Y1233000D02*
X584756Y1233000D01*
X596133Y1246714D01*
X596133Y1223857D01*
X593858Y1223857D02*
X598409Y1223857D01*
X1960796Y1344234D02*
X1960796Y1325949D01*
X1965347Y1321377D01*
X1969898Y1321377D01*
X1974449Y1325949D01*
X1974449Y1344234D01*
X1992653Y1344234D02*
X1985827Y1344234D01*
X1981276Y1339663D01*
X1981276Y1330520D01*
X1981276Y1325949D01*
X1985827Y1321377D01*
X1990378Y1321377D01*
X1994929Y1325949D01*
X1994929Y1330520D01*
X1990378Y1335091D01*
X1985827Y1335091D01*
X1981276Y1330520D01*
X1109429Y194951D02*
X1104857Y199502D01*
X1104857Y204053D01*
X1109429Y208604D01*
X1123143Y208604D01*
X1127714Y204053D01*
X1127714Y199502D01*
X1123143Y194951D01*
X1104857Y181298D02*
X1116286Y181298D01*
X1123143Y174471D01*
X1127714Y174471D01*
X1127714Y188124D01*
X1123143Y188124D01*
X1095000Y234000D02*
X1051723Y234000D01*
X1051723Y154000D01*
X1095000Y154000D01*
X1095000Y234000D01*
X460276Y1489857D02*
X460276Y1512714D01*
X469378Y1512714D01*
X473929Y1508143D01*
X473929Y1505857D01*
X469378Y1501286D01*
X460276Y1501286D01*
X462551Y1501286D02*
X473929Y1489857D01*
X494409Y1512714D02*
X480756Y1512714D01*
X480756Y1503571D01*
X489858Y1503571D01*
X494409Y1499000D01*
X494409Y1494429D01*
X489858Y1489857D01*
X480756Y1489857D01*
X500000Y1482500D02*
X456723Y1482500D01*
X456723Y1402500D01*
X500000Y1402500D01*
X500000Y1482500D01*
X563276Y1489857D02*
X563276Y1512714D01*
X572378Y1512714D01*
X576929Y1508143D01*
X576929Y1505857D01*
X572378Y1501286D01*
X563276Y1501286D01*
X565551Y1501286D02*
X576929Y1489857D01*
X595133Y1512714D02*
X588307Y1512714D01*
X583756Y1508143D01*
X583756Y1499000D01*
X583756Y1494429D01*
X588307Y1489857D01*
X592858Y1489857D01*
X597409Y1494429D01*
X597409Y1499000D01*
X592858Y1503571D01*
X588307Y1503571D01*
X583756Y1499000D01*
X603000Y1482500D02*
X559723Y1482500D01*
X559723Y1402500D01*
X603000Y1402500D01*
X603000Y1482500D01*
X2120276Y1055857D02*
X2120276Y1078714D01*
X2129378Y1078714D01*
X2133929Y1074143D01*
X2133929Y1071857D01*
X2129378Y1067286D01*
X2120276Y1067286D01*
X2122551Y1067286D02*
X2133929Y1055857D01*
X2143031Y1074143D02*
X2147582Y1078714D01*
X2147582Y1055857D01*
X2140756Y1055857D02*
X2154409Y1055857D01*
X2174889Y1065000D02*
X2161236Y1065000D01*
X2172613Y1078714D01*
X2172613Y1055857D01*
X2170338Y1055857D02*
X2174889Y1055857D01*
X2188000Y1002000D02*
X2108000Y1002000D01*
X2108000Y1045277D01*
X2188000Y1045277D01*
X2188000Y1002000D01*
X2124276Y897857D02*
X2124276Y920714D01*
X2133378Y920714D01*
X2137929Y916143D01*
X2137929Y913857D01*
X2133378Y909286D01*
X2124276Y909286D01*
X2126551Y909286D02*
X2137929Y897857D01*
X2147031Y916143D02*
X2151582Y920714D01*
X2151582Y897857D01*
X2144756Y897857D02*
X2158409Y897857D01*
X2178889Y920714D02*
X2165236Y920714D01*
X2165236Y911571D01*
X2174338Y911571D01*
X2178889Y907000D01*
X2178889Y902429D01*
X2174338Y897857D01*
X2165236Y897857D01*
X2189000Y929000D02*
X2109000Y929000D01*
X2109000Y972277D01*
X2189000Y972277D01*
X2189000Y929000D01*
X1651143Y54396D02*
X1628286Y54396D01*
X1628286Y63498D01*
X1632857Y68049D01*
X1635143Y68049D01*
X1639714Y63498D01*
X1639714Y54396D01*
X1639714Y56671D02*
X1651143Y68049D01*
X1646571Y74876D02*
X1651143Y79427D01*
X1651143Y83978D01*
X1646571Y88529D01*
X1637429Y88529D01*
X1632857Y88529D01*
X1628286Y83978D01*
X1628286Y79427D01*
X1632857Y74876D01*
X1637429Y74876D01*
X1642000Y79427D01*
X1642000Y83978D01*
X1637429Y88529D01*
X1662000Y29000D02*
X1705277Y29000D01*
X1705277Y109000D01*
X1662000Y109000D01*
X1662000Y29000D01*
X1527276Y954429D02*
X1531827Y949857D01*
X1536378Y949857D01*
X1540929Y954429D01*
X1540929Y972714D01*
X1547756Y972714D02*
X1547756Y949857D01*
X1561409Y949857D01*
X1581889Y954429D02*
X1577338Y949857D01*
X1572787Y949857D01*
X1568236Y954429D01*
X1568236Y968143D01*
X1572787Y972714D01*
X1577338Y972714D01*
X1581889Y968143D01*
X1588716Y954429D02*
X1593267Y949857D01*
X1597818Y949857D01*
X1602369Y954429D01*
X1602369Y972714D01*
X1609196Y972714D02*
X1609196Y949857D01*
X1622849Y949857D01*
X1643329Y954429D02*
X1638778Y949857D01*
X1634227Y949857D01*
X1629676Y954429D01*
X1629676Y968143D01*
X1634227Y972714D01*
X1638778Y972714D01*
X1643329Y968143D01*
X1650156Y954429D02*
X1654707Y949857D01*
X1659258Y949857D01*
X1663809Y954429D01*
X1663809Y972714D01*
X1670636Y972714D02*
X1670636Y949857D01*
X1684289Y949857D01*
X1704769Y954429D02*
X1700218Y949857D01*
X1695667Y949857D01*
X1691116Y954429D01*
X1691116Y968143D01*
X1695667Y972714D01*
X1700218Y972714D01*
X1704769Y968143D01*
X1711596Y954429D02*
X1716147Y949857D01*
X1720698Y949857D01*
X1725249Y954429D01*
X1725249Y972714D01*
X1732076Y972714D02*
X1732076Y949857D01*
X1745729Y949857D01*
X1766209Y954429D02*
X1761658Y949857D01*
X1757107Y949857D01*
X1752556Y954429D01*
X1752556Y968143D01*
X1757107Y972714D01*
X1761658Y972714D01*
X1766209Y968143D01*
X2578000Y1543110D02*
X2715795Y1543110D01*
X2715795Y1129724D01*
X2578000Y1129724D01*
X2578000Y1543110D01*
X2490857Y1005724D02*
X2513714Y1005724D01*
X2513714Y996622D01*
X2509143Y992071D01*
X2506857Y992071D01*
X2502286Y996622D01*
X2502286Y1005724D01*
X2502286Y1003449D02*
X2490857Y992071D01*
X2511429Y982969D02*
X2513714Y980693D01*
X2513714Y976142D01*
X2509143Y971591D01*
X2504571Y971591D01*
X2502286Y973867D01*
X2500000Y971591D01*
X2495429Y971591D01*
X2490857Y976142D01*
X2490857Y980693D01*
X2493143Y982969D01*
X2502286Y980693D02*
X2502286Y973867D01*
X2708857Y1079724D02*
X2708857Y1070622D01*
X2713429Y1066071D01*
X2727143Y1066071D01*
X2731714Y1070622D01*
X2731714Y1079724D01*
X2731714Y1077449D02*
X2708857Y1077449D01*
X2727143Y1056969D02*
X2731714Y1052418D01*
X2708857Y1052418D01*
X2708857Y1059244D02*
X2708857Y1045591D01*
X1566316Y1376429D02*
X1570867Y1371857D01*
X1575418Y1371857D01*
X1579969Y1376429D01*
X1579969Y1394714D01*
X1586796Y1376429D02*
X1591347Y1371857D01*
X1595898Y1371857D01*
X1600449Y1376429D01*
X1600449Y1385571D01*
X1600449Y1390143D01*
X1595898Y1394714D01*
X1591347Y1394714D01*
X1586796Y1390143D01*
X1586796Y1385571D01*
X1591347Y1381000D01*
X1595898Y1381000D01*
X1600449Y1385571D01*
X1239969Y1237429D02*
X1235418Y1232857D01*
X1230867Y1232857D01*
X1226316Y1237429D01*
X1226316Y1251143D01*
X1230867Y1255714D01*
X1235418Y1255714D01*
X1239969Y1251143D01*
X1255898Y1232857D02*
X1251347Y1232857D01*
X1246796Y1237429D01*
X1246796Y1242000D01*
X1249071Y1244286D01*
X1246796Y1246571D01*
X1246796Y1251143D01*
X1251347Y1255714D01*
X1255898Y1255714D01*
X1260449Y1251143D01*
X1260449Y1246571D01*
X1258173Y1244286D01*
X1260449Y1242000D01*
X1260449Y1237429D01*
X1255898Y1232857D01*
X1249071Y1244286D02*
X1258173Y1244286D01*
X1263000Y1175000D02*
X1183000Y1175000D01*
X1183000Y1218277D01*
X1263000Y1218277D01*
X1263000Y1175000D01*
G54D12*
X2464000Y1439000D02*
X2464000Y1549000D01*
X2534000Y1549000D02*
X2534000Y1439000D01*
X2464000Y1439000D01*
X2464000Y1549000D02*
X2534000Y1549000D01*
G54D13*
G36*
X2427000Y237795D02*
X2427000Y237795D01*
X2469000Y238795D01*
X2427000Y279795D01*
X2427000Y237795D01*
D02*
G37*
X2469000Y238795D01*
X2427000Y279795D01*
X2427000Y237795D01*
G36*
X612205Y130000D02*
X612205Y130000D01*
X611205Y172000D01*
X570205Y130000D01*
X612205Y130000D01*
D02*
G37*
X611205Y172000D01*
X570205Y130000D01*
X612205Y130000D01*
G36*
X800205Y131000D02*
X800205Y131000D01*
X799205Y173000D01*
X758205Y131000D01*
X800205Y131000D01*
D02*
G37*
X799205Y173000D01*
X758205Y131000D01*
X800205Y131000D01*
G36*
X2661000Y614205D02*
X2661000Y614205D01*
X2619000Y613205D01*
X2661000Y572205D01*
X2661000Y614205D01*
D02*
G37*
X2619000Y613205D01*
X2661000Y572205D01*
X2661000Y614205D01*
G36*
X692000Y1311795D02*
X692000Y1311795D01*
X734000Y1312795D01*
X692000Y1353795D01*
X692000Y1311795D01*
D02*
G37*
X734000Y1312795D01*
X692000Y1353795D01*
X692000Y1311795D01*
G36*
X2659000Y828205D02*
X2659000Y828205D01*
X2617000Y827205D01*
X2659000Y786205D01*
X2659000Y828205D01*
D02*
G37*
X2617000Y827205D01*
X2659000Y786205D01*
X2659000Y828205D01*
G36*
X891795Y415000D02*
X891795Y415000D01*
X892795Y373000D01*
X933795Y415000D01*
X891795Y415000D01*
D02*
G37*
X892795Y373000D01*
X933795Y415000D01*
X891795Y415000D01*
G36*
X2579795Y1541000D02*
X2579795Y1541000D01*
X2580795Y1499000D01*
X2621795Y1541000D01*
X2579795Y1541000D01*
D02*
G37*
X2580795Y1499000D01*
X2621795Y1541000D01*
X2579795Y1541000D01*
G54D14*
X331170Y457000D02*
X29167Y457000D01*
X29167Y56995D01*
X331170Y56995D01*
X331170Y457000D01*
X29167Y457000D02*
X229167Y457000D01*
X133167Y357000D02*
X33167Y357000D01*
X133167Y457000D02*
X133167Y358000D01*
X29167Y996439D02*
X229167Y996439D01*
X133167Y896439D02*
X33167Y896439D01*
X133167Y996439D02*
X133167Y897439D01*
X331170Y996439D02*
X29167Y996439D01*
X29167Y596434D01*
X331170Y596434D01*
X331170Y996439D01*
X331170Y1535878D02*
X29167Y1535878D01*
X29167Y1135873D01*
X331170Y1135873D01*
X331170Y1535878D01*
X29167Y1535878D02*
X229167Y1535878D01*
X133167Y1435878D02*
X33167Y1435878D01*
X133167Y1535878D02*
X133167Y1436878D01*
X2394000Y132000D02*
X1994000Y132000D01*
X1969000Y132000D02*
X1894000Y132000D01*
X1894000Y32000D01*
X1985667Y132000D02*
X1985667Y98667D01*
X1977333Y123667D02*
X1985667Y132000D01*
X2394000Y132000D02*
X2394000Y32000D01*
X1894000Y32000D01*
X629000Y1467000D02*
X1029000Y1467000D01*
X1054000Y1467000D02*
X1129000Y1467000D01*
X1129000Y1567000D01*
X1037333Y1467000D02*
X1037333Y1500333D01*
X1045667Y1475333D02*
X1037333Y1467000D01*
X629000Y1467000D02*
X629000Y1567000D01*
X1129000Y1567000D01*
X2633000Y952000D02*
X2523000Y952000D01*
X2523000Y1022000D02*
X2633000Y1022000D01*
X2523000Y952000D02*
X2523000Y1022000D01*
X2633000Y1022000D02*
X2633000Y952000D01*
X1587638Y1500354D02*
X1587638Y1571220D01*
X1587638Y1406850D02*
X1587638Y1421614D01*
X1512835Y1350748D02*
X1520709Y1350748D01*
X1292362Y1571220D02*
X1292362Y1500354D01*
X1292362Y1406850D02*
X1292362Y1421614D01*
X1367165Y1350748D02*
X1359291Y1350748D01*
G54D15*
X1801039Y1377465D02*
X1740961Y1377465D01*
X1801039Y1310535D02*
X1740961Y1310535D01*
X174000Y1090033D02*
X174000Y1064433D01*
X191143Y1077233D02*
X156857Y1077233D01*
X79200Y1090033D02*
X79200Y1064433D01*
X268000Y1089000D02*
X306000Y1089000D01*
X267500Y1054000D02*
X267500Y1030000D01*
X267500Y1113000D02*
X267500Y1089000D01*
X305000Y1055000D02*
X268000Y1055000D01*
X306000Y1088000D02*
X306000Y1055000D01*
X72000Y542933D02*
X72000Y517333D01*
X166800Y542933D02*
X166800Y517333D01*
X183943Y530133D02*
X149657Y530133D01*
X260300Y565900D02*
X260300Y541900D01*
X260800Y541900D02*
X298800Y541900D01*
X260300Y506900D02*
X260300Y482900D01*
X297800Y507900D02*
X260800Y507900D01*
X298800Y540900D02*
X298800Y507900D01*
X472267Y58429D02*
X480800Y49857D01*
X489333Y49857D01*
X497867Y58429D01*
X472267Y84143D01*
X480800Y92714D01*
X489333Y92714D01*
X497867Y84143D01*
X510667Y49857D02*
X510667Y75571D01*
X519200Y92714D01*
X527733Y92714D01*
X536267Y75571D01*
X536267Y49857D01*
X510667Y62714D02*
X536267Y62714D01*
X561867Y49857D02*
X561867Y92714D01*
X549067Y92714D02*
X574667Y92714D01*
X591733Y84143D02*
X600267Y92714D01*
X600267Y49857D01*
X587467Y49857D02*
X613067Y49857D01*
X671267Y58429D02*
X679800Y49857D01*
X688333Y49857D01*
X696867Y58429D01*
X671267Y84143D01*
X679800Y92714D01*
X688333Y92714D01*
X696867Y84143D01*
X709667Y49857D02*
X709667Y75571D01*
X718200Y92714D01*
X726733Y92714D01*
X735267Y75571D01*
X735267Y49857D01*
X709667Y62714D02*
X735267Y62714D01*
X760867Y49857D02*
X760867Y92714D01*
X748067Y92714D02*
X773667Y92714D01*
X786467Y84143D02*
X795000Y92714D01*
X803533Y92714D01*
X812067Y84143D01*
X812067Y79857D01*
X786467Y49857D01*
X812067Y49857D01*
X812067Y54143D01*
X898267Y58429D02*
X906800Y49857D01*
X915333Y49857D01*
X923867Y58429D01*
X923867Y84143D01*
X915333Y92714D01*
X906800Y92714D01*
X898267Y84143D01*
X898267Y58429D01*
X936667Y58429D02*
X945200Y49857D01*
X953733Y49857D01*
X962267Y58429D01*
X936667Y84143D01*
X945200Y92714D01*
X953733Y92714D01*
X962267Y84143D01*
X975067Y49857D02*
X992133Y49857D01*
X1000667Y58429D01*
X1000667Y84143D01*
X992133Y92714D01*
X975067Y92714D01*
X979333Y92714D02*
X979333Y49857D01*
X2418267Y157429D02*
X2426800Y148857D01*
X2435333Y148857D01*
X2443867Y157429D01*
X2418267Y183143D01*
X2426800Y191714D01*
X2435333Y191714D01*
X2443867Y183143D01*
X2456667Y191714D02*
X2460933Y148857D01*
X2469467Y166000D01*
X2478000Y148857D01*
X2482267Y191714D01*
X2520667Y191714D02*
X2495067Y148857D01*
X2533467Y191714D02*
X2533467Y148857D01*
X2559067Y148857D01*
X2597467Y148857D02*
X2571867Y148857D01*
X2571867Y170286D01*
X2571867Y191714D01*
X2597467Y191714D01*
X2571867Y170286D02*
X2588933Y170286D01*
X2610267Y148857D02*
X2627333Y148857D01*
X2635867Y157429D01*
X2635867Y183143D01*
X2627333Y191714D01*
X2610267Y191714D01*
X2614533Y191714D02*
X2614533Y148857D01*
X2388333Y425286D02*
X2396867Y425286D01*
X2396867Y412429D01*
X2388333Y403857D01*
X2379800Y403857D01*
X2371267Y412429D01*
X2371267Y438143D01*
X2379800Y446714D01*
X2396867Y446714D01*
X2409667Y403857D02*
X2409667Y446714D01*
X2426733Y446714D01*
X2435267Y438143D01*
X2435267Y433857D01*
X2426733Y425286D01*
X2409667Y425286D01*
X2448067Y412429D02*
X2456600Y403857D01*
X2465133Y403857D01*
X2473667Y412429D01*
X2448067Y438143D01*
X2456600Y446714D01*
X2465133Y446714D01*
X2473667Y438143D01*
X2299857Y809200D02*
X2299857Y800667D01*
X2342714Y809200D02*
X2342714Y800667D01*
X2299857Y804933D02*
X2342714Y804933D01*
X2334143Y779333D02*
X2342714Y770800D01*
X2342714Y762267D01*
X2334143Y753733D01*
X2329857Y753733D01*
X2299857Y779333D01*
X2299857Y753733D01*
X2304143Y753733D01*
X2308429Y715333D02*
X2299857Y723867D01*
X2299857Y732400D01*
X2308429Y740933D01*
X2334143Y740933D01*
X2342714Y732400D01*
X2342714Y723867D01*
X2334143Y715333D01*
X395809Y125467D02*
X404381Y116933D01*
X361524Y116933D01*
X361524Y129733D02*
X361524Y104133D01*
X395809Y91333D02*
X404381Y82800D01*
X404381Y74267D01*
X395809Y65733D01*
X391524Y65733D01*
X361524Y91333D01*
X361524Y65733D01*
X365809Y65733D01*
X370429Y416733D02*
X361857Y408200D01*
X361857Y399667D01*
X370429Y391133D01*
X387571Y391133D01*
X396143Y391133D01*
X404714Y399667D01*
X404714Y408200D01*
X396143Y416733D01*
X387571Y416733D01*
X379000Y408200D01*
X379000Y399667D01*
X387571Y391133D01*
X361857Y636667D02*
X361857Y645200D01*
X370429Y653733D01*
X379000Y653733D01*
X383286Y649467D01*
X387571Y653733D01*
X396143Y653733D01*
X404714Y645200D01*
X404714Y636667D01*
X396143Y628133D01*
X387571Y628133D01*
X383286Y632400D01*
X379000Y628133D01*
X370429Y628133D01*
X361857Y636667D01*
X383286Y649467D02*
X383286Y632400D01*
X404714Y931133D02*
X404714Y956733D01*
X387571Y956733D01*
X387571Y939667D01*
X379000Y931133D01*
X370429Y931133D01*
X361857Y939667D01*
X361857Y956733D01*
X379000Y1176133D02*
X379000Y1201733D01*
X404714Y1180400D01*
X361857Y1180400D01*
X361857Y1184667D02*
X361857Y1176133D01*
X395809Y1495667D02*
X404381Y1487133D01*
X361524Y1487133D01*
X361524Y1499933D02*
X361524Y1474333D01*
X920067Y1243857D02*
X920067Y1286714D01*
X907267Y1286714D02*
X932867Y1286714D01*
X971267Y1243857D02*
X945667Y1243857D01*
X945667Y1265286D01*
X945667Y1286714D01*
X971267Y1286714D01*
X945667Y1265286D02*
X962733Y1265286D01*
X984067Y1286714D02*
X984067Y1243857D01*
X1009667Y1243857D01*
X1048067Y1243857D02*
X1022467Y1243857D01*
X1022467Y1265286D01*
X1022467Y1286714D01*
X1048067Y1286714D01*
X1022467Y1265286D02*
X1039533Y1265286D01*
X1060867Y1243857D02*
X1060867Y1286714D01*
X1073667Y1265286D01*
X1086467Y1286714D01*
X1086467Y1243857D01*
G54D16*
X1837417Y1303055D02*
G75*
D01*
G02X1837417Y1303055I4922J0*
G01*
X1619095Y392268D02*
G75*
D01*
G02X1619095Y392268I4921J0*
G01*
X1232197Y69102D02*
G75*
D01*
G02X1232197Y69102I4921J0*
G01*
X584350Y619815D02*
G75*
D01*
G02X584350Y619815I4921J0*
G01*
X1881142Y686772D02*
G75*
D01*
G02X1881142Y686772I4921J0*
G01*
G54D17*
X1687008Y187543D02*
X1812992Y187543D01*
X1812992Y380457D02*
X1687008Y380457D01*
X1687008Y187543D01*
X1812992Y187543D02*
X1812992Y380457D01*
X1194795Y195087D02*
X1169205Y195087D01*
X1169205Y80913D02*
X1194795Y80913D01*
X1194795Y195087D01*
X1169205Y195087D02*
X1169205Y80913D01*
X579429Y682807D02*
X945571Y682807D01*
X945571Y1048949D01*
X579429Y1048949D01*
X579429Y682807D01*
X1823071Y676929D02*
X1456929Y676929D01*
X1456929Y1043071D01*
X1823071Y1043071D01*
X1823071Y676929D01*
G54D18*
X1716535Y341087D02*
G75*
D01*
G02X1716535Y341087I9843J0*
G01*
X606004Y719224D02*
G75*
D01*
G02X606004Y719224I9842J0*
G01*
X1776811Y713346D02*
G75*
D01*
G02X1776811Y713346I9843J0*
G01*
G54D19*
X2326000Y1478000D03*
X1278000Y1173000D03*
X2416000Y1229000D03*
X2104000Y1357000D03*
G54D20*
X1304000Y579000D03*
X2064000Y989000D03*
X2064000Y916000D03*
X2050000Y385000D03*
X515000Y1350000D03*
X615000Y1350000D03*
X2609000Y1100000D03*
G54D21*
X1852500Y79000D03*
X1174500Y1516000D03*

M02*
