G04 Generated by Ultiboard 14.1 *
%FSLAX25Y25*%
%MOIN*%

%ADD10C,0.00001*%
%ADD11C,0.00600*%
%ADD12C,0.00700*%
%ADD13C,0.00004*%
%ADD14C,0.00800*%
%ADD15C,0.01000*%
%ADD16C,0.00984*%
%ADD17C,0.00787*%
%ADD18C,0.01969*%
%ADD19C,0.02828*%
%ADD20C,0.01414*%
%ADD21C,0.02236*%


G04 ColorRGB FFFF00 for the following layer *
%LNSilkscreen Top*%
%LPD*%
G54D10*
G54D11*
X99800Y150800D02*
X69800Y150800D01*
X69800Y156800D01*
X99800Y156800D01*
X99800Y150800D01*
X194200Y9500D02*
X224200Y9500D01*
X224200Y3500D01*
X194200Y3500D01*
X194200Y9500D01*
X75905Y121643D02*
X75450Y121186D01*
X74995Y121186D01*
X74540Y121643D01*
X74540Y123014D01*
X74995Y123471D01*
X75450Y123471D01*
X75905Y123014D01*
X76588Y121643D02*
X77043Y121186D01*
X77498Y121186D01*
X77953Y121643D01*
X77953Y122557D01*
X77953Y123014D01*
X77498Y123471D01*
X77043Y123471D01*
X76588Y123014D01*
X76588Y122557D01*
X77043Y122100D01*
X77498Y122100D01*
X77953Y122557D01*
X72000Y120200D02*
X80000Y120200D01*
X80000Y115872D01*
X72000Y115872D01*
X72000Y120200D01*
X111643Y89119D02*
X111186Y89574D01*
X111186Y90029D01*
X111643Y90484D01*
X113014Y90484D01*
X113471Y90029D01*
X113471Y89574D01*
X113014Y89119D01*
X113014Y88209D02*
X113471Y87754D01*
X111186Y87754D01*
X111186Y88436D02*
X111186Y87071D01*
X113243Y86161D02*
X113471Y85933D01*
X113471Y85478D01*
X113014Y85023D01*
X112557Y85023D01*
X112329Y85251D01*
X112100Y85023D01*
X111643Y85023D01*
X111186Y85478D01*
X111186Y85933D01*
X111414Y86161D01*
X112329Y85933D02*
X112329Y85251D01*
X110200Y92000D02*
X105872Y92000D01*
X105872Y84000D01*
X110200Y84000D01*
X110200Y92000D01*
X108881Y79643D02*
X108426Y79186D01*
X107971Y79186D01*
X107516Y79643D01*
X107516Y81014D01*
X107971Y81471D01*
X108426Y81471D01*
X108881Y81014D01*
X109791Y81014D02*
X110246Y81471D01*
X110246Y79186D01*
X109564Y79186D02*
X110929Y79186D01*
X111612Y81014D02*
X112067Y81471D01*
X112522Y81471D01*
X112977Y81014D01*
X112977Y80786D01*
X111612Y79186D01*
X112977Y79186D01*
X112977Y79414D01*
X106000Y78200D02*
X114000Y78200D01*
X114000Y73872D01*
X106000Y73872D01*
X106000Y78200D01*
X160881Y119643D02*
X160426Y119186D01*
X159971Y119186D01*
X159516Y119643D01*
X159516Y121014D01*
X159971Y121471D01*
X160426Y121471D01*
X160881Y121014D01*
X161564Y121014D02*
X162019Y121471D01*
X162474Y121471D01*
X162929Y121014D01*
X162929Y120786D01*
X161564Y119186D01*
X162929Y119186D01*
X162929Y119414D01*
X163839Y121014D02*
X164294Y121471D01*
X164294Y119186D01*
X163612Y119186D02*
X164977Y119186D01*
X158000Y118200D02*
X166000Y118200D01*
X166000Y113872D01*
X158000Y113872D01*
X158000Y118200D01*
X194881Y87643D02*
X194426Y87186D01*
X193971Y87186D01*
X193516Y87643D01*
X193516Y89014D01*
X193971Y89471D01*
X194426Y89471D01*
X194881Y89014D01*
X195564Y89014D02*
X196019Y89471D01*
X196474Y89471D01*
X196929Y89014D01*
X196929Y88786D01*
X195564Y87186D01*
X196929Y87186D01*
X196929Y87414D01*
X197612Y89014D02*
X198067Y89471D01*
X198522Y89471D01*
X198977Y89014D01*
X198977Y87643D01*
X198522Y87186D01*
X198067Y87186D01*
X197612Y87643D01*
X197612Y89014D01*
X198977Y89014D02*
X197612Y87643D01*
X192000Y86200D02*
X200000Y86200D01*
X200000Y81872D01*
X192000Y81872D01*
X192000Y86200D01*
X229643Y44019D02*
X229186Y44474D01*
X229186Y44929D01*
X229643Y45384D01*
X231014Y45384D01*
X231471Y44929D01*
X231471Y44474D01*
X231014Y44019D01*
X231014Y43336D02*
X231471Y42881D01*
X231471Y42426D01*
X231014Y41971D01*
X230786Y41971D01*
X229186Y43336D01*
X229186Y41971D01*
X229414Y41971D01*
X229186Y40606D02*
X230329Y40606D01*
X231014Y39923D01*
X231471Y39923D01*
X231471Y41288D01*
X231014Y41288D01*
X228200Y46900D02*
X223872Y46900D01*
X223872Y38900D01*
X228200Y38900D01*
X228200Y46900D01*
X198514Y54116D02*
X196229Y54116D01*
X196229Y55026D01*
X196686Y55481D01*
X196914Y55481D01*
X197371Y55026D01*
X197371Y54116D01*
X197371Y54343D02*
X198514Y55481D01*
X196686Y56391D02*
X196229Y56846D01*
X198514Y56846D01*
X198514Y56164D02*
X198514Y57529D01*
X196686Y58212D02*
X196229Y58667D01*
X196229Y59122D01*
X196686Y59577D01*
X196914Y59577D01*
X198514Y58212D01*
X198514Y59577D01*
X198286Y59577D01*
X199600Y52600D02*
X203928Y52600D01*
X203928Y60600D01*
X199600Y60600D01*
X199600Y52600D01*
X216793Y127643D02*
X216338Y127186D01*
X215883Y127186D01*
X215428Y127643D01*
X215428Y129014D01*
X215883Y129471D01*
X216338Y129471D01*
X216793Y129014D01*
X217476Y129014D02*
X217931Y129471D01*
X218386Y129471D01*
X218841Y129014D01*
X218841Y128786D01*
X217476Y127186D01*
X218841Y127186D01*
X218841Y127414D01*
X211400Y126200D02*
X219400Y126200D01*
X219400Y121872D01*
X211400Y121872D01*
X211400Y126200D01*
X193140Y145186D02*
X193140Y147471D01*
X194050Y147471D01*
X194505Y147014D01*
X194505Y146786D01*
X194050Y146329D01*
X193140Y146329D01*
X193367Y146329D02*
X194505Y145186D01*
X195415Y147014D02*
X195870Y147471D01*
X195870Y145186D01*
X195188Y145186D02*
X196553Y145186D01*
X190600Y144100D02*
X198600Y144100D01*
X198600Y139772D01*
X190600Y139772D01*
X190600Y144100D01*
X257586Y91784D02*
X259871Y91784D01*
X259871Y90874D01*
X259414Y90419D01*
X259186Y90419D01*
X258729Y90874D01*
X258729Y91784D01*
X258729Y91557D02*
X257586Y90419D01*
X259414Y89509D02*
X259871Y89054D01*
X257586Y89054D01*
X257586Y89736D02*
X257586Y88371D01*
X259871Y86551D02*
X259871Y87233D01*
X259414Y87688D01*
X258500Y87688D01*
X258043Y87688D01*
X257586Y87233D01*
X257586Y86778D01*
X258043Y86323D01*
X258500Y86323D01*
X258957Y86778D01*
X258957Y87233D01*
X258500Y87688D01*
X256500Y93300D02*
X252172Y93300D01*
X252172Y85300D01*
X256500Y85300D01*
X256500Y93300D01*
X203657Y144705D02*
X204114Y144250D01*
X204114Y143795D01*
X203657Y143340D01*
X202286Y143340D01*
X201829Y143795D01*
X201829Y144250D01*
X202286Y144705D01*
X201829Y146525D02*
X201829Y145843D01*
X202286Y145388D01*
X203200Y145388D01*
X203657Y145388D01*
X204114Y145843D01*
X204114Y146298D01*
X203657Y146753D01*
X203200Y146753D01*
X202743Y146298D01*
X202743Y145843D01*
X203200Y145388D01*
X205100Y140800D02*
X209428Y140800D01*
X209428Y148800D01*
X205100Y148800D01*
X205100Y140800D01*
X182814Y8040D02*
X180529Y8040D01*
X180529Y8950D01*
X180986Y9405D01*
X181214Y9405D01*
X181671Y8950D01*
X181671Y8040D01*
X181671Y8267D02*
X182814Y9405D01*
X182357Y10088D02*
X182814Y10543D01*
X182814Y10998D01*
X182357Y11453D01*
X181443Y11453D01*
X180986Y11453D01*
X180529Y10998D01*
X180529Y10543D01*
X180986Y10088D01*
X181443Y10088D01*
X181900Y10543D01*
X181900Y10998D01*
X181443Y11453D01*
X183900Y5500D02*
X188228Y5500D01*
X188228Y13500D01*
X183900Y13500D01*
X183900Y5500D01*
X145886Y55484D02*
X148171Y55484D01*
X148171Y54574D01*
X147714Y54119D01*
X147486Y54119D01*
X147029Y54574D01*
X147029Y55484D01*
X147029Y55257D02*
X145886Y54119D01*
X147714Y53209D02*
X148171Y52754D01*
X145886Y52754D01*
X145886Y53436D02*
X145886Y52071D01*
X147714Y51388D02*
X148171Y50933D01*
X148171Y50478D01*
X147714Y50023D01*
X146343Y50023D01*
X145886Y50478D01*
X145886Y50933D01*
X146343Y51388D01*
X147714Y51388D01*
X147714Y50023D02*
X146343Y51388D01*
X144800Y57000D02*
X140472Y57000D01*
X140472Y49000D01*
X144800Y49000D01*
X144800Y57000D01*
X178657Y116593D02*
X179114Y116138D01*
X179114Y115683D01*
X178657Y115228D01*
X177286Y115228D01*
X176829Y115683D01*
X176829Y116138D01*
X177286Y116593D01*
X177286Y117276D02*
X176829Y117731D01*
X176829Y118186D01*
X177286Y118641D01*
X177514Y118641D01*
X179114Y117276D01*
X179114Y118641D01*
X178886Y118641D01*
X177286Y119324D02*
X176829Y119779D01*
X176829Y120234D01*
X177286Y120689D01*
X177514Y120689D01*
X179114Y119324D01*
X179114Y120689D01*
X178886Y120689D01*
X171800Y114000D02*
X176128Y114000D01*
X176128Y122000D01*
X171800Y122000D01*
X171800Y114000D01*
X210843Y115407D02*
X210386Y115862D01*
X210386Y116317D01*
X210843Y116772D01*
X212214Y116772D01*
X212671Y116317D01*
X212671Y115862D01*
X212214Y115407D01*
X212443Y114497D02*
X212671Y114269D01*
X212671Y113814D01*
X212214Y113359D01*
X211757Y113359D01*
X211529Y113587D01*
X211300Y113359D01*
X210843Y113359D01*
X210386Y113814D01*
X210386Y114269D01*
X210614Y114497D01*
X211529Y114269D02*
X211529Y113587D01*
X209300Y121000D02*
X204972Y121000D01*
X204972Y113000D01*
X209300Y113000D01*
X209300Y121000D01*
X220328Y135986D02*
X220328Y138271D01*
X221238Y138271D01*
X221693Y137814D01*
X221693Y137586D01*
X221238Y137129D01*
X220328Y137129D01*
X220555Y137129D02*
X221693Y135986D01*
X223058Y135986D02*
X223058Y137129D01*
X223741Y137814D01*
X223741Y138271D01*
X222376Y138271D01*
X222376Y137814D01*
X218600Y143600D02*
X226600Y143600D01*
X226600Y139272D01*
X218600Y139272D01*
X218600Y143600D01*
X222557Y149093D02*
X223014Y148638D01*
X223014Y148183D01*
X222557Y147728D01*
X221186Y147728D01*
X220729Y148183D01*
X220729Y148638D01*
X221186Y149093D01*
X221186Y150003D02*
X220729Y150458D01*
X223014Y150458D01*
X223014Y149776D02*
X223014Y151141D01*
X223014Y152734D02*
X223014Y152279D01*
X222557Y151824D01*
X222100Y151824D01*
X221871Y152051D01*
X221643Y151824D01*
X221186Y151824D01*
X220729Y152279D01*
X220729Y152734D01*
X221186Y153189D01*
X221643Y153189D01*
X221871Y152961D01*
X222100Y153189D01*
X222557Y153189D01*
X223014Y152734D01*
X221871Y152051D02*
X221871Y152961D01*
X224500Y145400D02*
X228828Y145400D01*
X228828Y153400D01*
X224500Y153400D01*
X224500Y145400D01*
X234328Y135271D02*
X234328Y133443D01*
X234783Y132986D01*
X235238Y132986D01*
X235693Y133443D01*
X235693Y135271D01*
X236376Y133443D02*
X236831Y132986D01*
X237286Y132986D01*
X237741Y133443D01*
X237741Y134357D01*
X237741Y134814D01*
X237286Y135271D01*
X236831Y135271D01*
X236376Y134814D01*
X236376Y134357D01*
X236831Y133900D01*
X237286Y133900D01*
X237741Y134357D01*
X256457Y144493D02*
X256914Y144038D01*
X256914Y143583D01*
X256457Y143128D01*
X255086Y143128D01*
X254629Y143583D01*
X254629Y144038D01*
X255086Y144493D01*
X254857Y145403D02*
X254629Y145631D01*
X254629Y146086D01*
X255086Y146541D01*
X255543Y146541D01*
X255771Y146313D01*
X256000Y146541D01*
X256457Y146541D01*
X256914Y146086D01*
X256914Y145631D01*
X256686Y145403D01*
X255771Y145631D02*
X255771Y146313D01*
X256000Y148589D02*
X256000Y147224D01*
X254629Y148361D01*
X256914Y148361D01*
X256914Y148134D02*
X256914Y148589D01*
X255043Y129072D02*
X254586Y128617D01*
X254586Y128162D01*
X255043Y127707D01*
X256871Y127707D01*
X256414Y126797D02*
X256871Y126342D01*
X254586Y126342D01*
X254586Y127024D02*
X254586Y125659D01*
X255500Y123611D02*
X255500Y124976D01*
X256871Y123839D01*
X254586Y123839D01*
X254586Y124066D02*
X254586Y123611D01*
X258100Y154211D02*
X271880Y154211D01*
X271880Y124683D01*
X258100Y124683D01*
X258100Y154211D01*
X241586Y92172D02*
X243871Y92172D01*
X243871Y91262D01*
X243414Y90807D01*
X243186Y90807D01*
X242729Y91262D01*
X242729Y92172D01*
X242729Y91945D02*
X241586Y90807D01*
X243414Y89897D02*
X243871Y89442D01*
X241586Y89442D01*
X241586Y90124D02*
X241586Y88759D01*
X241586Y87394D02*
X242729Y87394D01*
X243414Y86711D01*
X243871Y86711D01*
X243871Y88076D01*
X243414Y88076D01*
X249700Y93200D02*
X245372Y93200D01*
X245372Y85200D01*
X249700Y85200D01*
X249700Y93200D01*
X249593Y108443D02*
X249138Y107986D01*
X248683Y107986D01*
X248228Y108443D01*
X248228Y109814D01*
X248683Y110271D01*
X249138Y110271D01*
X249593Y109814D01*
X251641Y108900D02*
X250276Y108900D01*
X251413Y110271D01*
X251413Y107986D01*
X251186Y107986D02*
X251641Y107986D01*
X242800Y116400D02*
X250800Y116400D01*
X250800Y112072D01*
X242800Y112072D01*
X242800Y116400D01*
X235728Y29943D02*
X236183Y29486D01*
X236638Y29486D01*
X237093Y29943D01*
X237093Y31771D01*
X238003Y31314D02*
X238458Y31771D01*
X238458Y29486D01*
X237776Y29486D02*
X239141Y29486D01*
X240051Y31543D02*
X240279Y31771D01*
X240734Y31771D01*
X241189Y31314D01*
X241189Y30857D01*
X240961Y30629D01*
X241189Y30400D01*
X241189Y29943D01*
X240734Y29486D01*
X240279Y29486D01*
X240051Y29714D01*
X240279Y30629D02*
X240961Y30629D01*
X242489Y23600D02*
X266111Y23600D01*
X266111Y37380D01*
X242489Y37380D01*
X242489Y23600D01*
X200029Y37028D02*
X202314Y38393D01*
X202314Y37028D02*
X200029Y38393D01*
X200486Y39076D02*
X200029Y39531D01*
X200029Y39986D01*
X200486Y40441D01*
X200714Y40441D01*
X202314Y39076D01*
X202314Y40441D01*
X202086Y40441D01*
X219593Y28543D02*
X219138Y28086D01*
X218683Y28086D01*
X218228Y28543D01*
X218228Y29914D01*
X218683Y30371D01*
X219138Y30371D01*
X219593Y29914D01*
X220276Y29914D02*
X220731Y30371D01*
X221186Y30371D01*
X221641Y29914D01*
X221641Y29686D01*
X220276Y28086D01*
X221641Y28086D01*
X221641Y28314D01*
X222324Y28543D02*
X222779Y28086D01*
X223234Y28086D01*
X223689Y28543D01*
X223689Y29457D01*
X223689Y29914D01*
X223234Y30371D01*
X222779Y30371D01*
X222324Y29914D01*
X222324Y29457D01*
X222779Y29000D01*
X223234Y29000D01*
X223689Y29457D01*
X209167Y31400D02*
X217167Y31400D01*
X217167Y27072D01*
X209167Y27072D01*
X209167Y31400D01*
X195093Y30143D02*
X194638Y29686D01*
X194183Y29686D01*
X193728Y30143D01*
X193728Y31514D01*
X194183Y31971D01*
X194638Y31971D01*
X195093Y31514D01*
X196003Y31743D02*
X196231Y31971D01*
X196686Y31971D01*
X197141Y31514D01*
X197141Y31057D01*
X196913Y30829D01*
X197141Y30600D01*
X197141Y30143D01*
X196686Y29686D01*
X196231Y29686D01*
X196003Y29914D01*
X196231Y30829D02*
X196913Y30829D01*
X198051Y31743D02*
X198279Y31971D01*
X198734Y31971D01*
X199189Y31514D01*
X199189Y31057D01*
X198961Y30829D01*
X199189Y30600D01*
X199189Y30143D01*
X198734Y29686D01*
X198279Y29686D01*
X198051Y29914D01*
X198279Y30829D02*
X198961Y30829D01*
X190300Y37900D02*
X198300Y37900D01*
X198300Y33572D01*
X190300Y33572D01*
X190300Y37900D01*
X184793Y41843D02*
X184338Y41386D01*
X183883Y41386D01*
X183428Y41843D01*
X183428Y43214D01*
X183883Y43671D01*
X184338Y43671D01*
X184793Y43214D01*
X185703Y43443D02*
X185931Y43671D01*
X186386Y43671D01*
X186841Y43214D01*
X186841Y42757D01*
X186613Y42529D01*
X186841Y42300D01*
X186841Y41843D01*
X186386Y41386D01*
X185931Y41386D01*
X185703Y41614D01*
X185931Y42529D02*
X186613Y42529D01*
X187751Y43214D02*
X188206Y43671D01*
X188206Y41386D01*
X187524Y41386D02*
X188889Y41386D01*
X189500Y44800D02*
X197500Y44800D01*
X197500Y40472D01*
X189500Y40472D01*
X189500Y44800D01*
X126543Y99207D02*
X126086Y99662D01*
X126086Y100117D01*
X126543Y100572D01*
X127914Y100572D01*
X128371Y100117D01*
X128371Y99662D01*
X127914Y99207D01*
X127914Y98297D02*
X128371Y97842D01*
X126086Y97842D01*
X126086Y98524D02*
X126086Y97159D01*
X127000Y95111D02*
X127000Y96476D01*
X128371Y95339D01*
X126086Y95339D01*
X126086Y95566D02*
X126086Y95111D01*
X136200Y102000D02*
X131872Y102000D01*
X131872Y94000D01*
X136200Y94000D01*
X136200Y102000D01*
X159693Y50443D02*
X159238Y49986D01*
X158783Y49986D01*
X158328Y50443D01*
X158328Y51814D01*
X158783Y52271D01*
X159238Y52271D01*
X159693Y51814D01*
X160603Y51814D02*
X161058Y52271D01*
X161058Y49986D01*
X160376Y49986D02*
X161741Y49986D01*
X163561Y52271D02*
X162879Y52271D01*
X162424Y51814D01*
X162424Y50900D01*
X162424Y50443D01*
X162879Y49986D01*
X163334Y49986D01*
X163789Y50443D01*
X163789Y50900D01*
X163334Y51357D01*
X162879Y51357D01*
X162424Y50900D01*
X156000Y58200D02*
X164000Y58200D01*
X164000Y53872D01*
X156000Y53872D01*
X156000Y58200D01*
X174043Y54707D02*
X173586Y55162D01*
X173586Y55617D01*
X174043Y56072D01*
X175414Y56072D01*
X175871Y55617D01*
X175871Y55162D01*
X175414Y54707D01*
X175414Y53797D02*
X175871Y53342D01*
X173586Y53342D01*
X173586Y54024D02*
X173586Y52659D01*
X173586Y51294D02*
X174729Y51294D01*
X175414Y50611D01*
X175871Y50611D01*
X175871Y51976D01*
X175414Y51976D01*
X172200Y58000D02*
X167872Y58000D01*
X167872Y50000D01*
X172200Y50000D01*
X172200Y58000D01*
X64886Y55072D02*
X67171Y55072D01*
X67171Y54162D01*
X66714Y53707D01*
X66486Y53707D01*
X66029Y54162D01*
X66029Y55072D01*
X66029Y54845D02*
X64886Y53707D01*
X66714Y53024D02*
X67171Y52569D01*
X67171Y52114D01*
X66714Y51659D01*
X66486Y51659D01*
X64886Y53024D01*
X64886Y51659D01*
X65114Y51659D01*
X73000Y57400D02*
X68672Y57400D01*
X68672Y49400D01*
X73000Y49400D01*
X73000Y57400D01*
X102943Y51707D02*
X102486Y52162D01*
X102486Y52617D01*
X102943Y53072D01*
X104314Y53072D01*
X104771Y52617D01*
X104771Y52162D01*
X104314Y51707D01*
X104314Y51024D02*
X104771Y50569D01*
X104771Y50114D01*
X104314Y49659D01*
X104086Y49659D01*
X102486Y51024D01*
X102486Y49659D01*
X102714Y49659D01*
X103400Y47611D02*
X103400Y48976D01*
X104771Y47839D01*
X102486Y47839D01*
X102486Y48066D02*
X102486Y47611D01*
X110400Y54300D02*
X106072Y54300D01*
X106072Y46300D01*
X110400Y46300D01*
X110400Y54300D01*
X104243Y38607D02*
X103786Y39062D01*
X103786Y39517D01*
X104243Y39972D01*
X105614Y39972D01*
X106071Y39517D01*
X106071Y39062D01*
X105614Y38607D01*
X105614Y37924D02*
X106071Y37469D01*
X106071Y37014D01*
X105614Y36559D01*
X105386Y36559D01*
X103786Y37924D01*
X103786Y36559D01*
X104014Y36559D01*
X106071Y34511D02*
X106071Y35876D01*
X105157Y35876D01*
X105157Y34966D01*
X104700Y34511D01*
X104243Y34511D01*
X103786Y34966D01*
X103786Y35876D01*
X111100Y42300D02*
X106772Y42300D01*
X106772Y34300D01*
X111100Y34300D01*
X111100Y42300D01*
X110993Y27843D02*
X110538Y27386D01*
X110083Y27386D01*
X109628Y27843D01*
X109628Y29214D01*
X110083Y29671D01*
X110538Y29671D01*
X110993Y29214D01*
X111676Y29214D02*
X112131Y29671D01*
X112586Y29671D01*
X113041Y29214D01*
X113041Y28986D01*
X111676Y27386D01*
X113041Y27386D01*
X113041Y27614D01*
X114861Y29671D02*
X114179Y29671D01*
X113724Y29214D01*
X113724Y28300D01*
X113724Y27843D01*
X114179Y27386D01*
X114634Y27386D01*
X115089Y27843D01*
X115089Y28300D01*
X114634Y28757D01*
X114179Y28757D01*
X113724Y28300D01*
X116200Y31800D02*
X124200Y31800D01*
X124200Y27472D01*
X116200Y27472D01*
X116200Y31800D01*
X126193Y34543D02*
X125738Y34086D01*
X125283Y34086D01*
X124828Y34543D01*
X124828Y35914D01*
X125283Y36371D01*
X125738Y36371D01*
X126193Y35914D01*
X126876Y35914D02*
X127331Y36371D01*
X127786Y36371D01*
X128241Y35914D01*
X128241Y35686D01*
X126876Y34086D01*
X128241Y34086D01*
X128241Y34314D01*
X129151Y36143D02*
X129379Y36371D01*
X129834Y36371D01*
X130289Y35914D01*
X130289Y35457D01*
X130061Y35229D01*
X130289Y35000D01*
X130289Y34543D01*
X129834Y34086D01*
X129379Y34086D01*
X129151Y34314D01*
X129379Y35229D02*
X130061Y35229D01*
X116200Y37600D02*
X124200Y37600D01*
X124200Y33272D01*
X116200Y33272D01*
X116200Y37600D01*
X138286Y45672D02*
X140571Y45672D01*
X140571Y44762D01*
X140114Y44307D01*
X139886Y44307D01*
X139429Y44762D01*
X139429Y45672D01*
X139429Y45445D02*
X138286Y44307D01*
X140114Y43397D02*
X140571Y42942D01*
X138286Y42942D01*
X138286Y43624D02*
X138286Y42259D01*
X140114Y41349D02*
X140571Y40894D01*
X138286Y40894D01*
X138286Y41576D02*
X138286Y40211D01*
X137100Y50400D02*
X132772Y50400D01*
X132772Y42400D01*
X137100Y42400D01*
X137100Y50400D01*
X48335Y40070D02*
X48791Y39613D01*
X49246Y39613D01*
X49701Y40070D01*
X49701Y41899D01*
X50383Y41442D02*
X50839Y41899D01*
X51294Y41899D01*
X51749Y41442D01*
X51749Y41213D01*
X50383Y39613D01*
X51749Y39613D01*
X51749Y39842D01*
X61400Y12789D02*
X47620Y12789D01*
X47620Y36411D01*
X61400Y36411D01*
X61400Y12789D01*
X67180Y40191D02*
X67635Y39734D01*
X68090Y39734D01*
X68545Y40191D01*
X68545Y42019D01*
X69455Y41791D02*
X69683Y42019D01*
X70138Y42019D01*
X70593Y41562D01*
X70593Y41105D01*
X70365Y40877D01*
X70593Y40648D01*
X70593Y40191D01*
X70138Y39734D01*
X69683Y39734D01*
X69455Y39962D01*
X69683Y40877D02*
X70365Y40877D01*
X80200Y12889D02*
X66420Y12889D01*
X66420Y36511D01*
X80200Y36511D01*
X80200Y12889D01*
X211249Y17643D02*
X210794Y17186D01*
X210339Y17186D01*
X209884Y17643D01*
X209884Y19014D01*
X210339Y19471D01*
X210794Y19471D01*
X211249Y19014D01*
X211932Y19014D02*
X212387Y19471D01*
X212842Y19471D01*
X213297Y19014D01*
X213297Y18786D01*
X211932Y17186D01*
X213297Y17186D01*
X213297Y17414D01*
X214890Y17186D02*
X214435Y17186D01*
X213980Y17643D01*
X213980Y18100D01*
X214207Y18329D01*
X213980Y18557D01*
X213980Y19014D01*
X214435Y19471D01*
X214890Y19471D01*
X215345Y19014D01*
X215345Y18557D01*
X215117Y18329D01*
X215345Y18100D01*
X215345Y17643D01*
X214890Y17186D01*
X214207Y18329D02*
X215117Y18329D01*
X217167Y21000D02*
X209167Y21000D01*
X209167Y25328D01*
X217167Y25328D01*
X217167Y21000D01*
X219893Y34343D02*
X219438Y33886D01*
X218983Y33886D01*
X218528Y34343D01*
X218528Y35714D01*
X218983Y36171D01*
X219438Y36171D01*
X219893Y35714D01*
X220803Y35943D02*
X221031Y36171D01*
X221486Y36171D01*
X221941Y35714D01*
X221941Y35257D01*
X221713Y35029D01*
X221941Y34800D01*
X221941Y34343D01*
X221486Y33886D01*
X221031Y33886D01*
X220803Y34114D01*
X221031Y35029D02*
X221713Y35029D01*
X222624Y35714D02*
X223079Y36171D01*
X223534Y36171D01*
X223989Y35714D01*
X223989Y34343D01*
X223534Y33886D01*
X223079Y33886D01*
X222624Y34343D01*
X222624Y35714D01*
X223989Y35714D02*
X222624Y34343D01*
X217167Y33000D02*
X209167Y33000D01*
X209167Y37328D01*
X217167Y37328D01*
X217167Y33000D01*
X119028Y47271D02*
X119028Y45443D01*
X119483Y44986D01*
X119938Y44986D01*
X120393Y45443D01*
X120393Y47271D01*
X122441Y45900D02*
X121076Y45900D01*
X122213Y47271D01*
X122213Y44986D01*
X121986Y44986D02*
X122441Y44986D01*
X184093Y48043D02*
X183638Y47586D01*
X183183Y47586D01*
X182728Y48043D01*
X182728Y49414D01*
X183183Y49871D01*
X183638Y49871D01*
X184093Y49414D01*
X185003Y49643D02*
X185231Y49871D01*
X185686Y49871D01*
X186141Y49414D01*
X186141Y48957D01*
X185913Y48729D01*
X186141Y48500D01*
X186141Y48043D01*
X185686Y47586D01*
X185231Y47586D01*
X185003Y47814D01*
X185231Y48729D02*
X185913Y48729D01*
X186824Y49414D02*
X187279Y49871D01*
X187734Y49871D01*
X188189Y49414D01*
X188189Y49186D01*
X186824Y47586D01*
X188189Y47586D01*
X188189Y47814D01*
X197400Y47272D02*
X189400Y47272D01*
X189400Y51600D01*
X197400Y51600D01*
X197400Y47272D01*
X258284Y44843D02*
X258739Y44386D01*
X259194Y44386D01*
X259649Y44843D01*
X259649Y46671D01*
X260559Y46214D02*
X261014Y46671D01*
X261014Y44386D01*
X260332Y44386D02*
X261697Y44386D01*
X262380Y46214D02*
X262835Y46671D01*
X263290Y46671D01*
X263745Y46214D01*
X263745Y44843D01*
X263290Y44386D01*
X262835Y44386D01*
X262380Y44843D01*
X262380Y46214D01*
X263745Y46214D02*
X262380Y44843D01*
X266311Y61600D02*
X236783Y61600D01*
X236783Y47820D01*
X266311Y47820D01*
X266311Y61600D01*
X78549Y50943D02*
X78094Y50486D01*
X77639Y50486D01*
X77184Y50943D01*
X77184Y52314D01*
X77639Y52771D01*
X78094Y52771D01*
X78549Y52314D01*
X79459Y52314D02*
X79914Y52771D01*
X79914Y50486D01*
X79232Y50486D02*
X80597Y50486D01*
X81507Y52314D02*
X81962Y52771D01*
X81962Y50486D01*
X81280Y50486D02*
X82645Y50486D01*
X82000Y53800D02*
X74000Y53800D01*
X74000Y58128D01*
X82000Y58128D01*
X82000Y53800D01*
X218484Y67386D02*
X218484Y69671D01*
X219394Y69671D01*
X219849Y69214D01*
X219849Y68986D01*
X219394Y68529D01*
X218484Y68529D01*
X218711Y68529D02*
X219849Y67386D01*
X220759Y69214D02*
X221214Y69671D01*
X221214Y67386D01*
X220532Y67386D02*
X221897Y67386D01*
X222807Y69443D02*
X223035Y69671D01*
X223490Y69671D01*
X223945Y69214D01*
X223945Y68757D01*
X223717Y68529D01*
X223945Y68300D01*
X223945Y67843D01*
X223490Y67386D01*
X223035Y67386D01*
X222807Y67614D01*
X223035Y68529D02*
X223717Y68529D01*
X217400Y63500D02*
X209400Y63500D01*
X209400Y67828D01*
X217400Y67828D01*
X217400Y63500D01*
X38193Y80143D02*
X37738Y79686D01*
X37283Y79686D01*
X36828Y80143D01*
X36828Y81514D01*
X37283Y81971D01*
X37738Y81971D01*
X38193Y81514D01*
X39103Y81514D02*
X39558Y81971D01*
X39558Y79686D01*
X38876Y79686D02*
X40241Y79686D01*
X40924Y81514D02*
X41379Y81971D01*
X41834Y81971D01*
X42289Y81514D01*
X42289Y80143D01*
X41834Y79686D01*
X41379Y79686D01*
X40924Y80143D01*
X40924Y81514D01*
X42289Y81514D02*
X40924Y80143D01*
X44000Y83800D02*
X36000Y83800D01*
X36000Y88128D01*
X44000Y88128D01*
X44000Y83800D01*
X112332Y110871D02*
X113697Y108586D01*
X112332Y108586D02*
X113697Y110871D01*
X114607Y110414D02*
X115062Y110871D01*
X115062Y108586D01*
X114380Y108586D02*
X115745Y108586D01*
X256428Y114986D02*
X257338Y114986D01*
X257793Y115443D01*
X257793Y116814D01*
X257338Y117271D01*
X256428Y117271D01*
X256655Y117271D02*
X256655Y114986D01*
X258703Y116814D02*
X259158Y117271D01*
X259158Y114986D01*
X258476Y114986D02*
X259841Y114986D01*
X123897Y125643D02*
X123442Y125186D01*
X122987Y125186D01*
X122532Y125643D01*
X122532Y127014D01*
X122987Y127471D01*
X123442Y127471D01*
X123897Y127014D01*
X125490Y125186D02*
X125035Y125186D01*
X124580Y125643D01*
X124580Y126100D01*
X124807Y126329D01*
X124580Y126557D01*
X124580Y127014D01*
X125035Y127471D01*
X125490Y127471D01*
X125945Y127014D01*
X125945Y126557D01*
X125717Y126329D01*
X125945Y126100D01*
X125945Y125643D01*
X125490Y125186D01*
X124807Y126329D02*
X125717Y126329D01*
X126200Y119400D02*
X118200Y119400D01*
X118200Y123728D01*
X126200Y123728D01*
X126200Y119400D01*
X156632Y137643D02*
X157087Y137186D01*
X157542Y137186D01*
X157997Y137643D01*
X157997Y139471D01*
X158680Y137643D02*
X159135Y137186D01*
X159590Y137186D01*
X160045Y137643D01*
X160045Y138557D01*
X160045Y139014D01*
X159590Y139471D01*
X159135Y139471D01*
X158680Y139014D01*
X158680Y138557D01*
X159135Y138100D01*
X159590Y138100D01*
X160045Y138557D01*
X175280Y139810D02*
X176190Y139810D01*
X176645Y140267D01*
X176645Y141639D01*
X176190Y142096D01*
X175280Y142096D01*
X175507Y142096D02*
X175507Y139810D01*
X177328Y141639D02*
X177783Y142096D01*
X178238Y142096D01*
X178693Y141639D01*
X178693Y141410D01*
X177328Y139810D01*
X178693Y139810D01*
X178693Y140039D01*
X242957Y150793D02*
X243414Y150338D01*
X243414Y149883D01*
X242957Y149428D01*
X241586Y149428D01*
X241129Y149883D01*
X241129Y150338D01*
X241586Y150793D01*
X241586Y151703D02*
X241129Y152158D01*
X243414Y152158D01*
X243414Y151476D02*
X243414Y152841D01*
X242957Y153524D02*
X243414Y153979D01*
X243414Y154434D01*
X242957Y154889D01*
X242043Y154889D01*
X241586Y154889D01*
X241129Y154434D01*
X241129Y153979D01*
X241586Y153524D01*
X242043Y153524D01*
X242500Y153979D01*
X242500Y154434D01*
X242043Y154889D01*
X240300Y149900D02*
X232300Y149900D01*
X232300Y154228D01*
X240300Y154228D01*
X240300Y149900D01*
X68989Y131000D02*
X110328Y131000D01*
X110328Y144780D01*
X68989Y144780D01*
X68989Y131000D01*
X231428Y65943D02*
X231883Y65486D01*
X232338Y65486D01*
X232793Y65943D01*
X232793Y67771D01*
X234841Y67771D02*
X233476Y67771D01*
X233476Y66857D01*
X234386Y66857D01*
X234841Y66400D01*
X234841Y65943D01*
X234386Y65486D01*
X233476Y65486D01*
X266111Y83000D02*
X236583Y83000D01*
X236583Y69220D01*
X266111Y69220D01*
X266111Y83000D01*
X94528Y44443D02*
X94983Y43986D01*
X95438Y43986D01*
X95893Y44443D01*
X95893Y46271D01*
X96803Y45814D02*
X97258Y46271D01*
X97258Y43986D01*
X96576Y43986D02*
X97941Y43986D01*
X99989Y46271D02*
X98624Y46271D01*
X98624Y45357D01*
X99534Y45357D01*
X99989Y44900D01*
X99989Y44443D01*
X99534Y43986D01*
X98624Y43986D01*
X89000Y41711D02*
X102780Y41711D01*
X102780Y12183D01*
X89000Y12183D01*
X89000Y41711D01*
X200128Y105186D02*
X201038Y105186D01*
X201493Y105643D01*
X201493Y107014D01*
X201038Y107471D01*
X200128Y107471D01*
X200355Y107471D02*
X200355Y105186D01*
X203313Y107471D02*
X202631Y107471D01*
X202176Y107014D01*
X202176Y106100D01*
X202176Y105643D01*
X202631Y105186D01*
X203086Y105186D01*
X203541Y105643D01*
X203541Y106100D01*
X203086Y106557D01*
X202631Y106557D01*
X202176Y106100D01*
X199728Y90186D02*
X200638Y90186D01*
X201093Y90643D01*
X201093Y92014D01*
X200638Y92471D01*
X199728Y92471D01*
X199955Y92471D02*
X199955Y90186D01*
X203141Y92471D02*
X201776Y92471D01*
X201776Y91557D01*
X202686Y91557D01*
X203141Y91100D01*
X203141Y90643D01*
X202686Y90186D01*
X201776Y90186D01*
X191140Y129386D02*
X191140Y131671D01*
X192050Y131671D01*
X192505Y131214D01*
X192505Y130986D01*
X192050Y130529D01*
X191140Y130529D01*
X191367Y130529D02*
X192505Y129386D01*
X194553Y130300D02*
X193188Y130300D01*
X194325Y131671D01*
X194325Y129386D01*
X194098Y129386D02*
X194553Y129386D01*
X188600Y128300D02*
X196600Y128300D01*
X196600Y123972D01*
X188600Y123972D01*
X188600Y128300D01*
X250886Y139604D02*
X253171Y139604D01*
X253171Y138694D01*
X252714Y138239D01*
X252486Y138239D01*
X252029Y138694D01*
X252029Y139604D01*
X252029Y139377D02*
X250886Y138239D01*
X252714Y137329D02*
X253171Y136874D01*
X250886Y136874D01*
X250886Y137556D02*
X250886Y136191D01*
X250886Y134598D02*
X250886Y135053D01*
X251343Y135508D01*
X251800Y135508D01*
X252029Y135281D01*
X252257Y135508D01*
X252714Y135508D01*
X253171Y135053D01*
X253171Y134598D01*
X252714Y134143D01*
X252257Y134143D01*
X252029Y134371D01*
X251800Y134143D01*
X251343Y134143D01*
X250886Y134598D01*
X252029Y135281D02*
X252029Y134371D01*
X249400Y141700D02*
X245072Y141700D01*
X245072Y133700D01*
X249400Y133700D01*
X249400Y141700D01*
X227514Y103540D02*
X225229Y103540D01*
X225229Y104450D01*
X225686Y104905D01*
X225914Y104905D01*
X226371Y104450D01*
X226371Y103540D01*
X226371Y103767D02*
X227514Y104905D01*
X227514Y106498D02*
X227514Y106043D01*
X227057Y105588D01*
X226600Y105588D01*
X226371Y105815D01*
X226143Y105588D01*
X225686Y105588D01*
X225229Y106043D01*
X225229Y106498D01*
X225686Y106953D01*
X226143Y106953D01*
X226371Y106725D01*
X226600Y106953D01*
X227057Y106953D01*
X227514Y106498D01*
X226371Y105815D02*
X226371Y106725D01*
X228600Y101000D02*
X232928Y101000D01*
X232928Y109000D01*
X228600Y109000D01*
X228600Y101000D01*
X173028Y15871D02*
X173028Y14043D01*
X173483Y13586D01*
X173938Y13586D01*
X174393Y14043D01*
X174393Y15871D01*
X175303Y15643D02*
X175531Y15871D01*
X175986Y15871D01*
X176441Y15414D01*
X176441Y14957D01*
X176213Y14729D01*
X176441Y14500D01*
X176441Y14043D01*
X175986Y13586D01*
X175531Y13586D01*
X175303Y13814D01*
X175531Y14729D02*
X176213Y14729D01*
X111028Y9571D02*
X111028Y7743D01*
X111483Y7286D01*
X111938Y7286D01*
X112393Y7743D01*
X112393Y9571D01*
X113986Y7286D02*
X113531Y7286D01*
X113076Y7743D01*
X113076Y8200D01*
X113303Y8429D01*
X113076Y8657D01*
X113076Y9114D01*
X113531Y9571D01*
X113986Y9571D01*
X114441Y9114D01*
X114441Y8657D01*
X114213Y8429D01*
X114441Y8200D01*
X114441Y7743D01*
X113986Y7286D01*
X113303Y8429D02*
X114213Y8429D01*
X212928Y50071D02*
X212928Y48243D01*
X213383Y47786D01*
X213838Y47786D01*
X214293Y48243D01*
X214293Y50071D01*
X216341Y50071D02*
X214976Y50071D01*
X214976Y49157D01*
X215886Y49157D01*
X216341Y48700D01*
X216341Y48243D01*
X215886Y47786D01*
X214976Y47786D01*
X74230Y87687D02*
X74230Y85858D01*
X74685Y85401D01*
X75140Y85401D01*
X75595Y85858D01*
X75595Y87687D01*
X76505Y87230D02*
X76960Y87687D01*
X76960Y85401D01*
X76278Y85401D02*
X77643Y85401D01*
X162452Y87171D02*
X162452Y85343D01*
X162907Y84886D01*
X163362Y84886D01*
X163817Y85343D01*
X163817Y87171D01*
X164500Y86714D02*
X164955Y87171D01*
X165410Y87171D01*
X165865Y86714D01*
X165865Y86486D01*
X164500Y84886D01*
X165865Y84886D01*
X165865Y85114D01*
X130161Y83443D02*
X129706Y82986D01*
X129251Y82986D01*
X128796Y83443D01*
X128796Y84814D01*
X129251Y85271D01*
X129706Y85271D01*
X130161Y84814D01*
X131071Y84814D02*
X131526Y85271D01*
X131526Y82986D01*
X130844Y82986D02*
X132209Y82986D01*
X134257Y85271D02*
X132892Y85271D01*
X132892Y84357D01*
X133802Y84357D01*
X134257Y83900D01*
X134257Y83443D01*
X133802Y82986D01*
X132892Y82986D01*
X136000Y85800D02*
X128000Y85800D01*
X128000Y90128D01*
X136000Y90128D01*
X136000Y85800D01*
X242593Y103943D02*
X242138Y103486D01*
X241683Y103486D01*
X241228Y103943D01*
X241228Y105314D01*
X241683Y105771D01*
X242138Y105771D01*
X242593Y105314D01*
X244641Y105771D02*
X243276Y105771D01*
X243276Y104857D01*
X244186Y104857D01*
X244641Y104400D01*
X244641Y103943D01*
X244186Y103486D01*
X243276Y103486D01*
X240200Y109100D02*
X235872Y109100D01*
X235872Y101100D01*
X240200Y101100D01*
X240200Y109100D01*
X226180Y119523D02*
X226180Y117695D01*
X226635Y117238D01*
X227090Y117238D01*
X227545Y117695D01*
X227545Y119523D01*
X228910Y117238D02*
X228910Y118381D01*
X229593Y119066D01*
X229593Y119523D01*
X228228Y119523D01*
X228228Y119066D01*
X241145Y127891D02*
X240690Y127434D01*
X240235Y127434D01*
X239780Y127891D01*
X239780Y129262D01*
X240235Y129719D01*
X240690Y129719D01*
X241145Y129262D01*
X242055Y129262D02*
X242510Y129719D01*
X242510Y127434D01*
X241828Y127434D02*
X243193Y127434D01*
X244400Y119900D02*
X248728Y119900D01*
X248728Y127900D01*
X244400Y127900D01*
X244400Y119900D01*
X46128Y122886D02*
X47038Y122886D01*
X47493Y123343D01*
X47493Y124714D01*
X47038Y125171D01*
X46128Y125171D01*
X46355Y125171D02*
X46355Y122886D01*
X48403Y124943D02*
X48631Y125171D01*
X49086Y125171D01*
X49541Y124714D01*
X49541Y124257D01*
X49313Y124029D01*
X49541Y123800D01*
X49541Y123343D01*
X49086Y122886D01*
X48631Y122886D01*
X48403Y123114D01*
X48631Y124029D02*
X49313Y124029D01*
X56428Y122386D02*
X57338Y122386D01*
X57793Y122843D01*
X57793Y124214D01*
X57338Y124671D01*
X56428Y124671D01*
X56655Y124671D02*
X56655Y122386D01*
X59841Y123300D02*
X58476Y123300D01*
X59613Y124671D01*
X59613Y122386D01*
X59386Y122386D02*
X59841Y122386D01*
X196080Y134423D02*
X196080Y132595D01*
X196535Y132138D01*
X196990Y132138D01*
X197445Y132595D01*
X197445Y134423D01*
X199265Y134423D02*
X198583Y134423D01*
X198128Y133966D01*
X198128Y133052D01*
X198128Y132595D01*
X198583Y132138D01*
X199038Y132138D01*
X199493Y132595D01*
X199493Y133052D01*
X199038Y133509D01*
X198583Y133509D01*
X198128Y133052D01*
X255328Y102886D02*
X255328Y105171D01*
X256238Y105171D01*
X256693Y104714D01*
X256693Y104486D01*
X256238Y104029D01*
X255328Y104029D01*
X255555Y104029D02*
X256693Y102886D01*
X257603Y104943D02*
X257831Y105171D01*
X258286Y105171D01*
X258741Y104714D01*
X258741Y104257D01*
X258513Y104029D01*
X258741Y103800D01*
X258741Y103343D01*
X258286Y102886D01*
X257831Y102886D01*
X257603Y103114D01*
X257831Y104029D02*
X258513Y104029D01*
X110943Y19495D02*
X110486Y19950D01*
X110486Y20405D01*
X110943Y20860D01*
X112314Y20860D01*
X112771Y20405D01*
X112771Y19950D01*
X112314Y19495D01*
X110486Y18130D02*
X111629Y18130D01*
X112314Y17447D01*
X112771Y17447D01*
X112771Y18812D01*
X112314Y18812D01*
X109500Y23400D02*
X105172Y23400D01*
X105172Y15400D01*
X109500Y15400D01*
X109500Y23400D01*
X46028Y148986D02*
X46028Y151271D01*
X46938Y151271D01*
X47393Y150814D01*
X47393Y150586D01*
X46938Y150129D01*
X46028Y150129D01*
X46255Y150129D02*
X47393Y148986D01*
X49441Y151271D02*
X48076Y151271D01*
X48076Y150357D01*
X48986Y150357D01*
X49441Y149900D01*
X49441Y149443D01*
X48986Y148986D01*
X48076Y148986D01*
X50000Y148250D02*
X45672Y148250D01*
X45672Y140250D01*
X50000Y140250D01*
X50000Y148250D01*
X56328Y148986D02*
X56328Y151271D01*
X57238Y151271D01*
X57693Y150814D01*
X57693Y150586D01*
X57238Y150129D01*
X56328Y150129D01*
X56555Y150129D02*
X57693Y148986D01*
X59513Y151271D02*
X58831Y151271D01*
X58376Y150814D01*
X58376Y149900D01*
X58376Y149443D01*
X58831Y148986D01*
X59286Y148986D01*
X59741Y149443D01*
X59741Y149900D01*
X59286Y150357D01*
X58831Y150357D01*
X58376Y149900D01*
X60300Y148250D02*
X55972Y148250D01*
X55972Y140250D01*
X60300Y140250D01*
X60300Y148250D01*
X212028Y105586D02*
X212028Y107871D01*
X212938Y107871D01*
X213393Y107414D01*
X213393Y107186D01*
X212938Y106729D01*
X212028Y106729D01*
X212255Y106729D02*
X213393Y105586D01*
X214303Y107414D02*
X214758Y107871D01*
X214758Y105586D01*
X214076Y105586D02*
X215441Y105586D01*
X217489Y106500D02*
X216124Y106500D01*
X217261Y107871D01*
X217261Y105586D01*
X217034Y105586D02*
X217489Y105586D01*
X218800Y100200D02*
X210800Y100200D01*
X210800Y104528D01*
X218800Y104528D01*
X218800Y100200D01*
X212428Y89786D02*
X212428Y92071D01*
X213338Y92071D01*
X213793Y91614D01*
X213793Y91386D01*
X213338Y90929D01*
X212428Y90929D01*
X212655Y90929D02*
X213793Y89786D01*
X214703Y91614D02*
X215158Y92071D01*
X215158Y89786D01*
X214476Y89786D02*
X215841Y89786D01*
X217889Y92071D02*
X216524Y92071D01*
X216524Y91157D01*
X217434Y91157D01*
X217889Y90700D01*
X217889Y90243D01*
X217434Y89786D01*
X216524Y89786D01*
X218900Y92900D02*
X210900Y92900D01*
X210900Y97228D01*
X218900Y97228D01*
X218900Y92900D01*
G54D12*
X246400Y143900D02*
X246400Y154900D01*
X253400Y154900D02*
X253400Y143900D01*
X246400Y143900D01*
X246400Y154900D02*
X253400Y154900D01*
G54D13*
G36*
X258280Y154000D02*
X258280Y154000D01*
X258380Y149800D01*
X262480Y154000D01*
X258280Y154000D01*
D02*
G37*
X258380Y149800D01*
X262480Y154000D01*
X258280Y154000D01*
G36*
X242700Y23780D02*
X242700Y23780D01*
X246900Y23880D01*
X242700Y27980D01*
X242700Y23780D01*
D02*
G37*
X246900Y23880D01*
X242700Y27980D01*
X242700Y23780D01*
G36*
X61220Y13000D02*
X61220Y13000D01*
X61120Y17200D01*
X57020Y13000D01*
X61220Y13000D01*
D02*
G37*
X61120Y17200D01*
X57020Y13000D01*
X61220Y13000D01*
G36*
X80020Y13100D02*
X80020Y13100D01*
X79920Y17300D01*
X75820Y13100D01*
X80020Y13100D01*
D02*
G37*
X79920Y17300D01*
X75820Y13100D01*
X80020Y13100D01*
G36*
X266100Y61420D02*
X266100Y61420D01*
X261900Y61320D01*
X266100Y57220D01*
X266100Y61420D01*
D02*
G37*
X261900Y61320D01*
X266100Y57220D01*
X266100Y61420D01*
G36*
X69200Y131180D02*
X69200Y131180D01*
X73400Y131280D01*
X69200Y135380D01*
X69200Y131180D01*
D02*
G37*
X73400Y131280D01*
X69200Y135380D01*
X69200Y131180D01*
G36*
X265900Y82820D02*
X265900Y82820D01*
X261700Y82720D01*
X265900Y78620D01*
X265900Y82820D01*
D02*
G37*
X261700Y82720D01*
X265900Y78620D01*
X265900Y82820D01*
G36*
X89180Y41500D02*
X89180Y41500D01*
X89280Y37300D01*
X93380Y41500D01*
X89180Y41500D01*
D02*
G37*
X89280Y37300D01*
X93380Y41500D01*
X89180Y41500D01*
G54D14*
X33117Y45700D02*
X2917Y45700D01*
X2917Y5700D01*
X33117Y5700D01*
X33117Y45700D01*
X2917Y45700D02*
X22917Y45700D01*
X13317Y35700D02*
X3317Y35700D01*
X13317Y45700D02*
X13317Y35800D01*
X2917Y99644D02*
X22917Y99644D01*
X13317Y89644D02*
X3317Y89644D01*
X13317Y99644D02*
X13317Y89744D01*
X33117Y99644D02*
X2917Y99644D01*
X2917Y59643D01*
X33117Y59643D01*
X33117Y99644D01*
X33117Y153588D02*
X2917Y153588D01*
X2917Y113587D01*
X33117Y113587D01*
X33117Y153588D01*
X2917Y153588D02*
X22917Y153588D01*
X13317Y143588D02*
X3317Y143588D01*
X13317Y153588D02*
X13317Y143688D01*
X158764Y157122D02*
X129236Y157122D01*
X158764Y150035D02*
X158764Y157122D01*
X158764Y140685D02*
X158764Y142161D01*
X151283Y135075D02*
X152071Y135075D01*
X129236Y157122D02*
X129236Y150035D01*
X129236Y140685D02*
X129236Y142161D01*
X136717Y135075D02*
X135929Y135075D01*
X39581Y149567D02*
X40438Y148713D01*
X36152Y148713D01*
X36152Y149993D02*
X36152Y147433D01*
X37900Y117613D02*
X37900Y120173D01*
X40471Y118040D01*
X36186Y118040D01*
X36186Y118467D02*
X36186Y117613D01*
X47227Y5843D02*
X48080Y4986D01*
X48933Y4986D01*
X49787Y5843D01*
X47227Y8414D01*
X48080Y9271D01*
X48933Y9271D01*
X49787Y8414D01*
X51067Y4986D02*
X51067Y7557D01*
X51920Y9271D01*
X52773Y9271D01*
X53627Y7557D01*
X53627Y4986D01*
X51067Y6271D02*
X53627Y6271D01*
X56187Y4986D02*
X56187Y9271D01*
X54907Y9271D02*
X57467Y9271D01*
X59173Y8414D02*
X60027Y9271D01*
X60027Y4986D01*
X58747Y4986D02*
X61307Y4986D01*
X67127Y5843D02*
X67980Y4986D01*
X68833Y4986D01*
X69687Y5843D01*
X67127Y8414D01*
X67980Y9271D01*
X68833Y9271D01*
X69687Y8414D01*
X70967Y4986D02*
X70967Y7557D01*
X71820Y9271D01*
X72673Y9271D01*
X73527Y7557D01*
X73527Y4986D01*
X70967Y6271D02*
X73527Y6271D01*
X76087Y4986D02*
X76087Y9271D01*
X74807Y9271D02*
X77367Y9271D01*
X78647Y8414D02*
X79500Y9271D01*
X80353Y9271D01*
X81207Y8414D01*
X81207Y7986D01*
X78647Y4986D01*
X81207Y4986D01*
X81207Y5414D01*
X89827Y5843D02*
X90680Y4986D01*
X91533Y4986D01*
X92387Y5843D01*
X92387Y8414D01*
X91533Y9271D01*
X90680Y9271D01*
X89827Y8414D01*
X89827Y5843D01*
X93667Y5843D02*
X94520Y4986D01*
X95373Y4986D01*
X96227Y5843D01*
X93667Y8414D01*
X94520Y9271D01*
X95373Y9271D01*
X96227Y8414D01*
X97507Y4986D02*
X99213Y4986D01*
X100067Y5843D01*
X100067Y8414D01*
X99213Y9271D01*
X97507Y9271D01*
X97933Y9271D02*
X97933Y4986D01*
X241827Y15743D02*
X242680Y14886D01*
X243533Y14886D01*
X244387Y15743D01*
X241827Y18314D01*
X242680Y19171D01*
X243533Y19171D01*
X244387Y18314D01*
X245667Y19171D02*
X246093Y14886D01*
X246947Y16600D01*
X247800Y14886D01*
X248227Y19171D01*
X252067Y19171D02*
X249507Y14886D01*
X253347Y19171D02*
X253347Y14886D01*
X255907Y14886D01*
X259747Y14886D02*
X257187Y14886D01*
X257187Y17029D01*
X257187Y19171D01*
X259747Y19171D01*
X257187Y17029D02*
X258893Y17029D01*
X261027Y14886D02*
X262733Y14886D01*
X263587Y15743D01*
X263587Y18314D01*
X262733Y19171D01*
X261027Y19171D01*
X261453Y19171D02*
X261453Y14886D01*
X238833Y42529D02*
X239687Y42529D01*
X239687Y41243D01*
X238833Y40386D01*
X237980Y40386D01*
X237127Y41243D01*
X237127Y43814D01*
X237980Y44671D01*
X239687Y44671D01*
X240967Y40386D02*
X240967Y44671D01*
X242673Y44671D01*
X243527Y43814D01*
X243527Y43386D01*
X242673Y42529D01*
X240967Y42529D01*
X244807Y41243D02*
X245660Y40386D01*
X246513Y40386D01*
X247367Y41243D01*
X244807Y43814D01*
X245660Y44671D01*
X246513Y44671D01*
X247367Y43814D01*
X229986Y80920D02*
X229986Y80067D01*
X234271Y80920D02*
X234271Y80067D01*
X229986Y80493D02*
X234271Y80493D01*
X233414Y77933D02*
X234271Y77080D01*
X234271Y76227D01*
X233414Y75373D01*
X232986Y75373D01*
X229986Y77933D01*
X229986Y75373D01*
X230414Y75373D01*
X230843Y71533D02*
X229986Y72387D01*
X229986Y73240D01*
X230843Y74093D01*
X233414Y74093D01*
X234271Y73240D01*
X234271Y72387D01*
X233414Y71533D01*
X113286Y146193D02*
X117571Y146193D01*
X117571Y147473D02*
X117571Y144913D01*
X113286Y141073D02*
X113286Y143633D01*
X115429Y143633D01*
X117571Y143633D01*
X117571Y141073D01*
X115429Y143633D02*
X115429Y141927D01*
X117571Y139793D02*
X113286Y139793D01*
X113286Y137233D01*
X113286Y133393D02*
X113286Y135953D01*
X115429Y135953D01*
X117571Y135953D01*
X117571Y133393D01*
X115429Y135953D02*
X115429Y134247D01*
X113286Y132113D02*
X117571Y132113D01*
X115429Y130833D01*
X117571Y129553D01*
X113286Y129553D01*
X39581Y12547D02*
X40438Y11693D01*
X36152Y11693D01*
X36152Y12973D02*
X36152Y10413D01*
X39581Y9133D02*
X40438Y8280D01*
X40438Y7427D01*
X39581Y6573D01*
X39152Y6573D01*
X36152Y9133D01*
X36152Y6573D01*
X36581Y6573D01*
X37043Y41673D02*
X36186Y40820D01*
X36186Y39967D01*
X37043Y39113D01*
X38757Y39113D01*
X39614Y39113D01*
X40471Y39967D01*
X40471Y40820D01*
X39614Y41673D01*
X38757Y41673D01*
X37900Y40820D01*
X37900Y39967D01*
X38757Y39113D01*
X36186Y63667D02*
X36186Y64520D01*
X37043Y65373D01*
X37900Y65373D01*
X38329Y64947D01*
X38757Y65373D01*
X39614Y65373D01*
X40471Y64520D01*
X40471Y63667D01*
X39614Y62813D01*
X38757Y62813D01*
X38329Y63240D01*
X37900Y62813D01*
X37043Y62813D01*
X36186Y63667D01*
X38329Y64947D02*
X38329Y63240D01*
X40471Y93113D02*
X40471Y95673D01*
X38757Y95673D01*
X38757Y93967D01*
X37900Y93113D01*
X37043Y93113D01*
X36186Y93967D01*
X36186Y95673D01*
X266100Y109600D02*
X266100Y98600D01*
X259100Y98600D02*
X259100Y109600D01*
X266100Y98600D02*
X259100Y98600D01*
X259100Y109600D02*
X266100Y109600D01*
G54D15*
X180104Y137746D02*
X174096Y137746D01*
X180104Y131054D02*
X174096Y131054D01*
X17400Y109003D02*
X17400Y106443D01*
X19114Y107723D02*
X15686Y107723D01*
X7920Y109003D02*
X7920Y106443D01*
X26800Y108900D02*
X30600Y108900D01*
X26750Y105400D02*
X26750Y103000D01*
X26750Y111300D02*
X26750Y108900D01*
X30500Y105500D02*
X26800Y105500D01*
X30600Y108800D02*
X30600Y105500D01*
X7200Y54293D02*
X7200Y51733D01*
X16680Y54293D02*
X16680Y51733D01*
X18394Y53013D02*
X14966Y53013D01*
X26030Y56590D02*
X26030Y54190D01*
X26080Y54190D02*
X29880Y54190D01*
X26030Y50690D02*
X26030Y48290D01*
X29780Y50790D02*
X26080Y50790D01*
X29880Y54090D02*
X29880Y50790D01*
G54D16*
X183742Y130306D02*
G75*
D01*
G02X183742Y130306I492J0*
G01*
X161909Y39227D02*
G75*
D01*
G02X161909Y39227I493J0*
G01*
X123220Y6910D02*
G75*
D01*
G02X123220Y6910I492J0*
G01*
X58435Y61981D02*
G75*
D01*
G02X58435Y61981I492J0*
G01*
X188114Y68677D02*
G75*
D01*
G02X188114Y68677I492J0*
G01*
G54D17*
X168701Y18754D02*
X181299Y18754D01*
X181299Y38046D02*
X168701Y38046D01*
X168701Y18754D01*
X181299Y18754D02*
X181299Y38046D01*
X119480Y19509D02*
X116920Y19509D01*
X116920Y8091D02*
X119480Y8091D01*
X119480Y19509D01*
X116920Y19509D02*
X116920Y8091D01*
X57943Y68281D02*
X94557Y68281D01*
X94557Y104895D01*
X57943Y104895D01*
X57943Y68281D01*
X182307Y67693D02*
X145693Y67693D01*
X145693Y104307D01*
X182307Y104307D01*
X182307Y67693D01*
G54D18*
X171654Y34109D02*
G75*
D01*
G02X171654Y34109I984J0*
G01*
X60600Y71922D02*
G75*
D01*
G02X60600Y71922I985J0*
G01*
X177681Y71335D02*
G75*
D01*
G02X177681Y71335I984J0*
G01*
G54D19*
X101800Y153800D03*
X192200Y6500D03*
G54D20*
X232600Y147800D03*
X127800Y117300D03*
X241600Y122900D03*
X210400Y135700D03*
G54D21*
X130400Y57900D03*
X261500Y113200D03*
X206400Y98900D03*
X206400Y91600D03*
X205000Y38500D03*
X51500Y135000D03*
X61500Y135000D03*

M02*
