G04 Generated by Ultiboard 14.1 *
%FSLAX24Y24*%
%MOIN*%

%ADD10C,0.0001*%
%ADD11C,0.0060*%
%ADD12C,0.0070*%
%ADD13C,0.0001*%
%ADD14C,0.0080*%
%ADD15C,0.0100*%
%ADD16C,0.0098*%
%ADD17C,0.0079*%
%ADD18C,0.0197*%
%ADD19C,0.02828*%
%ADD20C,0.01414*%
%ADD21C,0.02236*%


G04 ColorRGB FFFF00 for the following layer *
%LNSilkscreen Top*%
%LPD*%
G54D10*
G54D11*
X9980Y15080D02*
X6980Y15080D01*
X6980Y15680D01*
X9980Y15680D01*
X9980Y15080D01*
X19420Y950D02*
X22420Y950D01*
X22420Y350D01*
X19420Y350D01*
X19420Y950D01*
X5129Y14417D02*
X5357Y14417D01*
X5357Y14326D01*
X5311Y14281D01*
X5289Y14281D01*
X5243Y14326D01*
X5243Y14417D01*
X5243Y14394D02*
X5129Y14281D01*
X5357Y14076D02*
X5357Y14212D01*
X5266Y14212D01*
X5266Y14121D01*
X5220Y14076D01*
X5174Y14076D01*
X5129Y14121D01*
X5129Y14212D01*
X5020Y14800D02*
X4587Y14800D01*
X4587Y14000D01*
X5020Y14000D01*
X5020Y14800D01*
X7590Y12164D02*
X7545Y12119D01*
X7499Y12119D01*
X7454Y12164D01*
X7454Y12301D01*
X7499Y12347D01*
X7545Y12347D01*
X7590Y12301D01*
X7659Y12164D02*
X7704Y12119D01*
X7750Y12119D01*
X7795Y12164D01*
X7795Y12256D01*
X7795Y12301D01*
X7750Y12347D01*
X7704Y12347D01*
X7659Y12301D01*
X7659Y12256D01*
X7704Y12210D01*
X7750Y12210D01*
X7795Y12256D01*
X7200Y12020D02*
X8000Y12020D01*
X8000Y11587D01*
X7200Y11587D01*
X7200Y12020D01*
X11164Y8912D02*
X11119Y8957D01*
X11119Y9003D01*
X11164Y9048D01*
X11301Y9048D01*
X11347Y9003D01*
X11347Y8957D01*
X11301Y8912D01*
X11301Y8821D02*
X11347Y8775D01*
X11119Y8775D01*
X11119Y8844D02*
X11119Y8707D01*
X11324Y8616D02*
X11347Y8593D01*
X11347Y8548D01*
X11301Y8502D01*
X11256Y8502D01*
X11233Y8525D01*
X11210Y8502D01*
X11164Y8502D01*
X11119Y8548D01*
X11119Y8593D01*
X11141Y8616D01*
X11233Y8593D02*
X11233Y8525D01*
X11020Y9200D02*
X10587Y9200D01*
X10587Y8400D01*
X11020Y8400D01*
X11020Y9200D01*
X10888Y7964D02*
X10843Y7919D01*
X10797Y7919D01*
X10752Y7964D01*
X10752Y8101D01*
X10797Y8147D01*
X10843Y8147D01*
X10888Y8101D01*
X10979Y8101D02*
X11025Y8147D01*
X11025Y7919D01*
X10956Y7919D02*
X11093Y7919D01*
X11161Y8101D02*
X11207Y8147D01*
X11252Y8147D01*
X11298Y8101D01*
X11298Y8079D01*
X11161Y7919D01*
X11298Y7919D01*
X11298Y7941D01*
X10600Y7820D02*
X11400Y7820D01*
X11400Y7387D01*
X10600Y7387D01*
X10600Y7820D01*
X16088Y11964D02*
X16043Y11919D01*
X15997Y11919D01*
X15952Y11964D01*
X15952Y12101D01*
X15997Y12147D01*
X16043Y12147D01*
X16088Y12101D01*
X16156Y12101D02*
X16202Y12147D01*
X16247Y12147D01*
X16293Y12101D01*
X16293Y12079D01*
X16156Y11919D01*
X16293Y11919D01*
X16293Y11941D01*
X16384Y12101D02*
X16429Y12147D01*
X16429Y11919D01*
X16361Y11919D02*
X16498Y11919D01*
X15800Y11820D02*
X16600Y11820D01*
X16600Y11387D01*
X15800Y11387D01*
X15800Y11820D01*
X19488Y8764D02*
X19443Y8719D01*
X19397Y8719D01*
X19352Y8764D01*
X19352Y8901D01*
X19397Y8947D01*
X19443Y8947D01*
X19488Y8901D01*
X19556Y8901D02*
X19602Y8947D01*
X19647Y8947D01*
X19693Y8901D01*
X19693Y8879D01*
X19556Y8719D01*
X19693Y8719D01*
X19693Y8741D01*
X19761Y8901D02*
X19807Y8947D01*
X19852Y8947D01*
X19898Y8901D01*
X19898Y8764D01*
X19852Y8719D01*
X19807Y8719D01*
X19761Y8764D01*
X19761Y8901D01*
X19898Y8901D02*
X19761Y8764D01*
X19200Y8620D02*
X20000Y8620D01*
X20000Y8187D01*
X19200Y8187D01*
X19200Y8620D01*
X13604Y1300D02*
X13559Y1345D01*
X13559Y1391D01*
X13604Y1436D01*
X13741Y1436D01*
X13787Y1391D01*
X13787Y1345D01*
X13741Y1300D01*
X13559Y1163D02*
X13673Y1163D01*
X13741Y1095D01*
X13787Y1095D01*
X13787Y1231D01*
X13741Y1231D01*
X13460Y1690D02*
X13027Y1690D01*
X13027Y890D01*
X13460Y890D01*
X13460Y1690D01*
X22964Y4402D02*
X22919Y4447D01*
X22919Y4493D01*
X22964Y4538D01*
X23101Y4538D01*
X23147Y4493D01*
X23147Y4447D01*
X23101Y4402D01*
X23101Y4334D02*
X23147Y4288D01*
X23147Y4243D01*
X23101Y4197D01*
X23079Y4197D01*
X22919Y4334D01*
X22919Y4197D01*
X22941Y4197D01*
X22919Y4061D02*
X23033Y4061D01*
X23101Y3992D01*
X23147Y3992D01*
X23147Y4129D01*
X23101Y4129D01*
X22820Y4690D02*
X22387Y4690D01*
X22387Y3890D01*
X22820Y3890D01*
X22820Y4690D01*
X19851Y5412D02*
X19623Y5412D01*
X19623Y5503D01*
X19669Y5548D01*
X19691Y5548D01*
X19737Y5503D01*
X19737Y5412D01*
X19737Y5434D02*
X19851Y5548D01*
X19669Y5639D02*
X19623Y5685D01*
X19851Y5685D01*
X19851Y5616D02*
X19851Y5753D01*
X19669Y5821D02*
X19623Y5867D01*
X19623Y5912D01*
X19669Y5958D01*
X19691Y5958D01*
X19851Y5821D01*
X19851Y5958D01*
X19829Y5958D01*
X19960Y5260D02*
X20393Y5260D01*
X20393Y6060D01*
X19960Y6060D01*
X19960Y5260D01*
X21679Y12764D02*
X21634Y12719D01*
X21588Y12719D01*
X21543Y12764D01*
X21543Y12901D01*
X21588Y12947D01*
X21634Y12947D01*
X21679Y12901D01*
X21748Y12901D02*
X21793Y12947D01*
X21839Y12947D01*
X21884Y12901D01*
X21884Y12879D01*
X21748Y12719D01*
X21884Y12719D01*
X21884Y12741D01*
X21140Y12620D02*
X21940Y12620D01*
X21940Y12187D01*
X21140Y12187D01*
X21140Y12620D01*
X19314Y14519D02*
X19314Y14747D01*
X19405Y14747D01*
X19450Y14701D01*
X19450Y14679D01*
X19405Y14633D01*
X19314Y14633D01*
X19337Y14633D02*
X19450Y14519D01*
X19542Y14701D02*
X19587Y14747D01*
X19587Y14519D01*
X19519Y14519D02*
X19655Y14519D01*
X19060Y14410D02*
X19860Y14410D01*
X19860Y13977D01*
X19060Y13977D01*
X19060Y14410D01*
X25759Y9178D02*
X25987Y9178D01*
X25987Y9087D01*
X25941Y9042D01*
X25919Y9042D01*
X25873Y9087D01*
X25873Y9178D01*
X25873Y9156D02*
X25759Y9042D01*
X25941Y8951D02*
X25987Y8905D01*
X25759Y8905D01*
X25759Y8974D02*
X25759Y8837D01*
X25987Y8655D02*
X25987Y8723D01*
X25941Y8769D01*
X25850Y8769D01*
X25804Y8769D01*
X25759Y8723D01*
X25759Y8678D01*
X25804Y8632D01*
X25850Y8632D01*
X25896Y8678D01*
X25896Y8723D01*
X25850Y8769D01*
X25650Y9330D02*
X25217Y9330D01*
X25217Y8530D01*
X25650Y8530D01*
X25650Y9330D01*
X20366Y14470D02*
X20411Y14425D01*
X20411Y14379D01*
X20366Y14334D01*
X20229Y14334D01*
X20183Y14379D01*
X20183Y14425D01*
X20229Y14470D01*
X20183Y14653D02*
X20183Y14584D01*
X20229Y14539D01*
X20320Y14539D01*
X20366Y14539D01*
X20411Y14584D01*
X20411Y14630D01*
X20366Y14675D01*
X20320Y14675D01*
X20274Y14630D01*
X20274Y14584D01*
X20320Y14539D01*
X20510Y14080D02*
X20943Y14080D01*
X20943Y14880D01*
X20510Y14880D01*
X20510Y14080D01*
X18281Y804D02*
X18053Y804D01*
X18053Y895D01*
X18099Y940D01*
X18121Y940D01*
X18167Y895D01*
X18167Y804D01*
X18167Y827D02*
X18281Y940D01*
X18236Y1009D02*
X18281Y1054D01*
X18281Y1100D01*
X18236Y1145D01*
X18144Y1145D01*
X18099Y1145D01*
X18053Y1100D01*
X18053Y1054D01*
X18099Y1009D01*
X18144Y1009D01*
X18190Y1054D01*
X18190Y1100D01*
X18144Y1145D01*
X18390Y550D02*
X18823Y550D01*
X18823Y1350D01*
X18390Y1350D01*
X18390Y550D01*
X14589Y5548D02*
X14817Y5548D01*
X14817Y5457D01*
X14771Y5412D01*
X14749Y5412D01*
X14703Y5457D01*
X14703Y5548D01*
X14703Y5526D02*
X14589Y5412D01*
X14771Y5321D02*
X14817Y5275D01*
X14589Y5275D01*
X14589Y5344D02*
X14589Y5207D01*
X14771Y5139D02*
X14817Y5093D01*
X14817Y5048D01*
X14771Y5002D01*
X14634Y5002D01*
X14589Y5048D01*
X14589Y5093D01*
X14634Y5139D01*
X14771Y5139D01*
X14771Y5002D02*
X14634Y5139D01*
X14480Y5700D02*
X14047Y5700D01*
X14047Y4900D01*
X14480Y4900D01*
X14480Y5700D01*
X17866Y11659D02*
X17911Y11614D01*
X17911Y11568D01*
X17866Y11523D01*
X17729Y11523D01*
X17683Y11568D01*
X17683Y11614D01*
X17729Y11659D01*
X17729Y11728D02*
X17683Y11773D01*
X17683Y11819D01*
X17729Y11864D01*
X17751Y11864D01*
X17911Y11728D01*
X17911Y11864D01*
X17889Y11864D01*
X17729Y11932D02*
X17683Y11978D01*
X17683Y12023D01*
X17729Y12069D01*
X17751Y12069D01*
X17911Y11932D01*
X17911Y12069D01*
X17889Y12069D01*
X17180Y11400D02*
X17613Y11400D01*
X17613Y12200D01*
X17180Y12200D01*
X17180Y11400D01*
X21084Y11541D02*
X21039Y11586D01*
X21039Y11632D01*
X21084Y11677D01*
X21221Y11677D01*
X21267Y11632D01*
X21267Y11586D01*
X21221Y11541D01*
X21244Y11450D02*
X21267Y11427D01*
X21267Y11381D01*
X21221Y11336D01*
X21176Y11336D01*
X21153Y11359D01*
X21130Y11336D01*
X21084Y11336D01*
X21039Y11381D01*
X21039Y11427D01*
X21061Y11450D01*
X21153Y11427D02*
X21153Y11359D01*
X20930Y12100D02*
X20497Y12100D01*
X20497Y11300D01*
X20930Y11300D01*
X20930Y12100D01*
X22033Y13599D02*
X22033Y13827D01*
X22124Y13827D01*
X22169Y13781D01*
X22169Y13759D01*
X22124Y13713D01*
X22033Y13713D01*
X22056Y13713D02*
X22169Y13599D01*
X22306Y13599D02*
X22306Y13713D01*
X22374Y13781D01*
X22374Y13827D01*
X22238Y13827D01*
X22238Y13781D01*
X21860Y14360D02*
X22660Y14360D01*
X22660Y13927D01*
X21860Y13927D01*
X21860Y14360D01*
X22256Y14909D02*
X22301Y14864D01*
X22301Y14818D01*
X22256Y14773D01*
X22119Y14773D01*
X22073Y14818D01*
X22073Y14864D01*
X22119Y14909D01*
X22119Y15000D02*
X22073Y15046D01*
X22301Y15046D01*
X22301Y14978D02*
X22301Y15114D01*
X22301Y15273D02*
X22301Y15228D01*
X22256Y15182D01*
X22210Y15182D01*
X22187Y15205D01*
X22164Y15182D01*
X22119Y15182D01*
X22073Y15228D01*
X22073Y15273D01*
X22119Y15319D01*
X22164Y15319D01*
X22187Y15296D01*
X22210Y15319D01*
X22256Y15319D01*
X22301Y15273D01*
X22187Y15205D02*
X22187Y15296D01*
X22450Y14540D02*
X22883Y14540D01*
X22883Y15340D01*
X22450Y15340D01*
X22450Y14540D01*
X23433Y13527D02*
X23433Y13344D01*
X23478Y13299D01*
X23524Y13299D01*
X23569Y13344D01*
X23569Y13527D01*
X23638Y13344D02*
X23683Y13299D01*
X23729Y13299D01*
X23774Y13344D01*
X23774Y13436D01*
X23774Y13481D01*
X23729Y13527D01*
X23683Y13527D01*
X23638Y13481D01*
X23638Y13436D01*
X23683Y13390D01*
X23729Y13390D01*
X23774Y13436D01*
X25646Y14449D02*
X25691Y14404D01*
X25691Y14358D01*
X25646Y14313D01*
X25509Y14313D01*
X25463Y14358D01*
X25463Y14404D01*
X25509Y14449D01*
X25486Y14540D02*
X25463Y14563D01*
X25463Y14609D01*
X25509Y14654D01*
X25554Y14654D01*
X25577Y14631D01*
X25600Y14654D01*
X25646Y14654D01*
X25691Y14609D01*
X25691Y14563D01*
X25669Y14540D01*
X25577Y14563D02*
X25577Y14631D01*
X25600Y14859D02*
X25600Y14722D01*
X25463Y14836D01*
X25691Y14836D01*
X25691Y14813D02*
X25691Y14859D01*
X25504Y12907D02*
X25459Y12862D01*
X25459Y12816D01*
X25504Y12771D01*
X25687Y12771D01*
X25641Y12680D02*
X25687Y12634D01*
X25459Y12634D01*
X25459Y12702D02*
X25459Y12566D01*
X25550Y12361D02*
X25550Y12498D01*
X25687Y12384D01*
X25459Y12384D01*
X25459Y12407D02*
X25459Y12361D01*
X25810Y15421D02*
X27188Y15421D01*
X27188Y12468D01*
X25810Y12468D01*
X25810Y15421D01*
X26293Y9849D02*
X26293Y10077D01*
X26384Y10077D01*
X26429Y10031D01*
X26429Y10009D01*
X26384Y9963D01*
X26293Y9963D01*
X26316Y9963D02*
X26429Y9849D01*
X26520Y10054D02*
X26543Y10077D01*
X26589Y10077D01*
X26634Y10031D01*
X26634Y9986D01*
X26611Y9963D01*
X26634Y9940D01*
X26634Y9894D01*
X26589Y9849D01*
X26543Y9849D01*
X26520Y9871D01*
X26543Y9963D02*
X26611Y9963D01*
X25960Y10690D02*
X26760Y10690D01*
X26760Y10257D01*
X25960Y10257D01*
X25960Y10690D01*
X24159Y9217D02*
X24387Y9217D01*
X24387Y9126D01*
X24341Y9081D01*
X24319Y9081D01*
X24273Y9126D01*
X24273Y9217D01*
X24273Y9194D02*
X24159Y9081D01*
X24341Y8990D02*
X24387Y8944D01*
X24159Y8944D01*
X24159Y9012D02*
X24159Y8876D01*
X24159Y8739D02*
X24273Y8739D01*
X24341Y8671D01*
X24387Y8671D01*
X24387Y8808D01*
X24341Y8808D01*
X24970Y9320D02*
X24537Y9320D01*
X24537Y8520D01*
X24970Y8520D01*
X24970Y9320D01*
X24959Y10844D02*
X24914Y10799D01*
X24868Y10799D01*
X24823Y10844D01*
X24823Y10981D01*
X24868Y11027D01*
X24914Y11027D01*
X24959Y10981D01*
X25164Y10890D02*
X25028Y10890D01*
X25141Y11027D01*
X25141Y10799D01*
X25119Y10799D02*
X25164Y10799D01*
X24280Y11640D02*
X25080Y11640D01*
X25080Y11207D01*
X24280Y11207D01*
X24280Y11640D01*
X23573Y2994D02*
X23618Y2949D01*
X23664Y2949D01*
X23709Y2994D01*
X23709Y3177D01*
X23800Y3131D02*
X23846Y3177D01*
X23846Y2949D01*
X23778Y2949D02*
X23914Y2949D01*
X24005Y3154D02*
X24028Y3177D01*
X24073Y3177D01*
X24119Y3131D01*
X24119Y3086D01*
X24096Y3063D01*
X24119Y3040D01*
X24119Y2994D01*
X24073Y2949D01*
X24028Y2949D01*
X24005Y2971D01*
X24028Y3063D02*
X24096Y3063D01*
X24249Y2360D02*
X26611Y2360D01*
X26611Y3738D01*
X24249Y3738D01*
X24249Y2360D01*
X20003Y3703D02*
X20231Y3839D01*
X20231Y3703D02*
X20003Y3839D01*
X20049Y3908D02*
X20003Y3953D01*
X20003Y3999D01*
X20049Y4044D01*
X20071Y4044D01*
X20231Y3908D01*
X20231Y4044D01*
X20209Y4044D01*
X21959Y2854D02*
X21914Y2809D01*
X21868Y2809D01*
X21823Y2854D01*
X21823Y2991D01*
X21868Y3037D01*
X21914Y3037D01*
X21959Y2991D01*
X22028Y2991D02*
X22073Y3037D01*
X22119Y3037D01*
X22164Y2991D01*
X22164Y2969D01*
X22028Y2809D01*
X22164Y2809D01*
X22164Y2831D01*
X22232Y2854D02*
X22278Y2809D01*
X22323Y2809D01*
X22369Y2854D01*
X22369Y2946D01*
X22369Y2991D01*
X22323Y3037D01*
X22278Y3037D01*
X22232Y2991D01*
X22232Y2946D01*
X22278Y2900D01*
X22323Y2900D01*
X22369Y2946D01*
X20917Y3140D02*
X21717Y3140D01*
X21717Y2707D01*
X20917Y2707D01*
X20917Y3140D01*
X19509Y3014D02*
X19464Y2969D01*
X19418Y2969D01*
X19373Y3014D01*
X19373Y3151D01*
X19418Y3197D01*
X19464Y3197D01*
X19509Y3151D01*
X19600Y3174D02*
X19623Y3197D01*
X19669Y3197D01*
X19714Y3151D01*
X19714Y3106D01*
X19691Y3083D01*
X19714Y3060D01*
X19714Y3014D01*
X19669Y2969D01*
X19623Y2969D01*
X19600Y2991D01*
X19623Y3083D02*
X19691Y3083D01*
X19805Y3174D02*
X19828Y3197D01*
X19873Y3197D01*
X19919Y3151D01*
X19919Y3106D01*
X19896Y3083D01*
X19919Y3060D01*
X19919Y3014D01*
X19873Y2969D01*
X19828Y2969D01*
X19805Y2991D01*
X19828Y3083D02*
X19896Y3083D01*
X19030Y3790D02*
X19830Y3790D01*
X19830Y3357D01*
X19030Y3357D01*
X19030Y3790D01*
X18479Y4184D02*
X18434Y4139D01*
X18388Y4139D01*
X18343Y4184D01*
X18343Y4321D01*
X18388Y4367D01*
X18434Y4367D01*
X18479Y4321D01*
X18570Y4344D02*
X18593Y4367D01*
X18639Y4367D01*
X18684Y4321D01*
X18684Y4276D01*
X18661Y4253D01*
X18684Y4230D01*
X18684Y4184D01*
X18639Y4139D01*
X18593Y4139D01*
X18570Y4161D01*
X18593Y4253D02*
X18661Y4253D01*
X18775Y4321D02*
X18821Y4367D01*
X18821Y4139D01*
X18752Y4139D02*
X18889Y4139D01*
X18950Y4480D02*
X19750Y4480D01*
X19750Y4047D01*
X18950Y4047D01*
X18950Y4480D01*
X12654Y9921D02*
X12609Y9966D01*
X12609Y10012D01*
X12654Y10057D01*
X12791Y10057D01*
X12837Y10012D01*
X12837Y9966D01*
X12791Y9921D01*
X12791Y9830D02*
X12837Y9784D01*
X12609Y9784D01*
X12609Y9852D02*
X12609Y9716D01*
X12700Y9511D02*
X12700Y9648D01*
X12837Y9534D01*
X12609Y9534D01*
X12609Y9557D02*
X12609Y9511D01*
X13620Y10200D02*
X13187Y10200D01*
X13187Y9400D01*
X13620Y9400D01*
X13620Y10200D01*
X15969Y5044D02*
X15924Y4999D01*
X15878Y4999D01*
X15833Y5044D01*
X15833Y5181D01*
X15878Y5227D01*
X15924Y5227D01*
X15969Y5181D01*
X16060Y5181D02*
X16106Y5227D01*
X16106Y4999D01*
X16038Y4999D02*
X16174Y4999D01*
X16356Y5227D02*
X16288Y5227D01*
X16242Y5181D01*
X16242Y5090D01*
X16242Y5044D01*
X16288Y4999D01*
X16333Y4999D01*
X16379Y5044D01*
X16379Y5090D01*
X16333Y5136D01*
X16288Y5136D01*
X16242Y5090D01*
X15600Y5820D02*
X16400Y5820D01*
X16400Y5387D01*
X15600Y5387D01*
X15600Y5820D01*
X17404Y5471D02*
X17359Y5516D01*
X17359Y5562D01*
X17404Y5607D01*
X17541Y5607D01*
X17587Y5562D01*
X17587Y5516D01*
X17541Y5471D01*
X17541Y5380D02*
X17587Y5334D01*
X17359Y5334D01*
X17359Y5402D02*
X17359Y5266D01*
X17359Y5129D02*
X17473Y5129D01*
X17541Y5061D01*
X17587Y5061D01*
X17587Y5198D01*
X17541Y5198D01*
X17220Y5800D02*
X16787Y5800D01*
X16787Y5000D01*
X17220Y5000D01*
X17220Y5800D01*
X6489Y5507D02*
X6717Y5507D01*
X6717Y5416D01*
X6671Y5371D01*
X6649Y5371D01*
X6603Y5416D01*
X6603Y5507D01*
X6603Y5484D02*
X6489Y5371D01*
X6671Y5302D02*
X6717Y5257D01*
X6717Y5211D01*
X6671Y5166D01*
X6649Y5166D01*
X6489Y5302D01*
X6489Y5166D01*
X6511Y5166D01*
X7300Y5740D02*
X6867Y5740D01*
X6867Y4940D01*
X7300Y4940D01*
X7300Y5740D01*
X10294Y5171D02*
X10249Y5216D01*
X10249Y5262D01*
X10294Y5307D01*
X10431Y5307D01*
X10477Y5262D01*
X10477Y5216D01*
X10431Y5171D01*
X10431Y5102D02*
X10477Y5057D01*
X10477Y5011D01*
X10431Y4966D01*
X10409Y4966D01*
X10249Y5102D01*
X10249Y4966D01*
X10271Y4966D01*
X10340Y4761D02*
X10340Y4898D01*
X10477Y4784D01*
X10249Y4784D01*
X10249Y4807D02*
X10249Y4761D01*
X11040Y5430D02*
X10607Y5430D01*
X10607Y4630D01*
X11040Y4630D01*
X11040Y5430D01*
X10424Y3861D02*
X10379Y3906D01*
X10379Y3952D01*
X10424Y3997D01*
X10561Y3997D01*
X10607Y3952D01*
X10607Y3906D01*
X10561Y3861D01*
X10561Y3792D02*
X10607Y3747D01*
X10607Y3701D01*
X10561Y3656D01*
X10539Y3656D01*
X10379Y3792D01*
X10379Y3656D01*
X10401Y3656D01*
X10607Y3451D02*
X10607Y3588D01*
X10516Y3588D01*
X10516Y3497D01*
X10470Y3451D01*
X10424Y3451D01*
X10379Y3497D01*
X10379Y3588D01*
X11110Y4230D02*
X10677Y4230D01*
X10677Y3430D01*
X11110Y3430D01*
X11110Y4230D01*
X11099Y2784D02*
X11054Y2739D01*
X11008Y2739D01*
X10963Y2784D01*
X10963Y2921D01*
X11008Y2967D01*
X11054Y2967D01*
X11099Y2921D01*
X11168Y2921D02*
X11213Y2967D01*
X11259Y2967D01*
X11304Y2921D01*
X11304Y2899D01*
X11168Y2739D01*
X11304Y2739D01*
X11304Y2761D01*
X11486Y2967D02*
X11418Y2967D01*
X11372Y2921D01*
X11372Y2830D01*
X11372Y2784D01*
X11418Y2739D01*
X11463Y2739D01*
X11509Y2784D01*
X11509Y2830D01*
X11463Y2876D01*
X11418Y2876D01*
X11372Y2830D01*
X11620Y3180D02*
X12420Y3180D01*
X12420Y2747D01*
X11620Y2747D01*
X11620Y3180D01*
X12619Y3454D02*
X12574Y3409D01*
X12528Y3409D01*
X12483Y3454D01*
X12483Y3591D01*
X12528Y3637D01*
X12574Y3637D01*
X12619Y3591D01*
X12688Y3591D02*
X12733Y3637D01*
X12779Y3637D01*
X12824Y3591D01*
X12824Y3569D01*
X12688Y3409D01*
X12824Y3409D01*
X12824Y3431D01*
X12915Y3614D02*
X12938Y3637D01*
X12983Y3637D01*
X13029Y3591D01*
X13029Y3546D01*
X13006Y3523D01*
X13029Y3500D01*
X13029Y3454D01*
X12983Y3409D01*
X12938Y3409D01*
X12915Y3431D01*
X12938Y3523D02*
X13006Y3523D01*
X11620Y3760D02*
X12420Y3760D01*
X12420Y3327D01*
X11620Y3327D01*
X11620Y3760D01*
X13829Y4567D02*
X14057Y4567D01*
X14057Y4476D01*
X14011Y4431D01*
X13989Y4431D01*
X13943Y4476D01*
X13943Y4567D01*
X13943Y4544D02*
X13829Y4431D01*
X14011Y4340D02*
X14057Y4294D01*
X13829Y4294D01*
X13829Y4362D02*
X13829Y4226D01*
X14011Y4135D02*
X14057Y4089D01*
X13829Y4089D01*
X13829Y4158D02*
X13829Y4021D01*
X13710Y5040D02*
X13277Y5040D01*
X13277Y4240D01*
X13710Y4240D01*
X13710Y5040D01*
X4834Y4007D02*
X4879Y3961D01*
X4925Y3961D01*
X4970Y4007D01*
X4970Y4190D01*
X5038Y4144D02*
X5084Y4190D01*
X5129Y4190D01*
X5175Y4144D01*
X5175Y4121D01*
X5038Y3961D01*
X5175Y3961D01*
X5175Y3984D01*
X6140Y1279D02*
X4762Y1279D01*
X4762Y3641D01*
X6140Y3641D01*
X6140Y1279D01*
X6718Y4019D02*
X6763Y3973D01*
X6809Y3973D01*
X6854Y4019D01*
X6854Y4202D01*
X6946Y4179D02*
X6968Y4202D01*
X7014Y4202D01*
X7059Y4156D01*
X7059Y4111D01*
X7037Y4088D01*
X7059Y4065D01*
X7059Y4019D01*
X7014Y3973D01*
X6968Y3973D01*
X6946Y3996D01*
X6968Y4088D02*
X7037Y4088D01*
X8020Y1289D02*
X6642Y1289D01*
X6642Y3651D01*
X8020Y3651D01*
X8020Y1289D01*
X21125Y1764D02*
X21079Y1719D01*
X21034Y1719D01*
X20988Y1764D01*
X20988Y1901D01*
X21034Y1947D01*
X21079Y1947D01*
X21125Y1901D01*
X21193Y1901D02*
X21239Y1947D01*
X21284Y1947D01*
X21330Y1901D01*
X21330Y1879D01*
X21193Y1719D01*
X21330Y1719D01*
X21330Y1741D01*
X21489Y1719D02*
X21443Y1719D01*
X21398Y1764D01*
X21398Y1810D01*
X21421Y1833D01*
X21398Y1856D01*
X21398Y1901D01*
X21443Y1947D01*
X21489Y1947D01*
X21534Y1901D01*
X21534Y1856D01*
X21512Y1833D01*
X21534Y1810D01*
X21534Y1764D01*
X21489Y1719D01*
X21421Y1833D02*
X21512Y1833D01*
X21717Y2100D02*
X20917Y2100D01*
X20917Y2533D01*
X21717Y2533D01*
X21717Y2100D01*
X21989Y3434D02*
X21944Y3389D01*
X21898Y3389D01*
X21853Y3434D01*
X21853Y3571D01*
X21898Y3617D01*
X21944Y3617D01*
X21989Y3571D01*
X22080Y3594D02*
X22103Y3617D01*
X22149Y3617D01*
X22194Y3571D01*
X22194Y3526D01*
X22171Y3503D01*
X22194Y3480D01*
X22194Y3434D01*
X22149Y3389D01*
X22103Y3389D01*
X22080Y3411D01*
X22103Y3503D02*
X22171Y3503D01*
X22262Y3571D02*
X22308Y3617D01*
X22353Y3617D01*
X22399Y3571D01*
X22399Y3434D01*
X22353Y3389D01*
X22308Y3389D01*
X22262Y3434D01*
X22262Y3571D01*
X22399Y3571D02*
X22262Y3434D01*
X21717Y3300D02*
X20917Y3300D01*
X20917Y3733D01*
X21717Y3733D01*
X21717Y3300D01*
X11903Y4727D02*
X11903Y4544D01*
X11948Y4499D01*
X11994Y4499D01*
X12039Y4544D01*
X12039Y4727D01*
X12244Y4590D02*
X12108Y4590D01*
X12221Y4727D01*
X12221Y4499D01*
X12199Y4499D02*
X12244Y4499D01*
X18409Y4804D02*
X18364Y4759D01*
X18318Y4759D01*
X18273Y4804D01*
X18273Y4941D01*
X18318Y4987D01*
X18364Y4987D01*
X18409Y4941D01*
X18500Y4964D02*
X18523Y4987D01*
X18569Y4987D01*
X18614Y4941D01*
X18614Y4896D01*
X18591Y4873D01*
X18614Y4850D01*
X18614Y4804D01*
X18569Y4759D01*
X18523Y4759D01*
X18500Y4781D01*
X18523Y4873D02*
X18591Y4873D01*
X18682Y4941D02*
X18728Y4987D01*
X18773Y4987D01*
X18819Y4941D01*
X18819Y4919D01*
X18682Y4759D01*
X18819Y4759D01*
X18819Y4781D01*
X19740Y4727D02*
X18940Y4727D01*
X18940Y5160D01*
X19740Y5160D01*
X19740Y4727D01*
X25828Y4484D02*
X25874Y4439D01*
X25919Y4439D01*
X25965Y4484D01*
X25965Y4667D01*
X26056Y4621D02*
X26101Y4667D01*
X26101Y4439D01*
X26033Y4439D02*
X26170Y4439D01*
X26238Y4621D02*
X26283Y4667D01*
X26329Y4667D01*
X26374Y4621D01*
X26374Y4484D01*
X26329Y4439D01*
X26283Y4439D01*
X26238Y4484D01*
X26238Y4621D01*
X26374Y4621D02*
X26238Y4484D01*
X26631Y6160D02*
X23678Y6160D01*
X23678Y4782D01*
X26631Y4782D01*
X26631Y6160D01*
X7855Y5094D02*
X7809Y5049D01*
X7764Y5049D01*
X7718Y5094D01*
X7718Y5231D01*
X7764Y5277D01*
X7809Y5277D01*
X7855Y5231D01*
X7946Y5231D02*
X7991Y5277D01*
X7991Y5049D01*
X7923Y5049D02*
X8060Y5049D01*
X8151Y5231D02*
X8196Y5277D01*
X8196Y5049D01*
X8128Y5049D02*
X8264Y5049D01*
X8200Y5380D02*
X7400Y5380D01*
X7400Y5813D01*
X8200Y5813D01*
X8200Y5380D01*
X21848Y6739D02*
X21848Y6967D01*
X21939Y6967D01*
X21985Y6921D01*
X21985Y6899D01*
X21939Y6853D01*
X21848Y6853D01*
X21871Y6853D02*
X21985Y6739D01*
X22076Y6921D02*
X22121Y6967D01*
X22121Y6739D01*
X22053Y6739D02*
X22190Y6739D01*
X22281Y6944D02*
X22303Y6967D01*
X22349Y6967D01*
X22394Y6921D01*
X22394Y6876D01*
X22372Y6853D01*
X22394Y6830D01*
X22394Y6784D01*
X22349Y6739D01*
X22303Y6739D01*
X22281Y6761D01*
X22303Y6853D02*
X22372Y6853D01*
X21740Y6350D02*
X20940Y6350D01*
X20940Y6783D01*
X21740Y6783D01*
X21740Y6350D01*
X3819Y8014D02*
X3774Y7969D01*
X3728Y7969D01*
X3683Y8014D01*
X3683Y8151D01*
X3728Y8197D01*
X3774Y8197D01*
X3819Y8151D01*
X3910Y8151D02*
X3956Y8197D01*
X3956Y7969D01*
X3888Y7969D02*
X4024Y7969D01*
X4092Y8151D02*
X4138Y8197D01*
X4183Y8197D01*
X4229Y8151D01*
X4229Y8014D01*
X4183Y7969D01*
X4138Y7969D01*
X4092Y8014D01*
X4092Y8151D01*
X4229Y8151D02*
X4092Y8014D01*
X4400Y8380D02*
X3600Y8380D01*
X3600Y8813D01*
X4400Y8813D01*
X4400Y8380D01*
X21208Y10679D02*
X21208Y10907D01*
X21299Y10907D01*
X21345Y10861D01*
X21345Y10839D01*
X21299Y10793D01*
X21208Y10793D01*
X21231Y10793D02*
X21345Y10679D01*
X21436Y10861D02*
X21481Y10907D01*
X21481Y10679D01*
X21413Y10679D02*
X21550Y10679D01*
X21754Y10770D02*
X21618Y10770D01*
X21732Y10907D01*
X21732Y10679D01*
X21709Y10679D02*
X21754Y10679D01*
X21895Y10030D02*
X21095Y10030D01*
X21095Y10463D01*
X21895Y10463D01*
X21895Y10030D01*
X11233Y11087D02*
X11370Y10859D01*
X11233Y10859D02*
X11370Y11087D01*
X11461Y11041D02*
X11506Y11087D01*
X11506Y10859D01*
X11438Y10859D02*
X11574Y10859D01*
X25643Y11499D02*
X25734Y11499D01*
X25779Y11544D01*
X25779Y11681D01*
X25734Y11727D01*
X25643Y11727D01*
X25666Y11727D02*
X25666Y11499D01*
X25870Y11681D02*
X25916Y11727D01*
X25916Y11499D01*
X25848Y11499D02*
X25984Y11499D01*
X12390Y12564D02*
X12344Y12519D01*
X12299Y12519D01*
X12253Y12564D01*
X12253Y12701D01*
X12299Y12747D01*
X12344Y12747D01*
X12390Y12701D01*
X12549Y12519D02*
X12503Y12519D01*
X12458Y12564D01*
X12458Y12610D01*
X12481Y12633D01*
X12458Y12656D01*
X12458Y12701D01*
X12503Y12747D01*
X12549Y12747D01*
X12594Y12701D01*
X12594Y12656D01*
X12572Y12633D01*
X12594Y12610D01*
X12594Y12564D01*
X12549Y12519D01*
X12481Y12633D02*
X12572Y12633D01*
X12620Y11940D02*
X11820Y11940D01*
X11820Y12373D01*
X12620Y12373D01*
X12620Y11940D01*
X15663Y13764D02*
X15709Y13719D01*
X15754Y13719D01*
X15800Y13764D01*
X15800Y13947D01*
X15868Y13764D02*
X15913Y13719D01*
X15959Y13719D01*
X16004Y13764D01*
X16004Y13856D01*
X16004Y13901D01*
X15959Y13947D01*
X15913Y13947D01*
X15868Y13901D01*
X15868Y13856D01*
X15913Y13810D01*
X15959Y13810D01*
X16004Y13856D01*
X17528Y13981D02*
X17619Y13981D01*
X17664Y14027D01*
X17664Y14164D01*
X17619Y14210D01*
X17528Y14210D01*
X17551Y14210D02*
X17551Y13981D01*
X17733Y14164D02*
X17778Y14210D01*
X17824Y14210D01*
X17869Y14164D01*
X17869Y14141D01*
X17733Y13981D01*
X17869Y13981D01*
X17869Y14004D01*
X24296Y15079D02*
X24341Y15034D01*
X24341Y14988D01*
X24296Y14943D01*
X24159Y14943D01*
X24113Y14988D01*
X24113Y15034D01*
X24159Y15079D01*
X24159Y15170D02*
X24113Y15216D01*
X24341Y15216D01*
X24341Y15148D02*
X24341Y15284D01*
X24296Y15352D02*
X24341Y15398D01*
X24341Y15443D01*
X24296Y15489D01*
X24204Y15489D01*
X24159Y15489D01*
X24113Y15443D01*
X24113Y15398D01*
X24159Y15352D01*
X24204Y15352D01*
X24250Y15398D01*
X24250Y15443D01*
X24204Y15489D01*
X24030Y14990D02*
X23230Y14990D01*
X23230Y15423D01*
X24030Y15423D01*
X24030Y14990D01*
X6899Y13100D02*
X11033Y13100D01*
X11033Y14478D01*
X6899Y14478D01*
X6899Y13100D01*
X23143Y6594D02*
X23188Y6549D01*
X23234Y6549D01*
X23279Y6594D01*
X23279Y6777D01*
X23484Y6777D02*
X23348Y6777D01*
X23348Y6686D01*
X23439Y6686D01*
X23484Y6640D01*
X23484Y6594D01*
X23439Y6549D01*
X23348Y6549D01*
X26611Y8300D02*
X23658Y8300D01*
X23658Y6922D01*
X26611Y6922D01*
X26611Y8300D01*
X9453Y4444D02*
X9498Y4399D01*
X9544Y4399D01*
X9589Y4444D01*
X9589Y4627D01*
X9680Y4581D02*
X9726Y4627D01*
X9726Y4399D01*
X9658Y4399D02*
X9794Y4399D01*
X9999Y4627D02*
X9862Y4627D01*
X9862Y4536D01*
X9953Y4536D01*
X9999Y4490D01*
X9999Y4444D01*
X9953Y4399D01*
X9862Y4399D01*
X8900Y4171D02*
X10278Y4171D01*
X10278Y1218D01*
X8900Y1218D01*
X8900Y4171D01*
X21193Y8889D02*
X21193Y9117D01*
X21284Y9117D01*
X21329Y9071D01*
X21329Y9049D01*
X21284Y9003D01*
X21193Y9003D01*
X21216Y9003D02*
X21329Y8889D01*
X21420Y9071D02*
X21466Y9117D01*
X21466Y8889D01*
X21398Y8889D02*
X21534Y8889D01*
X21739Y9117D02*
X21602Y9117D01*
X21602Y9026D01*
X21693Y9026D01*
X21739Y8980D01*
X21739Y8934D01*
X21693Y8889D01*
X21602Y8889D01*
X21895Y9300D02*
X21095Y9300D01*
X21095Y9733D01*
X21895Y9733D01*
X21895Y9300D01*
X20013Y10519D02*
X20104Y10519D01*
X20149Y10564D01*
X20149Y10701D01*
X20104Y10747D01*
X20013Y10747D01*
X20036Y10747D02*
X20036Y10519D01*
X20331Y10747D02*
X20263Y10747D01*
X20218Y10701D01*
X20218Y10610D01*
X20218Y10564D01*
X20263Y10519D01*
X20309Y10519D01*
X20354Y10564D01*
X20354Y10610D01*
X20309Y10656D01*
X20263Y10656D01*
X20218Y10610D01*
X19973Y9019D02*
X20064Y9019D01*
X20109Y9064D01*
X20109Y9201D01*
X20064Y9247D01*
X19973Y9247D01*
X19996Y9247D02*
X19996Y9019D01*
X20314Y9247D02*
X20178Y9247D01*
X20178Y9156D01*
X20269Y9156D01*
X20314Y9110D01*
X20314Y9064D01*
X20269Y9019D01*
X20178Y9019D01*
X19114Y12939D02*
X19114Y13167D01*
X19205Y13167D01*
X19250Y13121D01*
X19250Y13099D01*
X19205Y13053D01*
X19114Y13053D01*
X19137Y13053D02*
X19250Y12939D01*
X19455Y13030D02*
X19319Y13030D01*
X19433Y13167D01*
X19433Y12939D01*
X19410Y12939D02*
X19455Y12939D01*
X18860Y12830D02*
X19660Y12830D01*
X19660Y12397D01*
X18860Y12397D01*
X18860Y12830D01*
X25089Y13960D02*
X25317Y13960D01*
X25317Y13869D01*
X25271Y13824D01*
X25249Y13824D01*
X25203Y13869D01*
X25203Y13960D01*
X25203Y13938D02*
X25089Y13824D01*
X25271Y13733D02*
X25317Y13687D01*
X25089Y13687D01*
X25089Y13756D02*
X25089Y13619D01*
X25089Y13460D02*
X25089Y13505D01*
X25134Y13551D01*
X25180Y13551D01*
X25203Y13528D01*
X25226Y13551D01*
X25271Y13551D01*
X25317Y13505D01*
X25317Y13460D01*
X25271Y13414D01*
X25226Y13414D01*
X25203Y13437D01*
X25180Y13414D01*
X25134Y13414D01*
X25089Y13460D01*
X25203Y13528D02*
X25203Y13437D01*
X24940Y14170D02*
X24507Y14170D01*
X24507Y13370D01*
X24940Y13370D01*
X24940Y14170D01*
X22751Y10354D02*
X22523Y10354D01*
X22523Y10445D01*
X22569Y10490D01*
X22591Y10490D01*
X22637Y10445D01*
X22637Y10354D01*
X22637Y10377D02*
X22751Y10490D01*
X22751Y10650D02*
X22751Y10604D01*
X22706Y10559D01*
X22660Y10559D01*
X22637Y10582D01*
X22614Y10559D01*
X22569Y10559D01*
X22523Y10604D01*
X22523Y10650D01*
X22569Y10695D01*
X22614Y10695D01*
X22637Y10673D01*
X22660Y10695D01*
X22706Y10695D01*
X22751Y10650D01*
X22637Y10582D02*
X22637Y10673D01*
X22860Y10100D02*
X23293Y10100D01*
X23293Y10900D01*
X22860Y10900D01*
X22860Y10100D01*
X6119Y14397D02*
X6347Y14397D01*
X6347Y14306D01*
X6301Y14261D01*
X6279Y14261D01*
X6233Y14306D01*
X6233Y14397D01*
X6233Y14374D02*
X6119Y14261D01*
X6347Y14079D02*
X6347Y14147D01*
X6301Y14192D01*
X6210Y14192D01*
X6164Y14192D01*
X6119Y14147D01*
X6119Y14101D01*
X6164Y14056D01*
X6210Y14056D01*
X6256Y14101D01*
X6256Y14147D01*
X6210Y14192D01*
X6020Y14800D02*
X5587Y14800D01*
X5587Y14000D01*
X6020Y14000D01*
X6020Y14800D01*
X17303Y1587D02*
X17303Y1404D01*
X17348Y1359D01*
X17394Y1359D01*
X17439Y1404D01*
X17439Y1587D01*
X17530Y1564D02*
X17553Y1587D01*
X17599Y1587D01*
X17644Y1541D01*
X17644Y1496D01*
X17621Y1473D01*
X17644Y1450D01*
X17644Y1404D01*
X17599Y1359D01*
X17553Y1359D01*
X17530Y1381D01*
X17553Y1473D02*
X17621Y1473D01*
X11103Y957D02*
X11103Y774D01*
X11148Y729D01*
X11194Y729D01*
X11239Y774D01*
X11239Y957D01*
X11399Y729D02*
X11353Y729D01*
X11308Y774D01*
X11308Y820D01*
X11330Y843D01*
X11308Y866D01*
X11308Y911D01*
X11353Y957D01*
X11399Y957D01*
X11444Y911D01*
X11444Y866D01*
X11421Y843D01*
X11444Y820D01*
X11444Y774D01*
X11399Y729D01*
X11330Y843D02*
X11421Y843D01*
X21293Y5007D02*
X21293Y4824D01*
X21338Y4779D01*
X21384Y4779D01*
X21429Y4824D01*
X21429Y5007D01*
X21634Y5007D02*
X21498Y5007D01*
X21498Y4916D01*
X21589Y4916D01*
X21634Y4870D01*
X21634Y4824D01*
X21589Y4779D01*
X21498Y4779D01*
X7423Y8769D02*
X7423Y8586D01*
X7468Y8540D01*
X7514Y8540D01*
X7559Y8586D01*
X7559Y8769D01*
X7651Y8723D02*
X7696Y8769D01*
X7696Y8540D01*
X7628Y8540D02*
X7764Y8540D01*
X16245Y8717D02*
X16245Y8534D01*
X16291Y8489D01*
X16336Y8489D01*
X16382Y8534D01*
X16382Y8717D01*
X16450Y8671D02*
X16496Y8717D01*
X16541Y8717D01*
X16587Y8671D01*
X16587Y8649D01*
X16450Y8489D01*
X16587Y8489D01*
X16587Y8511D01*
X13016Y8344D02*
X12971Y8299D01*
X12925Y8299D01*
X12880Y8344D01*
X12880Y8481D01*
X12925Y8527D01*
X12971Y8527D01*
X13016Y8481D01*
X13107Y8481D02*
X13153Y8527D01*
X13153Y8299D01*
X13084Y8299D02*
X13221Y8299D01*
X13426Y8527D02*
X13289Y8527D01*
X13289Y8436D01*
X13380Y8436D01*
X13426Y8390D01*
X13426Y8344D01*
X13380Y8299D01*
X13289Y8299D01*
X13600Y8580D02*
X12800Y8580D01*
X12800Y9013D01*
X13600Y9013D01*
X13600Y8580D01*
X24259Y10394D02*
X24214Y10349D01*
X24168Y10349D01*
X24123Y10394D01*
X24123Y10531D01*
X24168Y10577D01*
X24214Y10577D01*
X24259Y10531D01*
X24464Y10577D02*
X24328Y10577D01*
X24328Y10486D01*
X24419Y10486D01*
X24464Y10440D01*
X24464Y10394D01*
X24419Y10349D01*
X24328Y10349D01*
X24020Y10910D02*
X23587Y10910D01*
X23587Y10110D01*
X24020Y10110D01*
X24020Y10910D01*
X22618Y11952D02*
X22618Y11769D01*
X22663Y11724D01*
X22709Y11724D01*
X22754Y11769D01*
X22754Y11952D01*
X22891Y11724D02*
X22891Y11838D01*
X22959Y11907D01*
X22959Y11952D01*
X22823Y11952D01*
X22823Y11907D01*
X24114Y12789D02*
X24069Y12743D01*
X24023Y12743D01*
X23978Y12789D01*
X23978Y12926D01*
X24023Y12972D01*
X24069Y12972D01*
X24114Y12926D01*
X24206Y12926D02*
X24251Y12972D01*
X24251Y12743D01*
X24183Y12743D02*
X24319Y12743D01*
X24440Y11990D02*
X24873Y11990D01*
X24873Y12790D01*
X24440Y12790D01*
X24440Y11990D01*
X4613Y12289D02*
X4704Y12289D01*
X4749Y12334D01*
X4749Y12471D01*
X4704Y12517D01*
X4613Y12517D01*
X4636Y12517D02*
X4636Y12289D01*
X4840Y12494D02*
X4863Y12517D01*
X4909Y12517D01*
X4954Y12471D01*
X4954Y12426D01*
X4931Y12403D01*
X4954Y12380D01*
X4954Y12334D01*
X4909Y12289D01*
X4863Y12289D01*
X4840Y12311D01*
X4863Y12403D02*
X4931Y12403D01*
X5643Y12239D02*
X5734Y12239D01*
X5779Y12284D01*
X5779Y12421D01*
X5734Y12467D01*
X5643Y12467D01*
X5666Y12467D02*
X5666Y12239D01*
X5984Y12330D02*
X5848Y12330D01*
X5961Y12467D01*
X5961Y12239D01*
X5939Y12239D02*
X5984Y12239D01*
X19608Y13442D02*
X19608Y13259D01*
X19653Y13214D01*
X19699Y13214D01*
X19744Y13259D01*
X19744Y13442D01*
X19927Y13442D02*
X19858Y13442D01*
X19813Y13397D01*
X19813Y13305D01*
X19813Y13259D01*
X19858Y13214D01*
X19904Y13214D01*
X19949Y13259D01*
X19949Y13305D01*
X19904Y13351D01*
X19858Y13351D01*
X19813Y13305D01*
G54D12*
X24640Y14390D02*
X24640Y15490D01*
X25340Y15490D02*
X25340Y14390D01*
X24640Y14390D01*
X24640Y15490D02*
X25340Y15490D01*
G54D13*
G36*
X25828Y15400D02*
X25828Y15400D01*
X25838Y14980D01*
X26248Y15400D01*
X25828Y15400D01*
D02*
G37*
X25838Y14980D01*
X26248Y15400D01*
X25828Y15400D01*
G36*
X24270Y2378D02*
X24270Y2378D01*
X24690Y2388D01*
X24270Y2798D01*
X24270Y2378D01*
D02*
G37*
X24690Y2388D01*
X24270Y2798D01*
X24270Y2378D01*
G36*
X6122Y1300D02*
X6122Y1300D01*
X6112Y1720D01*
X5702Y1300D01*
X6122Y1300D01*
D02*
G37*
X6112Y1720D01*
X5702Y1300D01*
X6122Y1300D01*
G36*
X8002Y1310D02*
X8002Y1310D01*
X7992Y1730D01*
X7582Y1310D01*
X8002Y1310D01*
D02*
G37*
X7992Y1730D01*
X7582Y1310D01*
X8002Y1310D01*
G36*
X26610Y6142D02*
X26610Y6142D01*
X26190Y6132D01*
X26610Y5722D01*
X26610Y6142D01*
D02*
G37*
X26190Y6132D01*
X26610Y5722D01*
X26610Y6142D01*
G36*
X6920Y13118D02*
X6920Y13118D01*
X7340Y13128D01*
X6920Y13538D01*
X6920Y13118D01*
D02*
G37*
X7340Y13128D01*
X6920Y13538D01*
X6920Y13118D01*
G36*
X26590Y8282D02*
X26590Y8282D01*
X26170Y8272D01*
X26590Y7862D01*
X26590Y8282D01*
D02*
G37*
X26170Y8272D01*
X26590Y7862D01*
X26590Y8282D01*
G36*
X8918Y4150D02*
X8918Y4150D01*
X8928Y3730D01*
X9338Y4150D01*
X8918Y4150D01*
D02*
G37*
X8928Y3730D01*
X9338Y4150D01*
X8918Y4150D01*
G54D14*
X3312Y4570D02*
X292Y4570D01*
X292Y570D01*
X3312Y570D01*
X3312Y4570D01*
X292Y4570D02*
X2292Y4570D01*
X1332Y3570D02*
X332Y3570D01*
X1332Y4570D02*
X1332Y3580D01*
X292Y9964D02*
X2292Y9964D01*
X1332Y8964D02*
X332Y8964D01*
X1332Y9964D02*
X1332Y8974D01*
X3312Y9964D02*
X292Y9964D01*
X292Y5964D01*
X3312Y5964D01*
X3312Y9964D01*
X3312Y15359D02*
X292Y15359D01*
X292Y11359D01*
X3312Y11359D01*
X3312Y15359D01*
X292Y15359D02*
X2292Y15359D01*
X1332Y14359D02*
X332Y14359D01*
X1332Y15359D02*
X1332Y14369D01*
X15876Y15712D02*
X12924Y15712D01*
X15876Y15004D02*
X15876Y15712D01*
X15876Y14069D02*
X15876Y14216D01*
X15128Y13507D02*
X15207Y13507D01*
X12924Y15712D02*
X12924Y15004D01*
X12924Y14069D02*
X12924Y14216D01*
X13672Y13507D02*
X13593Y13507D01*
X3958Y14957D02*
X4044Y14871D01*
X3615Y14871D01*
X3615Y14999D02*
X3615Y14743D01*
X3790Y11761D02*
X3790Y12017D01*
X4047Y11804D01*
X3619Y11804D01*
X3619Y11847D02*
X3619Y11761D01*
X4723Y584D02*
X4808Y499D01*
X4893Y499D01*
X4979Y584D01*
X4723Y841D01*
X4808Y927D01*
X4893Y927D01*
X4979Y841D01*
X5107Y499D02*
X5107Y756D01*
X5192Y927D01*
X5277Y927D01*
X5363Y756D01*
X5363Y499D01*
X5107Y627D02*
X5363Y627D01*
X5619Y499D02*
X5619Y927D01*
X5491Y927D02*
X5747Y927D01*
X5917Y841D02*
X6003Y927D01*
X6003Y499D01*
X5875Y499D02*
X6131Y499D01*
X6713Y584D02*
X6798Y499D01*
X6883Y499D01*
X6969Y584D01*
X6713Y841D01*
X6798Y927D01*
X6883Y927D01*
X6969Y841D01*
X7097Y499D02*
X7097Y756D01*
X7182Y927D01*
X7267Y927D01*
X7353Y756D01*
X7353Y499D01*
X7097Y627D02*
X7353Y627D01*
X7609Y499D02*
X7609Y927D01*
X7481Y927D02*
X7737Y927D01*
X7865Y841D02*
X7950Y927D01*
X8035Y927D01*
X8121Y841D01*
X8121Y799D01*
X7865Y499D01*
X8121Y499D01*
X8121Y541D01*
X8983Y584D02*
X9068Y499D01*
X9153Y499D01*
X9239Y584D01*
X9239Y841D01*
X9153Y927D01*
X9068Y927D01*
X8983Y841D01*
X8983Y584D01*
X9367Y584D02*
X9452Y499D01*
X9537Y499D01*
X9623Y584D01*
X9367Y841D01*
X9452Y927D01*
X9537Y927D01*
X9623Y841D01*
X9751Y499D02*
X9921Y499D01*
X10007Y584D01*
X10007Y841D01*
X9921Y927D01*
X9751Y927D01*
X9793Y927D02*
X9793Y499D01*
X24183Y1574D02*
X24268Y1489D01*
X24353Y1489D01*
X24439Y1574D01*
X24183Y1831D01*
X24268Y1917D01*
X24353Y1917D01*
X24439Y1831D01*
X24567Y1917D02*
X24609Y1489D01*
X24695Y1660D01*
X24780Y1489D01*
X24823Y1917D01*
X25207Y1917D02*
X24951Y1489D01*
X25335Y1917D02*
X25335Y1489D01*
X25591Y1489D01*
X25975Y1489D02*
X25719Y1489D01*
X25719Y1703D01*
X25719Y1917D01*
X25975Y1917D01*
X25719Y1703D02*
X25889Y1703D01*
X26103Y1489D02*
X26273Y1489D01*
X26359Y1574D01*
X26359Y1831D01*
X26273Y1917D01*
X26103Y1917D01*
X26145Y1917D02*
X26145Y1489D01*
X23883Y4253D02*
X23969Y4253D01*
X23969Y4124D01*
X23883Y4039D01*
X23798Y4039D01*
X23713Y4124D01*
X23713Y4381D01*
X23798Y4467D01*
X23969Y4467D01*
X24097Y4039D02*
X24097Y4467D01*
X24267Y4467D01*
X24353Y4381D01*
X24353Y4339D01*
X24267Y4253D01*
X24097Y4253D01*
X24481Y4124D02*
X24566Y4039D01*
X24651Y4039D01*
X24737Y4124D01*
X24481Y4381D01*
X24566Y4467D01*
X24651Y4467D01*
X24737Y4381D01*
X22999Y8092D02*
X22999Y8007D01*
X23427Y8092D02*
X23427Y8007D01*
X22999Y8049D02*
X23427Y8049D01*
X23341Y7793D02*
X23427Y7708D01*
X23427Y7623D01*
X23341Y7537D01*
X23299Y7537D01*
X22999Y7793D01*
X22999Y7537D01*
X23041Y7537D01*
X23084Y7153D02*
X22999Y7239D01*
X22999Y7324D01*
X23084Y7409D01*
X23341Y7409D01*
X23427Y7324D01*
X23427Y7239D01*
X23341Y7153D01*
X11329Y14619D02*
X11757Y14619D01*
X11757Y14747D02*
X11757Y14491D01*
X11329Y14107D02*
X11329Y14363D01*
X11543Y14363D01*
X11757Y14363D01*
X11757Y14107D01*
X11543Y14363D02*
X11543Y14193D01*
X11757Y13979D02*
X11329Y13979D01*
X11329Y13723D01*
X11329Y13339D02*
X11329Y13595D01*
X11543Y13595D01*
X11757Y13595D01*
X11757Y13339D01*
X11543Y13595D02*
X11543Y13425D01*
X11329Y13211D02*
X11757Y13211D01*
X11543Y13083D01*
X11757Y12955D01*
X11329Y12955D01*
X3958Y1255D02*
X4044Y1169D01*
X3615Y1169D01*
X3615Y1297D02*
X3615Y1041D01*
X3958Y913D02*
X4044Y828D01*
X4044Y743D01*
X3958Y657D01*
X3915Y657D01*
X3615Y913D01*
X3615Y657D01*
X3658Y657D01*
X3704Y4167D02*
X3619Y4082D01*
X3619Y3997D01*
X3704Y3911D01*
X3876Y3911D01*
X3961Y3911D01*
X4047Y3997D01*
X4047Y4082D01*
X3961Y4167D01*
X3876Y4167D01*
X3790Y4082D01*
X3790Y3997D01*
X3876Y3911D01*
X3619Y6367D02*
X3619Y6452D01*
X3704Y6537D01*
X3790Y6537D01*
X3833Y6495D01*
X3876Y6537D01*
X3961Y6537D01*
X4047Y6452D01*
X4047Y6367D01*
X3961Y6281D01*
X3876Y6281D01*
X3833Y6324D01*
X3790Y6281D01*
X3704Y6281D01*
X3619Y6367D01*
X3833Y6495D02*
X3833Y6324D01*
X4047Y9311D02*
X4047Y9567D01*
X3876Y9567D01*
X3876Y9397D01*
X3790Y9311D01*
X3704Y9311D01*
X3619Y9397D01*
X3619Y9567D01*
G54D15*
X18010Y13775D02*
X17410Y13775D01*
X18010Y13105D02*
X17410Y13105D01*
X1740Y10900D02*
X1740Y10644D01*
X1911Y10772D02*
X1569Y10772D01*
X792Y10900D02*
X792Y10644D01*
X2680Y10890D02*
X3060Y10890D01*
X2675Y10540D02*
X2675Y10300D01*
X2675Y11130D02*
X2675Y10890D01*
X3050Y10550D02*
X2680Y10550D01*
X3060Y10880D02*
X3060Y10550D01*
X720Y5429D02*
X720Y5173D01*
X1668Y5429D02*
X1668Y5173D01*
X1839Y5301D02*
X1497Y5301D01*
X2603Y5659D02*
X2603Y5419D01*
X2608Y5419D02*
X2988Y5419D01*
X2603Y5069D02*
X2603Y4829D01*
X2978Y5079D02*
X2608Y5079D01*
X2988Y5409D02*
X2988Y5079D01*
G54D16*
X18374Y13031D02*
G75*
D01*
G02X18374Y13031I49J0*
G01*
X16191Y3923D02*
G75*
D01*
G02X16191Y3923I49J0*
G01*
X12322Y691D02*
G75*
D01*
G02X12322Y691I49J0*
G01*
X5844Y6198D02*
G75*
D01*
G02X5844Y6198I49J0*
G01*
X18811Y6868D02*
G75*
D01*
G02X18811Y6868I50J0*
G01*
G54D17*
X16870Y1875D02*
X18130Y1875D01*
X18130Y3805D02*
X16870Y3805D01*
X16870Y1875D01*
X18130Y1875D02*
X18130Y3805D01*
X11948Y1951D02*
X11692Y1951D01*
X11692Y809D02*
X11948Y809D01*
X11948Y1951D01*
X11692Y1951D02*
X11692Y809D01*
X5794Y6828D02*
X9456Y6828D01*
X9456Y10489D01*
X5794Y10489D01*
X5794Y6828D01*
X18231Y6769D02*
X14569Y6769D01*
X14569Y10431D01*
X18231Y10431D01*
X18231Y6769D01*
G54D18*
X17165Y3411D02*
G75*
D01*
G02X17165Y3411I99J0*
G01*
X6060Y7192D02*
G75*
D01*
G02X6060Y7192I98J0*
G01*
X17768Y7133D02*
G75*
D01*
G02X17768Y7133I99J0*
G01*
G54D19*
X10180Y15380D03*
X19220Y650D03*
G54D20*
X23260Y14780D03*
X12780Y11730D03*
X24160Y12290D03*
X21040Y13570D03*
G54D21*
X13040Y5790D03*
X26150Y11320D03*
X20640Y9890D03*
X20640Y9160D03*
X20500Y3850D03*
X5150Y13500D03*
X6150Y13500D03*

M02*
