G04 Generated by Ultiboard 14.1 *
%FSLAX25Y25*%
%MOIN*%

%ADD10C,0.00001*%
%ADD11C,0.01000*%
%ADD12C,0.04156*%
%ADD13C,0.01772*%
%ADD14C,0.06334*%
%ADD15R,0.02083X0.02083*%
%ADD16C,0.03917*%


G04 ColorRGB CCFFCC for the following layer *
%LNCopper Inner 1*%
%LPD*%
G54D10*
G36*
X70529Y156187D02*
X70529Y156187D01*
X1294Y156187D01*
X1294Y1294D01*
X274297Y1294D01*
X274297Y156187D01*
X99260Y156187D01*
G75*
D01*
G02X93753Y151661I-2554J-2505*
G01*
G75*
D01*
G02X87847Y151661I-2953J2021*
G01*
G74*
D01*
G02X86163Y150336I2953J2021*
G01*
X86163Y150336D01*
X86163Y152413D01*
X87455Y152413D01*
G75*
D01*
G02X87455Y154951I3345J1269*
G01*
X87455Y154951D01*
X86163Y154951D01*
X86163Y156187D01*
X83626Y156187D01*
X83626Y154951D01*
X82334Y154951D01*
G75*
D01*
G02X82334Y152413I-3345J-1269*
G01*
X82334Y152413D01*
X83626Y152413D01*
X83626Y150336D01*
G74*
D01*
G02X81942Y151661I1268J3346*
G01*
G75*
D01*
G02X76036Y151661I-2953J2021*
G01*
G75*
D01*
G02X70529Y156187I-2953J2021*
G01*
D02*
G37*
%LPC*%
G36*
X23586Y93195D02*
G75*
D01*
G02X23586Y93195I4331J1449*
G01*
D02*
G37*
G36*
X13586Y93195D02*
G75*
D01*
G02X13586Y93195I4331J1449*
G01*
D02*
G37*
G36*
X6599Y93195D02*
G75*
D01*
G02X6599Y93195I1318J1449*
G01*
D02*
G37*
G36*
X69424Y93195D02*
G75*
D01*
G02X69424Y93195I1876J-195*
G01*
D02*
G37*
G36*
X95564Y134097D02*
G75*
D01*
G02X89658Y134097I-2953J2021*
G01*
G75*
D01*
G02X83753Y134097I-2952J2021*
G01*
G75*
D01*
G02X77847Y134097I-2953J2021*
G01*
G75*
D01*
G02X77847Y138139I-2953J2021*
G01*
G75*
D01*
G02X83753Y138139I2953J-2021*
G01*
G75*
D01*
G02X89658Y138139I2953J-2021*
G01*
G75*
D01*
G02X95564Y138139I2953J-2021*
G01*
G75*
D01*
G02X101469Y138139I2953J-2021*
G01*
G74*
D01*
G02X103153Y139464I2953J2021*
G01*
X103153Y139464D01*
X103153Y137387D01*
X101862Y137387D01*
G75*
D01*
G02X101862Y134849I-3345J-1269*
G01*
X101862Y134849D01*
X103153Y134849D01*
X103153Y132773D01*
G74*
D01*
G02X101469Y134097I1269J3345*
G01*
G75*
D01*
G02X95564Y134097I-2952J2021*
G01*
D02*
G37*
G36*
X93195Y120598D02*
G75*
D01*
G02X93195Y120598I-995J1602*
G01*
D02*
G37*
G36*
X93195Y97317D02*
G75*
D01*
G02X93195Y97317I-95J1883*
G01*
D02*
G37*
G36*
X178756Y93195D02*
G75*
D01*
G02X178756Y93195I1844J-395*
G01*
D02*
G37*
G36*
X93195Y68541D02*
G75*
D01*
G02X93195Y68541I-1195J1459*
G01*
D02*
G37*
G36*
X95387Y20649D02*
G75*
D01*
G02X92849Y20649I-1269J3345*
G01*
X92849Y20649D01*
X92849Y19358D01*
X90773Y19358D01*
G74*
D01*
G02X92097Y21042I3345J1269*
G01*
G75*
D01*
G02X92097Y26947I2021J2952*
G01*
G75*
D01*
G02X92097Y32853I2021J2953*
G01*
G75*
D01*
G02X96139Y32853I2021J2953*
G01*
G75*
D01*
G02X96139Y26947I-2021J-2953*
G01*
G75*
D01*
G02X96139Y21042I-2021J-2953*
G01*
G74*
D01*
G02X97464Y19358I2021J2953*
G01*
X97464Y19358D01*
X95387Y19358D01*
X95387Y20649D01*
D02*
G37*
G36*
X93195Y17066D02*
G75*
D01*
G02X93195Y17066I923J1023*
G01*
D02*
G37*
G36*
X90949Y83333D02*
G75*
D01*
G02X91936Y81915I1869J249*
G01*
G75*
D01*
G02X89786Y79802I-1869J-248*
G01*
G75*
D01*
G02X88181Y81665I-1886J-2*
G01*
G75*
D01*
G02X90949Y83333I1886J2*
G01*
D02*
G37*
G36*
X254706Y152500D02*
G75*
D01*
G02X254706Y152500I394J0*
G01*
D02*
G37*
G36*
X253337Y153169D02*
G74*
D01*
G02X254431Y154263I1763J669*
G01*
X254431Y154263D01*
X254431Y153169D01*
X253337Y153169D01*
D02*
G37*
G36*
X255769Y154263D02*
G74*
D01*
G02X256863Y153169I669J1763*
G01*
X256863Y153169D01*
X255769Y153169D01*
X255769Y154263D01*
D02*
G37*
G36*
X256863Y151831D02*
G74*
D01*
G02X255769Y150737I1763J669*
G01*
X255769Y150737D01*
X255769Y151831D01*
X256863Y151831D01*
D02*
G37*
G36*
X245469Y154063D02*
G74*
D01*
G02X246563Y152969I669J1763*
G01*
X246563Y152969D01*
X245469Y152969D01*
X245469Y154063D01*
D02*
G37*
G36*
X246563Y151631D02*
G74*
D01*
G02X245469Y150537I1763J669*
G01*
X245469Y150537D01*
X245469Y151631D01*
X246563Y151631D01*
D02*
G37*
G36*
X244406Y152300D02*
G75*
D01*
G02X244406Y152300I394J0*
G01*
D02*
G37*
G36*
X243037Y152969D02*
G74*
D01*
G02X244131Y154063I1763J669*
G01*
X244131Y154063D01*
X244131Y152969D01*
X243037Y152969D01*
D02*
G37*
G36*
X244131Y150537D02*
G74*
D01*
G02X243037Y151631I669J1763*
G01*
X243037Y151631D01*
X244131Y151631D01*
X244131Y150537D01*
D02*
G37*
G36*
X228537Y152569D02*
G74*
D01*
G02X229631Y153663I1763J669*
G01*
X229631Y153663D01*
X229631Y152569D01*
X228537Y152569D01*
D02*
G37*
G36*
X230969Y153663D02*
G74*
D01*
G02X232063Y152569I669J1763*
G01*
X232063Y152569D01*
X230969Y152569D01*
X230969Y153663D01*
D02*
G37*
G36*
X232063Y151231D02*
G74*
D01*
G02X230969Y150137I1763J669*
G01*
X230969Y150137D01*
X230969Y151231D01*
X232063Y151231D01*
D02*
G37*
G36*
X229631Y150137D02*
G74*
D01*
G02X228537Y151231I669J1763*
G01*
X228537Y151231D01*
X229631Y151231D01*
X229631Y150137D01*
D02*
G37*
G36*
X229906Y151900D02*
G75*
D01*
G02X229906Y151900I394J0*
G01*
D02*
G37*
G36*
X205537Y150569D02*
G74*
D01*
G02X206631Y151663I1763J669*
G01*
X206631Y151663D01*
X206631Y150569D01*
X205537Y150569D01*
D02*
G37*
G36*
X207969Y151663D02*
G74*
D01*
G02X209063Y150569I669J1763*
G01*
X209063Y150569D01*
X207969Y150569D01*
X207969Y151663D01*
D02*
G37*
G36*
X215537Y142069D02*
G74*
D01*
G02X216631Y143163I1763J669*
G01*
X216631Y143163D01*
X216631Y142069D01*
X215537Y142069D01*
D02*
G37*
G36*
X217969Y143163D02*
G74*
D01*
G02X219063Y142069I669J1763*
G01*
X219063Y142069D01*
X217969Y142069D01*
X217969Y143163D01*
D02*
G37*
G36*
X218035Y149335D02*
G75*
D01*
G02X215765Y147065I-435J-1835*
G01*
G75*
D01*
G02X218035Y149335I435J1835*
G01*
D02*
G37*
G36*
X209063Y149231D02*
G74*
D01*
G02X207969Y148137I1763J669*
G01*
X207969Y148137D01*
X207969Y149231D01*
X209063Y149231D01*
D02*
G37*
G36*
X206631Y148137D02*
G74*
D01*
G02X205537Y149231I669J1763*
G01*
X205537Y149231D01*
X206631Y149231D01*
X206631Y148137D01*
D02*
G37*
G36*
X206906Y149900D02*
G75*
D01*
G02X206906Y149900I394J0*
G01*
D02*
G37*
G36*
X237669Y139463D02*
G74*
D01*
G02X238763Y138369I669J1763*
G01*
X238763Y138369D01*
X237669Y138369D01*
X237669Y139463D01*
D02*
G37*
G36*
X238763Y137031D02*
G74*
D01*
G02X237669Y135937I1763J669*
G01*
X237669Y135937D01*
X237669Y137031D01*
X238763Y137031D01*
D02*
G37*
G36*
X236606Y137700D02*
G75*
D01*
G02X236606Y137700I394J0*
G01*
D02*
G37*
G36*
X241314Y136700D02*
G75*
D01*
G02X241314Y136700I1886J0*
G01*
D02*
G37*
G36*
X233437Y138369D02*
G74*
D01*
G02X234531Y139463I1763J669*
G01*
X234531Y139463D01*
X234531Y138369D01*
X233437Y138369D01*
D02*
G37*
G36*
X234531Y135937D02*
G74*
D01*
G02X233437Y137031I669J1763*
G01*
X233437Y137031D01*
X234531Y137031D01*
X234531Y135937D01*
D02*
G37*
G36*
X234806Y137700D02*
G75*
D01*
G02X234806Y137700I394J0*
G01*
D02*
G37*
G36*
X235869Y139209D02*
X235869Y139209D01*
X235869Y139463D01*
G74*
D01*
G02X236100Y139357I669J1763*
G01*
G74*
D01*
G02X236331Y139463I900J1657*
G01*
X236331Y139463D01*
X236331Y139209D01*
G74*
D01*
G02X236963Y138369I1131J1509*
G01*
X236963Y138369D01*
X235237Y138369D01*
G74*
D01*
G02X235869Y139209I1763J669*
G01*
D02*
G37*
G36*
X236963Y137031D02*
G74*
D01*
G02X236331Y136191I1763J669*
G01*
X236331Y136191D01*
X236331Y135937D01*
G74*
D01*
G02X236100Y136043I669J1763*
G01*
G74*
D01*
G02X235869Y135937I900J1657*
G01*
X235869Y135937D01*
X235869Y136191D01*
G74*
D01*
G02X235237Y137031I1131J1509*
G01*
X235237Y137031D01*
X236963Y137031D01*
D02*
G37*
G36*
X226514Y137500D02*
G75*
D01*
G02X226514Y137500I1886J0*
G01*
D02*
G37*
G36*
X219063Y140731D02*
G74*
D01*
G02X217969Y139637I1763J669*
G01*
X217969Y139637D01*
X217969Y140731D01*
X219063Y140731D01*
D02*
G37*
G36*
X216631Y139637D02*
G74*
D01*
G02X215537Y140731I669J1763*
G01*
X215537Y140731D01*
X216631Y140731D01*
X216631Y139637D01*
D02*
G37*
G36*
X216906Y141400D02*
G75*
D01*
G02X216906Y141400I394J0*
G01*
D02*
G37*
G36*
X261949Y133149D02*
X261949Y133149D01*
X261949Y131858D01*
X259873Y131858D01*
G74*
D01*
G02X261197Y133542I3345J1269*
G01*
G75*
D01*
G02X261197Y139447I2021J2952*
G01*
G75*
D01*
G02X261197Y145353I2021J2953*
G01*
G75*
D01*
G02X265239Y145353I2021J2953*
G01*
G75*
D01*
G02X265239Y139447I-2021J-2953*
G01*
G75*
D01*
G02X265239Y133542I-2021J-2953*
G01*
G74*
D01*
G02X266564Y131858I2021J2953*
G01*
X266564Y131858D01*
X264487Y131858D01*
X264487Y133149D01*
G75*
D01*
G02X261949Y133149I-1269J3345*
G01*
D02*
G37*
G36*
X261840Y130589D02*
G75*
D01*
G02X261840Y130589I1378J0*
G01*
D02*
G37*
G36*
X266564Y129320D02*
G74*
D01*
G02X264487Y127244I3346J1269*
G01*
X264487Y127244D01*
X264487Y129320D01*
X266564Y129320D01*
D02*
G37*
G36*
X261949Y127244D02*
G74*
D01*
G02X259873Y129320I1269J3345*
G01*
X259873Y129320D01*
X261949Y129320D01*
X261949Y127244D01*
D02*
G37*
G36*
X207537Y132569D02*
G74*
D01*
G02X208631Y133663I1763J669*
G01*
X208631Y133663D01*
X208631Y132569D01*
X207537Y132569D01*
D02*
G37*
G36*
X209969Y133663D02*
G74*
D01*
G02X211063Y132569I669J1763*
G01*
X211063Y132569D01*
X209969Y132569D01*
X209969Y133663D01*
D02*
G37*
G36*
X208906Y131900D02*
G75*
D01*
G02X208906Y131900I394J0*
G01*
D02*
G37*
G36*
X208631Y130137D02*
G74*
D01*
G02X207964Y130569I669J1763*
G01*
X207964Y130569D01*
X207437Y130569D01*
G74*
D01*
G02X207654Y130980I1763J669*
G01*
G74*
D01*
G02X207537Y131231I1646J920*
G01*
X207537Y131231D01*
X207864Y131231D01*
G74*
D01*
G02X208531Y131663I1336J1331*
G01*
X208531Y131663D01*
X208531Y131231D01*
X208631Y131231D01*
X208631Y130137D01*
D02*
G37*
G36*
X210536Y131231D02*
X210536Y131231D01*
X211063Y131231D01*
G74*
D01*
G02X210846Y130820I1763J669*
G01*
G74*
D01*
G02X210963Y130569I1646J920*
G01*
X210963Y130569D01*
X210636Y130569D01*
G74*
D01*
G02X209969Y130137I1336J1331*
G01*
X209969Y130137D01*
X209969Y130569D01*
X209869Y130569D01*
X209869Y131663D01*
G74*
D01*
G02X210536Y131231I669J1763*
G01*
D02*
G37*
G36*
X210963Y129231D02*
G74*
D01*
G02X209869Y128137I1763J669*
G01*
X209869Y128137D01*
X209869Y129231D01*
X210963Y129231D01*
D02*
G37*
G36*
X208531Y128137D02*
G74*
D01*
G02X207437Y129231I669J1763*
G01*
X207437Y129231D01*
X208531Y129231D01*
X208531Y128137D01*
D02*
G37*
G36*
X208806Y129900D02*
G75*
D01*
G02X208806Y129900I394J0*
G01*
D02*
G37*
G36*
X246937Y118969D02*
G74*
D01*
G02X248031Y120063I1763J669*
G01*
X248031Y120063D01*
X248031Y118969D01*
X246937Y118969D01*
D02*
G37*
G36*
X249369Y120063D02*
G74*
D01*
G02X250463Y118969I669J1763*
G01*
X250463Y118969D01*
X249369Y118969D01*
X249369Y120063D01*
D02*
G37*
G36*
X238237Y119869D02*
G74*
D01*
G02X239331Y120963I1763J669*
G01*
X239331Y120963D01*
X239331Y119869D01*
X238237Y119869D01*
D02*
G37*
G36*
X240669Y120963D02*
G74*
D01*
G02X241763Y119869I669J1763*
G01*
X241763Y119869D01*
X240669Y119869D01*
X240669Y120963D01*
D02*
G37*
G36*
X239606Y119200D02*
G75*
D01*
G02X239606Y119200I394J0*
G01*
D02*
G37*
G36*
X214969Y120163D02*
G74*
D01*
G02X216063Y119069I669J1763*
G01*
X216063Y119069D01*
X214969Y119069D01*
X214969Y120163D01*
D02*
G37*
G36*
X206814Y123600D02*
G75*
D01*
G02X206814Y123600I1886J0*
G01*
D02*
G37*
G36*
X212537Y119069D02*
G74*
D01*
G02X213631Y120163I1763J669*
G01*
X213631Y120163D01*
X213631Y119069D01*
X212537Y119069D01*
D02*
G37*
G36*
X198814Y123600D02*
G75*
D01*
G02X198814Y123600I1886J0*
G01*
D02*
G37*
G36*
X192414Y121800D02*
G75*
D01*
G02X192414Y121800I1886J0*
G01*
D02*
G37*
G36*
X250463Y117631D02*
G74*
D01*
G02X249369Y116537I1763J669*
G01*
X249369Y116537D01*
X249369Y117631D01*
X250463Y117631D01*
D02*
G37*
G36*
X248031Y116537D02*
G74*
D01*
G02X246937Y117631I669J1763*
G01*
X246937Y117631D01*
X248031Y117631D01*
X248031Y116537D01*
D02*
G37*
G36*
X248306Y118300D02*
G75*
D01*
G02X248306Y118300I394J0*
G01*
D02*
G37*
G36*
X241763Y116631D02*
G74*
D01*
G02X240669Y115537I1763J669*
G01*
X240669Y115537D01*
X240669Y116631D01*
X241763Y116631D01*
D02*
G37*
G36*
X239331Y115537D02*
G74*
D01*
G02X238237Y116631I669J1763*
G01*
X238237Y116631D01*
X239331Y116631D01*
X239331Y115537D01*
D02*
G37*
G36*
X239606Y117300D02*
G75*
D01*
G02X239606Y117300I394J0*
G01*
D02*
G37*
G36*
X239331Y117437D02*
G74*
D01*
G02X238572Y117969I669J1763*
G01*
X238572Y117969D01*
X238237Y117969D01*
G74*
D01*
G02X238371Y118250I1763J669*
G01*
G74*
D01*
G02X238237Y118531I1629J950*
G01*
X238237Y118531D01*
X238572Y118531D01*
G74*
D01*
G02X239331Y119063I1428J1231*
G01*
X239331Y119063D01*
X239331Y117437D01*
D02*
G37*
G36*
X241428Y118531D02*
X241428Y118531D01*
X241763Y118531D01*
G74*
D01*
G02X241629Y118250I1763J669*
G01*
G74*
D01*
G02X241763Y117969I1629J950*
G01*
X241763Y117969D01*
X241428Y117969D01*
G74*
D01*
G02X240669Y117437I1428J1231*
G01*
X240669Y117437D01*
X240669Y119063D01*
G74*
D01*
G02X241428Y118531I669J1763*
G01*
D02*
G37*
G36*
X216063Y117731D02*
G74*
D01*
G02X214969Y116637I1763J669*
G01*
X214969Y116637D01*
X214969Y117731D01*
X216063Y117731D01*
D02*
G37*
G36*
X213906Y118400D02*
G75*
D01*
G02X213906Y118400I394J0*
G01*
D02*
G37*
G36*
X213631Y116637D02*
G74*
D01*
G02X212537Y117731I669J1763*
G01*
X212537Y117731D01*
X213631Y117731D01*
X213631Y116637D01*
D02*
G37*
G36*
X240614Y109400D02*
G75*
D01*
G02X240614Y109400I1886J0*
G01*
D02*
G37*
G36*
X232537Y103769D02*
G74*
D01*
G02X233631Y104863I1763J669*
G01*
X233631Y104863D01*
X233631Y103769D01*
X232537Y103769D01*
D02*
G37*
G36*
X234969Y104863D02*
G74*
D01*
G02X236063Y103769I669J1763*
G01*
X236063Y103769D01*
X234969Y103769D01*
X234969Y104863D01*
D02*
G37*
G36*
X233906Y103100D02*
G75*
D01*
G02X233906Y103100I394J0*
G01*
D02*
G37*
G36*
X219031Y106683D02*
G75*
D01*
G02X219031Y106683I1886J0*
G01*
D02*
G37*
G36*
X212014Y109200D02*
G75*
D01*
G02X212014Y109200I1886J0*
G01*
D02*
G37*
G36*
X260837Y97769D02*
G74*
D01*
G02X261931Y98863I1763J669*
G01*
X261931Y98863D01*
X261931Y97769D01*
X260837Y97769D01*
D02*
G37*
G36*
X263269Y98863D02*
G74*
D01*
G02X264363Y97769I669J1763*
G01*
X264363Y97769D01*
X263269Y97769D01*
X263269Y98863D01*
D02*
G37*
G36*
X264363Y96431D02*
G74*
D01*
G02X263269Y95337I1763J669*
G01*
X263269Y95337D01*
X263269Y96431D01*
X264363Y96431D01*
D02*
G37*
G36*
X261931Y95337D02*
G74*
D01*
G02X260837Y96431I669J1763*
G01*
X260837Y96431D01*
X261931Y96431D01*
X261931Y95337D01*
D02*
G37*
G36*
X262206Y97100D02*
G75*
D01*
G02X262206Y97100I394J0*
G01*
D02*
G37*
G36*
X232314Y98600D02*
G75*
D01*
G02X232314Y98600I1886J0*
G01*
D02*
G37*
G36*
X236063Y102431D02*
G74*
D01*
G02X234969Y101337I1763J669*
G01*
X234969Y101337D01*
X234969Y102431D01*
X236063Y102431D01*
D02*
G37*
G36*
X233631Y101337D02*
G74*
D01*
G02X232537Y102431I669J1763*
G01*
X232537Y102431D01*
X233631Y102431D01*
X233631Y101337D01*
D02*
G37*
G36*
X214937Y99469D02*
G74*
D01*
G02X216031Y100563I1763J669*
G01*
X216031Y100563D01*
X216031Y99469D01*
X214937Y99469D01*
D02*
G37*
G36*
X217369Y100563D02*
G74*
D01*
G02X218463Y99469I669J1763*
G01*
X218463Y99469D01*
X217369Y99469D01*
X217369Y100563D01*
D02*
G37*
G36*
X218463Y98131D02*
G74*
D01*
G02X217369Y97037I1763J669*
G01*
X217369Y97037D01*
X217369Y98131D01*
X218463Y98131D01*
D02*
G37*
G36*
X216031Y97037D02*
G74*
D01*
G02X214937Y98131I669J1763*
G01*
X214937Y98131D01*
X216031Y98131D01*
X216031Y97037D01*
D02*
G37*
G36*
X216306Y98800D02*
G75*
D01*
G02X216306Y98800I394J0*
G01*
D02*
G37*
G36*
X254431Y150737D02*
G74*
D01*
G02X253337Y151831I669J1763*
G01*
X253337Y151831D01*
X254431Y151831D01*
X254431Y150737D01*
D02*
G37*
G36*
X70114Y146000D02*
G75*
D01*
G02X70114Y146000I1886J0*
G01*
D02*
G37*
G36*
X51237Y146869D02*
G74*
D01*
G02X52331Y147963I1763J669*
G01*
X52331Y147963D01*
X52331Y146869D01*
X51237Y146869D01*
D02*
G37*
G36*
X53669Y147963D02*
G74*
D01*
G02X54763Y146869I669J1763*
G01*
X54763Y146869D01*
X53669Y146869D01*
X53669Y147963D01*
D02*
G37*
G36*
X54763Y145531D02*
G74*
D01*
G02X53669Y144437I1763J669*
G01*
X53669Y144437D01*
X53669Y145531D01*
X54763Y145531D01*
D02*
G37*
G36*
X52331Y144437D02*
G74*
D01*
G02X51237Y145531I669J1763*
G01*
X51237Y145531D01*
X52331Y145531D01*
X52331Y144437D01*
D02*
G37*
G36*
X52606Y146200D02*
G75*
D01*
G02X52606Y146200I394J0*
G01*
D02*
G37*
G36*
X23350Y148588D02*
G75*
D01*
G02X23350Y148588I4567J0*
G01*
D02*
G37*
G36*
X13350Y148588D02*
G75*
D01*
G02X13350Y148588I4567J0*
G01*
D02*
G37*
G36*
X12292Y150154D02*
X12292Y150154D01*
X9483Y150154D01*
X9483Y152963D01*
G74*
D01*
G02X12292Y150154I525J3334*
G01*
D02*
G37*
G36*
X6351Y152963D02*
X6351Y152963D01*
X6351Y150154D01*
X3541Y150154D01*
G74*
D01*
G02X6351Y152963I3334J525*
G01*
D02*
G37*
G36*
X9483Y144213D02*
X9483Y144213D01*
X9483Y147022D01*
X12292Y147022D01*
G74*
D01*
G02X9483Y144213I3334J524*
G01*
D02*
G37*
G36*
X3541Y147022D02*
X3541Y147022D01*
X6351Y147022D01*
X6351Y144213D01*
G74*
D01*
G02X3541Y147022I524J3333*
G01*
D02*
G37*
G36*
X5958Y148588D02*
G75*
D01*
G02X5958Y148588I1959J0*
G01*
D02*
G37*
G36*
X23350Y138588D02*
G75*
D01*
G02X23350Y138588I4567J0*
G01*
D02*
G37*
G36*
X13350Y138588D02*
G75*
D01*
G02X13350Y138588I4567J0*
G01*
D02*
G37*
G36*
X12187Y136968D02*
G74*
D01*
G02X9536Y134318I4270J1620*
G01*
X9536Y134318D01*
X9536Y136968D01*
X12187Y136968D01*
D02*
G37*
G36*
X9536Y142858D02*
G74*
D01*
G02X12187Y140207I1619J4270*
G01*
X12187Y140207D01*
X9536Y140207D01*
X9536Y142858D01*
D02*
G37*
G36*
X6297Y134318D02*
G74*
D01*
G02X3646Y136968I1620J4270*
G01*
X3646Y136968D01*
X6297Y136968D01*
X6297Y134318D01*
D02*
G37*
G36*
X3646Y140207D02*
G74*
D01*
G02X6297Y142858I4271J1619*
G01*
X6297Y142858D01*
X6297Y140207D01*
X3646Y140207D01*
D02*
G37*
G36*
X6167Y138588D02*
G75*
D01*
G02X6167Y138588I1750J0*
G01*
D02*
G37*
G36*
X83517Y153682D02*
G75*
D01*
G02X83517Y153682I1377J0*
G01*
D02*
G37*
G36*
X63514Y132600D02*
G75*
D01*
G02X63514Y132600I1886J0*
G01*
D02*
G37*
G36*
X81069Y123463D02*
G74*
D01*
G02X82163Y122369I669J1763*
G01*
X82163Y122369D01*
X81069Y122369D01*
X81069Y123463D01*
D02*
G37*
G36*
X82163Y121031D02*
G74*
D01*
G02X81069Y119937I1763J669*
G01*
X81069Y119937D01*
X81069Y121031D01*
X82163Y121031D01*
D02*
G37*
G36*
X80006Y121700D02*
G75*
D01*
G02X80006Y121700I394J0*
G01*
D02*
G37*
G36*
X78637Y122369D02*
G74*
D01*
G02X79731Y123463I1763J669*
G01*
X79731Y123463D01*
X79731Y122369D01*
X78637Y122369D01*
D02*
G37*
G36*
X79731Y119937D02*
G74*
D01*
G02X78637Y121031I669J1763*
G01*
X78637Y121031D01*
X79731Y121031D01*
X79731Y119937D01*
D02*
G37*
G36*
X23350Y128588D02*
G75*
D01*
G02X23350Y128588I4567J0*
G01*
D02*
G37*
G36*
X13350Y128588D02*
G75*
D01*
G02X13350Y128588I4567J0*
G01*
D02*
G37*
G36*
X9536Y132858D02*
G74*
D01*
G02X12187Y130207I1619J4270*
G01*
X12187Y130207D01*
X9536Y130207D01*
X9536Y132858D01*
D02*
G37*
G36*
X12187Y126968D02*
G74*
D01*
G02X9536Y124318I4270J1620*
G01*
X9536Y124318D01*
X9536Y126968D01*
X12187Y126968D01*
D02*
G37*
G36*
X3646Y130207D02*
G74*
D01*
G02X6297Y132858I4271J1619*
G01*
X6297Y132858D01*
X6297Y130207D01*
X3646Y130207D01*
D02*
G37*
G36*
X6167Y128588D02*
G75*
D01*
G02X6167Y128588I1750J0*
G01*
D02*
G37*
G36*
X6297Y124318D02*
G74*
D01*
G02X3646Y126968I1620J4270*
G01*
X3646Y126968D01*
X6297Y126968D01*
X6297Y124318D01*
D02*
G37*
G36*
X78214Y114300D02*
G75*
D01*
G02X78214Y114300I1886J0*
G01*
D02*
G37*
G36*
X23350Y118588D02*
G75*
D01*
G02X23350Y118588I4567J0*
G01*
D02*
G37*
G36*
X13350Y118588D02*
G75*
D01*
G02X13350Y118588I4567J0*
G01*
D02*
G37*
G36*
X9536Y122858D02*
G74*
D01*
G02X12187Y120207I1619J4270*
G01*
X12187Y120207D01*
X9536Y120207D01*
X9536Y122858D01*
D02*
G37*
G36*
X3646Y120207D02*
G74*
D01*
G02X6297Y122858I4271J1619*
G01*
X6297Y122858D01*
X6297Y120207D01*
X3646Y120207D01*
D02*
G37*
G36*
X12187Y116968D02*
G74*
D01*
G02X9536Y114318I4270J1620*
G01*
X9536Y114318D01*
X9536Y116968D01*
X12187Y116968D01*
D02*
G37*
G36*
X6297Y114318D02*
G74*
D01*
G02X3646Y116968I1620J4270*
G01*
X3646Y116968D01*
X6297Y116968D01*
X6297Y114318D01*
D02*
G37*
G36*
X6167Y118588D02*
G75*
D01*
G02X6167Y118588I1750J0*
G01*
D02*
G37*
G36*
X82114Y101600D02*
G75*
D01*
G02X82114Y101600I1886J0*
G01*
D02*
G37*
G36*
X61314Y99200D02*
G75*
D01*
G02X61314Y99200I1886J0*
G01*
D02*
G37*
G36*
X79014Y95900D02*
G75*
D01*
G02X79014Y95900I1886J0*
G01*
D02*
G37*
G36*
X73614Y95500D02*
G75*
D01*
G02X73614Y95500I1886J0*
G01*
D02*
G37*
G36*
X12292Y96210D02*
X12292Y96210D01*
X9483Y96210D01*
X9483Y99019D01*
G74*
D01*
G02X12292Y96210I525J3334*
G01*
D02*
G37*
G36*
X6351Y99019D02*
X6351Y99019D01*
X6351Y96210D01*
X3541Y96210D01*
G74*
D01*
G02X6351Y99019I3334J525*
G01*
D02*
G37*
G36*
X138631Y149937D02*
G74*
D01*
G02X137537Y151031I669J1763*
G01*
X137537Y151031D01*
X138631Y151031D01*
X138631Y149937D01*
D02*
G37*
G36*
X141063Y151031D02*
G74*
D01*
G02X139969Y149937I1763J669*
G01*
X139969Y149937D01*
X139969Y151031D01*
X141063Y151031D01*
D02*
G37*
G36*
X139969Y153463D02*
G74*
D01*
G02X141063Y152369I669J1763*
G01*
X141063Y152369D01*
X139969Y152369D01*
X139969Y153463D01*
D02*
G37*
G36*
X137537Y152369D02*
G74*
D01*
G02X138631Y153463I1763J669*
G01*
X138631Y153463D01*
X138631Y152369D01*
X137537Y152369D01*
D02*
G37*
G36*
X164214Y138400D02*
G75*
D01*
G02X164214Y138400I1886J0*
G01*
D02*
G37*
G36*
X149406Y137535D02*
G75*
D01*
G02X149406Y137535I2468J0*
G01*
D02*
G37*
G36*
X133657Y137535D02*
G75*
D01*
G02X133657Y137535I2469J0*
G01*
D02*
G37*
G36*
X105691Y139464D02*
G74*
D01*
G02X107767Y137387I1269J3346*
G01*
X107767Y137387D01*
X105691Y137387D01*
X105691Y139464D01*
D02*
G37*
G36*
X107767Y134849D02*
G74*
D01*
G02X105691Y132773I3345J1269*
G01*
X105691Y132773D01*
X105691Y134849D01*
X107767Y134849D01*
D02*
G37*
G36*
X103044Y136118D02*
G75*
D01*
G02X103044Y136118I1378J0*
G01*
D02*
G37*
G36*
X141914Y130900D02*
G75*
D01*
G02X141914Y130900I1886J0*
G01*
D02*
G37*
G36*
X115014Y135100D02*
G75*
D01*
G02X115014Y135100I1886J0*
G01*
D02*
G37*
G36*
X173706Y122800D02*
G75*
D01*
G02X173706Y122800I394J0*
G01*
D02*
G37*
G36*
X175863Y122131D02*
G74*
D01*
G02X174769Y121037I1763J669*
G01*
X174769Y121037D01*
X174769Y122131D01*
X175863Y122131D01*
D02*
G37*
G36*
X174769Y124563D02*
G74*
D01*
G02X175863Y123469I669J1763*
G01*
X175863Y123469D01*
X174769Y123469D01*
X174769Y124563D01*
D02*
G37*
G36*
X178914Y126500D02*
G75*
D01*
G02X178914Y126500I1886J0*
G01*
D02*
G37*
G36*
X173431Y121037D02*
G74*
D01*
G02X172337Y122131I669J1763*
G01*
X172337Y122131D01*
X173431Y122131D01*
X173431Y121037D01*
D02*
G37*
G36*
X172337Y123469D02*
G74*
D01*
G02X173431Y124563I1763J669*
G01*
X173431Y124563D01*
X173431Y123469D01*
X172337Y123469D01*
D02*
G37*
G36*
X162137Y119169D02*
G74*
D01*
G02X163231Y120263I1763J669*
G01*
X163231Y120263D01*
X163231Y119169D01*
X162137Y119169D01*
D02*
G37*
G36*
X164569Y120263D02*
G74*
D01*
G02X165663Y119169I669J1763*
G01*
X165663Y119169D01*
X164569Y119169D01*
X164569Y120263D01*
D02*
G37*
G36*
X119806Y125300D02*
G75*
D01*
G02X119806Y125300I394J0*
G01*
D02*
G37*
G36*
X119531Y123537D02*
G74*
D01*
G02X118437Y124631I669J1763*
G01*
X118437Y124631D01*
X119531Y124631D01*
X119531Y123537D01*
D02*
G37*
G36*
X121963Y124631D02*
G74*
D01*
G02X120869Y123537I1763J669*
G01*
X120869Y123537D01*
X120869Y124631D01*
X121963Y124631D01*
D02*
G37*
G36*
X120869Y127063D02*
G74*
D01*
G02X121963Y125969I669J1763*
G01*
X121963Y125969D01*
X120869Y125969D01*
X120869Y127063D01*
D02*
G37*
G36*
X118437Y125969D02*
G74*
D01*
G02X119531Y127063I1763J669*
G01*
X119531Y127063D01*
X119531Y125969D01*
X118437Y125969D01*
D02*
G37*
G36*
X110914Y127100D02*
G75*
D01*
G02X110914Y127100I1886J0*
G01*
D02*
G37*
G36*
X163231Y116737D02*
G74*
D01*
G02X162137Y117831I669J1763*
G01*
X162137Y117831D01*
X163231Y117831D01*
X163231Y116737D01*
D02*
G37*
G36*
X163506Y118500D02*
G75*
D01*
G02X163506Y118500I394J0*
G01*
D02*
G37*
G36*
X165663Y117831D02*
G74*
D01*
G02X164569Y116737I1763J669*
G01*
X164569Y116737D01*
X164569Y117831D01*
X165663Y117831D01*
D02*
G37*
G36*
X149614Y114000D02*
G75*
D01*
G02X149614Y114000I1886J0*
G01*
D02*
G37*
G36*
X113314Y114200D02*
G75*
D01*
G02X113314Y114200I1886J0*
G01*
D02*
G37*
G36*
X173469Y104763D02*
G74*
D01*
G02X174563Y103669I669J1763*
G01*
X174563Y103669D01*
X173469Y103669D01*
X173469Y104763D01*
D02*
G37*
G36*
X172406Y103000D02*
G75*
D01*
G02X172406Y103000I394J0*
G01*
D02*
G37*
G36*
X171037Y103669D02*
G74*
D01*
G02X172131Y104763I1763J669*
G01*
X172131Y104763D01*
X172131Y103669D01*
X171037Y103669D01*
D02*
G37*
G36*
X93614Y109000D02*
G75*
D01*
G02X93614Y109000I1886J0*
G01*
D02*
G37*
G36*
X174563Y102331D02*
G74*
D01*
G02X173469Y101237I1763J669*
G01*
X173469Y101237D01*
X173469Y102331D01*
X174563Y102331D01*
D02*
G37*
G36*
X178574Y102512D02*
G75*
D01*
G02X176890Y100424I190J-1876*
G01*
G75*
D01*
G02X178574Y102512I-190J1876*
G01*
D02*
G37*
G36*
X172131Y101237D02*
G74*
D01*
G02X171037Y102331I669J1763*
G01*
X171037Y102331D01*
X172131Y102331D01*
X172131Y101237D01*
D02*
G37*
G36*
X167014Y101100D02*
G75*
D01*
G02X167014Y101100I1886J0*
G01*
D02*
G37*
G36*
X129806Y96000D02*
G75*
D01*
G02X129806Y96000I394J0*
G01*
D02*
G37*
G36*
X130869Y97763D02*
G74*
D01*
G02X131963Y96669I669J1763*
G01*
X131963Y96669D01*
X130869Y96669D01*
X130869Y97763D01*
D02*
G37*
G36*
X128437Y96669D02*
G74*
D01*
G02X129531Y97763I1763J669*
G01*
X129531Y97763D01*
X129531Y96669D01*
X128437Y96669D01*
D02*
G37*
G36*
X107514Y98600D02*
G75*
D01*
G02X107514Y98600I1886J0*
G01*
D02*
G37*
G36*
X102414Y101200D02*
G75*
D01*
G02X102414Y101200I1886J0*
G01*
D02*
G37*
G36*
X129531Y94237D02*
G74*
D01*
G02X128437Y95331I669J1763*
G01*
X128437Y95331D01*
X129531Y95331D01*
X129531Y94237D01*
D02*
G37*
G36*
X131963Y95331D02*
G74*
D01*
G02X130869Y94237I1763J669*
G01*
X130869Y94237D01*
X130869Y95331D01*
X131963Y95331D01*
D02*
G37*
G36*
X138906Y151700D02*
G75*
D01*
G02X138906Y151700I394J0*
G01*
D02*
G37*
G36*
X239144Y79151D02*
G74*
D01*
G02X241220Y81227I3345J1269*
G01*
X241220Y81227D01*
X241220Y79151D01*
X239144Y79151D01*
D02*
G37*
G36*
X220814Y88000D02*
G75*
D01*
G02X220814Y88000I1886J0*
G01*
D02*
G37*
G36*
X198737Y84669D02*
G74*
D01*
G02X199831Y85763I1763J669*
G01*
X199831Y85763D01*
X199831Y84669D01*
X198737Y84669D01*
D02*
G37*
G36*
X201169Y85763D02*
G74*
D01*
G02X202263Y84669I669J1763*
G01*
X202263Y84669D01*
X201169Y84669D01*
X201169Y85763D01*
D02*
G37*
G36*
X202263Y83331D02*
G74*
D01*
G02X201169Y82237I1763J669*
G01*
X201169Y82237D01*
X201169Y83331D01*
X202263Y83331D01*
D02*
G37*
G36*
X199831Y82237D02*
G74*
D01*
G02X198737Y83331I669J1763*
G01*
X198737Y83331D01*
X199831Y83331D01*
X199831Y82237D01*
D02*
G37*
G36*
X200106Y84000D02*
G75*
D01*
G02X200106Y84000I394J0*
G01*
D02*
G37*
G36*
X204014Y82700D02*
G75*
D01*
G02X204014Y82700I1886J0*
G01*
D02*
G37*
G36*
X266114Y73000D02*
G75*
D01*
G02X266114Y73000I1886J0*
G01*
D02*
G37*
G36*
X245442Y79903D02*
G75*
D01*
G02X251347Y79903I2952J-2021*
G01*
G75*
D01*
G02X257253Y79903I2953J-2021*
G01*
G75*
D01*
G02X257253Y75861I2953J-2021*
G01*
G75*
D01*
G02X251347Y75861I-2953J2021*
G01*
G75*
D01*
G02X245442Y75861I-2953J2021*
G01*
G74*
D01*
G02X243758Y74536I2953J2021*
G01*
X243758Y74536D01*
X243758Y76613D01*
X245049Y76613D01*
G75*
D01*
G02X245049Y79151I3345J1269*
G01*
X245049Y79151D01*
X243758Y79151D01*
X243758Y81227D01*
G74*
D01*
G02X245442Y79903I1269J3345*
G01*
D02*
G37*
G36*
X241111Y77882D02*
G75*
D01*
G02X241111Y77882I1378J0*
G01*
D02*
G37*
G36*
X241220Y74536D02*
G74*
D01*
G02X239144Y76613I1269J3346*
G01*
X239144Y76613D01*
X241220Y76613D01*
X241220Y74536D01*
D02*
G37*
G36*
X225114Y75000D02*
G75*
D01*
G02X225114Y75000I1886J0*
G01*
D02*
G37*
G36*
X193814Y75000D02*
G75*
D01*
G02X193814Y75000I1886J0*
G01*
D02*
G37*
G36*
X222114Y65700D02*
G75*
D01*
G02X222114Y65700I1886J0*
G01*
D02*
G37*
G36*
X222114Y61400D02*
G75*
D01*
G02X222114Y61400I1886J0*
G01*
D02*
G37*
G36*
X220363Y60731D02*
G74*
D01*
G02X219269Y59637I1763J669*
G01*
X219269Y59637D01*
X219269Y60731D01*
X220363Y60731D01*
D02*
G37*
G36*
X217931Y59637D02*
G74*
D01*
G02X216837Y60731I669J1763*
G01*
X216837Y60731D01*
X217931Y60731D01*
X217931Y59637D01*
D02*
G37*
G36*
X218206Y61400D02*
G75*
D01*
G02X218206Y61400I394J0*
G01*
D02*
G37*
G36*
X216837Y62069D02*
G74*
D01*
G02X217931Y63163I1763J669*
G01*
X217931Y63163D01*
X217931Y62069D01*
X216837Y62069D01*
D02*
G37*
G36*
X219269Y63163D02*
G74*
D01*
G02X220363Y62069I669J1763*
G01*
X220363Y62069D01*
X219269Y62069D01*
X219269Y63163D01*
D02*
G37*
G36*
X193414Y65500D02*
G75*
D01*
G02X193414Y65500I1886J0*
G01*
D02*
G37*
G36*
X196914Y63600D02*
G75*
D01*
G02X196914Y63600I1886J0*
G01*
D02*
G37*
G36*
X239344Y57751D02*
G74*
D01*
G02X241420Y59827I3345J1269*
G01*
X241420Y59827D01*
X241420Y57751D01*
X239344Y57751D01*
D02*
G37*
G36*
X257453Y54461D02*
G75*
D01*
G02X251547Y54461I-2953J2021*
G01*
G75*
D01*
G02X245642Y54461I-2953J2021*
G01*
G74*
D01*
G02X243958Y53136I2953J2021*
G01*
X243958Y53136D01*
X243958Y55213D01*
X245249Y55213D01*
G75*
D01*
G02X245249Y57751I3345J1269*
G01*
X245249Y57751D01*
X243958Y57751D01*
X243958Y59827D01*
G74*
D01*
G02X245642Y58503I1269J3345*
G01*
G75*
D01*
G02X251547Y58503I2952J-2021*
G01*
G75*
D01*
G02X257453Y58503I2953J-2021*
G01*
G75*
D01*
G02X257453Y54461I2953J-2021*
G01*
D02*
G37*
G36*
X241420Y53136D02*
G74*
D01*
G02X239344Y55213I1269J3346*
G01*
X239344Y55213D01*
X241420Y55213D01*
X241420Y53136D01*
D02*
G37*
G36*
X241311Y56482D02*
G75*
D01*
G02X241311Y56482I1378J0*
G01*
D02*
G37*
G36*
X225114Y53300D02*
G75*
D01*
G02X225114Y53300I1886J0*
G01*
D02*
G37*
G36*
X208837Y49569D02*
G74*
D01*
G02X209931Y50663I1763J669*
G01*
X209931Y50663D01*
X209931Y49569D01*
X208837Y49569D01*
D02*
G37*
G36*
X211269Y50663D02*
G74*
D01*
G02X212363Y49569I669J1763*
G01*
X212363Y49569D01*
X211269Y49569D01*
X211269Y50663D01*
D02*
G37*
G36*
X210206Y48900D02*
G75*
D01*
G02X210206Y48900I394J0*
G01*
D02*
G37*
G36*
X230369Y42763D02*
G74*
D01*
G02X231463Y41669I669J1763*
G01*
X231463Y41669D01*
X230369Y41669D01*
X230369Y42763D01*
D02*
G37*
G36*
X229306Y41000D02*
G75*
D01*
G02X229306Y41000I394J0*
G01*
D02*
G37*
G36*
X227937Y41669D02*
G74*
D01*
G02X229031Y42763I1763J669*
G01*
X229031Y42763D01*
X229031Y41669D01*
X227937Y41669D01*
D02*
G37*
G36*
X212363Y48231D02*
G74*
D01*
G02X211269Y47137I1763J669*
G01*
X211269Y47137D01*
X211269Y48231D01*
X212363Y48231D01*
D02*
G37*
G36*
X209931Y47137D02*
G74*
D01*
G02X208837Y48231I669J1763*
G01*
X208837Y48231D01*
X209931Y48231D01*
X209931Y47137D01*
D02*
G37*
G36*
X193263Y45431D02*
G74*
D01*
G02X192169Y44337I1763J669*
G01*
X192169Y44337D01*
X192169Y45431D01*
X193263Y45431D01*
D02*
G37*
G36*
X190831Y44337D02*
G74*
D01*
G02X189737Y45431I669J1763*
G01*
X189737Y45431D01*
X190831Y45431D01*
X190831Y44337D01*
D02*
G37*
G36*
X191106Y46100D02*
G75*
D01*
G02X191106Y46100I394J0*
G01*
D02*
G37*
G36*
X189737Y46769D02*
G74*
D01*
G02X190831Y47863I1763J669*
G01*
X190831Y47863D01*
X190831Y46769D01*
X189737Y46769D01*
D02*
G37*
G36*
X192169Y47863D02*
G74*
D01*
G02X193263Y46769I669J1763*
G01*
X193263Y46769D01*
X192169Y46769D01*
X192169Y47863D01*
D02*
G37*
G36*
X231463Y40331D02*
G74*
D01*
G02X230369Y39237I1763J669*
G01*
X230369Y39237D01*
X230369Y40331D01*
X231463Y40331D01*
D02*
G37*
G36*
X229031Y39237D02*
G74*
D01*
G02X227937Y40331I669J1763*
G01*
X227937Y40331D01*
X229031Y40331D01*
X229031Y39237D01*
D02*
G37*
G36*
X250955Y27449D02*
G75*
D01*
G02X250955Y29987I3345J1269*
G01*
X250955Y29987D01*
X249663Y29987D01*
X249663Y32064D01*
G74*
D01*
G02X251347Y30739I1269J3346*
G01*
G75*
D01*
G02X257253Y30739I2953J-2021*
G01*
G75*
D01*
G02X257253Y26697I2953J-2021*
G01*
G75*
D01*
G02X251347Y26697I-2953J2021*
G01*
G74*
D01*
G02X249663Y25373I2953J2021*
G01*
X249663Y25373D01*
X249663Y27449D01*
X250955Y27449D01*
D02*
G37*
G36*
X247017Y28718D02*
G75*
D01*
G02X247017Y28718I1377J0*
G01*
D02*
G37*
G36*
X247126Y25373D02*
G74*
D01*
G02X245049Y27449I1268J3345*
G01*
X245049Y27449D01*
X247126Y27449D01*
X247126Y25373D01*
D02*
G37*
G36*
X245049Y29987D02*
G74*
D01*
G02X247126Y32064I3345J1269*
G01*
X247126Y32064D01*
X247126Y29987D01*
X245049Y29987D01*
D02*
G37*
G36*
X205637Y29969D02*
G74*
D01*
G02X206731Y31063I1763J669*
G01*
X206731Y31063D01*
X206731Y29969D01*
X205637Y29969D01*
D02*
G37*
G36*
X208069Y31063D02*
G74*
D01*
G02X209163Y29969I669J1763*
G01*
X209163Y29969D01*
X208069Y29969D01*
X208069Y31063D01*
D02*
G37*
G36*
X209163Y28631D02*
G74*
D01*
G02X208069Y27537I1763J669*
G01*
X208069Y27537D01*
X208069Y28631D01*
X209163Y28631D01*
D02*
G37*
G36*
X206731Y27537D02*
G74*
D01*
G02X205637Y28631I669J1763*
G01*
X205637Y28631D01*
X206731Y28631D01*
X206731Y27537D01*
D02*
G37*
G36*
X207006Y29300D02*
G75*
D01*
G02X207006Y29300I394J0*
G01*
D02*
G37*
G36*
X190314Y30300D02*
G75*
D01*
G02X190314Y30300I1886J0*
G01*
D02*
G37*
G36*
X206545Y5349D02*
X206545Y5349D01*
X207837Y5349D01*
X207837Y3273D01*
G74*
D01*
G02X206153Y4597I1269J3345*
G01*
G75*
D01*
G02X200247Y4597I-2953J2021*
G01*
G75*
D01*
G02X200247Y8639I-2953J2021*
G01*
G75*
D01*
G02X206153Y8639I2953J-2021*
G01*
G74*
D01*
G02X207837Y9964I2953J2021*
G01*
X207837Y9964D01*
X207837Y7887D01*
X206545Y7887D01*
G75*
D01*
G02X206545Y5349I-3345J-1269*
G01*
D02*
G37*
G36*
X207728Y6618D02*
G75*
D01*
G02X207728Y6618I1378J0*
G01*
D02*
G37*
G36*
X217964Y4597D02*
G75*
D01*
G02X212058Y4597I-2953J2021*
G01*
G74*
D01*
G02X210374Y3273I2952J2021*
G01*
X210374Y3273D01*
X210374Y5349D01*
X211666Y5349D01*
G75*
D01*
G02X211666Y7887I3345J1269*
G01*
X211666Y7887D01*
X210374Y7887D01*
X210374Y9964D01*
G74*
D01*
G02X212058Y8639I1268J3346*
G01*
G75*
D01*
G02X217964Y8639I2953J-2021*
G01*
G75*
D01*
G02X217964Y4597I2953J-2021*
G01*
D02*
G37*
G36*
X57637Y88169D02*
G74*
D01*
G02X58731Y89263I1763J669*
G01*
X58731Y89263D01*
X58731Y88169D01*
X57637Y88169D01*
D02*
G37*
G36*
X60069Y89263D02*
G74*
D01*
G02X61163Y88169I669J1763*
G01*
X61163Y88169D01*
X60069Y88169D01*
X60069Y89263D01*
D02*
G37*
G36*
X9483Y90269D02*
X9483Y90269D01*
X9483Y93078D01*
X12292Y93078D01*
G74*
D01*
G02X9483Y90269I3334J524*
G01*
D02*
G37*
G36*
X3541Y93078D02*
X3541Y93078D01*
X6351Y93078D01*
X6351Y90269D01*
G74*
D01*
G02X3541Y93078I524J3333*
G01*
D02*
G37*
G36*
X73196Y83582D02*
G75*
D01*
G02X73196Y83582I1886J0*
G01*
D02*
G37*
G36*
X61163Y86831D02*
G74*
D01*
G02X60069Y85737I1763J669*
G01*
X60069Y85737D01*
X60069Y86831D01*
X61163Y86831D01*
D02*
G37*
G36*
X58731Y85737D02*
G74*
D01*
G02X57637Y86831I669J1763*
G01*
X57637Y86831D01*
X58731Y86831D01*
X58731Y85737D01*
D02*
G37*
G36*
X33237Y82669D02*
G74*
D01*
G02X34331Y83763I1763J669*
G01*
X34331Y83763D01*
X34331Y82669D01*
X33237Y82669D01*
D02*
G37*
G36*
X35669Y83763D02*
G74*
D01*
G02X36763Y82669I669J1763*
G01*
X36763Y82669D01*
X35669Y82669D01*
X35669Y83763D01*
D02*
G37*
G36*
X36763Y81331D02*
G74*
D01*
G02X35669Y80237I1763J669*
G01*
X35669Y80237D01*
X35669Y81331D01*
X36763Y81331D01*
D02*
G37*
G36*
X34331Y80237D02*
G74*
D01*
G02X33237Y81331I669J1763*
G01*
X33237Y81331D01*
X34331Y81331D01*
X34331Y80237D01*
D02*
G37*
G36*
X34606Y82000D02*
G75*
D01*
G02X34606Y82000I394J0*
G01*
D02*
G37*
G36*
X23350Y84644D02*
G75*
D01*
G02X23350Y84644I4567J0*
G01*
D02*
G37*
G36*
X13350Y84644D02*
G75*
D01*
G02X13350Y84644I4567J0*
G01*
D02*
G37*
G36*
X12187Y83024D02*
G74*
D01*
G02X9536Y80374I4270J1620*
G01*
X9536Y80374D01*
X9536Y83024D01*
X12187Y83024D01*
D02*
G37*
G36*
X9536Y88914D02*
G74*
D01*
G02X12187Y86263I1619J4270*
G01*
X12187Y86263D01*
X9536Y86263D01*
X9536Y88914D01*
D02*
G37*
G36*
X6297Y80374D02*
G74*
D01*
G02X3646Y83024I1620J4270*
G01*
X3646Y83024D01*
X6297Y83024D01*
X6297Y80374D01*
D02*
G37*
G36*
X3646Y86263D02*
G74*
D01*
G02X6297Y88914I4271J1619*
G01*
X6297Y88914D01*
X6297Y86263D01*
X3646Y86263D01*
D02*
G37*
G36*
X6167Y84644D02*
G75*
D01*
G02X6167Y84644I1750J0*
G01*
D02*
G37*
G36*
X82714Y77300D02*
G75*
D01*
G02X82714Y77300I1886J0*
G01*
D02*
G37*
G36*
X85482Y69627D02*
G75*
D01*
G02X83818Y71373I-1882J-127*
G01*
G75*
D01*
G02X85482Y69627I1882J127*
G01*
D02*
G37*
G36*
X76531Y67737D02*
G74*
D01*
G02X75437Y68831I669J1763*
G01*
X75437Y68831D01*
X76531Y68831D01*
X76531Y67737D01*
D02*
G37*
G36*
X76806Y69500D02*
G75*
D01*
G02X76806Y69500I394J0*
G01*
D02*
G37*
G36*
X71411Y69697D02*
G75*
D01*
G02X71411Y69697I1886J0*
G01*
D02*
G37*
G36*
X75437Y70169D02*
G74*
D01*
G02X76531Y71263I1763J669*
G01*
X76531Y71263D01*
X76531Y70169D01*
X75437Y70169D01*
D02*
G37*
G36*
X77869Y71263D02*
G74*
D01*
G02X78963Y70169I669J1763*
G01*
X78963Y70169D01*
X77869Y70169D01*
X77869Y71263D01*
D02*
G37*
G36*
X78963Y68831D02*
G74*
D01*
G02X77869Y67737I1763J669*
G01*
X77869Y67737D01*
X77869Y68831D01*
X78963Y68831D01*
D02*
G37*
G36*
X23350Y74644D02*
G75*
D01*
G02X23350Y74644I4567J0*
G01*
D02*
G37*
G36*
X13350Y74644D02*
G75*
D01*
G02X13350Y74644I4567J0*
G01*
D02*
G37*
G36*
X12187Y73024D02*
G74*
D01*
G02X9536Y70374I4270J1620*
G01*
X9536Y70374D01*
X9536Y73024D01*
X12187Y73024D01*
D02*
G37*
G36*
X9536Y78914D02*
G74*
D01*
G02X12187Y76263I1619J4270*
G01*
X12187Y76263D01*
X9536Y76263D01*
X9536Y78914D01*
D02*
G37*
G36*
X3646Y76263D02*
G74*
D01*
G02X6297Y78914I4271J1619*
G01*
X6297Y78914D01*
X6297Y76263D01*
X3646Y76263D01*
D02*
G37*
G36*
X6167Y74644D02*
G75*
D01*
G02X6167Y74644I1750J0*
G01*
D02*
G37*
G36*
X6297Y70374D02*
G74*
D01*
G02X3646Y73024I1620J4270*
G01*
X3646Y73024D01*
X6297Y73024D01*
X6297Y70374D01*
D02*
G37*
G36*
X23350Y64644D02*
G75*
D01*
G02X23350Y64644I4567J0*
G01*
D02*
G37*
G36*
X13350Y64644D02*
G75*
D01*
G02X13350Y64644I4567J0*
G01*
D02*
G37*
G36*
X9536Y68914D02*
G74*
D01*
G02X12187Y66263I1619J4270*
G01*
X12187Y66263D01*
X9536Y66263D01*
X9536Y68914D01*
D02*
G37*
G36*
X3646Y66263D02*
G74*
D01*
G02X6297Y68914I4271J1619*
G01*
X6297Y68914D01*
X6297Y66263D01*
X3646Y66263D01*
D02*
G37*
G36*
X12187Y63024D02*
G74*
D01*
G02X9536Y60374I4270J1620*
G01*
X9536Y60374D01*
X9536Y63024D01*
X12187Y63024D01*
D02*
G37*
G36*
X6297Y60374D02*
G74*
D01*
G02X3646Y63024I1620J4270*
G01*
X3646Y63024D01*
X6297Y63024D01*
X6297Y60374D01*
D02*
G37*
G36*
X6167Y64644D02*
G75*
D01*
G02X6167Y64644I1750J0*
G01*
D02*
G37*
G36*
X61614Y43800D02*
G75*
D01*
G02X61614Y43800I1886J0*
G01*
D02*
G37*
G36*
X23350Y40700D02*
G75*
D01*
G02X23350Y40700I4567J0*
G01*
D02*
G37*
G36*
X13350Y40700D02*
G75*
D01*
G02X13350Y40700I4567J0*
G01*
D02*
G37*
G36*
X12292Y42266D02*
X12292Y42266D01*
X9483Y42266D01*
X9483Y45075D01*
G74*
D01*
G02X12292Y42266I525J3333*
G01*
D02*
G37*
G36*
X6351Y45075D02*
X6351Y45075D01*
X6351Y42266D01*
X3541Y42266D01*
G74*
D01*
G02X6351Y45075I3334J524*
G01*
D02*
G37*
G36*
X9483Y36325D02*
X9483Y36325D01*
X9483Y39134D01*
X12292Y39134D01*
G74*
D01*
G02X9483Y36325I3334J525*
G01*
D02*
G37*
G36*
X3541Y39134D02*
X3541Y39134D01*
X6351Y39134D01*
X6351Y36325D01*
G74*
D01*
G02X3541Y39134I524J3334*
G01*
D02*
G37*
G36*
X5958Y40700D02*
G75*
D01*
G02X5958Y40700I1959J0*
G01*
D02*
G37*
G36*
X23350Y30700D02*
G75*
D01*
G02X23350Y30700I4567J0*
G01*
D02*
G37*
G36*
X13350Y30700D02*
G75*
D01*
G02X13350Y30700I4567J0*
G01*
D02*
G37*
G36*
X9536Y34970D02*
G74*
D01*
G02X12187Y32319I1619J4270*
G01*
X12187Y32319D01*
X9536Y32319D01*
X9536Y34970D01*
D02*
G37*
G36*
X3646Y32319D02*
G74*
D01*
G02X6297Y34970I4271J1619*
G01*
X6297Y34970D01*
X6297Y32319D01*
X3646Y32319D01*
D02*
G37*
G36*
X12187Y29081D02*
G74*
D01*
G02X9536Y26430I4270J1619*
G01*
X9536Y26430D01*
X9536Y29081D01*
X12187Y29081D01*
D02*
G37*
G36*
X6297Y26430D02*
G74*
D01*
G02X3646Y29081I1620J4270*
G01*
X3646Y29081D01*
X6297Y29081D01*
X6297Y26430D01*
D02*
G37*
G36*
X6167Y30700D02*
G75*
D01*
G02X6167Y30700I1750J0*
G01*
D02*
G37*
G36*
X23350Y20700D02*
G75*
D01*
G02X23350Y20700I4567J0*
G01*
D02*
G37*
G36*
X13350Y20700D02*
G75*
D01*
G02X13350Y20700I4567J0*
G01*
D02*
G37*
G36*
X12187Y19081D02*
G74*
D01*
G02X9536Y16430I4270J1619*
G01*
X9536Y16430D01*
X9536Y19081D01*
X12187Y19081D01*
D02*
G37*
G36*
X9536Y24970D02*
G74*
D01*
G02X12187Y22319I1619J4270*
G01*
X12187Y22319D01*
X9536Y22319D01*
X9536Y24970D01*
D02*
G37*
G36*
X6297Y16430D02*
G74*
D01*
G02X3646Y19081I1620J4270*
G01*
X3646Y19081D01*
X6297Y19081D01*
X6297Y16430D01*
D02*
G37*
G36*
X3646Y22319D02*
G74*
D01*
G02X6297Y24970I4271J1619*
G01*
X6297Y24970D01*
X6297Y22319D01*
X3646Y22319D01*
D02*
G37*
G36*
X6167Y20700D02*
G75*
D01*
G02X6167Y20700I1750J0*
G01*
D02*
G37*
G36*
X92849Y14744D02*
G74*
D01*
G02X90773Y16820I1269J3345*
G01*
X90773Y16820D01*
X92849Y16820D01*
X92849Y14744D01*
D02*
G37*
G36*
X76351Y27260D02*
G75*
D01*
G02X73813Y27260I-1269J3346*
G01*
X73813Y27260D01*
X73813Y25969D01*
X71736Y25969D01*
G74*
D01*
G02X73061Y27653I3346J1269*
G01*
G75*
D01*
G02X77103Y27653I2021J2953*
G01*
G74*
D01*
G02X78427Y25969I2021J2953*
G01*
X78427Y25969D01*
X76351Y25969D01*
X76351Y27260D01*
D02*
G37*
G36*
X73813Y22140D02*
G75*
D01*
G02X76351Y22140I1269J-3346*
G01*
X76351Y22140D01*
X76351Y23431D01*
X78427Y23431D01*
G74*
D01*
G02X77103Y21747I3345J1269*
G01*
G75*
D01*
G02X73061Y21747I-2021J-2953*
G01*
G74*
D01*
G02X71736Y23431I2021J2953*
G01*
X71736Y23431D01*
X73813Y23431D01*
X73813Y22140D01*
D02*
G37*
G36*
X73704Y24700D02*
G75*
D01*
G02X73704Y24700I1378J0*
G01*
D02*
G37*
G36*
X55013Y27160D02*
X55013Y27160D01*
X55013Y25869D01*
X52936Y25869D01*
G74*
D01*
G02X54261Y27553I3346J1269*
G01*
G75*
D01*
G02X58303Y27553I2021J2953*
G01*
G74*
D01*
G02X59627Y25869I2021J2953*
G01*
X59627Y25869D01*
X57551Y25869D01*
X57551Y27160D01*
G75*
D01*
G02X55013Y27160I-1269J3346*
G01*
D02*
G37*
G36*
X55013Y22040D02*
G75*
D01*
G02X57551Y22040I1269J-3346*
G01*
X57551Y22040D01*
X57551Y23331D01*
X59627Y23331D01*
G74*
D01*
G02X58303Y21647I3345J1269*
G01*
G75*
D01*
G02X54261Y21647I-2021J-2953*
G01*
G74*
D01*
G02X52936Y23331I2021J2953*
G01*
X52936Y23331D01*
X55013Y23331D01*
X55013Y22040D01*
D02*
G37*
G36*
X54904Y24600D02*
G75*
D01*
G02X54904Y24600I1378J0*
G01*
D02*
G37*
G36*
X23350Y10700D02*
G75*
D01*
G02X23350Y10700I4567J0*
G01*
D02*
G37*
G36*
X13350Y10700D02*
G75*
D01*
G02X13350Y10700I4567J0*
G01*
D02*
G37*
G36*
X9536Y14970D02*
G74*
D01*
G02X12187Y12319I1619J4270*
G01*
X12187Y12319D01*
X9536Y12319D01*
X9536Y14970D01*
D02*
G37*
G36*
X12187Y9081D02*
G74*
D01*
G02X9536Y6430I4270J1619*
G01*
X9536Y6430D01*
X9536Y9081D01*
X12187Y9081D01*
D02*
G37*
G36*
X3646Y12319D02*
G74*
D01*
G02X6297Y14970I4271J1619*
G01*
X6297Y14970D01*
X6297Y12319D01*
X3646Y12319D01*
D02*
G37*
G36*
X6167Y10700D02*
G75*
D01*
G02X6167Y10700I1750J0*
G01*
D02*
G37*
G36*
X6297Y6430D02*
G74*
D01*
G02X3646Y9081I1620J4270*
G01*
X3646Y9081D01*
X6297Y9081D01*
X6297Y6430D01*
D02*
G37*
G36*
X59006Y87500D02*
G75*
D01*
G02X59006Y87500I394J0*
G01*
D02*
G37*
G36*
X148469Y88663D02*
G74*
D01*
G02X149563Y87569I669J1763*
G01*
X149563Y87569D01*
X148469Y87569D01*
X148469Y88663D01*
D02*
G37*
G36*
X146037Y87569D02*
G74*
D01*
G02X147131Y88663I1763J669*
G01*
X147131Y88663D01*
X147131Y87569D01*
X146037Y87569D01*
D02*
G37*
G36*
X126006Y88000D02*
G75*
D01*
G02X126006Y88000I394J0*
G01*
D02*
G37*
G36*
X127069Y89763D02*
G74*
D01*
G02X128163Y88669I669J1763*
G01*
X128163Y88669D01*
X127069Y88669D01*
X127069Y89763D01*
D02*
G37*
G36*
X124637Y88669D02*
G74*
D01*
G02X125731Y89763I1763J669*
G01*
X125731Y89763D01*
X125731Y88669D01*
X124637Y88669D01*
D02*
G37*
G36*
X112169Y87763D02*
G74*
D01*
G02X113263Y86669I669J1763*
G01*
X113263Y86669D01*
X112169Y86669D01*
X112169Y87763D01*
D02*
G37*
G36*
X109737Y86669D02*
G74*
D01*
G02X110831Y87763I1763J669*
G01*
X110831Y87763D01*
X110831Y86669D01*
X109737Y86669D01*
D02*
G37*
G36*
X181606Y83000D02*
G75*
D01*
G02X181606Y83000I394J0*
G01*
D02*
G37*
G36*
X183763Y82331D02*
G74*
D01*
G02X182669Y81237I1763J669*
G01*
X182669Y81237D01*
X182669Y82331D01*
X183763Y82331D01*
D02*
G37*
G36*
X182669Y84763D02*
G74*
D01*
G02X183763Y83669I669J1763*
G01*
X183763Y83669D01*
X182669Y83669D01*
X182669Y84763D01*
D02*
G37*
G36*
X181331Y81237D02*
G74*
D01*
G02X180237Y82331I669J1763*
G01*
X180237Y82331D01*
X181331Y82331D01*
X181331Y81237D01*
D02*
G37*
G36*
X180237Y83669D02*
G74*
D01*
G02X181331Y84763I1763J669*
G01*
X181331Y84763D01*
X181331Y83669D01*
X180237Y83669D01*
D02*
G37*
G36*
X171314Y85000D02*
G75*
D01*
G02X171314Y85000I1886J0*
G01*
D02*
G37*
G36*
X152214Y81400D02*
G75*
D01*
G02X152214Y81400I1886J0*
G01*
D02*
G37*
G36*
X147131Y85137D02*
G74*
D01*
G02X146037Y86231I669J1763*
G01*
X146037Y86231D01*
X147131Y86231D01*
X147131Y85137D01*
D02*
G37*
G36*
X149563Y86231D02*
G74*
D01*
G02X148469Y85137I1763J669*
G01*
X148469Y85137D01*
X148469Y86231D01*
X149563Y86231D01*
D02*
G37*
G36*
X147406Y86900D02*
G75*
D01*
G02X147406Y86900I394J0*
G01*
D02*
G37*
G36*
X129714Y83000D02*
G75*
D01*
G02X129714Y83000I1886J0*
G01*
D02*
G37*
G36*
X128163Y87331D02*
G74*
D01*
G02X127069Y86237I1763J669*
G01*
X127069Y86237D01*
X127069Y87331D01*
X128163Y87331D01*
D02*
G37*
G36*
X121114Y81600D02*
G75*
D01*
G02X121114Y81600I1886J0*
G01*
D02*
G37*
G36*
X125731Y86237D02*
G74*
D01*
G02X124637Y87331I669J1763*
G01*
X124637Y87331D01*
X125731Y87331D01*
X125731Y86237D01*
D02*
G37*
G36*
X111106Y86000D02*
G75*
D01*
G02X111106Y86000I394J0*
G01*
D02*
G37*
G36*
X113263Y85331D02*
G74*
D01*
G02X112169Y84237I1763J669*
G01*
X112169Y84237D01*
X112169Y85331D01*
X113263Y85331D01*
D02*
G37*
G36*
X110831Y84237D02*
G74*
D01*
G02X109737Y85331I669J1763*
G01*
X109737Y85331D01*
X110831Y85331D01*
X110831Y84237D01*
D02*
G37*
G36*
X152414Y77200D02*
G75*
D01*
G02X152414Y77200I1886J0*
G01*
D02*
G37*
G36*
X133486Y71616D02*
G75*
D01*
G02X135214Y72984I-86J1884*
G01*
G75*
D01*
G02X133486Y71616I86J-1884*
G01*
D02*
G37*
G36*
X133814Y77000D02*
G75*
D01*
G02X133814Y77000I1886J0*
G01*
D02*
G37*
G36*
X114606Y75900D02*
G75*
D01*
G02X114606Y75900I394J0*
G01*
D02*
G37*
G36*
X114331Y74137D02*
G74*
D01*
G02X113237Y75231I669J1763*
G01*
X113237Y75231D01*
X114331Y75231D01*
X114331Y74137D01*
D02*
G37*
G36*
X116763Y75231D02*
G74*
D01*
G02X115669Y74137I1763J669*
G01*
X115669Y74137D01*
X115669Y75231D01*
X116763Y75231D01*
D02*
G37*
G36*
X115669Y77663D02*
G74*
D01*
G02X116763Y76569I669J1763*
G01*
X116763Y76569D01*
X115669Y76569D01*
X115669Y77663D01*
D02*
G37*
G36*
X113237Y76569D02*
G74*
D01*
G02X114331Y77663I1763J669*
G01*
X114331Y77663D01*
X114331Y76569D01*
X113237Y76569D01*
D02*
G37*
G36*
X117414Y73300D02*
G75*
D01*
G02X117414Y73300I1886J0*
G01*
D02*
G37*
G36*
X103306Y77700D02*
G75*
D01*
G02X103306Y77700I394J0*
G01*
D02*
G37*
G36*
X105463Y77031D02*
G74*
D01*
G02X104369Y75937I1763J669*
G01*
X104369Y75937D01*
X104369Y77031D01*
X105463Y77031D01*
D02*
G37*
G36*
X104369Y79463D02*
G74*
D01*
G02X105463Y78369I669J1763*
G01*
X105463Y78369D01*
X104369Y78369D01*
X104369Y79463D01*
D02*
G37*
G36*
X103031Y75937D02*
G74*
D01*
G02X101937Y77031I669J1763*
G01*
X101937Y77031D01*
X103031Y77031D01*
X103031Y75937D01*
D02*
G37*
G36*
X101937Y78369D02*
G74*
D01*
G02X103031Y79463I1763J669*
G01*
X103031Y79463D01*
X103031Y78369D01*
X101937Y78369D01*
D02*
G37*
G36*
X166863Y68531D02*
G74*
D01*
G02X165769Y67437I1763J669*
G01*
X165769Y67437D01*
X165769Y68531D01*
X166863Y68531D01*
D02*
G37*
G36*
X165769Y70963D02*
G74*
D01*
G02X166863Y69869I669J1763*
G01*
X166863Y69869D01*
X165769Y69869D01*
X165769Y70963D01*
D02*
G37*
G36*
X164431Y67437D02*
G74*
D01*
G02X163337Y68531I669J1763*
G01*
X163337Y68531D01*
X164431Y68531D01*
X164431Y67437D01*
D02*
G37*
G36*
X164706Y69200D02*
G75*
D01*
G02X164706Y69200I394J0*
G01*
D02*
G37*
G36*
X163337Y69869D02*
G74*
D01*
G02X164431Y70963I1763J669*
G01*
X164431Y70963D01*
X164431Y69869D01*
X163337Y69869D01*
D02*
G37*
G36*
X144714Y65700D02*
G75*
D01*
G02X144714Y65700I1886J0*
G01*
D02*
G37*
G36*
X107014Y68900D02*
G75*
D01*
G02X107014Y68900I1886J0*
G01*
D02*
G37*
G36*
X102914Y71800D02*
G75*
D01*
G02X102914Y71800I1886J0*
G01*
D02*
G37*
G36*
X181014Y50100D02*
G75*
D01*
G02X181014Y50100I1886J0*
G01*
D02*
G37*
G36*
X178414Y54500D02*
G75*
D01*
G02X178414Y54500I1886J0*
G01*
D02*
G37*
G36*
X169606Y48300D02*
G75*
D01*
G02X169606Y48300I394J0*
G01*
D02*
G37*
G36*
X170669Y50063D02*
G74*
D01*
G02X171763Y48969I669J1763*
G01*
X171763Y48969D01*
X170669Y48969D01*
X170669Y50063D01*
D02*
G37*
G36*
X168237Y48969D02*
G74*
D01*
G02X169331Y50063I1763J669*
G01*
X169331Y50063D01*
X169331Y48969D01*
X168237Y48969D01*
D02*
G37*
G36*
X155814Y49800D02*
G75*
D01*
G02X155814Y49800I1886J0*
G01*
D02*
G37*
G36*
X133014Y51700D02*
G75*
D01*
G02X133014Y51700I1886J0*
G01*
D02*
G37*
G36*
X121114Y50000D02*
G75*
D01*
G02X121114Y50000I1886J0*
G01*
D02*
G37*
G36*
X116306Y49400D02*
G75*
D01*
G02X116306Y49400I394J0*
G01*
D02*
G37*
G36*
X116031Y47637D02*
G74*
D01*
G02X114937Y48731I669J1763*
G01*
X114937Y48731D01*
X116031Y48731D01*
X116031Y47637D01*
D02*
G37*
G36*
X114937Y50069D02*
G74*
D01*
G02X116031Y51163I1763J669*
G01*
X116031Y51163D01*
X116031Y50069D01*
X114937Y50069D01*
D02*
G37*
G36*
X118463Y48731D02*
G74*
D01*
G02X117369Y47637I1763J669*
G01*
X117369Y47637D01*
X117369Y48731D01*
X118463Y48731D01*
D02*
G37*
G36*
X117369Y51163D02*
G74*
D01*
G02X118463Y50069I669J1763*
G01*
X118463Y50069D01*
X117369Y50069D01*
X117369Y51163D01*
D02*
G37*
G36*
X180714Y42300D02*
G75*
D01*
G02X180714Y42300I1886J0*
G01*
D02*
G37*
G36*
X169331Y46537D02*
G74*
D01*
G02X168237Y47631I669J1763*
G01*
X168237Y47631D01*
X169331Y47631D01*
X169331Y46537D01*
D02*
G37*
G36*
X171763Y47631D02*
G74*
D01*
G02X170669Y46537I1763J669*
G01*
X170669Y46537D01*
X170669Y47631D01*
X171763Y47631D01*
D02*
G37*
G36*
X164914Y42200D02*
G75*
D01*
G02X164914Y42200I1886J0*
G01*
D02*
G37*
G36*
X162814Y48500D02*
G75*
D01*
G02X162814Y48500I1886J0*
G01*
D02*
G37*
G36*
X127563Y44831D02*
G74*
D01*
G02X126469Y43737I1763J669*
G01*
X126469Y43737D01*
X126469Y44831D01*
X127563Y44831D01*
D02*
G37*
G36*
X126469Y47263D02*
G74*
D01*
G02X127563Y46169I669J1763*
G01*
X127563Y46169D01*
X126469Y46169D01*
X126469Y47263D01*
D02*
G37*
G36*
X125131Y43737D02*
G74*
D01*
G02X124037Y44831I669J1763*
G01*
X124037Y44831D01*
X125131Y44831D01*
X125131Y43737D01*
D02*
G37*
G36*
X125406Y45500D02*
G75*
D01*
G02X125406Y45500I394J0*
G01*
D02*
G37*
G36*
X124037Y46169D02*
G74*
D01*
G02X125131Y47263I1763J669*
G01*
X125131Y47263D01*
X125131Y46169D01*
X124037Y46169D01*
D02*
G37*
G36*
X108406Y33000D02*
G75*
D01*
G02X108406Y33000I394J0*
G01*
D02*
G37*
G36*
X107037Y33669D02*
G74*
D01*
G02X108131Y34763I1763J669*
G01*
X108131Y34763D01*
X108131Y33669D01*
X107037Y33669D01*
D02*
G37*
G36*
X109469Y34763D02*
G74*
D01*
G02X110563Y33669I669J1763*
G01*
X110563Y33669D01*
X109469Y33669D01*
X109469Y34763D01*
D02*
G37*
G36*
X97464Y16820D02*
G74*
D01*
G02X95387Y14744I3346J1269*
G01*
X95387Y14744D01*
X95387Y16820D01*
X97464Y16820D01*
D02*
G37*
G36*
X156714Y28700D02*
G75*
D01*
G02X156714Y28700I1886J0*
G01*
D02*
G37*
G36*
X121706Y26000D02*
G75*
D01*
G02X121706Y26000I394J0*
G01*
D02*
G37*
G36*
X121431Y24237D02*
G74*
D01*
G02X120337Y25331I669J1763*
G01*
X120337Y25331D01*
X121431Y25331D01*
X121431Y24237D01*
D02*
G37*
G36*
X123863Y25331D02*
G74*
D01*
G02X122769Y24237I1763J669*
G01*
X122769Y24237D01*
X122769Y25331D01*
X123863Y25331D01*
D02*
G37*
G36*
X122769Y27763D02*
G74*
D01*
G02X123863Y26669I669J1763*
G01*
X123863Y26669D01*
X122769Y26669D01*
X122769Y27763D01*
D02*
G37*
G36*
X120337Y26669D02*
G74*
D01*
G02X121431Y27763I1763J669*
G01*
X121431Y27763D01*
X121431Y26669D01*
X120337Y26669D01*
D02*
G37*
G36*
X108131Y31237D02*
G74*
D01*
G02X107037Y32331I669J1763*
G01*
X107037Y32331D01*
X108131Y32331D01*
X108131Y31237D01*
D02*
G37*
G36*
X110563Y32331D02*
G74*
D01*
G02X109469Y31237I1763J669*
G01*
X109469Y31237D01*
X109469Y32331D01*
X110563Y32331D01*
D02*
G37*
G36*
X177314Y20800D02*
G75*
D01*
G02X177314Y20800I1886J0*
G01*
D02*
G37*
G36*
X159306Y20900D02*
G75*
D01*
G02X159306Y20900I394J0*
G01*
D02*
G37*
G36*
X159031Y19137D02*
G74*
D01*
G02X157937Y20231I669J1763*
G01*
X157937Y20231D01*
X159031Y20231D01*
X159031Y19137D01*
D02*
G37*
G36*
X161463Y20231D02*
G74*
D01*
G02X160369Y19137I1763J669*
G01*
X160369Y19137D01*
X160369Y20231D01*
X161463Y20231D01*
D02*
G37*
G36*
X160369Y22663D02*
G74*
D01*
G02X161463Y21569I669J1763*
G01*
X161463Y21569D01*
X160369Y21569D01*
X160369Y22663D01*
D02*
G37*
G36*
X157937Y21569D02*
G74*
D01*
G02X159031Y22663I1763J669*
G01*
X159031Y22663D01*
X159031Y21569D01*
X157937Y21569D01*
D02*
G37*
G36*
X126806Y10000D02*
G75*
D01*
G02X126806Y10000I394J0*
G01*
D02*
G37*
G36*
X128963Y9331D02*
G74*
D01*
G02X127869Y8237I1763J669*
G01*
X127869Y8237D01*
X127869Y9331D01*
X128963Y9331D01*
D02*
G37*
G36*
X127869Y11763D02*
G74*
D01*
G02X128963Y10669I669J1763*
G01*
X128963Y10669D01*
X127869Y10669D01*
X127869Y11763D01*
D02*
G37*
G36*
X126531Y8237D02*
G74*
D01*
G02X125437Y9331I669J1763*
G01*
X125437Y9331D01*
X126531Y9331D01*
X126531Y8237D01*
D02*
G37*
G36*
X125437Y10669D02*
G74*
D01*
G02X126531Y11763I1763J669*
G01*
X126531Y11763D01*
X126531Y10669D01*
X125437Y10669D01*
D02*
G37*
%LPD*%
G36*
X87847Y155703D02*
G74*
D01*
G02X88245Y156187I2953J2021*
G01*
X88245Y156187D01*
X87449Y156187D01*
G74*
D01*
G02X87847Y155703I2555J2505*
G01*
D02*
G37*
G36*
X93753Y155703D02*
G74*
D01*
G02X94151Y156187I2953J2021*
G01*
X94151Y156187D01*
X93355Y156187D01*
G74*
D01*
G02X93753Y155703I2555J2505*
G01*
D02*
G37*
G36*
X76036Y155703D02*
G74*
D01*
G02X76434Y156187I2953J2021*
G01*
X76434Y156187D01*
X75638Y156187D01*
G74*
D01*
G02X76036Y155703I2555J2505*
G01*
D02*
G37*
G36*
X82340Y156187D02*
X82340Y156187D01*
X81544Y156187D01*
G74*
D01*
G02X81942Y155703I2555J2505*
G01*
G74*
D01*
G02X82340Y156187I2952J2021*
G01*
D02*
G37*
G54D11*
X23586Y93195D02*
G75*
D01*
G02X23586Y93195I4331J1449*
G01*
X13586Y93195D02*
G75*
D01*
G02X13586Y93195I4331J1449*
G01*
X6599Y93195D02*
G75*
D01*
G02X6599Y93195I1318J1449*
G01*
X69424Y93195D02*
G75*
D01*
G02X69424Y93195I1876J-195*
G01*
X95564Y134097D02*
G75*
D01*
G02X89658Y134097I-2953J2021*
G01*
G75*
D01*
G02X83753Y134097I-2952J2021*
G01*
G75*
D01*
G02X77847Y134097I-2953J2021*
G01*
G75*
D01*
G02X77847Y138139I-2953J2021*
G01*
G75*
D01*
G02X83753Y138139I2953J-2021*
G01*
G75*
D01*
G02X89658Y138139I2953J-2021*
G01*
G75*
D01*
G02X95564Y138139I2953J-2021*
G01*
G75*
D01*
G02X101469Y138139I2953J-2021*
G01*
G74*
D01*
G02X103153Y139464I2953J2021*
G01*
X103153Y137387D01*
X101862Y137387D01*
G75*
D01*
G02X101862Y134849I-3345J-1269*
G01*
X103153Y134849D01*
X103153Y132773D01*
G74*
D01*
G02X101469Y134097I1269J3345*
G01*
G75*
D01*
G02X95564Y134097I-2952J2021*
G01*
X93195Y120598D02*
G75*
D01*
G02X93195Y120598I-995J1602*
G01*
X93195Y97317D02*
G75*
D01*
G02X93195Y97317I-95J1883*
G01*
X178756Y93195D02*
G75*
D01*
G02X178756Y93195I1844J-395*
G01*
X93195Y68541D02*
G75*
D01*
G02X93195Y68541I-1195J1459*
G01*
X95387Y20649D02*
G75*
D01*
G02X92849Y20649I-1269J3345*
G01*
X92849Y19358D01*
X90773Y19358D01*
G74*
D01*
G02X92097Y21042I3345J1269*
G01*
G75*
D01*
G02X92097Y26947I2021J2952*
G01*
G75*
D01*
G02X92097Y32853I2021J2953*
G01*
G75*
D01*
G02X96139Y32853I2021J2953*
G01*
G75*
D01*
G02X96139Y26947I-2021J-2953*
G01*
G75*
D01*
G02X96139Y21042I-2021J-2953*
G01*
G74*
D01*
G02X97464Y19358I2021J2953*
G01*
X95387Y19358D01*
X95387Y20649D01*
X93195Y17066D02*
G75*
D01*
G02X93195Y17066I923J1023*
G01*
X90949Y83333D02*
G75*
D01*
G02X91936Y81915I1869J249*
G01*
G75*
D01*
G02X89786Y79802I-1869J-248*
G01*
G75*
D01*
G02X88181Y81665I-1886J-2*
G01*
G75*
D01*
G02X90949Y83333I1886J2*
G01*
X254706Y152500D02*
G75*
D01*
G02X254706Y152500I394J0*
G01*
X253337Y153169D02*
G74*
D01*
G02X254431Y154263I1763J669*
G01*
X254431Y153169D01*
X253337Y153169D01*
X255769Y154263D02*
G74*
D01*
G02X256863Y153169I669J1763*
G01*
X255769Y153169D01*
X255769Y154263D01*
X256863Y151831D02*
G74*
D01*
G02X255769Y150737I1763J669*
G01*
X255769Y151831D01*
X256863Y151831D01*
X245469Y154063D02*
G74*
D01*
G02X246563Y152969I669J1763*
G01*
X245469Y152969D01*
X245469Y154063D01*
X246563Y151631D02*
G74*
D01*
G02X245469Y150537I1763J669*
G01*
X245469Y151631D01*
X246563Y151631D01*
X244406Y152300D02*
G75*
D01*
G02X244406Y152300I394J0*
G01*
X243037Y152969D02*
G74*
D01*
G02X244131Y154063I1763J669*
G01*
X244131Y152969D01*
X243037Y152969D01*
X244131Y150537D02*
G74*
D01*
G02X243037Y151631I669J1763*
G01*
X244131Y151631D01*
X244131Y150537D01*
X228537Y152569D02*
G74*
D01*
G02X229631Y153663I1763J669*
G01*
X229631Y152569D01*
X228537Y152569D01*
X230969Y153663D02*
G74*
D01*
G02X232063Y152569I669J1763*
G01*
X230969Y152569D01*
X230969Y153663D01*
X232063Y151231D02*
G74*
D01*
G02X230969Y150137I1763J669*
G01*
X230969Y151231D01*
X232063Y151231D01*
X229631Y150137D02*
G74*
D01*
G02X228537Y151231I669J1763*
G01*
X229631Y151231D01*
X229631Y150137D01*
X229906Y151900D02*
G75*
D01*
G02X229906Y151900I394J0*
G01*
X205537Y150569D02*
G74*
D01*
G02X206631Y151663I1763J669*
G01*
X206631Y150569D01*
X205537Y150569D01*
X207969Y151663D02*
G74*
D01*
G02X209063Y150569I669J1763*
G01*
X207969Y150569D01*
X207969Y151663D01*
X215537Y142069D02*
G74*
D01*
G02X216631Y143163I1763J669*
G01*
X216631Y142069D01*
X215537Y142069D01*
X217969Y143163D02*
G74*
D01*
G02X219063Y142069I669J1763*
G01*
X217969Y142069D01*
X217969Y143163D01*
X218035Y149335D02*
G75*
D01*
G02X215765Y147065I-435J-1835*
G01*
G75*
D01*
G02X218035Y149335I435J1835*
G01*
X209063Y149231D02*
G74*
D01*
G02X207969Y148137I1763J669*
G01*
X207969Y149231D01*
X209063Y149231D01*
X206631Y148137D02*
G74*
D01*
G02X205537Y149231I669J1763*
G01*
X206631Y149231D01*
X206631Y148137D01*
X206906Y149900D02*
G75*
D01*
G02X206906Y149900I394J0*
G01*
X237669Y139463D02*
G74*
D01*
G02X238763Y138369I669J1763*
G01*
X237669Y138369D01*
X237669Y139463D01*
X238763Y137031D02*
G74*
D01*
G02X237669Y135937I1763J669*
G01*
X237669Y137031D01*
X238763Y137031D01*
X236606Y137700D02*
G75*
D01*
G02X236606Y137700I394J0*
G01*
X241314Y136700D02*
G75*
D01*
G02X241314Y136700I1886J0*
G01*
X233437Y138369D02*
G74*
D01*
G02X234531Y139463I1763J669*
G01*
X234531Y138369D01*
X233437Y138369D01*
X234531Y135937D02*
G74*
D01*
G02X233437Y137031I669J1763*
G01*
X234531Y137031D01*
X234531Y135937D01*
X234806Y137700D02*
G75*
D01*
G02X234806Y137700I394J0*
G01*
X235869Y139209D02*
X235869Y139463D01*
G74*
D01*
G02X236100Y139357I669J1763*
G01*
G74*
D01*
G02X236331Y139463I900J1657*
G01*
X236331Y139209D01*
G74*
D01*
G02X236963Y138369I1131J1509*
G01*
X235237Y138369D01*
G74*
D01*
G02X235869Y139209I1763J669*
G01*
X236963Y137031D02*
G74*
D01*
G02X236331Y136191I1763J669*
G01*
X236331Y135937D01*
G74*
D01*
G02X236100Y136043I669J1763*
G01*
G74*
D01*
G02X235869Y135937I900J1657*
G01*
X235869Y136191D01*
G74*
D01*
G02X235237Y137031I1131J1509*
G01*
X236963Y137031D01*
X226514Y137500D02*
G75*
D01*
G02X226514Y137500I1886J0*
G01*
X219063Y140731D02*
G74*
D01*
G02X217969Y139637I1763J669*
G01*
X217969Y140731D01*
X219063Y140731D01*
X216631Y139637D02*
G74*
D01*
G02X215537Y140731I669J1763*
G01*
X216631Y140731D01*
X216631Y139637D01*
X216906Y141400D02*
G75*
D01*
G02X216906Y141400I394J0*
G01*
X261949Y133149D02*
X261949Y131858D01*
X259873Y131858D01*
G74*
D01*
G02X261197Y133542I3345J1269*
G01*
G75*
D01*
G02X261197Y139447I2021J2952*
G01*
G75*
D01*
G02X261197Y145353I2021J2953*
G01*
G75*
D01*
G02X265239Y145353I2021J2953*
G01*
G75*
D01*
G02X265239Y139447I-2021J-2953*
G01*
G75*
D01*
G02X265239Y133542I-2021J-2953*
G01*
G74*
D01*
G02X266564Y131858I2021J2953*
G01*
X264487Y131858D01*
X264487Y133149D01*
G75*
D01*
G02X261949Y133149I-1269J3345*
G01*
X261840Y130589D02*
G75*
D01*
G02X261840Y130589I1378J0*
G01*
X266564Y129320D02*
G74*
D01*
G02X264487Y127244I3346J1269*
G01*
X264487Y129320D01*
X266564Y129320D01*
X261949Y127244D02*
G74*
D01*
G02X259873Y129320I1269J3345*
G01*
X261949Y129320D01*
X261949Y127244D01*
X207537Y132569D02*
G74*
D01*
G02X208631Y133663I1763J669*
G01*
X208631Y132569D01*
X207537Y132569D01*
X209969Y133663D02*
G74*
D01*
G02X211063Y132569I669J1763*
G01*
X209969Y132569D01*
X209969Y133663D01*
X208906Y131900D02*
G75*
D01*
G02X208906Y131900I394J0*
G01*
X208631Y130137D02*
G74*
D01*
G02X207964Y130569I669J1763*
G01*
X207437Y130569D01*
G74*
D01*
G02X207654Y130980I1763J669*
G01*
G74*
D01*
G02X207537Y131231I1646J920*
G01*
X207864Y131231D01*
G74*
D01*
G02X208531Y131663I1336J1331*
G01*
X208531Y131231D01*
X208631Y131231D01*
X208631Y130137D01*
X210536Y131231D02*
X211063Y131231D01*
G74*
D01*
G02X210846Y130820I1763J669*
G01*
G74*
D01*
G02X210963Y130569I1646J920*
G01*
X210636Y130569D01*
G74*
D01*
G02X209969Y130137I1336J1331*
G01*
X209969Y130569D01*
X209869Y130569D01*
X209869Y131663D01*
G74*
D01*
G02X210536Y131231I669J1763*
G01*
X210963Y129231D02*
G74*
D01*
G02X209869Y128137I1763J669*
G01*
X209869Y129231D01*
X210963Y129231D01*
X208531Y128137D02*
G74*
D01*
G02X207437Y129231I669J1763*
G01*
X208531Y129231D01*
X208531Y128137D01*
X208806Y129900D02*
G75*
D01*
G02X208806Y129900I394J0*
G01*
X246937Y118969D02*
G74*
D01*
G02X248031Y120063I1763J669*
G01*
X248031Y118969D01*
X246937Y118969D01*
X249369Y120063D02*
G74*
D01*
G02X250463Y118969I669J1763*
G01*
X249369Y118969D01*
X249369Y120063D01*
X238237Y119869D02*
G74*
D01*
G02X239331Y120963I1763J669*
G01*
X239331Y119869D01*
X238237Y119869D01*
X240669Y120963D02*
G74*
D01*
G02X241763Y119869I669J1763*
G01*
X240669Y119869D01*
X240669Y120963D01*
X239606Y119200D02*
G75*
D01*
G02X239606Y119200I394J0*
G01*
X214969Y120163D02*
G74*
D01*
G02X216063Y119069I669J1763*
G01*
X214969Y119069D01*
X214969Y120163D01*
X206814Y123600D02*
G75*
D01*
G02X206814Y123600I1886J0*
G01*
X212537Y119069D02*
G74*
D01*
G02X213631Y120163I1763J669*
G01*
X213631Y119069D01*
X212537Y119069D01*
X198814Y123600D02*
G75*
D01*
G02X198814Y123600I1886J0*
G01*
X192414Y121800D02*
G75*
D01*
G02X192414Y121800I1886J0*
G01*
X250463Y117631D02*
G74*
D01*
G02X249369Y116537I1763J669*
G01*
X249369Y117631D01*
X250463Y117631D01*
X248031Y116537D02*
G74*
D01*
G02X246937Y117631I669J1763*
G01*
X248031Y117631D01*
X248031Y116537D01*
X248306Y118300D02*
G75*
D01*
G02X248306Y118300I394J0*
G01*
X241763Y116631D02*
G74*
D01*
G02X240669Y115537I1763J669*
G01*
X240669Y116631D01*
X241763Y116631D01*
X239331Y115537D02*
G74*
D01*
G02X238237Y116631I669J1763*
G01*
X239331Y116631D01*
X239331Y115537D01*
X239606Y117300D02*
G75*
D01*
G02X239606Y117300I394J0*
G01*
X239331Y117437D02*
G74*
D01*
G02X238572Y117969I669J1763*
G01*
X238237Y117969D01*
G74*
D01*
G02X238371Y118250I1763J669*
G01*
G74*
D01*
G02X238237Y118531I1629J950*
G01*
X238572Y118531D01*
G74*
D01*
G02X239331Y119063I1428J1231*
G01*
X239331Y117437D01*
X241428Y118531D02*
X241763Y118531D01*
G74*
D01*
G02X241629Y118250I1763J669*
G01*
G74*
D01*
G02X241763Y117969I1629J950*
G01*
X241428Y117969D01*
G74*
D01*
G02X240669Y117437I1428J1231*
G01*
X240669Y119063D01*
G74*
D01*
G02X241428Y118531I669J1763*
G01*
X216063Y117731D02*
G74*
D01*
G02X214969Y116637I1763J669*
G01*
X214969Y117731D01*
X216063Y117731D01*
X213906Y118400D02*
G75*
D01*
G02X213906Y118400I394J0*
G01*
X213631Y116637D02*
G74*
D01*
G02X212537Y117731I669J1763*
G01*
X213631Y117731D01*
X213631Y116637D01*
X240614Y109400D02*
G75*
D01*
G02X240614Y109400I1886J0*
G01*
X232537Y103769D02*
G74*
D01*
G02X233631Y104863I1763J669*
G01*
X233631Y103769D01*
X232537Y103769D01*
X234969Y104863D02*
G74*
D01*
G02X236063Y103769I669J1763*
G01*
X234969Y103769D01*
X234969Y104863D01*
X233906Y103100D02*
G75*
D01*
G02X233906Y103100I394J0*
G01*
X219031Y106683D02*
G75*
D01*
G02X219031Y106683I1886J0*
G01*
X212014Y109200D02*
G75*
D01*
G02X212014Y109200I1886J0*
G01*
X260837Y97769D02*
G74*
D01*
G02X261931Y98863I1763J669*
G01*
X261931Y97769D01*
X260837Y97769D01*
X263269Y98863D02*
G74*
D01*
G02X264363Y97769I669J1763*
G01*
X263269Y97769D01*
X263269Y98863D01*
X264363Y96431D02*
G74*
D01*
G02X263269Y95337I1763J669*
G01*
X263269Y96431D01*
X264363Y96431D01*
X261931Y95337D02*
G74*
D01*
G02X260837Y96431I669J1763*
G01*
X261931Y96431D01*
X261931Y95337D01*
X262206Y97100D02*
G75*
D01*
G02X262206Y97100I394J0*
G01*
X232314Y98600D02*
G75*
D01*
G02X232314Y98600I1886J0*
G01*
X236063Y102431D02*
G74*
D01*
G02X234969Y101337I1763J669*
G01*
X234969Y102431D01*
X236063Y102431D01*
X233631Y101337D02*
G74*
D01*
G02X232537Y102431I669J1763*
G01*
X233631Y102431D01*
X233631Y101337D01*
X214937Y99469D02*
G74*
D01*
G02X216031Y100563I1763J669*
G01*
X216031Y99469D01*
X214937Y99469D01*
X217369Y100563D02*
G74*
D01*
G02X218463Y99469I669J1763*
G01*
X217369Y99469D01*
X217369Y100563D01*
X218463Y98131D02*
G74*
D01*
G02X217369Y97037I1763J669*
G01*
X217369Y98131D01*
X218463Y98131D01*
X216031Y97037D02*
G74*
D01*
G02X214937Y98131I669J1763*
G01*
X216031Y98131D01*
X216031Y97037D01*
X216306Y98800D02*
G75*
D01*
G02X216306Y98800I394J0*
G01*
X254431Y150737D02*
G74*
D01*
G02X253337Y151831I669J1763*
G01*
X254431Y151831D01*
X254431Y150737D01*
X70114Y146000D02*
G75*
D01*
G02X70114Y146000I1886J0*
G01*
X51237Y146869D02*
G74*
D01*
G02X52331Y147963I1763J669*
G01*
X52331Y146869D01*
X51237Y146869D01*
X53669Y147963D02*
G74*
D01*
G02X54763Y146869I669J1763*
G01*
X53669Y146869D01*
X53669Y147963D01*
X54763Y145531D02*
G74*
D01*
G02X53669Y144437I1763J669*
G01*
X53669Y145531D01*
X54763Y145531D01*
X52331Y144437D02*
G74*
D01*
G02X51237Y145531I669J1763*
G01*
X52331Y145531D01*
X52331Y144437D01*
X52606Y146200D02*
G75*
D01*
G02X52606Y146200I394J0*
G01*
X23350Y148588D02*
G75*
D01*
G02X23350Y148588I4567J0*
G01*
X13350Y148588D02*
G75*
D01*
G02X13350Y148588I4567J0*
G01*
X12292Y150154D02*
X9483Y150154D01*
X9483Y152963D01*
G74*
D01*
G02X12292Y150154I525J3334*
G01*
X6351Y152963D02*
X6351Y150154D01*
X3541Y150154D01*
G74*
D01*
G02X6351Y152963I3334J525*
G01*
X9483Y144213D02*
X9483Y147022D01*
X12292Y147022D01*
G74*
D01*
G02X9483Y144213I3334J524*
G01*
X3541Y147022D02*
X6351Y147022D01*
X6351Y144213D01*
G74*
D01*
G02X3541Y147022I524J3333*
G01*
X5958Y148588D02*
G75*
D01*
G02X5958Y148588I1959J0*
G01*
X23350Y138588D02*
G75*
D01*
G02X23350Y138588I4567J0*
G01*
X13350Y138588D02*
G75*
D01*
G02X13350Y138588I4567J0*
G01*
X12187Y136968D02*
G74*
D01*
G02X9536Y134318I4270J1620*
G01*
X9536Y136968D01*
X12187Y136968D01*
X9536Y142858D02*
G74*
D01*
G02X12187Y140207I1619J4270*
G01*
X9536Y140207D01*
X9536Y142858D01*
X6297Y134318D02*
G74*
D01*
G02X3646Y136968I1620J4270*
G01*
X6297Y136968D01*
X6297Y134318D01*
X3646Y140207D02*
G74*
D01*
G02X6297Y142858I4271J1619*
G01*
X6297Y140207D01*
X3646Y140207D01*
X6167Y138588D02*
G75*
D01*
G02X6167Y138588I1750J0*
G01*
X83517Y153682D02*
G75*
D01*
G02X83517Y153682I1377J0*
G01*
X63514Y132600D02*
G75*
D01*
G02X63514Y132600I1886J0*
G01*
X81069Y123463D02*
G74*
D01*
G02X82163Y122369I669J1763*
G01*
X81069Y122369D01*
X81069Y123463D01*
X82163Y121031D02*
G74*
D01*
G02X81069Y119937I1763J669*
G01*
X81069Y121031D01*
X82163Y121031D01*
X80006Y121700D02*
G75*
D01*
G02X80006Y121700I394J0*
G01*
X78637Y122369D02*
G74*
D01*
G02X79731Y123463I1763J669*
G01*
X79731Y122369D01*
X78637Y122369D01*
X79731Y119937D02*
G74*
D01*
G02X78637Y121031I669J1763*
G01*
X79731Y121031D01*
X79731Y119937D01*
X23350Y128588D02*
G75*
D01*
G02X23350Y128588I4567J0*
G01*
X13350Y128588D02*
G75*
D01*
G02X13350Y128588I4567J0*
G01*
X9536Y132858D02*
G74*
D01*
G02X12187Y130207I1619J4270*
G01*
X9536Y130207D01*
X9536Y132858D01*
X12187Y126968D02*
G74*
D01*
G02X9536Y124318I4270J1620*
G01*
X9536Y126968D01*
X12187Y126968D01*
X3646Y130207D02*
G74*
D01*
G02X6297Y132858I4271J1619*
G01*
X6297Y130207D01*
X3646Y130207D01*
X6167Y128588D02*
G75*
D01*
G02X6167Y128588I1750J0*
G01*
X6297Y124318D02*
G74*
D01*
G02X3646Y126968I1620J4270*
G01*
X6297Y126968D01*
X6297Y124318D01*
X78214Y114300D02*
G75*
D01*
G02X78214Y114300I1886J0*
G01*
X23350Y118588D02*
G75*
D01*
G02X23350Y118588I4567J0*
G01*
X13350Y118588D02*
G75*
D01*
G02X13350Y118588I4567J0*
G01*
X9536Y122858D02*
G74*
D01*
G02X12187Y120207I1619J4270*
G01*
X9536Y120207D01*
X9536Y122858D01*
X3646Y120207D02*
G74*
D01*
G02X6297Y122858I4271J1619*
G01*
X6297Y120207D01*
X3646Y120207D01*
X12187Y116968D02*
G74*
D01*
G02X9536Y114318I4270J1620*
G01*
X9536Y116968D01*
X12187Y116968D01*
X6297Y114318D02*
G74*
D01*
G02X3646Y116968I1620J4270*
G01*
X6297Y116968D01*
X6297Y114318D01*
X6167Y118588D02*
G75*
D01*
G02X6167Y118588I1750J0*
G01*
X82114Y101600D02*
G75*
D01*
G02X82114Y101600I1886J0*
G01*
X61314Y99200D02*
G75*
D01*
G02X61314Y99200I1886J0*
G01*
X79014Y95900D02*
G75*
D01*
G02X79014Y95900I1886J0*
G01*
X73614Y95500D02*
G75*
D01*
G02X73614Y95500I1886J0*
G01*
X12292Y96210D02*
X9483Y96210D01*
X9483Y99019D01*
G74*
D01*
G02X12292Y96210I525J3334*
G01*
X6351Y99019D02*
X6351Y96210D01*
X3541Y96210D01*
G74*
D01*
G02X6351Y99019I3334J525*
G01*
X138631Y149937D02*
G74*
D01*
G02X137537Y151031I669J1763*
G01*
X138631Y151031D01*
X138631Y149937D01*
X141063Y151031D02*
G74*
D01*
G02X139969Y149937I1763J669*
G01*
X139969Y151031D01*
X141063Y151031D01*
X139969Y153463D02*
G74*
D01*
G02X141063Y152369I669J1763*
G01*
X139969Y152369D01*
X139969Y153463D01*
X137537Y152369D02*
G74*
D01*
G02X138631Y153463I1763J669*
G01*
X138631Y152369D01*
X137537Y152369D01*
X164214Y138400D02*
G75*
D01*
G02X164214Y138400I1886J0*
G01*
X149406Y137535D02*
G75*
D01*
G02X149406Y137535I2468J0*
G01*
X133657Y137535D02*
G75*
D01*
G02X133657Y137535I2469J0*
G01*
X105691Y139464D02*
G74*
D01*
G02X107767Y137387I1269J3346*
G01*
X105691Y137387D01*
X105691Y139464D01*
X107767Y134849D02*
G74*
D01*
G02X105691Y132773I3345J1269*
G01*
X105691Y134849D01*
X107767Y134849D01*
X103044Y136118D02*
G75*
D01*
G02X103044Y136118I1378J0*
G01*
X141914Y130900D02*
G75*
D01*
G02X141914Y130900I1886J0*
G01*
X115014Y135100D02*
G75*
D01*
G02X115014Y135100I1886J0*
G01*
X173706Y122800D02*
G75*
D01*
G02X173706Y122800I394J0*
G01*
X175863Y122131D02*
G74*
D01*
G02X174769Y121037I1763J669*
G01*
X174769Y122131D01*
X175863Y122131D01*
X174769Y124563D02*
G74*
D01*
G02X175863Y123469I669J1763*
G01*
X174769Y123469D01*
X174769Y124563D01*
X178914Y126500D02*
G75*
D01*
G02X178914Y126500I1886J0*
G01*
X173431Y121037D02*
G74*
D01*
G02X172337Y122131I669J1763*
G01*
X173431Y122131D01*
X173431Y121037D01*
X172337Y123469D02*
G74*
D01*
G02X173431Y124563I1763J669*
G01*
X173431Y123469D01*
X172337Y123469D01*
X162137Y119169D02*
G74*
D01*
G02X163231Y120263I1763J669*
G01*
X163231Y119169D01*
X162137Y119169D01*
X164569Y120263D02*
G74*
D01*
G02X165663Y119169I669J1763*
G01*
X164569Y119169D01*
X164569Y120263D01*
X119806Y125300D02*
G75*
D01*
G02X119806Y125300I394J0*
G01*
X119531Y123537D02*
G74*
D01*
G02X118437Y124631I669J1763*
G01*
X119531Y124631D01*
X119531Y123537D01*
X121963Y124631D02*
G74*
D01*
G02X120869Y123537I1763J669*
G01*
X120869Y124631D01*
X121963Y124631D01*
X120869Y127063D02*
G74*
D01*
G02X121963Y125969I669J1763*
G01*
X120869Y125969D01*
X120869Y127063D01*
X118437Y125969D02*
G74*
D01*
G02X119531Y127063I1763J669*
G01*
X119531Y125969D01*
X118437Y125969D01*
X110914Y127100D02*
G75*
D01*
G02X110914Y127100I1886J0*
G01*
X163231Y116737D02*
G74*
D01*
G02X162137Y117831I669J1763*
G01*
X163231Y117831D01*
X163231Y116737D01*
X163506Y118500D02*
G75*
D01*
G02X163506Y118500I394J0*
G01*
X165663Y117831D02*
G74*
D01*
G02X164569Y116737I1763J669*
G01*
X164569Y117831D01*
X165663Y117831D01*
X149614Y114000D02*
G75*
D01*
G02X149614Y114000I1886J0*
G01*
X113314Y114200D02*
G75*
D01*
G02X113314Y114200I1886J0*
G01*
X173469Y104763D02*
G74*
D01*
G02X174563Y103669I669J1763*
G01*
X173469Y103669D01*
X173469Y104763D01*
X172406Y103000D02*
G75*
D01*
G02X172406Y103000I394J0*
G01*
X171037Y103669D02*
G74*
D01*
G02X172131Y104763I1763J669*
G01*
X172131Y103669D01*
X171037Y103669D01*
X93614Y109000D02*
G75*
D01*
G02X93614Y109000I1886J0*
G01*
X174563Y102331D02*
G74*
D01*
G02X173469Y101237I1763J669*
G01*
X173469Y102331D01*
X174563Y102331D01*
X178574Y102512D02*
G75*
D01*
G02X176890Y100424I190J-1876*
G01*
G75*
D01*
G02X178574Y102512I-190J1876*
G01*
X172131Y101237D02*
G74*
D01*
G02X171037Y102331I669J1763*
G01*
X172131Y102331D01*
X172131Y101237D01*
X167014Y101100D02*
G75*
D01*
G02X167014Y101100I1886J0*
G01*
X129806Y96000D02*
G75*
D01*
G02X129806Y96000I394J0*
G01*
X130869Y97763D02*
G74*
D01*
G02X131963Y96669I669J1763*
G01*
X130869Y96669D01*
X130869Y97763D01*
X128437Y96669D02*
G74*
D01*
G02X129531Y97763I1763J669*
G01*
X129531Y96669D01*
X128437Y96669D01*
X107514Y98600D02*
G75*
D01*
G02X107514Y98600I1886J0*
G01*
X102414Y101200D02*
G75*
D01*
G02X102414Y101200I1886J0*
G01*
X129531Y94237D02*
G74*
D01*
G02X128437Y95331I669J1763*
G01*
X129531Y95331D01*
X129531Y94237D01*
X131963Y95331D02*
G74*
D01*
G02X130869Y94237I1763J669*
G01*
X130869Y95331D01*
X131963Y95331D01*
X138906Y151700D02*
G75*
D01*
G02X138906Y151700I394J0*
G01*
X239144Y79151D02*
G74*
D01*
G02X241220Y81227I3345J1269*
G01*
X241220Y79151D01*
X239144Y79151D01*
X220814Y88000D02*
G75*
D01*
G02X220814Y88000I1886J0*
G01*
X198737Y84669D02*
G74*
D01*
G02X199831Y85763I1763J669*
G01*
X199831Y84669D01*
X198737Y84669D01*
X201169Y85763D02*
G74*
D01*
G02X202263Y84669I669J1763*
G01*
X201169Y84669D01*
X201169Y85763D01*
X202263Y83331D02*
G74*
D01*
G02X201169Y82237I1763J669*
G01*
X201169Y83331D01*
X202263Y83331D01*
X199831Y82237D02*
G74*
D01*
G02X198737Y83331I669J1763*
G01*
X199831Y83331D01*
X199831Y82237D01*
X200106Y84000D02*
G75*
D01*
G02X200106Y84000I394J0*
G01*
X204014Y82700D02*
G75*
D01*
G02X204014Y82700I1886J0*
G01*
X266114Y73000D02*
G75*
D01*
G02X266114Y73000I1886J0*
G01*
X245442Y79903D02*
G75*
D01*
G02X251347Y79903I2952J-2021*
G01*
G75*
D01*
G02X257253Y79903I2953J-2021*
G01*
G75*
D01*
G02X257253Y75861I2953J-2021*
G01*
G75*
D01*
G02X251347Y75861I-2953J2021*
G01*
G75*
D01*
G02X245442Y75861I-2953J2021*
G01*
G74*
D01*
G02X243758Y74536I2953J2021*
G01*
X243758Y76613D01*
X245049Y76613D01*
G75*
D01*
G02X245049Y79151I3345J1269*
G01*
X243758Y79151D01*
X243758Y81227D01*
G74*
D01*
G02X245442Y79903I1269J3345*
G01*
X241111Y77882D02*
G75*
D01*
G02X241111Y77882I1378J0*
G01*
X241220Y74536D02*
G74*
D01*
G02X239144Y76613I1269J3346*
G01*
X241220Y76613D01*
X241220Y74536D01*
X225114Y75000D02*
G75*
D01*
G02X225114Y75000I1886J0*
G01*
X193814Y75000D02*
G75*
D01*
G02X193814Y75000I1886J0*
G01*
X222114Y65700D02*
G75*
D01*
G02X222114Y65700I1886J0*
G01*
X222114Y61400D02*
G75*
D01*
G02X222114Y61400I1886J0*
G01*
X220363Y60731D02*
G74*
D01*
G02X219269Y59637I1763J669*
G01*
X219269Y60731D01*
X220363Y60731D01*
X217931Y59637D02*
G74*
D01*
G02X216837Y60731I669J1763*
G01*
X217931Y60731D01*
X217931Y59637D01*
X218206Y61400D02*
G75*
D01*
G02X218206Y61400I394J0*
G01*
X216837Y62069D02*
G74*
D01*
G02X217931Y63163I1763J669*
G01*
X217931Y62069D01*
X216837Y62069D01*
X219269Y63163D02*
G74*
D01*
G02X220363Y62069I669J1763*
G01*
X219269Y62069D01*
X219269Y63163D01*
X193414Y65500D02*
G75*
D01*
G02X193414Y65500I1886J0*
G01*
X196914Y63600D02*
G75*
D01*
G02X196914Y63600I1886J0*
G01*
X239344Y57751D02*
G74*
D01*
G02X241420Y59827I3345J1269*
G01*
X241420Y57751D01*
X239344Y57751D01*
X257453Y54461D02*
G75*
D01*
G02X251547Y54461I-2953J2021*
G01*
G75*
D01*
G02X245642Y54461I-2953J2021*
G01*
G74*
D01*
G02X243958Y53136I2953J2021*
G01*
X243958Y55213D01*
X245249Y55213D01*
G75*
D01*
G02X245249Y57751I3345J1269*
G01*
X243958Y57751D01*
X243958Y59827D01*
G74*
D01*
G02X245642Y58503I1269J3345*
G01*
G75*
D01*
G02X251547Y58503I2952J-2021*
G01*
G75*
D01*
G02X257453Y58503I2953J-2021*
G01*
G75*
D01*
G02X257453Y54461I2953J-2021*
G01*
X241420Y53136D02*
G74*
D01*
G02X239344Y55213I1269J3346*
G01*
X241420Y55213D01*
X241420Y53136D01*
X241311Y56482D02*
G75*
D01*
G02X241311Y56482I1378J0*
G01*
X225114Y53300D02*
G75*
D01*
G02X225114Y53300I1886J0*
G01*
X208837Y49569D02*
G74*
D01*
G02X209931Y50663I1763J669*
G01*
X209931Y49569D01*
X208837Y49569D01*
X211269Y50663D02*
G74*
D01*
G02X212363Y49569I669J1763*
G01*
X211269Y49569D01*
X211269Y50663D01*
X210206Y48900D02*
G75*
D01*
G02X210206Y48900I394J0*
G01*
X230369Y42763D02*
G74*
D01*
G02X231463Y41669I669J1763*
G01*
X230369Y41669D01*
X230369Y42763D01*
X229306Y41000D02*
G75*
D01*
G02X229306Y41000I394J0*
G01*
X227937Y41669D02*
G74*
D01*
G02X229031Y42763I1763J669*
G01*
X229031Y41669D01*
X227937Y41669D01*
X212363Y48231D02*
G74*
D01*
G02X211269Y47137I1763J669*
G01*
X211269Y48231D01*
X212363Y48231D01*
X209931Y47137D02*
G74*
D01*
G02X208837Y48231I669J1763*
G01*
X209931Y48231D01*
X209931Y47137D01*
X193263Y45431D02*
G74*
D01*
G02X192169Y44337I1763J669*
G01*
X192169Y45431D01*
X193263Y45431D01*
X190831Y44337D02*
G74*
D01*
G02X189737Y45431I669J1763*
G01*
X190831Y45431D01*
X190831Y44337D01*
X191106Y46100D02*
G75*
D01*
G02X191106Y46100I394J0*
G01*
X189737Y46769D02*
G74*
D01*
G02X190831Y47863I1763J669*
G01*
X190831Y46769D01*
X189737Y46769D01*
X192169Y47863D02*
G74*
D01*
G02X193263Y46769I669J1763*
G01*
X192169Y46769D01*
X192169Y47863D01*
X231463Y40331D02*
G74*
D01*
G02X230369Y39237I1763J669*
G01*
X230369Y40331D01*
X231463Y40331D01*
X229031Y39237D02*
G74*
D01*
G02X227937Y40331I669J1763*
G01*
X229031Y40331D01*
X229031Y39237D01*
X250955Y27449D02*
G75*
D01*
G02X250955Y29987I3345J1269*
G01*
X249663Y29987D01*
X249663Y32064D01*
G74*
D01*
G02X251347Y30739I1269J3346*
G01*
G75*
D01*
G02X257253Y30739I2953J-2021*
G01*
G75*
D01*
G02X257253Y26697I2953J-2021*
G01*
G75*
D01*
G02X251347Y26697I-2953J2021*
G01*
G74*
D01*
G02X249663Y25373I2953J2021*
G01*
X249663Y27449D01*
X250955Y27449D01*
X247017Y28718D02*
G75*
D01*
G02X247017Y28718I1377J0*
G01*
X247126Y25373D02*
G74*
D01*
G02X245049Y27449I1268J3345*
G01*
X247126Y27449D01*
X247126Y25373D01*
X245049Y29987D02*
G74*
D01*
G02X247126Y32064I3345J1269*
G01*
X247126Y29987D01*
X245049Y29987D01*
X205637Y29969D02*
G74*
D01*
G02X206731Y31063I1763J669*
G01*
X206731Y29969D01*
X205637Y29969D01*
X208069Y31063D02*
G74*
D01*
G02X209163Y29969I669J1763*
G01*
X208069Y29969D01*
X208069Y31063D01*
X209163Y28631D02*
G74*
D01*
G02X208069Y27537I1763J669*
G01*
X208069Y28631D01*
X209163Y28631D01*
X206731Y27537D02*
G74*
D01*
G02X205637Y28631I669J1763*
G01*
X206731Y28631D01*
X206731Y27537D01*
X207006Y29300D02*
G75*
D01*
G02X207006Y29300I394J0*
G01*
X190314Y30300D02*
G75*
D01*
G02X190314Y30300I1886J0*
G01*
X206545Y5349D02*
X207837Y5349D01*
X207837Y3273D01*
G74*
D01*
G02X206153Y4597I1269J3345*
G01*
G75*
D01*
G02X200247Y4597I-2953J2021*
G01*
G75*
D01*
G02X200247Y8639I-2953J2021*
G01*
G75*
D01*
G02X206153Y8639I2953J-2021*
G01*
G74*
D01*
G02X207837Y9964I2953J2021*
G01*
X207837Y7887D01*
X206545Y7887D01*
G75*
D01*
G02X206545Y5349I-3345J-1269*
G01*
X207728Y6618D02*
G75*
D01*
G02X207728Y6618I1378J0*
G01*
X217964Y4597D02*
G75*
D01*
G02X212058Y4597I-2953J2021*
G01*
G74*
D01*
G02X210374Y3273I2952J2021*
G01*
X210374Y5349D01*
X211666Y5349D01*
G75*
D01*
G02X211666Y7887I3345J1269*
G01*
X210374Y7887D01*
X210374Y9964D01*
G74*
D01*
G02X212058Y8639I1268J3346*
G01*
G75*
D01*
G02X217964Y8639I2953J-2021*
G01*
G75*
D01*
G02X217964Y4597I2953J-2021*
G01*
X57637Y88169D02*
G74*
D01*
G02X58731Y89263I1763J669*
G01*
X58731Y88169D01*
X57637Y88169D01*
X60069Y89263D02*
G74*
D01*
G02X61163Y88169I669J1763*
G01*
X60069Y88169D01*
X60069Y89263D01*
X9483Y90269D02*
X9483Y93078D01*
X12292Y93078D01*
G74*
D01*
G02X9483Y90269I3334J524*
G01*
X3541Y93078D02*
X6351Y93078D01*
X6351Y90269D01*
G74*
D01*
G02X3541Y93078I524J3333*
G01*
X73196Y83582D02*
G75*
D01*
G02X73196Y83582I1886J0*
G01*
X61163Y86831D02*
G74*
D01*
G02X60069Y85737I1763J669*
G01*
X60069Y86831D01*
X61163Y86831D01*
X58731Y85737D02*
G74*
D01*
G02X57637Y86831I669J1763*
G01*
X58731Y86831D01*
X58731Y85737D01*
X33237Y82669D02*
G74*
D01*
G02X34331Y83763I1763J669*
G01*
X34331Y82669D01*
X33237Y82669D01*
X35669Y83763D02*
G74*
D01*
G02X36763Y82669I669J1763*
G01*
X35669Y82669D01*
X35669Y83763D01*
X36763Y81331D02*
G74*
D01*
G02X35669Y80237I1763J669*
G01*
X35669Y81331D01*
X36763Y81331D01*
X34331Y80237D02*
G74*
D01*
G02X33237Y81331I669J1763*
G01*
X34331Y81331D01*
X34331Y80237D01*
X34606Y82000D02*
G75*
D01*
G02X34606Y82000I394J0*
G01*
X23350Y84644D02*
G75*
D01*
G02X23350Y84644I4567J0*
G01*
X13350Y84644D02*
G75*
D01*
G02X13350Y84644I4567J0*
G01*
X12187Y83024D02*
G74*
D01*
G02X9536Y80374I4270J1620*
G01*
X9536Y83024D01*
X12187Y83024D01*
X9536Y88914D02*
G74*
D01*
G02X12187Y86263I1619J4270*
G01*
X9536Y86263D01*
X9536Y88914D01*
X6297Y80374D02*
G74*
D01*
G02X3646Y83024I1620J4270*
G01*
X6297Y83024D01*
X6297Y80374D01*
X3646Y86263D02*
G74*
D01*
G02X6297Y88914I4271J1619*
G01*
X6297Y86263D01*
X3646Y86263D01*
X6167Y84644D02*
G75*
D01*
G02X6167Y84644I1750J0*
G01*
X82714Y77300D02*
G75*
D01*
G02X82714Y77300I1886J0*
G01*
X85482Y69627D02*
G75*
D01*
G02X83818Y71373I-1882J-127*
G01*
G75*
D01*
G02X85482Y69627I1882J127*
G01*
X76531Y67737D02*
G74*
D01*
G02X75437Y68831I669J1763*
G01*
X76531Y68831D01*
X76531Y67737D01*
X76806Y69500D02*
G75*
D01*
G02X76806Y69500I394J0*
G01*
X71411Y69697D02*
G75*
D01*
G02X71411Y69697I1886J0*
G01*
X75437Y70169D02*
G74*
D01*
G02X76531Y71263I1763J669*
G01*
X76531Y70169D01*
X75437Y70169D01*
X77869Y71263D02*
G74*
D01*
G02X78963Y70169I669J1763*
G01*
X77869Y70169D01*
X77869Y71263D01*
X78963Y68831D02*
G74*
D01*
G02X77869Y67737I1763J669*
G01*
X77869Y68831D01*
X78963Y68831D01*
X23350Y74644D02*
G75*
D01*
G02X23350Y74644I4567J0*
G01*
X13350Y74644D02*
G75*
D01*
G02X13350Y74644I4567J0*
G01*
X12187Y73024D02*
G74*
D01*
G02X9536Y70374I4270J1620*
G01*
X9536Y73024D01*
X12187Y73024D01*
X9536Y78914D02*
G74*
D01*
G02X12187Y76263I1619J4270*
G01*
X9536Y76263D01*
X9536Y78914D01*
X3646Y76263D02*
G74*
D01*
G02X6297Y78914I4271J1619*
G01*
X6297Y76263D01*
X3646Y76263D01*
X6167Y74644D02*
G75*
D01*
G02X6167Y74644I1750J0*
G01*
X6297Y70374D02*
G74*
D01*
G02X3646Y73024I1620J4270*
G01*
X6297Y73024D01*
X6297Y70374D01*
X23350Y64644D02*
G75*
D01*
G02X23350Y64644I4567J0*
G01*
X13350Y64644D02*
G75*
D01*
G02X13350Y64644I4567J0*
G01*
X9536Y68914D02*
G74*
D01*
G02X12187Y66263I1619J4270*
G01*
X9536Y66263D01*
X9536Y68914D01*
X3646Y66263D02*
G74*
D01*
G02X6297Y68914I4271J1619*
G01*
X6297Y66263D01*
X3646Y66263D01*
X12187Y63024D02*
G74*
D01*
G02X9536Y60374I4270J1620*
G01*
X9536Y63024D01*
X12187Y63024D01*
X6297Y60374D02*
G74*
D01*
G02X3646Y63024I1620J4270*
G01*
X6297Y63024D01*
X6297Y60374D01*
X6167Y64644D02*
G75*
D01*
G02X6167Y64644I1750J0*
G01*
X61614Y43800D02*
G75*
D01*
G02X61614Y43800I1886J0*
G01*
X23350Y40700D02*
G75*
D01*
G02X23350Y40700I4567J0*
G01*
X13350Y40700D02*
G75*
D01*
G02X13350Y40700I4567J0*
G01*
X12292Y42266D02*
X9483Y42266D01*
X9483Y45075D01*
G74*
D01*
G02X12292Y42266I525J3333*
G01*
X6351Y45075D02*
X6351Y42266D01*
X3541Y42266D01*
G74*
D01*
G02X6351Y45075I3334J524*
G01*
X9483Y36325D02*
X9483Y39134D01*
X12292Y39134D01*
G74*
D01*
G02X9483Y36325I3334J525*
G01*
X3541Y39134D02*
X6351Y39134D01*
X6351Y36325D01*
G74*
D01*
G02X3541Y39134I524J3334*
G01*
X5958Y40700D02*
G75*
D01*
G02X5958Y40700I1959J0*
G01*
X23350Y30700D02*
G75*
D01*
G02X23350Y30700I4567J0*
G01*
X13350Y30700D02*
G75*
D01*
G02X13350Y30700I4567J0*
G01*
X9536Y34970D02*
G74*
D01*
G02X12187Y32319I1619J4270*
G01*
X9536Y32319D01*
X9536Y34970D01*
X3646Y32319D02*
G74*
D01*
G02X6297Y34970I4271J1619*
G01*
X6297Y32319D01*
X3646Y32319D01*
X12187Y29081D02*
G74*
D01*
G02X9536Y26430I4270J1619*
G01*
X9536Y29081D01*
X12187Y29081D01*
X6297Y26430D02*
G74*
D01*
G02X3646Y29081I1620J4270*
G01*
X6297Y29081D01*
X6297Y26430D01*
X6167Y30700D02*
G75*
D01*
G02X6167Y30700I1750J0*
G01*
X23350Y20700D02*
G75*
D01*
G02X23350Y20700I4567J0*
G01*
X13350Y20700D02*
G75*
D01*
G02X13350Y20700I4567J0*
G01*
X12187Y19081D02*
G74*
D01*
G02X9536Y16430I4270J1619*
G01*
X9536Y19081D01*
X12187Y19081D01*
X9536Y24970D02*
G74*
D01*
G02X12187Y22319I1619J4270*
G01*
X9536Y22319D01*
X9536Y24970D01*
X6297Y16430D02*
G74*
D01*
G02X3646Y19081I1620J4270*
G01*
X6297Y19081D01*
X6297Y16430D01*
X3646Y22319D02*
G74*
D01*
G02X6297Y24970I4271J1619*
G01*
X6297Y22319D01*
X3646Y22319D01*
X6167Y20700D02*
G75*
D01*
G02X6167Y20700I1750J0*
G01*
X92849Y14744D02*
G74*
D01*
G02X90773Y16820I1269J3345*
G01*
X92849Y16820D01*
X92849Y14744D01*
X76351Y27260D02*
G75*
D01*
G02X73813Y27260I-1269J3346*
G01*
X73813Y25969D01*
X71736Y25969D01*
G74*
D01*
G02X73061Y27653I3346J1269*
G01*
G75*
D01*
G02X77103Y27653I2021J2953*
G01*
G74*
D01*
G02X78427Y25969I2021J2953*
G01*
X76351Y25969D01*
X76351Y27260D01*
X73813Y22140D02*
G75*
D01*
G02X76351Y22140I1269J-3346*
G01*
X76351Y23431D01*
X78427Y23431D01*
G74*
D01*
G02X77103Y21747I3345J1269*
G01*
G75*
D01*
G02X73061Y21747I-2021J-2953*
G01*
G74*
D01*
G02X71736Y23431I2021J2953*
G01*
X73813Y23431D01*
X73813Y22140D01*
X73704Y24700D02*
G75*
D01*
G02X73704Y24700I1378J0*
G01*
X55013Y27160D02*
X55013Y25869D01*
X52936Y25869D01*
G74*
D01*
G02X54261Y27553I3346J1269*
G01*
G75*
D01*
G02X58303Y27553I2021J2953*
G01*
G74*
D01*
G02X59627Y25869I2021J2953*
G01*
X57551Y25869D01*
X57551Y27160D01*
G75*
D01*
G02X55013Y27160I-1269J3346*
G01*
X55013Y22040D02*
G75*
D01*
G02X57551Y22040I1269J-3346*
G01*
X57551Y23331D01*
X59627Y23331D01*
G74*
D01*
G02X58303Y21647I3345J1269*
G01*
G75*
D01*
G02X54261Y21647I-2021J-2953*
G01*
G74*
D01*
G02X52936Y23331I2021J2953*
G01*
X55013Y23331D01*
X55013Y22040D01*
X54904Y24600D02*
G75*
D01*
G02X54904Y24600I1378J0*
G01*
X23350Y10700D02*
G75*
D01*
G02X23350Y10700I4567J0*
G01*
X13350Y10700D02*
G75*
D01*
G02X13350Y10700I4567J0*
G01*
X9536Y14970D02*
G74*
D01*
G02X12187Y12319I1619J4270*
G01*
X9536Y12319D01*
X9536Y14970D01*
X12187Y9081D02*
G74*
D01*
G02X9536Y6430I4270J1619*
G01*
X9536Y9081D01*
X12187Y9081D01*
X3646Y12319D02*
G74*
D01*
G02X6297Y14970I4271J1619*
G01*
X6297Y12319D01*
X3646Y12319D01*
X6167Y10700D02*
G75*
D01*
G02X6167Y10700I1750J0*
G01*
X6297Y6430D02*
G74*
D01*
G02X3646Y9081I1620J4270*
G01*
X6297Y9081D01*
X6297Y6430D01*
X59006Y87500D02*
G75*
D01*
G02X59006Y87500I394J0*
G01*
X148469Y88663D02*
G74*
D01*
G02X149563Y87569I669J1763*
G01*
X148469Y87569D01*
X148469Y88663D01*
X146037Y87569D02*
G74*
D01*
G02X147131Y88663I1763J669*
G01*
X147131Y87569D01*
X146037Y87569D01*
X126006Y88000D02*
G75*
D01*
G02X126006Y88000I394J0*
G01*
X127069Y89763D02*
G74*
D01*
G02X128163Y88669I669J1763*
G01*
X127069Y88669D01*
X127069Y89763D01*
X124637Y88669D02*
G74*
D01*
G02X125731Y89763I1763J669*
G01*
X125731Y88669D01*
X124637Y88669D01*
X112169Y87763D02*
G74*
D01*
G02X113263Y86669I669J1763*
G01*
X112169Y86669D01*
X112169Y87763D01*
X109737Y86669D02*
G74*
D01*
G02X110831Y87763I1763J669*
G01*
X110831Y86669D01*
X109737Y86669D01*
X181606Y83000D02*
G75*
D01*
G02X181606Y83000I394J0*
G01*
X183763Y82331D02*
G74*
D01*
G02X182669Y81237I1763J669*
G01*
X182669Y82331D01*
X183763Y82331D01*
X182669Y84763D02*
G74*
D01*
G02X183763Y83669I669J1763*
G01*
X182669Y83669D01*
X182669Y84763D01*
X181331Y81237D02*
G74*
D01*
G02X180237Y82331I669J1763*
G01*
X181331Y82331D01*
X181331Y81237D01*
X180237Y83669D02*
G74*
D01*
G02X181331Y84763I1763J669*
G01*
X181331Y83669D01*
X180237Y83669D01*
X171314Y85000D02*
G75*
D01*
G02X171314Y85000I1886J0*
G01*
X152214Y81400D02*
G75*
D01*
G02X152214Y81400I1886J0*
G01*
X147131Y85137D02*
G74*
D01*
G02X146037Y86231I669J1763*
G01*
X147131Y86231D01*
X147131Y85137D01*
X149563Y86231D02*
G74*
D01*
G02X148469Y85137I1763J669*
G01*
X148469Y86231D01*
X149563Y86231D01*
X147406Y86900D02*
G75*
D01*
G02X147406Y86900I394J0*
G01*
X129714Y83000D02*
G75*
D01*
G02X129714Y83000I1886J0*
G01*
X128163Y87331D02*
G74*
D01*
G02X127069Y86237I1763J669*
G01*
X127069Y87331D01*
X128163Y87331D01*
X121114Y81600D02*
G75*
D01*
G02X121114Y81600I1886J0*
G01*
X125731Y86237D02*
G74*
D01*
G02X124637Y87331I669J1763*
G01*
X125731Y87331D01*
X125731Y86237D01*
X111106Y86000D02*
G75*
D01*
G02X111106Y86000I394J0*
G01*
X113263Y85331D02*
G74*
D01*
G02X112169Y84237I1763J669*
G01*
X112169Y85331D01*
X113263Y85331D01*
X110831Y84237D02*
G74*
D01*
G02X109737Y85331I669J1763*
G01*
X110831Y85331D01*
X110831Y84237D01*
X152414Y77200D02*
G75*
D01*
G02X152414Y77200I1886J0*
G01*
X133486Y71616D02*
G75*
D01*
G02X135214Y72984I-86J1884*
G01*
G75*
D01*
G02X133486Y71616I86J-1884*
G01*
X133814Y77000D02*
G75*
D01*
G02X133814Y77000I1886J0*
G01*
X114606Y75900D02*
G75*
D01*
G02X114606Y75900I394J0*
G01*
X114331Y74137D02*
G74*
D01*
G02X113237Y75231I669J1763*
G01*
X114331Y75231D01*
X114331Y74137D01*
X116763Y75231D02*
G74*
D01*
G02X115669Y74137I1763J669*
G01*
X115669Y75231D01*
X116763Y75231D01*
X115669Y77663D02*
G74*
D01*
G02X116763Y76569I669J1763*
G01*
X115669Y76569D01*
X115669Y77663D01*
X113237Y76569D02*
G74*
D01*
G02X114331Y77663I1763J669*
G01*
X114331Y76569D01*
X113237Y76569D01*
X117414Y73300D02*
G75*
D01*
G02X117414Y73300I1886J0*
G01*
X103306Y77700D02*
G75*
D01*
G02X103306Y77700I394J0*
G01*
X105463Y77031D02*
G74*
D01*
G02X104369Y75937I1763J669*
G01*
X104369Y77031D01*
X105463Y77031D01*
X104369Y79463D02*
G74*
D01*
G02X105463Y78369I669J1763*
G01*
X104369Y78369D01*
X104369Y79463D01*
X103031Y75937D02*
G74*
D01*
G02X101937Y77031I669J1763*
G01*
X103031Y77031D01*
X103031Y75937D01*
X101937Y78369D02*
G74*
D01*
G02X103031Y79463I1763J669*
G01*
X103031Y78369D01*
X101937Y78369D01*
X166863Y68531D02*
G74*
D01*
G02X165769Y67437I1763J669*
G01*
X165769Y68531D01*
X166863Y68531D01*
X165769Y70963D02*
G74*
D01*
G02X166863Y69869I669J1763*
G01*
X165769Y69869D01*
X165769Y70963D01*
X164431Y67437D02*
G74*
D01*
G02X163337Y68531I669J1763*
G01*
X164431Y68531D01*
X164431Y67437D01*
X164706Y69200D02*
G75*
D01*
G02X164706Y69200I394J0*
G01*
X163337Y69869D02*
G74*
D01*
G02X164431Y70963I1763J669*
G01*
X164431Y69869D01*
X163337Y69869D01*
X144714Y65700D02*
G75*
D01*
G02X144714Y65700I1886J0*
G01*
X107014Y68900D02*
G75*
D01*
G02X107014Y68900I1886J0*
G01*
X102914Y71800D02*
G75*
D01*
G02X102914Y71800I1886J0*
G01*
X181014Y50100D02*
G75*
D01*
G02X181014Y50100I1886J0*
G01*
X178414Y54500D02*
G75*
D01*
G02X178414Y54500I1886J0*
G01*
X169606Y48300D02*
G75*
D01*
G02X169606Y48300I394J0*
G01*
X170669Y50063D02*
G74*
D01*
G02X171763Y48969I669J1763*
G01*
X170669Y48969D01*
X170669Y50063D01*
X168237Y48969D02*
G74*
D01*
G02X169331Y50063I1763J669*
G01*
X169331Y48969D01*
X168237Y48969D01*
X155814Y49800D02*
G75*
D01*
G02X155814Y49800I1886J0*
G01*
X133014Y51700D02*
G75*
D01*
G02X133014Y51700I1886J0*
G01*
X121114Y50000D02*
G75*
D01*
G02X121114Y50000I1886J0*
G01*
X116306Y49400D02*
G75*
D01*
G02X116306Y49400I394J0*
G01*
X116031Y47637D02*
G74*
D01*
G02X114937Y48731I669J1763*
G01*
X116031Y48731D01*
X116031Y47637D01*
X114937Y50069D02*
G74*
D01*
G02X116031Y51163I1763J669*
G01*
X116031Y50069D01*
X114937Y50069D01*
X118463Y48731D02*
G74*
D01*
G02X117369Y47637I1763J669*
G01*
X117369Y48731D01*
X118463Y48731D01*
X117369Y51163D02*
G74*
D01*
G02X118463Y50069I669J1763*
G01*
X117369Y50069D01*
X117369Y51163D01*
X180714Y42300D02*
G75*
D01*
G02X180714Y42300I1886J0*
G01*
X169331Y46537D02*
G74*
D01*
G02X168237Y47631I669J1763*
G01*
X169331Y47631D01*
X169331Y46537D01*
X171763Y47631D02*
G74*
D01*
G02X170669Y46537I1763J669*
G01*
X170669Y47631D01*
X171763Y47631D01*
X164914Y42200D02*
G75*
D01*
G02X164914Y42200I1886J0*
G01*
X162814Y48500D02*
G75*
D01*
G02X162814Y48500I1886J0*
G01*
X127563Y44831D02*
G74*
D01*
G02X126469Y43737I1763J669*
G01*
X126469Y44831D01*
X127563Y44831D01*
X126469Y47263D02*
G74*
D01*
G02X127563Y46169I669J1763*
G01*
X126469Y46169D01*
X126469Y47263D01*
X125131Y43737D02*
G74*
D01*
G02X124037Y44831I669J1763*
G01*
X125131Y44831D01*
X125131Y43737D01*
X125406Y45500D02*
G75*
D01*
G02X125406Y45500I394J0*
G01*
X124037Y46169D02*
G74*
D01*
G02X125131Y47263I1763J669*
G01*
X125131Y46169D01*
X124037Y46169D01*
X108406Y33000D02*
G75*
D01*
G02X108406Y33000I394J0*
G01*
X107037Y33669D02*
G74*
D01*
G02X108131Y34763I1763J669*
G01*
X108131Y33669D01*
X107037Y33669D01*
X109469Y34763D02*
G74*
D01*
G02X110563Y33669I669J1763*
G01*
X109469Y33669D01*
X109469Y34763D01*
X97464Y16820D02*
G74*
D01*
G02X95387Y14744I3346J1269*
G01*
X95387Y16820D01*
X97464Y16820D01*
X156714Y28700D02*
G75*
D01*
G02X156714Y28700I1886J0*
G01*
X121706Y26000D02*
G75*
D01*
G02X121706Y26000I394J0*
G01*
X121431Y24237D02*
G74*
D01*
G02X120337Y25331I669J1763*
G01*
X121431Y25331D01*
X121431Y24237D01*
X123863Y25331D02*
G74*
D01*
G02X122769Y24237I1763J669*
G01*
X122769Y25331D01*
X123863Y25331D01*
X122769Y27763D02*
G74*
D01*
G02X123863Y26669I669J1763*
G01*
X122769Y26669D01*
X122769Y27763D01*
X120337Y26669D02*
G74*
D01*
G02X121431Y27763I1763J669*
G01*
X121431Y26669D01*
X120337Y26669D01*
X108131Y31237D02*
G74*
D01*
G02X107037Y32331I669J1763*
G01*
X108131Y32331D01*
X108131Y31237D01*
X110563Y32331D02*
G74*
D01*
G02X109469Y31237I1763J669*
G01*
X109469Y32331D01*
X110563Y32331D01*
X177314Y20800D02*
G75*
D01*
G02X177314Y20800I1886J0*
G01*
X159306Y20900D02*
G75*
D01*
G02X159306Y20900I394J0*
G01*
X159031Y19137D02*
G74*
D01*
G02X157937Y20231I669J1763*
G01*
X159031Y20231D01*
X159031Y19137D01*
X161463Y20231D02*
G74*
D01*
G02X160369Y19137I1763J669*
G01*
X160369Y20231D01*
X161463Y20231D01*
X160369Y22663D02*
G74*
D01*
G02X161463Y21569I669J1763*
G01*
X160369Y21569D01*
X160369Y22663D01*
X157937Y21569D02*
G74*
D01*
G02X159031Y22663I1763J669*
G01*
X159031Y21569D01*
X157937Y21569D01*
X126806Y10000D02*
G75*
D01*
G02X126806Y10000I394J0*
G01*
X128963Y9331D02*
G74*
D01*
G02X127869Y8237I1763J669*
G01*
X127869Y9331D01*
X128963Y9331D01*
X127869Y11763D02*
G74*
D01*
G02X128963Y10669I669J1763*
G01*
X127869Y10669D01*
X127869Y11763D01*
X126531Y8237D02*
G74*
D01*
G02X125437Y9331I669J1763*
G01*
X126531Y9331D01*
X126531Y8237D01*
X125437Y10669D02*
G74*
D01*
G02X126531Y11763I1763J669*
G01*
X126531Y10669D01*
X125437Y10669D01*
X70529Y156187D02*
X1294Y156187D01*
X1294Y1294D01*
X274297Y1294D01*
X274297Y156187D01*
X99260Y156187D01*
G75*
D01*
G02X93753Y151661I-2554J-2505*
G01*
G75*
D01*
G02X87847Y151661I-2953J2021*
G01*
G74*
D01*
G02X86163Y150336I2953J2021*
G01*
X86163Y152413D01*
X87455Y152413D01*
G75*
D01*
G02X87455Y154951I3345J1269*
G01*
X86163Y154951D01*
X86163Y156187D01*
X83626Y156187D01*
X83626Y154951D01*
X82334Y154951D01*
G75*
D01*
G02X82334Y152413I-3345J-1269*
G01*
X83626Y152413D01*
X83626Y150336D01*
G74*
D01*
G02X81942Y151661I1268J3346*
G01*
G75*
D01*
G02X76036Y151661I-2953J2021*
G01*
G75*
D01*
G02X70529Y156187I-2953J2021*
G01*
X87847Y155703D02*
G74*
D01*
G02X88245Y156187I2953J2021*
G01*
X87449Y156187D01*
G74*
D01*
G02X87847Y155703I2555J2505*
G01*
X93753Y155703D02*
G74*
D01*
G02X94151Y156187I2953J2021*
G01*
X93355Y156187D01*
G74*
D01*
G02X93753Y155703I2555J2505*
G01*
X76036Y155703D02*
G74*
D01*
G02X76434Y156187I2953J2021*
G01*
X75638Y156187D01*
G74*
D01*
G02X76036Y155703I2555J2505*
G01*
X82340Y156187D02*
X81544Y156187D01*
G74*
D01*
G02X81942Y155703I2555J2505*
G01*
G74*
D01*
G02X82340Y156187I2952J2021*
G01*
G54D12*
X96706Y153682D03*
X90800Y153682D03*
X84894Y153682D03*
X78989Y153682D03*
X73083Y153682D03*
X197294Y6618D03*
X203200Y6618D03*
X209106Y6618D03*
X215011Y6618D03*
X220917Y6618D03*
X263218Y148306D03*
X263218Y142400D03*
X263218Y136494D03*
X263218Y130589D03*
X248394Y28718D03*
X254300Y28718D03*
X260206Y28718D03*
X56282Y18694D03*
X56282Y24600D03*
X56282Y30506D03*
X75082Y18794D03*
X75082Y24700D03*
X75082Y30606D03*
X260406Y56482D03*
X254500Y56482D03*
X248594Y56482D03*
X242689Y56482D03*
X74894Y136118D03*
X80800Y136118D03*
X86706Y136118D03*
X92611Y136118D03*
X98517Y136118D03*
X104422Y136118D03*
X260206Y77882D03*
X254300Y77882D03*
X248394Y77882D03*
X242489Y77882D03*
X94118Y18089D03*
X94118Y23994D03*
X94118Y29900D03*
X94118Y35806D03*
G54D13*
X112800Y127100D03*
X143800Y130900D03*
X80100Y114300D03*
X115200Y114200D03*
X104800Y71800D03*
X135300Y71100D03*
X71300Y93000D03*
X180600Y92800D03*
X65400Y132600D03*
X73297Y69697D03*
X72000Y146000D03*
X90067Y81667D03*
X87900Y79800D03*
X119300Y73300D03*
X133400Y73500D03*
X92000Y70000D03*
X146600Y65700D03*
X85700Y71500D03*
X84600Y77300D03*
X135700Y77000D03*
X104300Y101200D03*
X168900Y101100D03*
X166800Y42200D03*
X134900Y51700D03*
X131600Y83000D03*
X220917Y106683D03*
X213900Y109200D03*
X217600Y147500D03*
X123000Y50000D03*
X123000Y81600D03*
X151500Y114000D03*
X109400Y98600D03*
X234200Y98600D03*
X95500Y109000D03*
X242500Y109400D03*
X198800Y63600D03*
X224000Y61400D03*
X195700Y75000D03*
X227000Y53300D03*
X154100Y81400D03*
X154300Y77200D03*
X164700Y48500D03*
X176700Y102300D03*
X180300Y54500D03*
X178764Y100636D03*
X182900Y50100D03*
X75500Y95500D03*
X194300Y121800D03*
X80900Y95900D03*
X116900Y135100D03*
X84000Y101600D03*
X228400Y137500D03*
X83600Y69500D03*
X166100Y138400D03*
X108900Y68900D03*
X268000Y73000D03*
X180800Y126500D03*
X200700Y123600D03*
X208700Y123600D03*
X63500Y43800D03*
X195300Y65500D03*
X182600Y42300D03*
X157700Y49800D03*
X192200Y30300D03*
X179200Y20800D03*
X158600Y28700D03*
X222700Y88000D03*
X92200Y122200D03*
X243200Y136700D03*
X92818Y83582D03*
X75082Y83582D03*
X93100Y99200D03*
X63200Y99200D03*
X205900Y82700D03*
X173200Y85000D03*
X216200Y148900D03*
X227000Y75000D03*
X224000Y65700D03*
X77200Y69500D03*
X111500Y86000D03*
X80400Y121700D03*
X59400Y87500D03*
X103700Y77700D03*
X120200Y125300D03*
X35000Y82000D03*
X115000Y75900D03*
X244800Y152300D03*
X255100Y152500D03*
X235200Y137700D03*
X237000Y137700D03*
X230300Y151900D03*
X182000Y83000D03*
X163900Y118500D03*
X130200Y96000D03*
X147800Y86900D03*
X165100Y69200D03*
X172800Y103000D03*
X159700Y20900D03*
X126400Y88000D03*
X170000Y48300D03*
X200500Y84000D03*
X174100Y122800D03*
X234300Y103100D03*
X191500Y46100D03*
X139300Y151700D03*
X207400Y29300D03*
X229700Y41000D03*
X218600Y61400D03*
X210600Y48900D03*
X116700Y49400D03*
X108800Y33000D03*
X122100Y26000D03*
X125800Y45500D03*
X209300Y131900D03*
X209200Y129900D03*
X214300Y118400D03*
X240000Y119200D03*
X240000Y117300D03*
X248700Y118300D03*
X127200Y10000D03*
X207300Y149900D03*
X217300Y141400D03*
X262600Y97100D03*
X53000Y146200D03*
X216700Y98800D03*
G54D14*
X17917Y20700D03*
X17917Y40700D03*
X17917Y30700D03*
X17917Y10700D03*
X7917Y20700D03*
X7917Y30700D03*
X7917Y10700D03*
X27917Y40700D03*
X27917Y30700D03*
X27917Y20700D03*
X27917Y10700D03*
X17917Y74644D03*
X17917Y94644D03*
X17917Y84644D03*
X17917Y64644D03*
X7917Y74644D03*
X7917Y84644D03*
X7917Y64644D03*
X27917Y94644D03*
X27917Y84644D03*
X27917Y74644D03*
X27917Y64644D03*
X17917Y128588D03*
X17917Y148588D03*
X17917Y138588D03*
X17917Y118588D03*
X7917Y128588D03*
X7917Y138588D03*
X7917Y118588D03*
X27917Y148588D03*
X27917Y138588D03*
X27917Y128588D03*
X27917Y118588D03*
G54D15*
X7917Y40700D03*
X7917Y94644D03*
X7917Y148588D03*
G54D16*
X6876Y39659D02*
X8958Y39659D01*
X8958Y41741D01*
X6876Y41741D01*
X6876Y39659D01*D02*
X6876Y93603D02*
X8958Y93603D01*
X8958Y95685D01*
X6876Y95685D01*
X6876Y93603D01*D02*
X6876Y147547D02*
X8958Y147547D01*
X8958Y149629D01*
X6876Y149629D01*
X6876Y147547D01*D02*

M02*
