G04 Generated by Ultiboard 14.1 *
%FSLAX26Y26*%
%MOIN*%

%ADD10C,0.000001*%
%ADD11C,0.010000*%
%ADD12C,0.017717*%
%ADD13C,0.041559*%
%ADD14C,0.063340*%
%ADD15R,0.020830X0.020830*%
%ADD16C,0.039170*%


G04 ColorRGB CCFFCC for the following layer *
%LNCopper Inner 1*%
%LPD*%
G54D10*
G36*
X1568054Y1543307D02*
X1568054Y1543307D01*
X1568054Y1561867D01*
X2742969Y1561867D01*
X2742969Y12936D01*
X12936Y12936D01*
X12936Y1561867D01*
X670473Y1561867D01*
G75*
D01*
G03X687527Y1561867I8527J-44867*
G01*
X687527Y1561867D01*
X770473Y1561867D01*
G75*
D01*
G03X787527Y1561867I8527J-44867*
G01*
X787527Y1561867D01*
X970473Y1561867D01*
G75*
D01*
G03X987527Y1561867I8527J-44867*
G01*
X987527Y1561867D01*
X1305961Y1561867D01*
X1305961Y1543307D01*
G75*
D01*
G03X1318898Y1530371I12937J0*
G01*
X1318898Y1530371D01*
X1555118Y1530371D01*
G75*
D01*
G03X1568054Y1543307I0J12936*
G01*
D02*
G37*
%LPC*%
G36*
X222476Y931946D02*
G75*
D01*
G03X222476Y931946I-43309J14493*
G01*
D02*
G37*
G36*
X322476Y931946D02*
G75*
D01*
G03X322476Y931946I-43309J14493*
G01*
D02*
G37*
G36*
X731758Y931946D02*
G75*
D01*
G03X731758Y931946I-18758J-1946*
G01*
D02*
G37*
G36*
X931946Y1010835D02*
G75*
D01*
G03X931946Y1010835I-946J-18835*
G01*
D02*
G37*
G36*
X931946Y1238022D02*
G75*
D01*
G03X931946Y1238022I-9946J-16022*
G01*
D02*
G37*
G36*
X955638Y1381387D02*
G75*
D01*
G03X896583Y1381387I-29528J-20206*
G01*
G75*
D01*
G03X837528Y1381387I-29528J-20206*
G01*
G75*
D01*
G03X778472Y1381387I-29528J-20206*
G01*
G75*
D01*
G03X778472Y1340975I-29527J-20206*
G01*
G75*
D01*
G03X837528Y1340975I29528J20206*
G01*
G75*
D01*
G03X896583Y1340975I29527J20206*
G01*
G75*
D01*
G03X955638Y1340975I29527J20206*
G01*
G75*
D01*
G03X1014693Y1340975I29527J20206*
G01*
G74*
D01*
G03X1031533Y1327727I29527J20206*
G01*
X1031533Y1327727D01*
X1031533Y1348493D01*
X1018620Y1348493D01*
G75*
D01*
G03X1018620Y1373869I-33455J12688*
G01*
X1018620Y1373869D01*
X1031533Y1373869D01*
X1031533Y1394635D01*
G74*
D01*
G03X1014693Y1381387I12687J33454*
G01*
G75*
D01*
G03X955638Y1381387I-29528J-20206*
G01*
D02*
G37*
G36*
X92339Y931946D02*
G75*
D01*
G03X92339Y931946I-13172J14493*
G01*
D02*
G37*
G36*
X1824441Y931946D02*
G75*
D01*
G03X1824441Y931946I-18441J-3946*
G01*
D02*
G37*
G36*
X961387Y328528D02*
G75*
D01*
G03X920975Y328528I-20206J29527*
G01*
G75*
D01*
G03X920975Y269472I20206J-29528*
G01*
G75*
D01*
G03X920975Y210417I20206J-29527*
G01*
G74*
D01*
G03X907727Y193577I20206J29527*
G01*
X907727Y193577D01*
X928493Y193577D01*
X928493Y206490D01*
G75*
D01*
G03X953869Y206490I12688J33455*
G01*
X953869Y206490D01*
X953869Y193577D01*
X974635Y193577D01*
G74*
D01*
G03X961387Y210417I33454J12687*
G01*
G75*
D01*
G03X961387Y269472I-20206J29528*
G01*
G75*
D01*
G03X961387Y328528I-20206J29528*
G01*
D02*
G37*
G36*
X931946Y714592D02*
G75*
D01*
G03X931946Y714592I-11946J-14592*
G01*
D02*
G37*
G36*
X919359Y819152D02*
G75*
D01*
G03X909487Y833332I8822J16667*
G01*
G75*
D01*
G03X881807Y816648I-8822J-16667*
G01*
G75*
D01*
G03X897858Y798017I-2807J-18648*
G01*
G75*
D01*
G03X919359Y819152I2807J18648*
G01*
D02*
G37*
G36*
X931946Y191116D02*
G75*
D01*
G03X931946Y191116I9235J-10226*
G01*
D02*
G37*
G36*
X2547063Y1525000D02*
G75*
D01*
G03X2547063Y1525000I3937J0*
G01*
D02*
G37*
G36*
X2533367Y1531687D02*
X2533367Y1531687D01*
X2544313Y1531687D01*
X2544313Y1542633D01*
G74*
D01*
G03X2533367Y1531687I6687J17633*
G01*
D02*
G37*
G36*
X2557687Y1542633D02*
X2557687Y1542633D01*
X2557687Y1531687D01*
X2568633Y1531687D01*
G74*
D01*
G03X2557687Y1542633I17633J6687*
G01*
D02*
G37*
G36*
X2568633Y1518313D02*
X2568633Y1518313D01*
X2557687Y1518313D01*
X2557687Y1507367D01*
G74*
D01*
G03X2568633Y1518313I6687J17633*
G01*
D02*
G37*
G36*
X2454687Y1540633D02*
X2454687Y1540633D01*
X2454687Y1529687D01*
X2465633Y1529687D01*
G74*
D01*
G03X2454687Y1540633I17633J6687*
G01*
D02*
G37*
G36*
X2465633Y1516313D02*
X2465633Y1516313D01*
X2454687Y1516313D01*
X2454687Y1505367D01*
G74*
D01*
G03X2465633Y1516313I6687J17633*
G01*
D02*
G37*
G36*
X2444063Y1523000D02*
G75*
D01*
G03X2444063Y1523000I3937J0*
G01*
D02*
G37*
G36*
X2430367Y1529687D02*
X2430367Y1529687D01*
X2441313Y1529687D01*
X2441313Y1540633D01*
G74*
D01*
G03X2430367Y1529687I6687J17633*
G01*
D02*
G37*
G36*
X2441313Y1505367D02*
X2441313Y1505367D01*
X2441313Y1516313D01*
X2430367Y1516313D01*
G74*
D01*
G03X2441313Y1505367I17633J6687*
G01*
D02*
G37*
G36*
X2285367Y1525687D02*
X2285367Y1525687D01*
X2296313Y1525687D01*
X2296313Y1536633D01*
G74*
D01*
G03X2285367Y1525687I6687J17633*
G01*
D02*
G37*
G36*
X2309687Y1536633D02*
X2309687Y1536633D01*
X2309687Y1525687D01*
X2320633Y1525687D01*
G74*
D01*
G03X2309687Y1536633I17633J6687*
G01*
D02*
G37*
G36*
X2320633Y1512313D02*
X2320633Y1512313D01*
X2309687Y1512313D01*
X2309687Y1501367D01*
G74*
D01*
G03X2320633Y1512313I6687J17633*
G01*
D02*
G37*
G36*
X2296313Y1501367D02*
X2296313Y1501367D01*
X2296313Y1512313D01*
X2285367Y1512313D01*
G74*
D01*
G03X2296313Y1501367I17633J6687*
G01*
D02*
G37*
G36*
X2299063Y1519000D02*
G75*
D01*
G03X2299063Y1519000I3937J0*
G01*
D02*
G37*
G36*
X2055367Y1505687D02*
X2055367Y1505687D01*
X2066313Y1505687D01*
X2066313Y1516633D01*
G74*
D01*
G03X2055367Y1505687I6687J17633*
G01*
D02*
G37*
G36*
X2079687Y1516633D02*
X2079687Y1516633D01*
X2079687Y1505687D01*
X2090633Y1505687D01*
G74*
D01*
G03X2079687Y1516633I17633J6687*
G01*
D02*
G37*
G36*
X2303500Y1491291D02*
G75*
D01*
G03X2303500Y1458709I-9500J-16291*
G01*
G75*
D01*
G03X2303500Y1491291I9500J16291*
G01*
D02*
G37*
G36*
X2155367Y1420687D02*
X2155367Y1420687D01*
X2166313Y1420687D01*
X2166313Y1431633D01*
G74*
D01*
G03X2155367Y1420687I6687J17633*
G01*
D02*
G37*
G36*
X2179687Y1431633D02*
X2179687Y1431633D01*
X2179687Y1420687D01*
X2190633Y1420687D01*
G74*
D01*
G03X2179687Y1431633I17633J6687*
G01*
D02*
G37*
G36*
X2090633Y1492313D02*
X2090633Y1492313D01*
X2079687Y1492313D01*
X2079687Y1481367D01*
G74*
D01*
G03X2090633Y1492313I6687J17633*
G01*
D02*
G37*
G36*
X2066313Y1481367D02*
X2066313Y1481367D01*
X2066313Y1492313D01*
X2055367Y1492313D01*
G74*
D01*
G03X2066313Y1481367I17633J6687*
G01*
D02*
G37*
G36*
X2069063Y1499000D02*
G75*
D01*
G03X2069063Y1499000I3937J0*
G01*
D02*
G37*
G36*
X2376687Y1394633D02*
X2376687Y1394633D01*
X2376687Y1383687D01*
X2387633Y1383687D01*
G74*
D01*
G03X2376687Y1394633I17633J6687*
G01*
D02*
G37*
G36*
X2387633Y1370313D02*
X2387633Y1370313D01*
X2376687Y1370313D01*
X2376687Y1359367D01*
G74*
D01*
G03X2387633Y1370313I6687J17633*
G01*
D02*
G37*
G36*
X2366063Y1377000D02*
G75*
D01*
G03X2366063Y1377000I3937J0*
G01*
D02*
G37*
G36*
X2413142Y1367000D02*
G75*
D01*
G03X2413142Y1367000I18858J0*
G01*
D02*
G37*
G36*
X2334367Y1383687D02*
X2334367Y1383687D01*
X2345313Y1383687D01*
X2345313Y1394633D01*
G74*
D01*
G03X2334367Y1383687I6687J17633*
G01*
D02*
G37*
G36*
X2345313Y1359367D02*
X2345313Y1359367D01*
X2345313Y1370313D01*
X2334367Y1370313D01*
G74*
D01*
G03X2345313Y1359367I17633J6687*
G01*
D02*
G37*
G36*
X2348063Y1377000D02*
G75*
D01*
G03X2348063Y1377000I3937J0*
G01*
D02*
G37*
G36*
X2358687Y1392088D02*
G74*
D01*
G03X2352367Y1383687I11313J15088*
G01*
X2352367Y1383687D01*
X2369633Y1383687D01*
G74*
D01*
G03X2363313Y1392088I17633J6687*
G01*
X2363313Y1392088D01*
X2363313Y1394633D01*
G74*
D01*
G03X2361000Y1393572I6687J17633*
G01*
G74*
D01*
G03X2358687Y1394633I9000J16572*
G01*
X2358687Y1394633D01*
X2358687Y1392088D01*
D02*
G37*
G36*
X2369633Y1370313D02*
X2369633Y1370313D01*
X2352367Y1370313D01*
G74*
D01*
G03X2358687Y1361912I17633J6687*
G01*
X2358687Y1361912D01*
X2358687Y1359367D01*
G74*
D01*
G03X2361000Y1360428I6687J17633*
G01*
G74*
D01*
G03X2363313Y1359367I9000J16572*
G01*
X2363313Y1359367D01*
X2363313Y1361912D01*
G74*
D01*
G03X2369633Y1370313I11313J15088*
G01*
D02*
G37*
G36*
X2265142Y1375000D02*
G75*
D01*
G03X2265142Y1375000I18858J0*
G01*
D02*
G37*
G36*
X2190633Y1407313D02*
X2190633Y1407313D01*
X2179687Y1407313D01*
X2179687Y1396367D01*
G74*
D01*
G03X2190633Y1407313I6687J17633*
G01*
D02*
G37*
G36*
X2166313Y1396367D02*
X2166313Y1396367D01*
X2166313Y1407313D01*
X2155367Y1407313D01*
G74*
D01*
G03X2166313Y1396367I17633J6687*
G01*
D02*
G37*
G36*
X2169063Y1414000D02*
G75*
D01*
G03X2169063Y1414000I3937J0*
G01*
D02*
G37*
G36*
X2075367Y1325687D02*
X2075367Y1325687D01*
X2086313Y1325687D01*
X2086313Y1336633D01*
G74*
D01*
G03X2075367Y1325687I6687J17633*
G01*
D02*
G37*
G36*
X2099687Y1336633D02*
X2099687Y1336633D01*
X2099687Y1325687D01*
X2110633Y1325687D01*
G74*
D01*
G03X2099687Y1336633I17633J6687*
G01*
D02*
G37*
G36*
X2089063Y1319000D02*
G75*
D01*
G03X2089063Y1319000I3937J0*
G01*
D02*
G37*
G36*
X2086313Y1301367D02*
X2086313Y1301367D01*
X2086313Y1312313D01*
X2085313Y1312313D01*
X2085313Y1316633D01*
G74*
D01*
G03X2078643Y1312313I6687J17633*
G01*
X2078643Y1312313D01*
X2075367Y1312313D01*
G74*
D01*
G03X2076539Y1309798I17633J6687*
G01*
G74*
D01*
G03X2074367Y1305687I15461J10798*
G01*
X2074367Y1305687D01*
X2079643Y1305687D01*
G74*
D01*
G03X2086313Y1301367I13357J13313*
G01*
D02*
G37*
G36*
X2105357Y1312313D02*
G74*
D01*
G03X2098687Y1316633I13357J13313*
G01*
X2098687Y1316633D01*
X2098687Y1305687D01*
X2099687Y1305687D01*
X2099687Y1301367D01*
G74*
D01*
G03X2106357Y1305687I6687J17633*
G01*
X2106357Y1305687D01*
X2109633Y1305687D01*
G74*
D01*
G03X2108461Y1308202I17633J6687*
G01*
G74*
D01*
G03X2110633Y1312313I15461J10798*
G01*
X2110633Y1312313D01*
X2105357Y1312313D01*
D02*
G37*
G36*
X2109633Y1292313D02*
X2109633Y1292313D01*
X2098687Y1292313D01*
X2098687Y1281367D01*
G74*
D01*
G03X2109633Y1292313I6687J17633*
G01*
D02*
G37*
G36*
X2085313Y1281367D02*
X2085313Y1281367D01*
X2085313Y1292313D01*
X2074367Y1292313D01*
G74*
D01*
G03X2085313Y1281367I17633J6687*
G01*
D02*
G37*
G36*
X2088063Y1299000D02*
G75*
D01*
G03X2088063Y1299000I3937J0*
G01*
D02*
G37*
G36*
X2469367Y1189687D02*
X2469367Y1189687D01*
X2480313Y1189687D01*
X2480313Y1200633D01*
G74*
D01*
G03X2469367Y1189687I6687J17633*
G01*
D02*
G37*
G36*
X2493687Y1200633D02*
X2493687Y1200633D01*
X2493687Y1189687D01*
X2504633Y1189687D01*
G74*
D01*
G03X2493687Y1200633I17633J6687*
G01*
D02*
G37*
G36*
X2382367Y1198687D02*
X2382367Y1198687D01*
X2393313Y1198687D01*
X2393313Y1209633D01*
G74*
D01*
G03X2382367Y1198687I6687J17633*
G01*
D02*
G37*
G36*
X2406687Y1209633D02*
X2406687Y1209633D01*
X2406687Y1198687D01*
X2417633Y1198687D01*
G74*
D01*
G03X2406687Y1209633I17633J6687*
G01*
D02*
G37*
G36*
X2396063Y1192000D02*
G75*
D01*
G03X2396063Y1192000I3937J0*
G01*
D02*
G37*
G36*
X2149687Y1201633D02*
X2149687Y1201633D01*
X2149687Y1190687D01*
X2160633Y1190687D01*
G74*
D01*
G03X2149687Y1201633I17633J6687*
G01*
D02*
G37*
G36*
X2068142Y1236000D02*
G75*
D01*
G03X2068142Y1236000I18858J0*
G01*
D02*
G37*
G36*
X2125367Y1190687D02*
X2125367Y1190687D01*
X2136313Y1190687D01*
X2136313Y1201633D01*
G74*
D01*
G03X2125367Y1190687I6687J17633*
G01*
D02*
G37*
G36*
X1988142Y1236000D02*
G75*
D01*
G03X1988142Y1236000I18858J0*
G01*
D02*
G37*
G36*
X1924142Y1218000D02*
G75*
D01*
G03X1924142Y1218000I18858J0*
G01*
D02*
G37*
G36*
X2608975Y1454528D02*
G75*
D01*
G03X2608975Y1395472I20206J-29528*
G01*
G75*
D01*
G03X2608975Y1336417I20206J-29527*
G01*
G75*
D01*
G03X2608975Y1277362I20206J-29527*
G01*
G74*
D01*
G03X2595727Y1260522I20206J29527*
G01*
X2595727Y1260522D01*
X2616493Y1260522D01*
X2616493Y1273435D01*
G75*
D01*
G03X2641869Y1273435I12688J33455*
G01*
X2641869Y1273435D01*
X2641869Y1260522D01*
X2662635Y1260522D01*
G74*
D01*
G03X2649387Y1277362I33454J12687*
G01*
G75*
D01*
G03X2649387Y1336417I-20206J29528*
G01*
G75*
D01*
G03X2649387Y1395472I-20206J29528*
G01*
G75*
D01*
G03X2649387Y1454528I-20206J29528*
G01*
G75*
D01*
G03X2608975Y1454528I-20206J29527*
G01*
D02*
G37*
G36*
X2662635Y1235147D02*
X2662635Y1235147D01*
X2641869Y1235147D01*
X2641869Y1201467D01*
X2662635Y1201467D01*
G74*
D01*
G03X2649387Y1218307I33454J12687*
G01*
G74*
D01*
G03X2662635Y1235147I20206J29528*
G01*
D02*
G37*
G36*
X2615402Y1247835D02*
G75*
D01*
G03X2615402Y1247835I13779J0*
G01*
D02*
G37*
G36*
X2595727Y1201467D02*
X2595727Y1201467D01*
X2616493Y1201467D01*
X2616493Y1235147D01*
X2595727Y1235147D01*
G74*
D01*
G03X2608975Y1218307I33454J12688*
G01*
G74*
D01*
G03X2595727Y1201467I20206J29527*
G01*
D02*
G37*
G36*
X2662635Y1176092D02*
X2662635Y1176092D01*
X2641869Y1176092D01*
X2641869Y1155325D01*
G74*
D01*
G03X2662635Y1176092I12688J33455*
G01*
D02*
G37*
G36*
X2615402Y1188780D02*
G75*
D01*
G03X2615402Y1188780I13779J0*
G01*
D02*
G37*
G36*
X2616493Y1155325D02*
X2616493Y1155325D01*
X2616493Y1176092D01*
X2595727Y1176092D01*
G74*
D01*
G03X2616493Y1155325I33454J12688*
G01*
D02*
G37*
G36*
X2504633Y1176313D02*
X2504633Y1176313D01*
X2493687Y1176313D01*
X2493687Y1165367D01*
G74*
D01*
G03X2504633Y1176313I6687J17633*
G01*
D02*
G37*
G36*
X2480313Y1165367D02*
X2480313Y1165367D01*
X2480313Y1176313D01*
X2469367Y1176313D01*
G74*
D01*
G03X2480313Y1165367I17633J6687*
G01*
D02*
G37*
G36*
X2483063Y1183000D02*
G75*
D01*
G03X2483063Y1183000I3937J0*
G01*
D02*
G37*
G36*
X2417633Y1166313D02*
X2417633Y1166313D01*
X2406687Y1166313D01*
X2406687Y1155367D01*
G74*
D01*
G03X2417633Y1166313I6687J17633*
G01*
D02*
G37*
G36*
X2393313Y1155367D02*
X2393313Y1155367D01*
X2393313Y1166313D01*
X2382367Y1166313D01*
G74*
D01*
G03X2393313Y1155367I17633J6687*
G01*
D02*
G37*
G36*
X2396063Y1173000D02*
G75*
D01*
G03X2396063Y1173000I3937J0*
G01*
D02*
G37*
G36*
X2393313Y1174367D02*
X2393313Y1174367D01*
X2393313Y1190633D01*
G74*
D01*
G03X2385716Y1185313I6687J17633*
G01*
X2385716Y1185313D01*
X2382367Y1185313D01*
G74*
D01*
G03X2383709Y1182500I17633J6687*
G01*
G74*
D01*
G03X2382367Y1179687I16291J9500*
G01*
X2382367Y1179687D01*
X2385716Y1179687D01*
G74*
D01*
G03X2393313Y1174367I14284J12313*
G01*
D02*
G37*
G36*
X2414284Y1185313D02*
G74*
D01*
G03X2406687Y1190633I14284J12313*
G01*
X2406687Y1190633D01*
X2406687Y1174367D01*
G74*
D01*
G03X2414284Y1179687I6687J17633*
G01*
X2414284Y1179687D01*
X2417633Y1179687D01*
G74*
D01*
G03X2416291Y1182500I17633J6687*
G01*
G74*
D01*
G03X2417633Y1185313I16291J9500*
G01*
X2417633Y1185313D01*
X2414284Y1185313D01*
D02*
G37*
G36*
X2160633Y1177313D02*
X2160633Y1177313D01*
X2149687Y1177313D01*
X2149687Y1166367D01*
G74*
D01*
G03X2160633Y1177313I6687J17633*
G01*
D02*
G37*
G36*
X2139063Y1184000D02*
G75*
D01*
G03X2139063Y1184000I3937J0*
G01*
D02*
G37*
G36*
X2136313Y1166367D02*
X2136313Y1166367D01*
X2136313Y1177313D01*
X2125367Y1177313D01*
G74*
D01*
G03X2136313Y1166367I17633J6687*
G01*
D02*
G37*
G36*
X2530367Y1049687D02*
X2530367Y1049687D01*
X2541313Y1049687D01*
X2541313Y1060633D01*
G74*
D01*
G03X2530367Y1049687I6687J17633*
G01*
D02*
G37*
G36*
X2554687Y1060633D02*
X2554687Y1060633D01*
X2554687Y1049687D01*
X2565633Y1049687D01*
G74*
D01*
G03X2554687Y1060633I17633J6687*
G01*
D02*
G37*
G36*
X2565633Y1036313D02*
X2565633Y1036313D01*
X2554687Y1036313D01*
X2554687Y1025367D01*
G74*
D01*
G03X2565633Y1036313I6687J17633*
G01*
D02*
G37*
G36*
X2541313Y1025367D02*
X2541313Y1025367D01*
X2541313Y1036313D01*
X2530367Y1036313D01*
G74*
D01*
G03X2541313Y1025367I17633J6687*
G01*
D02*
G37*
G36*
X2544063Y1043000D02*
G75*
D01*
G03X2544063Y1043000I3937J0*
G01*
D02*
G37*
G36*
X2406142Y1094000D02*
G75*
D01*
G03X2406142Y1094000I18858J0*
G01*
D02*
G37*
G36*
X2325367Y1037687D02*
X2325367Y1037687D01*
X2336313Y1037687D01*
X2336313Y1048633D01*
G74*
D01*
G03X2325367Y1037687I6687J17633*
G01*
D02*
G37*
G36*
X2349687Y1048633D02*
X2349687Y1048633D01*
X2349687Y1037687D01*
X2360633Y1037687D01*
G74*
D01*
G03X2349687Y1048633I17633J6687*
G01*
D02*
G37*
G36*
X2339063Y1031000D02*
G75*
D01*
G03X2339063Y1031000I3937J0*
G01*
D02*
G37*
G36*
X2190307Y1066835D02*
G75*
D01*
G03X2190307Y1066835I18858J0*
G01*
D02*
G37*
G36*
X2120142Y1092000D02*
G75*
D01*
G03X2120142Y1092000I18858J0*
G01*
D02*
G37*
G36*
X2323142Y986000D02*
G75*
D01*
G03X2323142Y986000I18858J0*
G01*
D02*
G37*
G36*
X2360633Y1024313D02*
X2360633Y1024313D01*
X2349687Y1024313D01*
X2349687Y1013367D01*
G74*
D01*
G03X2360633Y1024313I6687J17633*
G01*
D02*
G37*
G36*
X2336313Y1013367D02*
X2336313Y1013367D01*
X2336313Y1024313D01*
X2325367Y1024313D01*
G74*
D01*
G03X2336313Y1013367I17633J6687*
G01*
D02*
G37*
G36*
X2149367Y994687D02*
X2149367Y994687D01*
X2160313Y994687D01*
X2160313Y1005633D01*
G74*
D01*
G03X2149367Y994687I6687J17633*
G01*
D02*
G37*
G36*
X2173687Y1005633D02*
X2173687Y1005633D01*
X2173687Y994687D01*
X2184633Y994687D01*
G74*
D01*
G03X2173687Y1005633I17633J6687*
G01*
D02*
G37*
G36*
X2184633Y981313D02*
X2184633Y981313D01*
X2173687Y981313D01*
X2173687Y970367D01*
G74*
D01*
G03X2184633Y981313I6687J17633*
G01*
D02*
G37*
G36*
X2160313Y970367D02*
X2160313Y970367D01*
X2160313Y981313D01*
X2149367Y981313D01*
G74*
D01*
G03X2160313Y970367I17633J6687*
G01*
D02*
G37*
G36*
X2163063Y988000D02*
G75*
D01*
G03X2163063Y988000I3937J0*
G01*
D02*
G37*
G36*
X2544313Y1507367D02*
X2544313Y1507367D01*
X2544313Y1518313D01*
X2533367Y1518313D01*
G74*
D01*
G03X2544313Y1507367I17633J6687*
G01*
D02*
G37*
G36*
X895195Y1559702D02*
X895195Y1559702D01*
X895195Y1533195D01*
X921702Y1533195D01*
G74*
D01*
G03X895195Y1559702I42702J16195*
G01*
D02*
G37*
G36*
X921702Y1500805D02*
X921702Y1500805D01*
X895195Y1500805D01*
X895195Y1474298D01*
G74*
D01*
G03X921702Y1500805I16195J42702*
G01*
D02*
G37*
G36*
X512367Y1468687D02*
X512367Y1468687D01*
X523313Y1468687D01*
X523313Y1479633D01*
G74*
D01*
G03X512367Y1468687I6687J17633*
G01*
D02*
G37*
G36*
X536687Y1479633D02*
X536687Y1479633D01*
X536687Y1468687D01*
X547633Y1468687D01*
G74*
D01*
G03X536687Y1479633I17633J6687*
G01*
D02*
G37*
G36*
X547633Y1455313D02*
X547633Y1455313D01*
X536687Y1455313D01*
X536687Y1444367D01*
G74*
D01*
G03X547633Y1455313I6687J17633*
G01*
D02*
G37*
G36*
X523313Y1444367D02*
X523313Y1444367D01*
X523313Y1455313D01*
X512367Y1455313D01*
G74*
D01*
G03X523313Y1444367I17633J6687*
G01*
D02*
G37*
G36*
X526063Y1462000D02*
G75*
D01*
G03X526063Y1462000I3937J0*
G01*
D02*
G37*
G36*
X233497Y1485878D02*
G75*
D01*
G03X233497Y1485878I45670J0*
G01*
D02*
G37*
G36*
X133497Y1485878D02*
G75*
D01*
G03X133497Y1485878I45670J0*
G01*
D02*
G37*
G36*
X122919Y1501538D02*
G74*
D01*
G03X94827Y1529630I33337J5245*
G01*
X94827Y1529630D01*
X94827Y1501538D01*
X122919Y1501538D01*
D02*
G37*
G36*
X63506Y1529630D02*
G74*
D01*
G03X35414Y1501538I5246J33337*
G01*
X35414Y1501538D01*
X63506Y1501538D01*
X63506Y1529630D01*
D02*
G37*
G36*
X94827Y1442125D02*
G74*
D01*
G03X122919Y1470217I5245J33338*
G01*
X122919Y1470217D01*
X94827Y1470217D01*
X94827Y1442125D01*
D02*
G37*
G36*
X35414Y1470217D02*
G74*
D01*
G03X63506Y1442125I33338J5246*
G01*
X63506Y1442125D01*
X63506Y1470217D01*
X35414Y1470217D01*
D02*
G37*
G36*
X59582Y1485878D02*
G75*
D01*
G03X59582Y1485878I19585J0*
G01*
D02*
G37*
G36*
X233497Y1385878D02*
G75*
D01*
G03X233497Y1385878I45670J0*
G01*
D02*
G37*
G36*
X133497Y1385878D02*
G75*
D01*
G03X133497Y1385878I45670J0*
G01*
D02*
G37*
G36*
X121869Y1369683D02*
X121869Y1369683D01*
X95362Y1369683D01*
X95362Y1343176D01*
G74*
D01*
G03X121869Y1369683I16195J42702*
G01*
D02*
G37*
G36*
X95362Y1428580D02*
X95362Y1428580D01*
X95362Y1402073D01*
X121869Y1402073D01*
G74*
D01*
G03X95362Y1428580I42702J16195*
G01*
D02*
G37*
G36*
X62972Y1343176D02*
X62972Y1343176D01*
X62972Y1369683D01*
X36464Y1369683D01*
G74*
D01*
G03X62972Y1343176I42703J16195*
G01*
D02*
G37*
G36*
X36464Y1402073D02*
X36464Y1402073D01*
X62972Y1402073D01*
X62972Y1428580D01*
G74*
D01*
G03X36464Y1402073I16195J42702*
G01*
D02*
G37*
G36*
X61667Y1385878D02*
G75*
D01*
G03X61667Y1385878I17500J0*
G01*
D02*
G37*
G36*
X701142Y1460000D02*
G75*
D01*
G03X701142Y1460000I18858J0*
G01*
D02*
G37*
G36*
X635142Y1326000D02*
G75*
D01*
G03X635142Y1326000I18858J0*
G01*
D02*
G37*
G36*
X810687Y1234633D02*
X810687Y1234633D01*
X810687Y1223687D01*
X821633Y1223687D01*
G74*
D01*
G03X810687Y1234633I17633J6687*
G01*
D02*
G37*
G36*
X821633Y1210313D02*
X821633Y1210313D01*
X810687Y1210313D01*
X810687Y1199367D01*
G74*
D01*
G03X821633Y1210313I6687J17633*
G01*
D02*
G37*
G36*
X800063Y1217000D02*
G75*
D01*
G03X800063Y1217000I3937J0*
G01*
D02*
G37*
G36*
X786367Y1223687D02*
X786367Y1223687D01*
X797313Y1223687D01*
X797313Y1234633D01*
G74*
D01*
G03X786367Y1223687I6687J17633*
G01*
D02*
G37*
G36*
X797313Y1199367D02*
X797313Y1199367D01*
X797313Y1210313D01*
X786367Y1210313D01*
G74*
D01*
G03X797313Y1199367I17633J6687*
G01*
D02*
G37*
G36*
X559142Y1225000D02*
G75*
D01*
G03X559142Y1225000I18858J0*
G01*
D02*
G37*
G36*
X233497Y1285878D02*
G75*
D01*
G03X233497Y1285878I45670J0*
G01*
D02*
G37*
G36*
X133497Y1285878D02*
G75*
D01*
G03X133497Y1285878I45670J0*
G01*
D02*
G37*
G36*
X95362Y1328580D02*
X95362Y1328580D01*
X95362Y1302073D01*
X121869Y1302073D01*
G74*
D01*
G03X95362Y1328580I42702J16195*
G01*
D02*
G37*
G36*
X121869Y1269683D02*
X121869Y1269683D01*
X95362Y1269683D01*
X95362Y1243176D01*
G74*
D01*
G03X121869Y1269683I16195J42702*
G01*
D02*
G37*
G36*
X36464Y1302073D02*
X36464Y1302073D01*
X62972Y1302073D01*
X62972Y1328580D01*
G74*
D01*
G03X36464Y1302073I16195J42702*
G01*
D02*
G37*
G36*
X61667Y1285878D02*
G75*
D01*
G03X61667Y1285878I17500J0*
G01*
D02*
G37*
G36*
X62972Y1243176D02*
X62972Y1243176D01*
X62972Y1269683D01*
X36464Y1269683D01*
G74*
D01*
G03X62972Y1243176I42703J16195*
G01*
D02*
G37*
G36*
X782142Y1143000D02*
G75*
D01*
G03X782142Y1143000I18858J0*
G01*
D02*
G37*
G36*
X233497Y1185878D02*
G75*
D01*
G03X233497Y1185878I45670J0*
G01*
D02*
G37*
G36*
X133497Y1185878D02*
G75*
D01*
G03X133497Y1185878I45670J0*
G01*
D02*
G37*
G36*
X95362Y1228580D02*
X95362Y1228580D01*
X95362Y1202073D01*
X121869Y1202073D01*
G74*
D01*
G03X95362Y1228580I42702J16195*
G01*
D02*
G37*
G36*
X36464Y1202073D02*
X36464Y1202073D01*
X62972Y1202073D01*
X62972Y1228580D01*
G74*
D01*
G03X36464Y1202073I16195J42702*
G01*
D02*
G37*
G36*
X121869Y1169683D02*
X121869Y1169683D01*
X95362Y1169683D01*
X95362Y1143176D01*
G74*
D01*
G03X121869Y1169683I16195J42702*
G01*
D02*
G37*
G36*
X62972Y1143176D02*
X62972Y1143176D01*
X62972Y1169683D01*
X36464Y1169683D01*
G74*
D01*
G03X62972Y1143176I42703J16195*
G01*
D02*
G37*
G36*
X61667Y1185878D02*
G75*
D01*
G03X61667Y1185878I17500J0*
G01*
D02*
G37*
G36*
X821142Y1016000D02*
G75*
D01*
G03X821142Y1016000I18858J0*
G01*
D02*
G37*
G36*
X628142Y992000D02*
G75*
D01*
G03X628142Y992000I18858J0*
G01*
D02*
G37*
G36*
X790142Y959000D02*
G75*
D01*
G03X790142Y959000I18858J0*
G01*
D02*
G37*
G36*
X736142Y955000D02*
G75*
D01*
G03X736142Y955000I18858J0*
G01*
D02*
G37*
G36*
X122919Y962099D02*
G74*
D01*
G03X94827Y990191I33337J5245*
G01*
X94827Y990191D01*
X94827Y962099D01*
X122919Y962099D01*
D02*
G37*
G36*
X63506Y990191D02*
G74*
D01*
G03X35414Y962099I5246J33337*
G01*
X35414Y962099D01*
X63506Y962099D01*
X63506Y990191D01*
D02*
G37*
G36*
X862805Y1474298D02*
X862805Y1474298D01*
X862805Y1500805D01*
X836298Y1500805D01*
G74*
D01*
G03X862805Y1474298I42702J16195*
G01*
D02*
G37*
G36*
X861500Y1517000D02*
G75*
D01*
G03X861500Y1517000I17500J0*
G01*
D02*
G37*
G36*
X836298Y1533195D02*
X836298Y1533195D01*
X862805Y1533195D01*
X862805Y1559702D01*
G74*
D01*
G03X836298Y1533195I16195J42702*
G01*
D02*
G37*
G36*
X1123162Y1506585D02*
X1123162Y1506585D01*
X1123162Y1527415D01*
G74*
D01*
G03X1089415Y1561162I33747J0*
G01*
X1089415Y1561162D01*
X1068585Y1561162D01*
G75*
D01*
G03X1034838Y1527415I0J-33747*
G01*
X1034838Y1527415D01*
X1034838Y1506585D01*
G75*
D01*
G03X1068585Y1472838I33747J0*
G01*
X1068585Y1472838D01*
X1089415Y1472838D01*
G75*
D01*
G03X1123162Y1506585I0J33747*
G01*
D02*
G37*
G36*
X1745142Y1438000D02*
G75*
D01*
G03X1745142Y1438000I18858J0*
G01*
D02*
G37*
G36*
X1228063Y1450000D02*
G75*
D01*
G03X1228063Y1450000I3937J0*
G01*
D02*
G37*
G36*
X1225313Y1432367D02*
X1225313Y1432367D01*
X1225313Y1443313D01*
X1214367Y1443313D01*
G74*
D01*
G03X1225313Y1432367I17633J6687*
G01*
D02*
G37*
G36*
X1249633Y1443313D02*
X1249633Y1443313D01*
X1238687Y1443313D01*
X1238687Y1432367D01*
G74*
D01*
G03X1249633Y1443313I6687J17633*
G01*
D02*
G37*
G36*
X1238687Y1467633D02*
X1238687Y1467633D01*
X1238687Y1456687D01*
X1249633Y1456687D01*
G74*
D01*
G03X1238687Y1467633I17633J6687*
G01*
D02*
G37*
G36*
X1214367Y1456687D02*
X1214367Y1456687D01*
X1225313Y1456687D01*
X1225313Y1467633D01*
G74*
D01*
G03X1214367Y1456687I6687J17633*
G01*
D02*
G37*
G36*
X1642142Y1384000D02*
G75*
D01*
G03X1642142Y1384000I18858J0*
G01*
D02*
G37*
G36*
X1056908Y1394635D02*
X1056908Y1394635D01*
X1056908Y1373869D01*
X1077675Y1373869D01*
G74*
D01*
G03X1056908Y1394635I33455J12688*
G01*
D02*
G37*
G36*
X1077675Y1348493D02*
X1077675Y1348493D01*
X1056908Y1348493D01*
X1056908Y1327727D01*
G74*
D01*
G03X1077675Y1348493I12688J33454*
G01*
D02*
G37*
G36*
X1030441Y1361181D02*
G75*
D01*
G03X1030441Y1361181I13779J0*
G01*
D02*
G37*
G36*
X1043142Y1421000D02*
G75*
D01*
G03X1043142Y1421000I18858J0*
G01*
D02*
G37*
G36*
X1419142Y1309000D02*
G75*
D01*
G03X1419142Y1309000I18858J0*
G01*
D02*
G37*
G36*
X1150142Y1351000D02*
G75*
D01*
G03X1150142Y1351000I18858J0*
G01*
D02*
G37*
G36*
X1737063Y1228000D02*
G75*
D01*
G03X1737063Y1228000I3937J0*
G01*
D02*
G37*
G36*
X1758633Y1221313D02*
X1758633Y1221313D01*
X1747687Y1221313D01*
X1747687Y1210367D01*
G74*
D01*
G03X1758633Y1221313I6687J17633*
G01*
D02*
G37*
G36*
X1747687Y1245633D02*
X1747687Y1245633D01*
X1747687Y1234687D01*
X1758633Y1234687D01*
G74*
D01*
G03X1747687Y1245633I17633J6687*
G01*
D02*
G37*
G36*
X1789142Y1265000D02*
G75*
D01*
G03X1789142Y1265000I18858J0*
G01*
D02*
G37*
G36*
X1734313Y1210367D02*
X1734313Y1210367D01*
X1734313Y1221313D01*
X1723367Y1221313D01*
G74*
D01*
G03X1734313Y1210367I17633J6687*
G01*
D02*
G37*
G36*
X1723367Y1234687D02*
X1723367Y1234687D01*
X1734313Y1234687D01*
X1734313Y1245633D01*
G74*
D01*
G03X1723367Y1234687I6687J17633*
G01*
D02*
G37*
G36*
X1621367Y1191687D02*
X1621367Y1191687D01*
X1632313Y1191687D01*
X1632313Y1202633D01*
G74*
D01*
G03X1621367Y1191687I6687J17633*
G01*
D02*
G37*
G36*
X1645687Y1202633D02*
X1645687Y1202633D01*
X1645687Y1191687D01*
X1656633Y1191687D01*
G74*
D01*
G03X1645687Y1202633I17633J6687*
G01*
D02*
G37*
G36*
X1199063Y1241000D02*
G75*
D01*
G03X1199063Y1241000I3937J0*
G01*
D02*
G37*
G36*
X1196313Y1223367D02*
X1196313Y1223367D01*
X1196313Y1234313D01*
X1185367Y1234313D01*
G74*
D01*
G03X1196313Y1223367I17633J6687*
G01*
D02*
G37*
G36*
X1220633Y1234313D02*
X1220633Y1234313D01*
X1209687Y1234313D01*
X1209687Y1223367D01*
G74*
D01*
G03X1220633Y1234313I6687J17633*
G01*
D02*
G37*
G36*
X1209687Y1258633D02*
X1209687Y1258633D01*
X1209687Y1247687D01*
X1220633Y1247687D01*
G74*
D01*
G03X1209687Y1258633I17633J6687*
G01*
D02*
G37*
G36*
X1185367Y1247687D02*
X1185367Y1247687D01*
X1196313Y1247687D01*
X1196313Y1258633D01*
G74*
D01*
G03X1185367Y1247687I6687J17633*
G01*
D02*
G37*
G36*
X1109142Y1271000D02*
G75*
D01*
G03X1109142Y1271000I18858J0*
G01*
D02*
G37*
G36*
X1632313Y1167367D02*
X1632313Y1167367D01*
X1632313Y1178313D01*
X1621367Y1178313D01*
G74*
D01*
G03X1632313Y1167367I17633J6687*
G01*
D02*
G37*
G36*
X1635063Y1185000D02*
G75*
D01*
G03X1635063Y1185000I3937J0*
G01*
D02*
G37*
G36*
X1656633Y1178313D02*
X1656633Y1178313D01*
X1645687Y1178313D01*
X1645687Y1167367D01*
G74*
D01*
G03X1656633Y1178313I6687J17633*
G01*
D02*
G37*
G36*
X1496142Y1140000D02*
G75*
D01*
G03X1496142Y1140000I18858J0*
G01*
D02*
G37*
G36*
X1133142Y1142000D02*
G75*
D01*
G03X1133142Y1142000I18858J0*
G01*
D02*
G37*
G36*
X1734687Y1047633D02*
X1734687Y1047633D01*
X1734687Y1036687D01*
X1745633Y1036687D01*
G74*
D01*
G03X1734687Y1047633I17633J6687*
G01*
D02*
G37*
G36*
X1724063Y1030000D02*
G75*
D01*
G03X1724063Y1030000I3937J0*
G01*
D02*
G37*
G36*
X1710367Y1036687D02*
X1710367Y1036687D01*
X1721313Y1036687D01*
X1721313Y1047633D01*
G74*
D01*
G03X1710367Y1036687I6687J17633*
G01*
D02*
G37*
G36*
X936142Y1090000D02*
G75*
D01*
G03X936142Y1090000I18858J0*
G01*
D02*
G37*
G36*
X1745633Y1023313D02*
X1745633Y1023313D01*
X1734687Y1023313D01*
X1734687Y1012367D01*
G74*
D01*
G03X1745633Y1023313I6687J17633*
G01*
D02*
G37*
G36*
X1785738Y1025125D02*
G75*
D01*
G03X1768900Y1004238I-18738J-2125*
G01*
G75*
D01*
G03X1785738Y1025125I18738J2124*
G01*
D02*
G37*
G36*
X1721313Y1012367D02*
X1721313Y1012367D01*
X1721313Y1023313D01*
X1710367Y1023313D01*
G74*
D01*
G03X1721313Y1012367I17633J6687*
G01*
D02*
G37*
G36*
X1670142Y1011000D02*
G75*
D01*
G03X1670142Y1011000I18858J0*
G01*
D02*
G37*
G36*
X1298063Y960000D02*
G75*
D01*
G03X1298063Y960000I3937J0*
G01*
D02*
G37*
G36*
X1308687Y977633D02*
X1308687Y977633D01*
X1308687Y966687D01*
X1319633Y966687D01*
G74*
D01*
G03X1308687Y977633I17633J6687*
G01*
D02*
G37*
G36*
X1284367Y966687D02*
X1284367Y966687D01*
X1295313Y966687D01*
X1295313Y977633D01*
G74*
D01*
G03X1284367Y966687I6687J17633*
G01*
D02*
G37*
G36*
X1075142Y986000D02*
G75*
D01*
G03X1075142Y986000I18858J0*
G01*
D02*
G37*
G36*
X1024142Y1012000D02*
G75*
D01*
G03X1024142Y1012000I18858J0*
G01*
D02*
G37*
G36*
X1295313Y942367D02*
X1295313Y942367D01*
X1295313Y953313D01*
X1284367Y953313D01*
G74*
D01*
G03X1295313Y942367I17633J6687*
G01*
D02*
G37*
G36*
X1319633Y953313D02*
X1319633Y953313D01*
X1308687Y953313D01*
X1308687Y942367D01*
G74*
D01*
G03X1319633Y953313I6687J17633*
G01*
D02*
G37*
G36*
X2391435Y791507D02*
X2391435Y791507D01*
X2412202Y791507D01*
X2412202Y812273D01*
G74*
D01*
G03X2391435Y791507I12688J33454*
G01*
D02*
G37*
G36*
X2208142Y880000D02*
G75*
D01*
G03X2208142Y880000I18858J0*
G01*
D02*
G37*
G36*
X1987367Y846687D02*
X1987367Y846687D01*
X1998313Y846687D01*
X1998313Y857633D01*
G74*
D01*
G03X1987367Y846687I6687J17633*
G01*
D02*
G37*
G36*
X2011687Y857633D02*
X2011687Y857633D01*
X2011687Y846687D01*
X2022633Y846687D01*
G74*
D01*
G03X2011687Y857633I17633J6687*
G01*
D02*
G37*
G36*
X2022633Y833313D02*
X2022633Y833313D01*
X2011687Y833313D01*
X2011687Y822367D01*
G74*
D01*
G03X2022633Y833313I6687J17633*
G01*
D02*
G37*
G36*
X1998313Y822367D02*
X1998313Y822367D01*
X1998313Y833313D01*
X1987367Y833313D01*
G74*
D01*
G03X1998313Y822367I17633J6687*
G01*
D02*
G37*
G36*
X2001063Y840000D02*
G75*
D01*
G03X2001063Y840000I3937J0*
G01*
D02*
G37*
G36*
X2040142Y827000D02*
G75*
D01*
G03X2040142Y827000I18858J0*
G01*
D02*
G37*
G36*
X2661142Y730000D02*
G75*
D01*
G03X2661142Y730000I18858J0*
G01*
D02*
G37*
G36*
X2454417Y799025D02*
G74*
D01*
G03X2437577Y812273I29527J20206*
G01*
X2437577Y812273D01*
X2437577Y791507D01*
X2450490Y791507D01*
G75*
D01*
G03X2450490Y766131I33455J-12688*
G01*
X2450490Y766131D01*
X2437577Y766131D01*
X2437577Y745364D01*
G74*
D01*
G03X2454417Y758612I12687J33455*
G01*
G75*
D01*
G03X2513472Y758612I29528J20207*
G01*
G75*
D01*
G03X2572528Y758612I29528J20207*
G01*
G75*
D01*
G03X2572528Y799025I29527J20207*
G01*
G75*
D01*
G03X2513472Y799025I-29528J-20206*
G01*
G75*
D01*
G03X2454417Y799025I-29527J-20206*
G01*
D02*
G37*
G36*
X2411110Y778819D02*
G75*
D01*
G03X2411110Y778819I13780J0*
G01*
D02*
G37*
G36*
X2412202Y745364D02*
X2412202Y745364D01*
X2412202Y766131D01*
X2391435Y766131D01*
G74*
D01*
G03X2412202Y745364I33455J12688*
G01*
D02*
G37*
G36*
X2251142Y750000D02*
G75*
D01*
G03X2251142Y750000I18858J0*
G01*
D02*
G37*
G36*
X1938142Y750000D02*
G75*
D01*
G03X1938142Y750000I18858J0*
G01*
D02*
G37*
G36*
X2221142Y657000D02*
G75*
D01*
G03X2221142Y657000I18858J0*
G01*
D02*
G37*
G36*
X2221142Y614000D02*
G75*
D01*
G03X2221142Y614000I18858J0*
G01*
D02*
G37*
G36*
X2203633Y607313D02*
X2203633Y607313D01*
X2192687Y607313D01*
X2192687Y596367D01*
G74*
D01*
G03X2203633Y607313I6687J17633*
G01*
D02*
G37*
G36*
X2179313Y596367D02*
X2179313Y596367D01*
X2179313Y607313D01*
X2168367Y607313D01*
G74*
D01*
G03X2179313Y596367I17633J6687*
G01*
D02*
G37*
G36*
X2182063Y614000D02*
G75*
D01*
G03X2182063Y614000I3937J0*
G01*
D02*
G37*
G36*
X2168367Y620687D02*
X2168367Y620687D01*
X2179313Y620687D01*
X2179313Y631633D01*
G74*
D01*
G03X2168367Y620687I6687J17633*
G01*
D02*
G37*
G36*
X2192687Y631633D02*
X2192687Y631633D01*
X2192687Y620687D01*
X2203633Y620687D01*
G74*
D01*
G03X2192687Y631633I17633J6687*
G01*
D02*
G37*
G36*
X1934142Y655000D02*
G75*
D01*
G03X1934142Y655000I18858J0*
G01*
D02*
G37*
G36*
X1969142Y636000D02*
G75*
D01*
G03X1969142Y636000I18858J0*
G01*
D02*
G37*
G36*
X2393435Y577507D02*
X2393435Y577507D01*
X2414202Y577507D01*
X2414202Y598273D01*
G74*
D01*
G03X2393435Y577507I12688J33454*
G01*
D02*
G37*
G36*
X2574528Y544612D02*
G75*
D01*
G03X2574528Y585025I29527J20207*
G01*
G75*
D01*
G03X2515472Y585025I-29528J-20206*
G01*
G75*
D01*
G03X2456417Y585025I-29527J-20206*
G01*
G74*
D01*
G03X2439577Y598273I29527J20206*
G01*
X2439577Y598273D01*
X2439577Y577507D01*
X2452490Y577507D01*
G75*
D01*
G03X2452490Y552131I33455J-12688*
G01*
X2452490Y552131D01*
X2439577Y552131D01*
X2439577Y531364D01*
G74*
D01*
G03X2456417Y544612I12687J33455*
G01*
G75*
D01*
G03X2515472Y544612I29528J20207*
G01*
G75*
D01*
G03X2574528Y544612I29528J20207*
G01*
D02*
G37*
G36*
X2414202Y531364D02*
X2414202Y531364D01*
X2414202Y552131D01*
X2393435Y552131D01*
G74*
D01*
G03X2414202Y531364I33455J12688*
G01*
D02*
G37*
G36*
X2413110Y564819D02*
G75*
D01*
G03X2413110Y564819I13780J0*
G01*
D02*
G37*
G36*
X2251142Y533000D02*
G75*
D01*
G03X2251142Y533000I18858J0*
G01*
D02*
G37*
G36*
X2088367Y495687D02*
X2088367Y495687D01*
X2099313Y495687D01*
X2099313Y506633D01*
G74*
D01*
G03X2088367Y495687I6687J17633*
G01*
D02*
G37*
G36*
X2112687Y506633D02*
X2112687Y506633D01*
X2112687Y495687D01*
X2123633Y495687D01*
G74*
D01*
G03X2112687Y506633I17633J6687*
G01*
D02*
G37*
G36*
X2102063Y489000D02*
G75*
D01*
G03X2102063Y489000I3937J0*
G01*
D02*
G37*
G36*
X2303687Y427633D02*
X2303687Y427633D01*
X2303687Y416687D01*
X2314633Y416687D01*
G74*
D01*
G03X2303687Y427633I17633J6687*
G01*
D02*
G37*
G36*
X2293063Y410000D02*
G75*
D01*
G03X2293063Y410000I3937J0*
G01*
D02*
G37*
G36*
X2279367Y416687D02*
X2279367Y416687D01*
X2290313Y416687D01*
X2290313Y427633D01*
G74*
D01*
G03X2279367Y416687I6687J17633*
G01*
D02*
G37*
G36*
X2123633Y482313D02*
X2123633Y482313D01*
X2112687Y482313D01*
X2112687Y471367D01*
G74*
D01*
G03X2123633Y482313I6687J17633*
G01*
D02*
G37*
G36*
X2099313Y471367D02*
X2099313Y471367D01*
X2099313Y482313D01*
X2088367Y482313D01*
G74*
D01*
G03X2099313Y471367I17633J6687*
G01*
D02*
G37*
G36*
X1932633Y454313D02*
X1932633Y454313D01*
X1921687Y454313D01*
X1921687Y443367D01*
G74*
D01*
G03X1932633Y454313I6687J17633*
G01*
D02*
G37*
G36*
X1908313Y443367D02*
X1908313Y443367D01*
X1908313Y454313D01*
X1897367Y454313D01*
G74*
D01*
G03X1908313Y443367I17633J6687*
G01*
D02*
G37*
G36*
X1911063Y461000D02*
G75*
D01*
G03X1911063Y461000I3937J0*
G01*
D02*
G37*
G36*
X1897367Y467687D02*
X1897367Y467687D01*
X1908313Y467687D01*
X1908313Y478633D01*
G74*
D01*
G03X1897367Y467687I6687J17633*
G01*
D02*
G37*
G36*
X1921687Y478633D02*
X1921687Y478633D01*
X1921687Y467687D01*
X1932633Y467687D01*
G74*
D01*
G03X1921687Y478633I17633J6687*
G01*
D02*
G37*
G36*
X2314633Y403313D02*
X2314633Y403313D01*
X2303687Y403313D01*
X2303687Y392367D01*
G74*
D01*
G03X2314633Y403313I6687J17633*
G01*
D02*
G37*
G36*
X2290313Y392367D02*
X2290313Y392367D01*
X2290313Y403313D01*
X2279367Y403313D01*
G74*
D01*
G03X2290313Y392367I17633J6687*
G01*
D02*
G37*
G36*
X2509546Y274493D02*
X2509546Y274493D01*
X2496633Y274493D01*
X2496633Y253727D01*
G74*
D01*
G03X2513472Y266975I12688J33454*
G01*
G75*
D01*
G03X2572528Y266975I29528J20206*
G01*
G75*
D01*
G03X2572528Y307387I29527J20206*
G01*
G75*
D01*
G03X2513472Y307387I-29528J-20206*
G01*
G74*
D01*
G03X2496633Y320635I29527J20206*
G01*
X2496633Y320635D01*
X2496633Y299869D01*
X2509546Y299869D01*
G75*
D01*
G03X2509546Y274493I33454J-12688*
G01*
D02*
G37*
G36*
X2470165Y287181D02*
G75*
D01*
G03X2470165Y287181I13780J0*
G01*
D02*
G37*
G36*
X2471257Y253727D02*
X2471257Y253727D01*
X2471257Y274493D01*
X2450490Y274493D01*
G74*
D01*
G03X2471257Y253727I33455J12688*
G01*
D02*
G37*
G36*
X2450490Y299869D02*
X2450490Y299869D01*
X2471257Y299869D01*
X2471257Y320635D01*
G74*
D01*
G03X2450490Y299869I12688J33454*
G01*
D02*
G37*
G36*
X2056367Y299687D02*
X2056367Y299687D01*
X2067313Y299687D01*
X2067313Y310633D01*
G74*
D01*
G03X2056367Y299687I6687J17633*
G01*
D02*
G37*
G36*
X2080687Y310633D02*
X2080687Y310633D01*
X2080687Y299687D01*
X2091633Y299687D01*
G74*
D01*
G03X2080687Y310633I17633J6687*
G01*
D02*
G37*
G36*
X2091633Y286313D02*
X2091633Y286313D01*
X2080687Y286313D01*
X2080687Y275367D01*
G74*
D01*
G03X2091633Y286313I6687J17633*
G01*
D02*
G37*
G36*
X2067313Y275367D02*
X2067313Y275367D01*
X2067313Y286313D01*
X2056367Y286313D01*
G74*
D01*
G03X2067313Y275367I17633J6687*
G01*
D02*
G37*
G36*
X2070063Y293000D02*
G75*
D01*
G03X2070063Y293000I3937J0*
G01*
D02*
G37*
G36*
X1903142Y303000D02*
G75*
D01*
G03X1903142Y303000I18858J0*
G01*
D02*
G37*
G36*
X2298330Y82000D02*
G75*
D01*
G03X2298330Y82000I45670J0*
G01*
D02*
G37*
G36*
X2198330Y82000D02*
G75*
D01*
G03X2198330Y82000I45670J0*
G01*
D02*
G37*
G36*
X2160195Y124702D02*
X2160195Y124702D01*
X2160195Y98195D01*
X2186702Y98195D01*
G74*
D01*
G03X2160195Y124702I42702J16195*
G01*
D02*
G37*
G36*
X2101298Y98195D02*
X2101298Y98195D01*
X2127805Y98195D01*
X2127805Y124702D01*
G74*
D01*
G03X2101298Y98195I16195J42702*
G01*
D02*
G37*
G36*
X2186702Y65805D02*
X2186702Y65805D01*
X2160195Y65805D01*
X2160195Y39298D01*
G74*
D01*
G03X2186702Y65805I16195J42702*
G01*
D02*
G37*
G36*
X2126500Y82000D02*
G75*
D01*
G03X2126500Y82000I17500J0*
G01*
D02*
G37*
G36*
X2127805Y39298D02*
X2127805Y39298D01*
X2127805Y65805D01*
X2101298Y65805D01*
G74*
D01*
G03X2127805Y39298I42702J16195*
G01*
D02*
G37*
G36*
X1998330Y82000D02*
G75*
D01*
G03X1998330Y82000I45670J0*
G01*
D02*
G37*
G36*
X1899838Y92415D02*
X1899838Y92415D01*
X1899838Y71585D01*
G75*
D01*
G03X1933585Y37838I33747J0*
G01*
X1933585Y37838D01*
X1954415Y37838D01*
G75*
D01*
G03X1988162Y71585I0J33747*
G01*
X1988162Y71585D01*
X1988162Y92415D01*
G74*
D01*
G03X1954415Y126162I33747J0*
G01*
X1954415Y126162D01*
X1933585Y126162D01*
G75*
D01*
G03X1899838Y92415I0J-33747*
G01*
D02*
G37*
G36*
X576367Y881687D02*
X576367Y881687D01*
X587313Y881687D01*
X587313Y892633D01*
G74*
D01*
G03X576367Y881687I6687J17633*
G01*
D02*
G37*
G36*
X600687Y892633D02*
X600687Y892633D01*
X600687Y881687D01*
X611633Y881687D01*
G74*
D01*
G03X600687Y892633I17633J6687*
G01*
D02*
G37*
G36*
X94827Y902686D02*
G74*
D01*
G03X122919Y930778I5245J33338*
G01*
X122919Y930778D01*
X94827Y930778D01*
X94827Y902686D01*
D02*
G37*
G36*
X35414Y930778D02*
G74*
D01*
G03X63506Y902686I33338J5246*
G01*
X63506Y902686D01*
X63506Y930778D01*
X35414Y930778D01*
D02*
G37*
G36*
X731961Y835819D02*
G75*
D01*
G03X731961Y835819I18858J0*
G01*
D02*
G37*
G36*
X611633Y868313D02*
X611633Y868313D01*
X600687Y868313D01*
X600687Y857367D01*
G74*
D01*
G03X611633Y868313I6687J17633*
G01*
D02*
G37*
G36*
X587313Y857367D02*
X587313Y857367D01*
X587313Y868313D01*
X576367Y868313D01*
G74*
D01*
G03X587313Y857367I17633J6687*
G01*
D02*
G37*
G36*
X332367Y826687D02*
X332367Y826687D01*
X343313Y826687D01*
X343313Y837633D01*
G74*
D01*
G03X332367Y826687I6687J17633*
G01*
D02*
G37*
G36*
X356687Y837633D02*
X356687Y837633D01*
X356687Y826687D01*
X367633Y826687D01*
G74*
D01*
G03X356687Y837633I17633J6687*
G01*
D02*
G37*
G36*
X367633Y813313D02*
X367633Y813313D01*
X356687Y813313D01*
X356687Y802367D01*
G74*
D01*
G03X367633Y813313I6687J17633*
G01*
D02*
G37*
G36*
X343313Y802367D02*
X343313Y802367D01*
X343313Y813313D01*
X332367Y813313D01*
G74*
D01*
G03X343313Y802367I17633J6687*
G01*
D02*
G37*
G36*
X346063Y820000D02*
G75*
D01*
G03X346063Y820000I3937J0*
G01*
D02*
G37*
G36*
X233497Y846439D02*
G75*
D01*
G03X233497Y846439I45670J0*
G01*
D02*
G37*
G36*
X133497Y846439D02*
G75*
D01*
G03X133497Y846439I45670J0*
G01*
D02*
G37*
G36*
X121869Y830244D02*
X121869Y830244D01*
X95362Y830244D01*
X95362Y803737D01*
G74*
D01*
G03X121869Y830244I16195J42702*
G01*
D02*
G37*
G36*
X95362Y889141D02*
X95362Y889141D01*
X95362Y862634D01*
X121869Y862634D01*
G74*
D01*
G03X95362Y889141I42702J16195*
G01*
D02*
G37*
G36*
X62972Y803737D02*
X62972Y803737D01*
X62972Y830244D01*
X36464Y830244D01*
G74*
D01*
G03X62972Y803737I42703J16195*
G01*
D02*
G37*
G36*
X36464Y862634D02*
X36464Y862634D01*
X62972Y862634D01*
X62972Y889141D01*
G74*
D01*
G03X36464Y862634I16195J42702*
G01*
D02*
G37*
G36*
X61667Y846439D02*
G75*
D01*
G03X61667Y846439I17500J0*
G01*
D02*
G37*
G36*
X827142Y773000D02*
G75*
D01*
G03X827142Y773000I18858J0*
G01*
D02*
G37*
G36*
X590142Y746000D02*
G75*
D01*
G03X590142Y746000I18858J0*
G01*
D02*
G37*
G36*
X854816Y696269D02*
G75*
D01*
G03X838184Y713731I2184J18731*
G01*
G75*
D01*
G03X854816Y696269I-2184J-18731*
G01*
D02*
G37*
G36*
X765313Y677367D02*
X765313Y677367D01*
X765313Y688313D01*
X754367Y688313D01*
G74*
D01*
G03X765313Y677367I17633J6687*
G01*
D02*
G37*
G36*
X768063Y695000D02*
G75*
D01*
G03X768063Y695000I3937J0*
G01*
D02*
G37*
G36*
X714114Y696972D02*
G75*
D01*
G03X714114Y696972I18858J0*
G01*
D02*
G37*
G36*
X754367Y701687D02*
X754367Y701687D01*
X765313Y701687D01*
X765313Y712633D01*
G74*
D01*
G03X754367Y701687I6687J17633*
G01*
D02*
G37*
G36*
X778687Y712633D02*
X778687Y712633D01*
X778687Y701687D01*
X789633Y701687D01*
G74*
D01*
G03X778687Y712633I17633J6687*
G01*
D02*
G37*
G36*
X789633Y688313D02*
X789633Y688313D01*
X778687Y688313D01*
X778687Y677367D01*
G74*
D01*
G03X789633Y688313I6687J17633*
G01*
D02*
G37*
G36*
X233497Y746439D02*
G75*
D01*
G03X233497Y746439I45670J0*
G01*
D02*
G37*
G36*
X133497Y746439D02*
G75*
D01*
G03X133497Y746439I45670J0*
G01*
D02*
G37*
G36*
X121869Y730244D02*
X121869Y730244D01*
X95362Y730244D01*
X95362Y703737D01*
G74*
D01*
G03X121869Y730244I16195J42702*
G01*
D02*
G37*
G36*
X95362Y789141D02*
X95362Y789141D01*
X95362Y762634D01*
X121869Y762634D01*
G74*
D01*
G03X95362Y789141I42702J16195*
G01*
D02*
G37*
G36*
X36464Y762634D02*
X36464Y762634D01*
X62972Y762634D01*
X62972Y789141D01*
G74*
D01*
G03X36464Y762634I16195J42702*
G01*
D02*
G37*
G36*
X61667Y746439D02*
G75*
D01*
G03X61667Y746439I17500J0*
G01*
D02*
G37*
G36*
X62972Y703737D02*
X62972Y703737D01*
X62972Y730244D01*
X36464Y730244D01*
G74*
D01*
G03X62972Y703737I42703J16195*
G01*
D02*
G37*
G36*
X233497Y646439D02*
G75*
D01*
G03X233497Y646439I45670J0*
G01*
D02*
G37*
G36*
X133497Y646439D02*
G75*
D01*
G03X133497Y646439I45670J0*
G01*
D02*
G37*
G36*
X95362Y689141D02*
X95362Y689141D01*
X95362Y662634D01*
X121869Y662634D01*
G74*
D01*
G03X95362Y689141I42702J16195*
G01*
D02*
G37*
G36*
X36464Y662634D02*
X36464Y662634D01*
X62972Y662634D01*
X62972Y689141D01*
G74*
D01*
G03X36464Y662634I16195J42702*
G01*
D02*
G37*
G36*
X121869Y630244D02*
X121869Y630244D01*
X95362Y630244D01*
X95362Y603737D01*
G74*
D01*
G03X121869Y630244I16195J42702*
G01*
D02*
G37*
G36*
X62972Y603737D02*
X62972Y603737D01*
X62972Y630244D01*
X36464Y630244D01*
G74*
D01*
G03X62972Y603737I42703J16195*
G01*
D02*
G37*
G36*
X61667Y646439D02*
G75*
D01*
G03X61667Y646439I17500J0*
G01*
D02*
G37*
G36*
X616142Y438000D02*
G75*
D01*
G03X616142Y438000I18858J0*
G01*
D02*
G37*
G36*
X233497Y407000D02*
G75*
D01*
G03X233497Y407000I45670J0*
G01*
D02*
G37*
G36*
X133497Y407000D02*
G75*
D01*
G03X133497Y407000I45670J0*
G01*
D02*
G37*
G36*
X122919Y422660D02*
G74*
D01*
G03X94827Y450752I33337J5245*
G01*
X94827Y450752D01*
X94827Y422660D01*
X122919Y422660D01*
D02*
G37*
G36*
X63506Y450752D02*
G74*
D01*
G03X35414Y422660I5246J33337*
G01*
X35414Y422660D01*
X63506Y422660D01*
X63506Y450752D01*
D02*
G37*
G36*
X94827Y363248D02*
G74*
D01*
G03X122919Y391340I5245J33337*
G01*
X122919Y391340D01*
X94827Y391340D01*
X94827Y363248D01*
D02*
G37*
G36*
X35414Y391340D02*
G74*
D01*
G03X63506Y363248I33338J5245*
G01*
X63506Y363248D01*
X63506Y391340D01*
X35414Y391340D01*
D02*
G37*
G36*
X59582Y407000D02*
G75*
D01*
G03X59582Y407000I19585J0*
G01*
D02*
G37*
G36*
X233497Y307000D02*
G75*
D01*
G03X233497Y307000I45670J0*
G01*
D02*
G37*
G36*
X133497Y307000D02*
G75*
D01*
G03X133497Y307000I45670J0*
G01*
D02*
G37*
G36*
X95362Y349702D02*
X95362Y349702D01*
X95362Y323195D01*
X121869Y323195D01*
G74*
D01*
G03X95362Y349702I42702J16195*
G01*
D02*
G37*
G36*
X36464Y323195D02*
X36464Y323195D01*
X62972Y323195D01*
X62972Y349702D01*
G74*
D01*
G03X36464Y323195I16195J42702*
G01*
D02*
G37*
G36*
X121869Y290805D02*
X121869Y290805D01*
X95362Y290805D01*
X95362Y264298D01*
G74*
D01*
G03X121869Y290805I16195J42702*
G01*
D02*
G37*
G36*
X62972Y264298D02*
X62972Y264298D01*
X62972Y290805D01*
X36464Y290805D01*
G74*
D01*
G03X62972Y264298I42703J16195*
G01*
D02*
G37*
G36*
X61667Y307000D02*
G75*
D01*
G03X61667Y307000I17500J0*
G01*
D02*
G37*
G36*
X233497Y207000D02*
G75*
D01*
G03X233497Y207000I45670J0*
G01*
D02*
G37*
G36*
X133497Y207000D02*
G75*
D01*
G03X133497Y207000I45670J0*
G01*
D02*
G37*
G36*
X121869Y190805D02*
X121869Y190805D01*
X95362Y190805D01*
X95362Y164298D01*
G74*
D01*
G03X121869Y190805I16195J42702*
G01*
D02*
G37*
G36*
X95362Y249702D02*
X95362Y249702D01*
X95362Y223195D01*
X121869Y223195D01*
G74*
D01*
G03X95362Y249702I42702J16195*
G01*
D02*
G37*
G36*
X62972Y164298D02*
X62972Y164298D01*
X62972Y190805D01*
X36464Y190805D01*
G74*
D01*
G03X62972Y164298I42703J16195*
G01*
D02*
G37*
G36*
X36464Y223195D02*
X36464Y223195D01*
X62972Y223195D01*
X62972Y249702D01*
G74*
D01*
G03X36464Y223195I16195J42702*
G01*
D02*
G37*
G36*
X61667Y207000D02*
G75*
D01*
G03X61667Y207000I17500J0*
G01*
D02*
G37*
G36*
X928493Y147435D02*
X928493Y147435D01*
X928493Y168202D01*
X907727Y168202D01*
G74*
D01*
G03X928493Y147435I33454J12688*
G01*
D02*
G37*
G36*
X763507Y272601D02*
X763507Y272601D01*
X763507Y259688D01*
X784273Y259688D01*
G74*
D01*
G03X771025Y276528I33454J12688*
G01*
G75*
D01*
G03X730612Y276528I-20206J29527*
G01*
G74*
D01*
G03X717364Y259688I20207J29528*
G01*
X717364Y259688D01*
X738131Y259688D01*
X738131Y272601D01*
G75*
D01*
G03X763507Y272601I12688J33454*
G01*
D02*
G37*
G36*
X738131Y221399D02*
X738131Y221399D01*
X738131Y234312D01*
X717364Y234312D01*
G74*
D01*
G03X730612Y217472I33455J12688*
G01*
G75*
D01*
G03X771025Y217472I20207J-29527*
G01*
G74*
D01*
G03X784273Y234312I20206J29528*
G01*
X784273Y234312D01*
X763507Y234312D01*
X763507Y221399D01*
G75*
D01*
G03X738131Y221399I-12688J-33454*
G01*
D02*
G37*
G36*
X737039Y247000D02*
G75*
D01*
G03X737039Y247000I13780J0*
G01*
D02*
G37*
G36*
X550131Y271601D02*
G75*
D01*
G03X575507Y271601I12688J33454*
G01*
X575507Y271601D01*
X575507Y258688D01*
X596273Y258688D01*
G74*
D01*
G03X583025Y275528I33454J12688*
G01*
G75*
D01*
G03X542612Y275528I-20206J29527*
G01*
G74*
D01*
G03X529364Y258688I20207J29528*
G01*
X529364Y258688D01*
X550131Y258688D01*
X550131Y271601D01*
D02*
G37*
G36*
X550131Y220399D02*
X550131Y220399D01*
X550131Y233312D01*
X529364Y233312D01*
G74*
D01*
G03X542612Y216472I33455J12688*
G01*
G75*
D01*
G03X583025Y216472I20207J-29527*
G01*
G74*
D01*
G03X596273Y233312I20206J29528*
G01*
X596273Y233312D01*
X575507Y233312D01*
X575507Y220399D01*
G75*
D01*
G03X550131Y220399I-12688J-33454*
G01*
D02*
G37*
G36*
X549039Y246000D02*
G75*
D01*
G03X549039Y246000I13780J0*
G01*
D02*
G37*
G36*
X233497Y107000D02*
G75*
D01*
G03X233497Y107000I45670J0*
G01*
D02*
G37*
G36*
X133497Y107000D02*
G75*
D01*
G03X133497Y107000I45670J0*
G01*
D02*
G37*
G36*
X95362Y149702D02*
X95362Y149702D01*
X95362Y123195D01*
X121869Y123195D01*
G74*
D01*
G03X95362Y149702I42702J16195*
G01*
D02*
G37*
G36*
X121869Y90805D02*
X121869Y90805D01*
X95362Y90805D01*
X95362Y64298D01*
G74*
D01*
G03X121869Y90805I16195J42702*
G01*
D02*
G37*
G36*
X36464Y123195D02*
X36464Y123195D01*
X62972Y123195D01*
X62972Y149702D01*
G74*
D01*
G03X36464Y123195I16195J42702*
G01*
D02*
G37*
G36*
X61667Y107000D02*
G75*
D01*
G03X61667Y107000I17500J0*
G01*
D02*
G37*
G36*
X62972Y64298D02*
X62972Y64298D01*
X62972Y90805D01*
X36464Y90805D01*
G74*
D01*
G03X62972Y64298I42703J16195*
G01*
D02*
G37*
G36*
X590063Y875000D02*
G75*
D01*
G03X590063Y875000I3937J0*
G01*
D02*
G37*
G36*
X1484687Y886633D02*
X1484687Y886633D01*
X1484687Y875687D01*
X1495633Y875687D01*
G74*
D01*
G03X1484687Y886633I17633J6687*
G01*
D02*
G37*
G36*
X1460367Y875687D02*
X1460367Y875687D01*
X1471313Y875687D01*
X1471313Y886633D01*
G74*
D01*
G03X1460367Y875687I6687J17633*
G01*
D02*
G37*
G36*
X1260063Y880000D02*
G75*
D01*
G03X1260063Y880000I3937J0*
G01*
D02*
G37*
G36*
X1270687Y897633D02*
X1270687Y897633D01*
X1270687Y886687D01*
X1281633Y886687D01*
G74*
D01*
G03X1270687Y897633I17633J6687*
G01*
D02*
G37*
G36*
X1246367Y886687D02*
X1246367Y886687D01*
X1257313Y886687D01*
X1257313Y897633D01*
G74*
D01*
G03X1246367Y886687I6687J17633*
G01*
D02*
G37*
G36*
X1121687Y877633D02*
X1121687Y877633D01*
X1121687Y866687D01*
X1132633Y866687D01*
G74*
D01*
G03X1121687Y877633I17633J6687*
G01*
D02*
G37*
G36*
X1097367Y866687D02*
X1097367Y866687D01*
X1108313Y866687D01*
X1108313Y877633D01*
G74*
D01*
G03X1097367Y866687I6687J17633*
G01*
D02*
G37*
G36*
X1816063Y830000D02*
G75*
D01*
G03X1816063Y830000I3937J0*
G01*
D02*
G37*
G36*
X1837633Y823313D02*
X1837633Y823313D01*
X1826687Y823313D01*
X1826687Y812367D01*
G74*
D01*
G03X1837633Y823313I6687J17633*
G01*
D02*
G37*
G36*
X1826687Y847633D02*
X1826687Y847633D01*
X1826687Y836687D01*
X1837633Y836687D01*
G74*
D01*
G03X1826687Y847633I17633J6687*
G01*
D02*
G37*
G36*
X1813313Y812367D02*
X1813313Y812367D01*
X1813313Y823313D01*
X1802367Y823313D01*
G74*
D01*
G03X1813313Y812367I17633J6687*
G01*
D02*
G37*
G36*
X1802367Y836687D02*
X1802367Y836687D01*
X1813313Y836687D01*
X1813313Y847633D01*
G74*
D01*
G03X1802367Y836687I6687J17633*
G01*
D02*
G37*
G36*
X1713142Y850000D02*
G75*
D01*
G03X1713142Y850000I18858J0*
G01*
D02*
G37*
G36*
X1522142Y814000D02*
G75*
D01*
G03X1522142Y814000I18858J0*
G01*
D02*
G37*
G36*
X1471313Y851367D02*
X1471313Y851367D01*
X1471313Y862313D01*
X1460367Y862313D01*
G74*
D01*
G03X1471313Y851367I17633J6687*
G01*
D02*
G37*
G36*
X1495633Y862313D02*
X1495633Y862313D01*
X1484687Y862313D01*
X1484687Y851367D01*
G74*
D01*
G03X1495633Y862313I6687J17633*
G01*
D02*
G37*
G36*
X1474063Y869000D02*
G75*
D01*
G03X1474063Y869000I3937J0*
G01*
D02*
G37*
G36*
X1297142Y830000D02*
G75*
D01*
G03X1297142Y830000I18858J0*
G01*
D02*
G37*
G36*
X1281633Y873313D02*
X1281633Y873313D01*
X1270687Y873313D01*
X1270687Y862367D01*
G74*
D01*
G03X1281633Y873313I6687J17633*
G01*
D02*
G37*
G36*
X1211142Y816000D02*
G75*
D01*
G03X1211142Y816000I18858J0*
G01*
D02*
G37*
G36*
X1257313Y862367D02*
X1257313Y862367D01*
X1257313Y873313D01*
X1246367Y873313D01*
G74*
D01*
G03X1257313Y862367I17633J6687*
G01*
D02*
G37*
G36*
X1111063Y860000D02*
G75*
D01*
G03X1111063Y860000I3937J0*
G01*
D02*
G37*
G36*
X1132633Y853313D02*
X1132633Y853313D01*
X1121687Y853313D01*
X1121687Y842367D01*
G74*
D01*
G03X1132633Y853313I6687J17633*
G01*
D02*
G37*
G36*
X1108313Y842367D02*
X1108313Y842367D01*
X1108313Y853313D01*
X1097367Y853313D01*
G74*
D01*
G03X1108313Y842367I17633J6687*
G01*
D02*
G37*
G36*
X1524142Y772000D02*
G75*
D01*
G03X1524142Y772000I18858J0*
G01*
D02*
G37*
G36*
X1334862Y716161D02*
G75*
D01*
G03X1352138Y729839I18138J-5161*
G01*
G75*
D01*
G03X1334862Y716161I-18138J5161*
G01*
D02*
G37*
G36*
X1338142Y770000D02*
G75*
D01*
G03X1338142Y770000I18858J0*
G01*
D02*
G37*
G36*
X1146063Y759000D02*
G75*
D01*
G03X1146063Y759000I3937J0*
G01*
D02*
G37*
G36*
X1143313Y741367D02*
X1143313Y741367D01*
X1143313Y752313D01*
X1132367Y752313D01*
G74*
D01*
G03X1143313Y741367I17633J6687*
G01*
D02*
G37*
G36*
X1167633Y752313D02*
X1167633Y752313D01*
X1156687Y752313D01*
X1156687Y741367D01*
G74*
D01*
G03X1167633Y752313I6687J17633*
G01*
D02*
G37*
G36*
X1156687Y776633D02*
X1156687Y776633D01*
X1156687Y765687D01*
X1167633Y765687D01*
G74*
D01*
G03X1156687Y776633I17633J6687*
G01*
D02*
G37*
G36*
X1132367Y765687D02*
X1132367Y765687D01*
X1143313Y765687D01*
X1143313Y776633D01*
G74*
D01*
G03X1132367Y765687I6687J17633*
G01*
D02*
G37*
G36*
X1174142Y733000D02*
G75*
D01*
G03X1174142Y733000I18858J0*
G01*
D02*
G37*
G36*
X1033063Y777000D02*
G75*
D01*
G03X1033063Y777000I3937J0*
G01*
D02*
G37*
G36*
X1054633Y770313D02*
X1054633Y770313D01*
X1043687Y770313D01*
X1043687Y759367D01*
G74*
D01*
G03X1054633Y770313I6687J17633*
G01*
D02*
G37*
G36*
X1043687Y794633D02*
X1043687Y794633D01*
X1043687Y783687D01*
X1054633Y783687D01*
G74*
D01*
G03X1043687Y794633I17633J6687*
G01*
D02*
G37*
G36*
X1030313Y759367D02*
X1030313Y759367D01*
X1030313Y770313D01*
X1019367Y770313D01*
G74*
D01*
G03X1030313Y759367I17633J6687*
G01*
D02*
G37*
G36*
X1019367Y783687D02*
X1019367Y783687D01*
X1030313Y783687D01*
X1030313Y794633D01*
G74*
D01*
G03X1019367Y783687I6687J17633*
G01*
D02*
G37*
G36*
X1668633Y685313D02*
X1668633Y685313D01*
X1657687Y685313D01*
X1657687Y674367D01*
G74*
D01*
G03X1668633Y685313I6687J17633*
G01*
D02*
G37*
G36*
X1657687Y709633D02*
X1657687Y709633D01*
X1657687Y698687D01*
X1668633Y698687D01*
G74*
D01*
G03X1657687Y709633I17633J6687*
G01*
D02*
G37*
G36*
X1644313Y674367D02*
X1644313Y674367D01*
X1644313Y685313D01*
X1633367Y685313D01*
G74*
D01*
G03X1644313Y674367I17633J6687*
G01*
D02*
G37*
G36*
X1647063Y692000D02*
G75*
D01*
G03X1647063Y692000I3937J0*
G01*
D02*
G37*
G36*
X1633367Y698687D02*
X1633367Y698687D01*
X1644313Y698687D01*
X1644313Y709633D01*
G74*
D01*
G03X1633367Y698687I6687J17633*
G01*
D02*
G37*
G36*
X1447142Y657000D02*
G75*
D01*
G03X1447142Y657000I18858J0*
G01*
D02*
G37*
G36*
X1070142Y689000D02*
G75*
D01*
G03X1070142Y689000I18858J0*
G01*
D02*
G37*
G36*
X1029142Y718000D02*
G75*
D01*
G03X1029142Y718000I18858J0*
G01*
D02*
G37*
G36*
X1810142Y501000D02*
G75*
D01*
G03X1810142Y501000I18858J0*
G01*
D02*
G37*
G36*
X1784142Y545000D02*
G75*
D01*
G03X1784142Y545000I18858J0*
G01*
D02*
G37*
G36*
X1696063Y483000D02*
G75*
D01*
G03X1696063Y483000I3937J0*
G01*
D02*
G37*
G36*
X1706687Y500633D02*
X1706687Y500633D01*
X1706687Y489687D01*
X1717633Y489687D01*
G74*
D01*
G03X1706687Y500633I17633J6687*
G01*
D02*
G37*
G36*
X1682367Y489687D02*
X1682367Y489687D01*
X1693313Y489687D01*
X1693313Y500633D01*
G74*
D01*
G03X1682367Y489687I6687J17633*
G01*
D02*
G37*
G36*
X1558142Y498000D02*
G75*
D01*
G03X1558142Y498000I18858J0*
G01*
D02*
G37*
G36*
X1330142Y517000D02*
G75*
D01*
G03X1330142Y517000I18858J0*
G01*
D02*
G37*
G36*
X1211142Y500000D02*
G75*
D01*
G03X1211142Y500000I18858J0*
G01*
D02*
G37*
G36*
X1163063Y494000D02*
G75*
D01*
G03X1163063Y494000I3937J0*
G01*
D02*
G37*
G36*
X1160313Y476367D02*
X1160313Y476367D01*
X1160313Y487313D01*
X1149367Y487313D01*
G74*
D01*
G03X1160313Y476367I17633J6687*
G01*
D02*
G37*
G36*
X1149367Y500687D02*
X1149367Y500687D01*
X1160313Y500687D01*
X1160313Y511633D01*
G74*
D01*
G03X1149367Y500687I6687J17633*
G01*
D02*
G37*
G36*
X1184633Y487313D02*
X1184633Y487313D01*
X1173687Y487313D01*
X1173687Y476367D01*
G74*
D01*
G03X1184633Y487313I6687J17633*
G01*
D02*
G37*
G36*
X1173687Y511633D02*
X1173687Y511633D01*
X1173687Y500687D01*
X1184633Y500687D01*
G74*
D01*
G03X1173687Y511633I17633J6687*
G01*
D02*
G37*
G36*
X1807142Y423000D02*
G75*
D01*
G03X1807142Y423000I18858J0*
G01*
D02*
G37*
G36*
X1693313Y465367D02*
X1693313Y465367D01*
X1693313Y476313D01*
X1682367Y476313D01*
G74*
D01*
G03X1693313Y465367I17633J6687*
G01*
D02*
G37*
G36*
X1717633Y476313D02*
X1717633Y476313D01*
X1706687Y476313D01*
X1706687Y465367D01*
G74*
D01*
G03X1717633Y476313I6687J17633*
G01*
D02*
G37*
G36*
X1649142Y422000D02*
G75*
D01*
G03X1649142Y422000I18858J0*
G01*
D02*
G37*
G36*
X1628142Y485000D02*
G75*
D01*
G03X1628142Y485000I18858J0*
G01*
D02*
G37*
G36*
X1275633Y448313D02*
X1275633Y448313D01*
X1264687Y448313D01*
X1264687Y437367D01*
G74*
D01*
G03X1275633Y448313I6687J17633*
G01*
D02*
G37*
G36*
X1264687Y472633D02*
X1264687Y472633D01*
X1264687Y461687D01*
X1275633Y461687D01*
G74*
D01*
G03X1264687Y472633I17633J6687*
G01*
D02*
G37*
G36*
X1251313Y437367D02*
X1251313Y437367D01*
X1251313Y448313D01*
X1240367Y448313D01*
G74*
D01*
G03X1251313Y437367I17633J6687*
G01*
D02*
G37*
G36*
X1254063Y455000D02*
G75*
D01*
G03X1254063Y455000I3937J0*
G01*
D02*
G37*
G36*
X1240367Y461687D02*
X1240367Y461687D01*
X1251313Y461687D01*
X1251313Y472633D01*
G74*
D01*
G03X1240367Y461687I6687J17633*
G01*
D02*
G37*
G36*
X1084063Y330000D02*
G75*
D01*
G03X1084063Y330000I3937J0*
G01*
D02*
G37*
G36*
X1070367Y336687D02*
X1070367Y336687D01*
X1081313Y336687D01*
X1081313Y347633D01*
G74*
D01*
G03X1070367Y336687I6687J17633*
G01*
D02*
G37*
G36*
X1094687Y347633D02*
X1094687Y347633D01*
X1094687Y336687D01*
X1105633Y336687D01*
G74*
D01*
G03X1094687Y347633I17633J6687*
G01*
D02*
G37*
G36*
X974635Y168202D02*
X974635Y168202D01*
X953869Y168202D01*
X953869Y147435D01*
G74*
D01*
G03X974635Y168202I12688J33455*
G01*
D02*
G37*
G36*
X1765142Y258000D02*
G75*
D01*
G03X1765142Y258000I18858J0*
G01*
D02*
G37*
G36*
X1217063Y260000D02*
G75*
D01*
G03X1217063Y260000I3937J0*
G01*
D02*
G37*
G36*
X1214313Y242367D02*
X1214313Y242367D01*
X1214313Y253313D01*
X1203367Y253313D01*
G74*
D01*
G03X1214313Y242367I17633J6687*
G01*
D02*
G37*
G36*
X1238633Y253313D02*
X1238633Y253313D01*
X1227687Y253313D01*
X1227687Y242367D01*
G74*
D01*
G03X1238633Y253313I6687J17633*
G01*
D02*
G37*
G36*
X1227687Y277633D02*
X1227687Y277633D01*
X1227687Y266687D01*
X1238633Y266687D01*
G74*
D01*
G03X1227687Y277633I17633J6687*
G01*
D02*
G37*
G36*
X1203367Y266687D02*
X1203367Y266687D01*
X1214313Y266687D01*
X1214313Y277633D01*
G74*
D01*
G03X1203367Y266687I6687J17633*
G01*
D02*
G37*
G36*
X1081313Y312367D02*
X1081313Y312367D01*
X1081313Y323313D01*
X1070367Y323313D01*
G74*
D01*
G03X1081313Y312367I17633J6687*
G01*
D02*
G37*
G36*
X1105633Y323313D02*
X1105633Y323313D01*
X1094687Y323313D01*
X1094687Y312367D01*
G74*
D01*
G03X1105633Y323313I6687J17633*
G01*
D02*
G37*
G36*
X1773142Y208000D02*
G75*
D01*
G03X1773142Y208000I18858J0*
G01*
D02*
G37*
G36*
X1593063Y209000D02*
G75*
D01*
G03X1593063Y209000I3937J0*
G01*
D02*
G37*
G36*
X1590313Y191367D02*
X1590313Y191367D01*
X1590313Y202313D01*
X1579367Y202313D01*
G74*
D01*
G03X1590313Y191367I17633J6687*
G01*
D02*
G37*
G36*
X1614633Y202313D02*
X1614633Y202313D01*
X1603687Y202313D01*
X1603687Y191367D01*
G74*
D01*
G03X1614633Y202313I6687J17633*
G01*
D02*
G37*
G36*
X1603687Y226633D02*
X1603687Y226633D01*
X1603687Y215687D01*
X1614633Y215687D01*
G74*
D01*
G03X1603687Y226633I17633J6687*
G01*
D02*
G37*
G36*
X1579367Y215687D02*
X1579367Y215687D01*
X1590313Y215687D01*
X1590313Y226633D01*
G74*
D01*
G03X1579367Y215687I6687J17633*
G01*
D02*
G37*
G36*
X1274205Y100000D02*
G75*
D01*
G03X1274205Y100000I3937J0*
G01*
D02*
G37*
G36*
X1271454Y82367D02*
X1271454Y82367D01*
X1271454Y93313D01*
X1260509Y93313D01*
G74*
D01*
G03X1271454Y82367I17633J6687*
G01*
D02*
G37*
G36*
X1295774Y93313D02*
X1295774Y93313D01*
X1284829Y93313D01*
X1284829Y82367D01*
G74*
D01*
G03X1295774Y93313I6687J17633*
G01*
D02*
G37*
G36*
X1284829Y117633D02*
X1284829Y117633D01*
X1284829Y106687D01*
X1295774Y106687D01*
G74*
D01*
G03X1284829Y117633I17632J6687*
G01*
D02*
G37*
G36*
X1260509Y106687D02*
X1260509Y106687D01*
X1271454Y106687D01*
X1271454Y117633D01*
G74*
D01*
G03X1260509Y106687I6688J17633*
G01*
D02*
G37*
%LPD*%
G54D11*
X222476Y931946D02*
G75*
D01*
G03X222476Y931946I-43309J14493*
G01*
X322476Y931946D02*
G75*
D01*
G03X322476Y931946I-43309J14493*
G01*
X731758Y931946D02*
G75*
D01*
G03X731758Y931946I-18758J-1946*
G01*
X931946Y1010835D02*
G75*
D01*
G03X931946Y1010835I-946J-18835*
G01*
X931946Y1238022D02*
G75*
D01*
G03X931946Y1238022I-9946J-16022*
G01*
X955638Y1381387D02*
G75*
D01*
G03X896583Y1381387I-29528J-20206*
G01*
G75*
D01*
G03X837528Y1381387I-29528J-20206*
G01*
G75*
D01*
G03X778472Y1381387I-29528J-20206*
G01*
G75*
D01*
G03X778472Y1340975I-29527J-20206*
G01*
G75*
D01*
G03X837528Y1340975I29528J20206*
G01*
G75*
D01*
G03X896583Y1340975I29527J20206*
G01*
G75*
D01*
G03X955638Y1340975I29527J20206*
G01*
G75*
D01*
G03X1014693Y1340975I29527J20206*
G01*
G74*
D01*
G03X1031533Y1327727I29527J20206*
G01*
X1031533Y1348493D01*
X1018620Y1348493D01*
G75*
D01*
G03X1018620Y1373869I-33455J12688*
G01*
X1031533Y1373869D01*
X1031533Y1394635D01*
G74*
D01*
G03X1014693Y1381387I12687J33454*
G01*
G75*
D01*
G03X955638Y1381387I-29528J-20206*
G01*
X92339Y931946D02*
G75*
D01*
G03X92339Y931946I-13172J14493*
G01*
X1824441Y931946D02*
G75*
D01*
G03X1824441Y931946I-18441J-3946*
G01*
X961387Y328528D02*
G75*
D01*
G03X920975Y328528I-20206J29527*
G01*
G75*
D01*
G03X920975Y269472I20206J-29528*
G01*
G75*
D01*
G03X920975Y210417I20206J-29527*
G01*
G74*
D01*
G03X907727Y193577I20206J29527*
G01*
X928493Y193577D01*
X928493Y206490D01*
G75*
D01*
G03X953869Y206490I12688J33455*
G01*
X953869Y193577D01*
X974635Y193577D01*
G74*
D01*
G03X961387Y210417I33454J12687*
G01*
G75*
D01*
G03X961387Y269472I-20206J29528*
G01*
G75*
D01*
G03X961387Y328528I-20206J29528*
G01*
X931946Y714592D02*
G75*
D01*
G03X931946Y714592I-11946J-14592*
G01*
X919359Y819152D02*
G75*
D01*
G03X909487Y833332I8822J16667*
G01*
G75*
D01*
G03X881807Y816648I-8822J-16667*
G01*
G75*
D01*
G03X897858Y798017I-2807J-18648*
G01*
G75*
D01*
G03X919359Y819152I2807J18648*
G01*
X931946Y191116D02*
G75*
D01*
G03X931946Y191116I9235J-10226*
G01*
X2547063Y1525000D02*
G75*
D01*
G03X2547063Y1525000I3937J0*
G01*
X2533367Y1531687D02*
X2544313Y1531687D01*
X2544313Y1542633D01*
G74*
D01*
G03X2533367Y1531687I6687J17633*
G01*
X2557687Y1542633D02*
X2557687Y1531687D01*
X2568633Y1531687D01*
G74*
D01*
G03X2557687Y1542633I17633J6687*
G01*
X2568633Y1518313D02*
X2557687Y1518313D01*
X2557687Y1507367D01*
G74*
D01*
G03X2568633Y1518313I6687J17633*
G01*
X2454687Y1540633D02*
X2454687Y1529687D01*
X2465633Y1529687D01*
G74*
D01*
G03X2454687Y1540633I17633J6687*
G01*
X2465633Y1516313D02*
X2454687Y1516313D01*
X2454687Y1505367D01*
G74*
D01*
G03X2465633Y1516313I6687J17633*
G01*
X2444063Y1523000D02*
G75*
D01*
G03X2444063Y1523000I3937J0*
G01*
X2430367Y1529687D02*
X2441313Y1529687D01*
X2441313Y1540633D01*
G74*
D01*
G03X2430367Y1529687I6687J17633*
G01*
X2441313Y1505367D02*
X2441313Y1516313D01*
X2430367Y1516313D01*
G74*
D01*
G03X2441313Y1505367I17633J6687*
G01*
X2285367Y1525687D02*
X2296313Y1525687D01*
X2296313Y1536633D01*
G74*
D01*
G03X2285367Y1525687I6687J17633*
G01*
X2309687Y1536633D02*
X2309687Y1525687D01*
X2320633Y1525687D01*
G74*
D01*
G03X2309687Y1536633I17633J6687*
G01*
X2320633Y1512313D02*
X2309687Y1512313D01*
X2309687Y1501367D01*
G74*
D01*
G03X2320633Y1512313I6687J17633*
G01*
X2296313Y1501367D02*
X2296313Y1512313D01*
X2285367Y1512313D01*
G74*
D01*
G03X2296313Y1501367I17633J6687*
G01*
X2299063Y1519000D02*
G75*
D01*
G03X2299063Y1519000I3937J0*
G01*
X2055367Y1505687D02*
X2066313Y1505687D01*
X2066313Y1516633D01*
G74*
D01*
G03X2055367Y1505687I6687J17633*
G01*
X2079687Y1516633D02*
X2079687Y1505687D01*
X2090633Y1505687D01*
G74*
D01*
G03X2079687Y1516633I17633J6687*
G01*
X2303500Y1491291D02*
G75*
D01*
G03X2303500Y1458709I-9500J-16291*
G01*
G75*
D01*
G03X2303500Y1491291I9500J16291*
G01*
X2155367Y1420687D02*
X2166313Y1420687D01*
X2166313Y1431633D01*
G74*
D01*
G03X2155367Y1420687I6687J17633*
G01*
X2179687Y1431633D02*
X2179687Y1420687D01*
X2190633Y1420687D01*
G74*
D01*
G03X2179687Y1431633I17633J6687*
G01*
X2090633Y1492313D02*
X2079687Y1492313D01*
X2079687Y1481367D01*
G74*
D01*
G03X2090633Y1492313I6687J17633*
G01*
X2066313Y1481367D02*
X2066313Y1492313D01*
X2055367Y1492313D01*
G74*
D01*
G03X2066313Y1481367I17633J6687*
G01*
X2069063Y1499000D02*
G75*
D01*
G03X2069063Y1499000I3937J0*
G01*
X2376687Y1394633D02*
X2376687Y1383687D01*
X2387633Y1383687D01*
G74*
D01*
G03X2376687Y1394633I17633J6687*
G01*
X2387633Y1370313D02*
X2376687Y1370313D01*
X2376687Y1359367D01*
G74*
D01*
G03X2387633Y1370313I6687J17633*
G01*
X2366063Y1377000D02*
G75*
D01*
G03X2366063Y1377000I3937J0*
G01*
X2413142Y1367000D02*
G75*
D01*
G03X2413142Y1367000I18858J0*
G01*
X2334367Y1383687D02*
X2345313Y1383687D01*
X2345313Y1394633D01*
G74*
D01*
G03X2334367Y1383687I6687J17633*
G01*
X2345313Y1359367D02*
X2345313Y1370313D01*
X2334367Y1370313D01*
G74*
D01*
G03X2345313Y1359367I17633J6687*
G01*
X2348063Y1377000D02*
G75*
D01*
G03X2348063Y1377000I3937J0*
G01*
X2358687Y1392088D02*
G74*
D01*
G03X2352367Y1383687I11313J15088*
G01*
X2369633Y1383687D01*
G74*
D01*
G03X2363313Y1392088I17633J6687*
G01*
X2363313Y1394633D01*
G74*
D01*
G03X2361000Y1393572I6687J17633*
G01*
G74*
D01*
G03X2358687Y1394633I9000J16572*
G01*
X2358687Y1392088D01*
X2369633Y1370313D02*
X2352367Y1370313D01*
G74*
D01*
G03X2358687Y1361912I17633J6687*
G01*
X2358687Y1359367D01*
G74*
D01*
G03X2361000Y1360428I6687J17633*
G01*
G74*
D01*
G03X2363313Y1359367I9000J16572*
G01*
X2363313Y1361912D01*
G74*
D01*
G03X2369633Y1370313I11313J15088*
G01*
X2265142Y1375000D02*
G75*
D01*
G03X2265142Y1375000I18858J0*
G01*
X2190633Y1407313D02*
X2179687Y1407313D01*
X2179687Y1396367D01*
G74*
D01*
G03X2190633Y1407313I6687J17633*
G01*
X2166313Y1396367D02*
X2166313Y1407313D01*
X2155367Y1407313D01*
G74*
D01*
G03X2166313Y1396367I17633J6687*
G01*
X2169063Y1414000D02*
G75*
D01*
G03X2169063Y1414000I3937J0*
G01*
X2075367Y1325687D02*
X2086313Y1325687D01*
X2086313Y1336633D01*
G74*
D01*
G03X2075367Y1325687I6687J17633*
G01*
X2099687Y1336633D02*
X2099687Y1325687D01*
X2110633Y1325687D01*
G74*
D01*
G03X2099687Y1336633I17633J6687*
G01*
X2089063Y1319000D02*
G75*
D01*
G03X2089063Y1319000I3937J0*
G01*
X2086313Y1301367D02*
X2086313Y1312313D01*
X2085313Y1312313D01*
X2085313Y1316633D01*
G74*
D01*
G03X2078643Y1312313I6687J17633*
G01*
X2075367Y1312313D01*
G74*
D01*
G03X2076539Y1309798I17633J6687*
G01*
G74*
D01*
G03X2074367Y1305687I15461J10798*
G01*
X2079643Y1305687D01*
G74*
D01*
G03X2086313Y1301367I13357J13313*
G01*
X2105357Y1312313D02*
G74*
D01*
G03X2098687Y1316633I13357J13313*
G01*
X2098687Y1305687D01*
X2099687Y1305687D01*
X2099687Y1301367D01*
G74*
D01*
G03X2106357Y1305687I6687J17633*
G01*
X2109633Y1305687D01*
G74*
D01*
G03X2108461Y1308202I17633J6687*
G01*
G74*
D01*
G03X2110633Y1312313I15461J10798*
G01*
X2105357Y1312313D01*
X2109633Y1292313D02*
X2098687Y1292313D01*
X2098687Y1281367D01*
G74*
D01*
G03X2109633Y1292313I6687J17633*
G01*
X2085313Y1281367D02*
X2085313Y1292313D01*
X2074367Y1292313D01*
G74*
D01*
G03X2085313Y1281367I17633J6687*
G01*
X2088063Y1299000D02*
G75*
D01*
G03X2088063Y1299000I3937J0*
G01*
X2469367Y1189687D02*
X2480313Y1189687D01*
X2480313Y1200633D01*
G74*
D01*
G03X2469367Y1189687I6687J17633*
G01*
X2493687Y1200633D02*
X2493687Y1189687D01*
X2504633Y1189687D01*
G74*
D01*
G03X2493687Y1200633I17633J6687*
G01*
X2382367Y1198687D02*
X2393313Y1198687D01*
X2393313Y1209633D01*
G74*
D01*
G03X2382367Y1198687I6687J17633*
G01*
X2406687Y1209633D02*
X2406687Y1198687D01*
X2417633Y1198687D01*
G74*
D01*
G03X2406687Y1209633I17633J6687*
G01*
X2396063Y1192000D02*
G75*
D01*
G03X2396063Y1192000I3937J0*
G01*
X2149687Y1201633D02*
X2149687Y1190687D01*
X2160633Y1190687D01*
G74*
D01*
G03X2149687Y1201633I17633J6687*
G01*
X2068142Y1236000D02*
G75*
D01*
G03X2068142Y1236000I18858J0*
G01*
X2125367Y1190687D02*
X2136313Y1190687D01*
X2136313Y1201633D01*
G74*
D01*
G03X2125367Y1190687I6687J17633*
G01*
X1988142Y1236000D02*
G75*
D01*
G03X1988142Y1236000I18858J0*
G01*
X1924142Y1218000D02*
G75*
D01*
G03X1924142Y1218000I18858J0*
G01*
X2608975Y1454528D02*
G75*
D01*
G03X2608975Y1395472I20206J-29528*
G01*
G75*
D01*
G03X2608975Y1336417I20206J-29527*
G01*
G75*
D01*
G03X2608975Y1277362I20206J-29527*
G01*
G74*
D01*
G03X2595727Y1260522I20206J29527*
G01*
X2616493Y1260522D01*
X2616493Y1273435D01*
G75*
D01*
G03X2641869Y1273435I12688J33455*
G01*
X2641869Y1260522D01*
X2662635Y1260522D01*
G74*
D01*
G03X2649387Y1277362I33454J12687*
G01*
G75*
D01*
G03X2649387Y1336417I-20206J29528*
G01*
G75*
D01*
G03X2649387Y1395472I-20206J29528*
G01*
G75*
D01*
G03X2649387Y1454528I-20206J29528*
G01*
G75*
D01*
G03X2608975Y1454528I-20206J29527*
G01*
X2662635Y1235147D02*
X2641869Y1235147D01*
X2641869Y1201467D01*
X2662635Y1201467D01*
G74*
D01*
G03X2649387Y1218307I33454J12687*
G01*
G74*
D01*
G03X2662635Y1235147I20206J29528*
G01*
X2615402Y1247835D02*
G75*
D01*
G03X2615402Y1247835I13779J0*
G01*
X2595727Y1201467D02*
X2616493Y1201467D01*
X2616493Y1235147D01*
X2595727Y1235147D01*
G74*
D01*
G03X2608975Y1218307I33454J12688*
G01*
G74*
D01*
G03X2595727Y1201467I20206J29527*
G01*
X2662635Y1176092D02*
X2641869Y1176092D01*
X2641869Y1155325D01*
G74*
D01*
G03X2662635Y1176092I12688J33455*
G01*
X2615402Y1188780D02*
G75*
D01*
G03X2615402Y1188780I13779J0*
G01*
X2616493Y1155325D02*
X2616493Y1176092D01*
X2595727Y1176092D01*
G74*
D01*
G03X2616493Y1155325I33454J12688*
G01*
X2504633Y1176313D02*
X2493687Y1176313D01*
X2493687Y1165367D01*
G74*
D01*
G03X2504633Y1176313I6687J17633*
G01*
X2480313Y1165367D02*
X2480313Y1176313D01*
X2469367Y1176313D01*
G74*
D01*
G03X2480313Y1165367I17633J6687*
G01*
X2483063Y1183000D02*
G75*
D01*
G03X2483063Y1183000I3937J0*
G01*
X2417633Y1166313D02*
X2406687Y1166313D01*
X2406687Y1155367D01*
G74*
D01*
G03X2417633Y1166313I6687J17633*
G01*
X2393313Y1155367D02*
X2393313Y1166313D01*
X2382367Y1166313D01*
G74*
D01*
G03X2393313Y1155367I17633J6687*
G01*
X2396063Y1173000D02*
G75*
D01*
G03X2396063Y1173000I3937J0*
G01*
X2393313Y1174367D02*
X2393313Y1190633D01*
G74*
D01*
G03X2385716Y1185313I6687J17633*
G01*
X2382367Y1185313D01*
G74*
D01*
G03X2383709Y1182500I17633J6687*
G01*
G74*
D01*
G03X2382367Y1179687I16291J9500*
G01*
X2385716Y1179687D01*
G74*
D01*
G03X2393313Y1174367I14284J12313*
G01*
X2414284Y1185313D02*
G74*
D01*
G03X2406687Y1190633I14284J12313*
G01*
X2406687Y1174367D01*
G74*
D01*
G03X2414284Y1179687I6687J17633*
G01*
X2417633Y1179687D01*
G74*
D01*
G03X2416291Y1182500I17633J6687*
G01*
G74*
D01*
G03X2417633Y1185313I16291J9500*
G01*
X2414284Y1185313D01*
X2160633Y1177313D02*
X2149687Y1177313D01*
X2149687Y1166367D01*
G74*
D01*
G03X2160633Y1177313I6687J17633*
G01*
X2139063Y1184000D02*
G75*
D01*
G03X2139063Y1184000I3937J0*
G01*
X2136313Y1166367D02*
X2136313Y1177313D01*
X2125367Y1177313D01*
G74*
D01*
G03X2136313Y1166367I17633J6687*
G01*
X2530367Y1049687D02*
X2541313Y1049687D01*
X2541313Y1060633D01*
G74*
D01*
G03X2530367Y1049687I6687J17633*
G01*
X2554687Y1060633D02*
X2554687Y1049687D01*
X2565633Y1049687D01*
G74*
D01*
G03X2554687Y1060633I17633J6687*
G01*
X2565633Y1036313D02*
X2554687Y1036313D01*
X2554687Y1025367D01*
G74*
D01*
G03X2565633Y1036313I6687J17633*
G01*
X2541313Y1025367D02*
X2541313Y1036313D01*
X2530367Y1036313D01*
G74*
D01*
G03X2541313Y1025367I17633J6687*
G01*
X2544063Y1043000D02*
G75*
D01*
G03X2544063Y1043000I3937J0*
G01*
X2406142Y1094000D02*
G75*
D01*
G03X2406142Y1094000I18858J0*
G01*
X2325367Y1037687D02*
X2336313Y1037687D01*
X2336313Y1048633D01*
G74*
D01*
G03X2325367Y1037687I6687J17633*
G01*
X2349687Y1048633D02*
X2349687Y1037687D01*
X2360633Y1037687D01*
G74*
D01*
G03X2349687Y1048633I17633J6687*
G01*
X2339063Y1031000D02*
G75*
D01*
G03X2339063Y1031000I3937J0*
G01*
X2190307Y1066835D02*
G75*
D01*
G03X2190307Y1066835I18858J0*
G01*
X2120142Y1092000D02*
G75*
D01*
G03X2120142Y1092000I18858J0*
G01*
X2323142Y986000D02*
G75*
D01*
G03X2323142Y986000I18858J0*
G01*
X2360633Y1024313D02*
X2349687Y1024313D01*
X2349687Y1013367D01*
G74*
D01*
G03X2360633Y1024313I6687J17633*
G01*
X2336313Y1013367D02*
X2336313Y1024313D01*
X2325367Y1024313D01*
G74*
D01*
G03X2336313Y1013367I17633J6687*
G01*
X2149367Y994687D02*
X2160313Y994687D01*
X2160313Y1005633D01*
G74*
D01*
G03X2149367Y994687I6687J17633*
G01*
X2173687Y1005633D02*
X2173687Y994687D01*
X2184633Y994687D01*
G74*
D01*
G03X2173687Y1005633I17633J6687*
G01*
X2184633Y981313D02*
X2173687Y981313D01*
X2173687Y970367D01*
G74*
D01*
G03X2184633Y981313I6687J17633*
G01*
X2160313Y970367D02*
X2160313Y981313D01*
X2149367Y981313D01*
G74*
D01*
G03X2160313Y970367I17633J6687*
G01*
X2163063Y988000D02*
G75*
D01*
G03X2163063Y988000I3937J0*
G01*
X2544313Y1507367D02*
X2544313Y1518313D01*
X2533367Y1518313D01*
G74*
D01*
G03X2544313Y1507367I17633J6687*
G01*
X895195Y1559702D02*
X895195Y1533195D01*
X921702Y1533195D01*
G74*
D01*
G03X895195Y1559702I42702J16195*
G01*
X921702Y1500805D02*
X895195Y1500805D01*
X895195Y1474298D01*
G74*
D01*
G03X921702Y1500805I16195J42702*
G01*
X512367Y1468687D02*
X523313Y1468687D01*
X523313Y1479633D01*
G74*
D01*
G03X512367Y1468687I6687J17633*
G01*
X536687Y1479633D02*
X536687Y1468687D01*
X547633Y1468687D01*
G74*
D01*
G03X536687Y1479633I17633J6687*
G01*
X547633Y1455313D02*
X536687Y1455313D01*
X536687Y1444367D01*
G74*
D01*
G03X547633Y1455313I6687J17633*
G01*
X523313Y1444367D02*
X523313Y1455313D01*
X512367Y1455313D01*
G74*
D01*
G03X523313Y1444367I17633J6687*
G01*
X526063Y1462000D02*
G75*
D01*
G03X526063Y1462000I3937J0*
G01*
X233497Y1485878D02*
G75*
D01*
G03X233497Y1485878I45670J0*
G01*
X133497Y1485878D02*
G75*
D01*
G03X133497Y1485878I45670J0*
G01*
X122919Y1501538D02*
G74*
D01*
G03X94827Y1529630I33337J5245*
G01*
X94827Y1501538D01*
X122919Y1501538D01*
X63506Y1529630D02*
G74*
D01*
G03X35414Y1501538I5246J33337*
G01*
X63506Y1501538D01*
X63506Y1529630D01*
X94827Y1442125D02*
G74*
D01*
G03X122919Y1470217I5245J33338*
G01*
X94827Y1470217D01*
X94827Y1442125D01*
X35414Y1470217D02*
G74*
D01*
G03X63506Y1442125I33338J5246*
G01*
X63506Y1470217D01*
X35414Y1470217D01*
X59582Y1485878D02*
G75*
D01*
G03X59582Y1485878I19585J0*
G01*
X233497Y1385878D02*
G75*
D01*
G03X233497Y1385878I45670J0*
G01*
X133497Y1385878D02*
G75*
D01*
G03X133497Y1385878I45670J0*
G01*
X121869Y1369683D02*
X95362Y1369683D01*
X95362Y1343176D01*
G74*
D01*
G03X121869Y1369683I16195J42702*
G01*
X95362Y1428580D02*
X95362Y1402073D01*
X121869Y1402073D01*
G74*
D01*
G03X95362Y1428580I42702J16195*
G01*
X62972Y1343176D02*
X62972Y1369683D01*
X36464Y1369683D01*
G74*
D01*
G03X62972Y1343176I42703J16195*
G01*
X36464Y1402073D02*
X62972Y1402073D01*
X62972Y1428580D01*
G74*
D01*
G03X36464Y1402073I16195J42702*
G01*
X61667Y1385878D02*
G75*
D01*
G03X61667Y1385878I17500J0*
G01*
X701142Y1460000D02*
G75*
D01*
G03X701142Y1460000I18858J0*
G01*
X635142Y1326000D02*
G75*
D01*
G03X635142Y1326000I18858J0*
G01*
X810687Y1234633D02*
X810687Y1223687D01*
X821633Y1223687D01*
G74*
D01*
G03X810687Y1234633I17633J6687*
G01*
X821633Y1210313D02*
X810687Y1210313D01*
X810687Y1199367D01*
G74*
D01*
G03X821633Y1210313I6687J17633*
G01*
X800063Y1217000D02*
G75*
D01*
G03X800063Y1217000I3937J0*
G01*
X786367Y1223687D02*
X797313Y1223687D01*
X797313Y1234633D01*
G74*
D01*
G03X786367Y1223687I6687J17633*
G01*
X797313Y1199367D02*
X797313Y1210313D01*
X786367Y1210313D01*
G74*
D01*
G03X797313Y1199367I17633J6687*
G01*
X559142Y1225000D02*
G75*
D01*
G03X559142Y1225000I18858J0*
G01*
X233497Y1285878D02*
G75*
D01*
G03X233497Y1285878I45670J0*
G01*
X133497Y1285878D02*
G75*
D01*
G03X133497Y1285878I45670J0*
G01*
X95362Y1328580D02*
X95362Y1302073D01*
X121869Y1302073D01*
G74*
D01*
G03X95362Y1328580I42702J16195*
G01*
X121869Y1269683D02*
X95362Y1269683D01*
X95362Y1243176D01*
G74*
D01*
G03X121869Y1269683I16195J42702*
G01*
X36464Y1302073D02*
X62972Y1302073D01*
X62972Y1328580D01*
G74*
D01*
G03X36464Y1302073I16195J42702*
G01*
X61667Y1285878D02*
G75*
D01*
G03X61667Y1285878I17500J0*
G01*
X62972Y1243176D02*
X62972Y1269683D01*
X36464Y1269683D01*
G74*
D01*
G03X62972Y1243176I42703J16195*
G01*
X782142Y1143000D02*
G75*
D01*
G03X782142Y1143000I18858J0*
G01*
X233497Y1185878D02*
G75*
D01*
G03X233497Y1185878I45670J0*
G01*
X133497Y1185878D02*
G75*
D01*
G03X133497Y1185878I45670J0*
G01*
X95362Y1228580D02*
X95362Y1202073D01*
X121869Y1202073D01*
G74*
D01*
G03X95362Y1228580I42702J16195*
G01*
X36464Y1202073D02*
X62972Y1202073D01*
X62972Y1228580D01*
G74*
D01*
G03X36464Y1202073I16195J42702*
G01*
X121869Y1169683D02*
X95362Y1169683D01*
X95362Y1143176D01*
G74*
D01*
G03X121869Y1169683I16195J42702*
G01*
X62972Y1143176D02*
X62972Y1169683D01*
X36464Y1169683D01*
G74*
D01*
G03X62972Y1143176I42703J16195*
G01*
X61667Y1185878D02*
G75*
D01*
G03X61667Y1185878I17500J0*
G01*
X821142Y1016000D02*
G75*
D01*
G03X821142Y1016000I18858J0*
G01*
X628142Y992000D02*
G75*
D01*
G03X628142Y992000I18858J0*
G01*
X790142Y959000D02*
G75*
D01*
G03X790142Y959000I18858J0*
G01*
X736142Y955000D02*
G75*
D01*
G03X736142Y955000I18858J0*
G01*
X122919Y962099D02*
G74*
D01*
G03X94827Y990191I33337J5245*
G01*
X94827Y962099D01*
X122919Y962099D01*
X63506Y990191D02*
G74*
D01*
G03X35414Y962099I5246J33337*
G01*
X63506Y962099D01*
X63506Y990191D01*
X862805Y1474298D02*
X862805Y1500805D01*
X836298Y1500805D01*
G74*
D01*
G03X862805Y1474298I42702J16195*
G01*
X861500Y1517000D02*
G75*
D01*
G03X861500Y1517000I17500J0*
G01*
X836298Y1533195D02*
X862805Y1533195D01*
X862805Y1559702D01*
G74*
D01*
G03X836298Y1533195I16195J42702*
G01*
X1123162Y1506585D02*
X1123162Y1527415D01*
G74*
D01*
G03X1089415Y1561162I33747J0*
G01*
X1068585Y1561162D01*
G75*
D01*
G03X1034838Y1527415I0J-33747*
G01*
X1034838Y1506585D01*
G75*
D01*
G03X1068585Y1472838I33747J0*
G01*
X1089415Y1472838D01*
G75*
D01*
G03X1123162Y1506585I0J33747*
G01*
X1745142Y1438000D02*
G75*
D01*
G03X1745142Y1438000I18858J0*
G01*
X1228063Y1450000D02*
G75*
D01*
G03X1228063Y1450000I3937J0*
G01*
X1225313Y1432367D02*
X1225313Y1443313D01*
X1214367Y1443313D01*
G74*
D01*
G03X1225313Y1432367I17633J6687*
G01*
X1249633Y1443313D02*
X1238687Y1443313D01*
X1238687Y1432367D01*
G74*
D01*
G03X1249633Y1443313I6687J17633*
G01*
X1238687Y1467633D02*
X1238687Y1456687D01*
X1249633Y1456687D01*
G74*
D01*
G03X1238687Y1467633I17633J6687*
G01*
X1214367Y1456687D02*
X1225313Y1456687D01*
X1225313Y1467633D01*
G74*
D01*
G03X1214367Y1456687I6687J17633*
G01*
X1642142Y1384000D02*
G75*
D01*
G03X1642142Y1384000I18858J0*
G01*
X1056908Y1394635D02*
X1056908Y1373869D01*
X1077675Y1373869D01*
G74*
D01*
G03X1056908Y1394635I33455J12688*
G01*
X1077675Y1348493D02*
X1056908Y1348493D01*
X1056908Y1327727D01*
G74*
D01*
G03X1077675Y1348493I12688J33454*
G01*
X1030441Y1361181D02*
G75*
D01*
G03X1030441Y1361181I13779J0*
G01*
X1043142Y1421000D02*
G75*
D01*
G03X1043142Y1421000I18858J0*
G01*
X1419142Y1309000D02*
G75*
D01*
G03X1419142Y1309000I18858J0*
G01*
X1150142Y1351000D02*
G75*
D01*
G03X1150142Y1351000I18858J0*
G01*
X1737063Y1228000D02*
G75*
D01*
G03X1737063Y1228000I3937J0*
G01*
X1758633Y1221313D02*
X1747687Y1221313D01*
X1747687Y1210367D01*
G74*
D01*
G03X1758633Y1221313I6687J17633*
G01*
X1747687Y1245633D02*
X1747687Y1234687D01*
X1758633Y1234687D01*
G74*
D01*
G03X1747687Y1245633I17633J6687*
G01*
X1789142Y1265000D02*
G75*
D01*
G03X1789142Y1265000I18858J0*
G01*
X1734313Y1210367D02*
X1734313Y1221313D01*
X1723367Y1221313D01*
G74*
D01*
G03X1734313Y1210367I17633J6687*
G01*
X1723367Y1234687D02*
X1734313Y1234687D01*
X1734313Y1245633D01*
G74*
D01*
G03X1723367Y1234687I6687J17633*
G01*
X1621367Y1191687D02*
X1632313Y1191687D01*
X1632313Y1202633D01*
G74*
D01*
G03X1621367Y1191687I6687J17633*
G01*
X1645687Y1202633D02*
X1645687Y1191687D01*
X1656633Y1191687D01*
G74*
D01*
G03X1645687Y1202633I17633J6687*
G01*
X1199063Y1241000D02*
G75*
D01*
G03X1199063Y1241000I3937J0*
G01*
X1196313Y1223367D02*
X1196313Y1234313D01*
X1185367Y1234313D01*
G74*
D01*
G03X1196313Y1223367I17633J6687*
G01*
X1220633Y1234313D02*
X1209687Y1234313D01*
X1209687Y1223367D01*
G74*
D01*
G03X1220633Y1234313I6687J17633*
G01*
X1209687Y1258633D02*
X1209687Y1247687D01*
X1220633Y1247687D01*
G74*
D01*
G03X1209687Y1258633I17633J6687*
G01*
X1185367Y1247687D02*
X1196313Y1247687D01*
X1196313Y1258633D01*
G74*
D01*
G03X1185367Y1247687I6687J17633*
G01*
X1109142Y1271000D02*
G75*
D01*
G03X1109142Y1271000I18858J0*
G01*
X1632313Y1167367D02*
X1632313Y1178313D01*
X1621367Y1178313D01*
G74*
D01*
G03X1632313Y1167367I17633J6687*
G01*
X1635063Y1185000D02*
G75*
D01*
G03X1635063Y1185000I3937J0*
G01*
X1656633Y1178313D02*
X1645687Y1178313D01*
X1645687Y1167367D01*
G74*
D01*
G03X1656633Y1178313I6687J17633*
G01*
X1496142Y1140000D02*
G75*
D01*
G03X1496142Y1140000I18858J0*
G01*
X1133142Y1142000D02*
G75*
D01*
G03X1133142Y1142000I18858J0*
G01*
X1734687Y1047633D02*
X1734687Y1036687D01*
X1745633Y1036687D01*
G74*
D01*
G03X1734687Y1047633I17633J6687*
G01*
X1724063Y1030000D02*
G75*
D01*
G03X1724063Y1030000I3937J0*
G01*
X1710367Y1036687D02*
X1721313Y1036687D01*
X1721313Y1047633D01*
G74*
D01*
G03X1710367Y1036687I6687J17633*
G01*
X936142Y1090000D02*
G75*
D01*
G03X936142Y1090000I18858J0*
G01*
X1745633Y1023313D02*
X1734687Y1023313D01*
X1734687Y1012367D01*
G74*
D01*
G03X1745633Y1023313I6687J17633*
G01*
X1785738Y1025125D02*
G75*
D01*
G03X1768900Y1004238I-18738J-2125*
G01*
G75*
D01*
G03X1785738Y1025125I18738J2124*
G01*
X1721313Y1012367D02*
X1721313Y1023313D01*
X1710367Y1023313D01*
G74*
D01*
G03X1721313Y1012367I17633J6687*
G01*
X1670142Y1011000D02*
G75*
D01*
G03X1670142Y1011000I18858J0*
G01*
X1298063Y960000D02*
G75*
D01*
G03X1298063Y960000I3937J0*
G01*
X1308687Y977633D02*
X1308687Y966687D01*
X1319633Y966687D01*
G74*
D01*
G03X1308687Y977633I17633J6687*
G01*
X1284367Y966687D02*
X1295313Y966687D01*
X1295313Y977633D01*
G74*
D01*
G03X1284367Y966687I6687J17633*
G01*
X1075142Y986000D02*
G75*
D01*
G03X1075142Y986000I18858J0*
G01*
X1024142Y1012000D02*
G75*
D01*
G03X1024142Y1012000I18858J0*
G01*
X1295313Y942367D02*
X1295313Y953313D01*
X1284367Y953313D01*
G74*
D01*
G03X1295313Y942367I17633J6687*
G01*
X1319633Y953313D02*
X1308687Y953313D01*
X1308687Y942367D01*
G74*
D01*
G03X1319633Y953313I6687J17633*
G01*
X2391435Y791507D02*
X2412202Y791507D01*
X2412202Y812273D01*
G74*
D01*
G03X2391435Y791507I12688J33454*
G01*
X2208142Y880000D02*
G75*
D01*
G03X2208142Y880000I18858J0*
G01*
X1987367Y846687D02*
X1998313Y846687D01*
X1998313Y857633D01*
G74*
D01*
G03X1987367Y846687I6687J17633*
G01*
X2011687Y857633D02*
X2011687Y846687D01*
X2022633Y846687D01*
G74*
D01*
G03X2011687Y857633I17633J6687*
G01*
X2022633Y833313D02*
X2011687Y833313D01*
X2011687Y822367D01*
G74*
D01*
G03X2022633Y833313I6687J17633*
G01*
X1998313Y822367D02*
X1998313Y833313D01*
X1987367Y833313D01*
G74*
D01*
G03X1998313Y822367I17633J6687*
G01*
X2001063Y840000D02*
G75*
D01*
G03X2001063Y840000I3937J0*
G01*
X2040142Y827000D02*
G75*
D01*
G03X2040142Y827000I18858J0*
G01*
X2661142Y730000D02*
G75*
D01*
G03X2661142Y730000I18858J0*
G01*
X2454417Y799025D02*
G74*
D01*
G03X2437577Y812273I29527J20206*
G01*
X2437577Y791507D01*
X2450490Y791507D01*
G75*
D01*
G03X2450490Y766131I33455J-12688*
G01*
X2437577Y766131D01*
X2437577Y745364D01*
G74*
D01*
G03X2454417Y758612I12687J33455*
G01*
G75*
D01*
G03X2513472Y758612I29528J20207*
G01*
G75*
D01*
G03X2572528Y758612I29528J20207*
G01*
G75*
D01*
G03X2572528Y799025I29527J20207*
G01*
G75*
D01*
G03X2513472Y799025I-29528J-20206*
G01*
G75*
D01*
G03X2454417Y799025I-29527J-20206*
G01*
X2411110Y778819D02*
G75*
D01*
G03X2411110Y778819I13780J0*
G01*
X2412202Y745364D02*
X2412202Y766131D01*
X2391435Y766131D01*
G74*
D01*
G03X2412202Y745364I33455J12688*
G01*
X2251142Y750000D02*
G75*
D01*
G03X2251142Y750000I18858J0*
G01*
X1938142Y750000D02*
G75*
D01*
G03X1938142Y750000I18858J0*
G01*
X2221142Y657000D02*
G75*
D01*
G03X2221142Y657000I18858J0*
G01*
X2221142Y614000D02*
G75*
D01*
G03X2221142Y614000I18858J0*
G01*
X2203633Y607313D02*
X2192687Y607313D01*
X2192687Y596367D01*
G74*
D01*
G03X2203633Y607313I6687J17633*
G01*
X2179313Y596367D02*
X2179313Y607313D01*
X2168367Y607313D01*
G74*
D01*
G03X2179313Y596367I17633J6687*
G01*
X2182063Y614000D02*
G75*
D01*
G03X2182063Y614000I3937J0*
G01*
X2168367Y620687D02*
X2179313Y620687D01*
X2179313Y631633D01*
G74*
D01*
G03X2168367Y620687I6687J17633*
G01*
X2192687Y631633D02*
X2192687Y620687D01*
X2203633Y620687D01*
G74*
D01*
G03X2192687Y631633I17633J6687*
G01*
X1934142Y655000D02*
G75*
D01*
G03X1934142Y655000I18858J0*
G01*
X1969142Y636000D02*
G75*
D01*
G03X1969142Y636000I18858J0*
G01*
X2393435Y577507D02*
X2414202Y577507D01*
X2414202Y598273D01*
G74*
D01*
G03X2393435Y577507I12688J33454*
G01*
X2574528Y544612D02*
G75*
D01*
G03X2574528Y585025I29527J20207*
G01*
G75*
D01*
G03X2515472Y585025I-29528J-20206*
G01*
G75*
D01*
G03X2456417Y585025I-29527J-20206*
G01*
G74*
D01*
G03X2439577Y598273I29527J20206*
G01*
X2439577Y577507D01*
X2452490Y577507D01*
G75*
D01*
G03X2452490Y552131I33455J-12688*
G01*
X2439577Y552131D01*
X2439577Y531364D01*
G74*
D01*
G03X2456417Y544612I12687J33455*
G01*
G75*
D01*
G03X2515472Y544612I29528J20207*
G01*
G75*
D01*
G03X2574528Y544612I29528J20207*
G01*
X2414202Y531364D02*
X2414202Y552131D01*
X2393435Y552131D01*
G74*
D01*
G03X2414202Y531364I33455J12688*
G01*
X2413110Y564819D02*
G75*
D01*
G03X2413110Y564819I13780J0*
G01*
X2251142Y533000D02*
G75*
D01*
G03X2251142Y533000I18858J0*
G01*
X2088367Y495687D02*
X2099313Y495687D01*
X2099313Y506633D01*
G74*
D01*
G03X2088367Y495687I6687J17633*
G01*
X2112687Y506633D02*
X2112687Y495687D01*
X2123633Y495687D01*
G74*
D01*
G03X2112687Y506633I17633J6687*
G01*
X2102063Y489000D02*
G75*
D01*
G03X2102063Y489000I3937J0*
G01*
X2303687Y427633D02*
X2303687Y416687D01*
X2314633Y416687D01*
G74*
D01*
G03X2303687Y427633I17633J6687*
G01*
X2293063Y410000D02*
G75*
D01*
G03X2293063Y410000I3937J0*
G01*
X2279367Y416687D02*
X2290313Y416687D01*
X2290313Y427633D01*
G74*
D01*
G03X2279367Y416687I6687J17633*
G01*
X2123633Y482313D02*
X2112687Y482313D01*
X2112687Y471367D01*
G74*
D01*
G03X2123633Y482313I6687J17633*
G01*
X2099313Y471367D02*
X2099313Y482313D01*
X2088367Y482313D01*
G74*
D01*
G03X2099313Y471367I17633J6687*
G01*
X1932633Y454313D02*
X1921687Y454313D01*
X1921687Y443367D01*
G74*
D01*
G03X1932633Y454313I6687J17633*
G01*
X1908313Y443367D02*
X1908313Y454313D01*
X1897367Y454313D01*
G74*
D01*
G03X1908313Y443367I17633J6687*
G01*
X1911063Y461000D02*
G75*
D01*
G03X1911063Y461000I3937J0*
G01*
X1897367Y467687D02*
X1908313Y467687D01*
X1908313Y478633D01*
G74*
D01*
G03X1897367Y467687I6687J17633*
G01*
X1921687Y478633D02*
X1921687Y467687D01*
X1932633Y467687D01*
G74*
D01*
G03X1921687Y478633I17633J6687*
G01*
X2314633Y403313D02*
X2303687Y403313D01*
X2303687Y392367D01*
G74*
D01*
G03X2314633Y403313I6687J17633*
G01*
X2290313Y392367D02*
X2290313Y403313D01*
X2279367Y403313D01*
G74*
D01*
G03X2290313Y392367I17633J6687*
G01*
X2509546Y274493D02*
X2496633Y274493D01*
X2496633Y253727D01*
G74*
D01*
G03X2513472Y266975I12688J33454*
G01*
G75*
D01*
G03X2572528Y266975I29528J20206*
G01*
G75*
D01*
G03X2572528Y307387I29527J20206*
G01*
G75*
D01*
G03X2513472Y307387I-29528J-20206*
G01*
G74*
D01*
G03X2496633Y320635I29527J20206*
G01*
X2496633Y299869D01*
X2509546Y299869D01*
G75*
D01*
G03X2509546Y274493I33454J-12688*
G01*
X2470165Y287181D02*
G75*
D01*
G03X2470165Y287181I13780J0*
G01*
X2471257Y253727D02*
X2471257Y274493D01*
X2450490Y274493D01*
G74*
D01*
G03X2471257Y253727I33455J12688*
G01*
X2450490Y299869D02*
X2471257Y299869D01*
X2471257Y320635D01*
G74*
D01*
G03X2450490Y299869I12688J33454*
G01*
X2056367Y299687D02*
X2067313Y299687D01*
X2067313Y310633D01*
G74*
D01*
G03X2056367Y299687I6687J17633*
G01*
X2080687Y310633D02*
X2080687Y299687D01*
X2091633Y299687D01*
G74*
D01*
G03X2080687Y310633I17633J6687*
G01*
X2091633Y286313D02*
X2080687Y286313D01*
X2080687Y275367D01*
G74*
D01*
G03X2091633Y286313I6687J17633*
G01*
X2067313Y275367D02*
X2067313Y286313D01*
X2056367Y286313D01*
G74*
D01*
G03X2067313Y275367I17633J6687*
G01*
X2070063Y293000D02*
G75*
D01*
G03X2070063Y293000I3937J0*
G01*
X1903142Y303000D02*
G75*
D01*
G03X1903142Y303000I18858J0*
G01*
X2298330Y82000D02*
G75*
D01*
G03X2298330Y82000I45670J0*
G01*
X2198330Y82000D02*
G75*
D01*
G03X2198330Y82000I45670J0*
G01*
X2160195Y124702D02*
X2160195Y98195D01*
X2186702Y98195D01*
G74*
D01*
G03X2160195Y124702I42702J16195*
G01*
X2101298Y98195D02*
X2127805Y98195D01*
X2127805Y124702D01*
G74*
D01*
G03X2101298Y98195I16195J42702*
G01*
X2186702Y65805D02*
X2160195Y65805D01*
X2160195Y39298D01*
G74*
D01*
G03X2186702Y65805I16195J42702*
G01*
X2126500Y82000D02*
G75*
D01*
G03X2126500Y82000I17500J0*
G01*
X2127805Y39298D02*
X2127805Y65805D01*
X2101298Y65805D01*
G74*
D01*
G03X2127805Y39298I42702J16195*
G01*
X1998330Y82000D02*
G75*
D01*
G03X1998330Y82000I45670J0*
G01*
X1899838Y92415D02*
X1899838Y71585D01*
G75*
D01*
G03X1933585Y37838I33747J0*
G01*
X1954415Y37838D01*
G75*
D01*
G03X1988162Y71585I0J33747*
G01*
X1988162Y92415D01*
G74*
D01*
G03X1954415Y126162I33747J0*
G01*
X1933585Y126162D01*
G75*
D01*
G03X1899838Y92415I0J-33747*
G01*
X576367Y881687D02*
X587313Y881687D01*
X587313Y892633D01*
G74*
D01*
G03X576367Y881687I6687J17633*
G01*
X600687Y892633D02*
X600687Y881687D01*
X611633Y881687D01*
G74*
D01*
G03X600687Y892633I17633J6687*
G01*
X94827Y902686D02*
G74*
D01*
G03X122919Y930778I5245J33338*
G01*
X94827Y930778D01*
X94827Y902686D01*
X35414Y930778D02*
G74*
D01*
G03X63506Y902686I33338J5246*
G01*
X63506Y930778D01*
X35414Y930778D01*
X731961Y835819D02*
G75*
D01*
G03X731961Y835819I18858J0*
G01*
X611633Y868313D02*
X600687Y868313D01*
X600687Y857367D01*
G74*
D01*
G03X611633Y868313I6687J17633*
G01*
X587313Y857367D02*
X587313Y868313D01*
X576367Y868313D01*
G74*
D01*
G03X587313Y857367I17633J6687*
G01*
X332367Y826687D02*
X343313Y826687D01*
X343313Y837633D01*
G74*
D01*
G03X332367Y826687I6687J17633*
G01*
X356687Y837633D02*
X356687Y826687D01*
X367633Y826687D01*
G74*
D01*
G03X356687Y837633I17633J6687*
G01*
X367633Y813313D02*
X356687Y813313D01*
X356687Y802367D01*
G74*
D01*
G03X367633Y813313I6687J17633*
G01*
X343313Y802367D02*
X343313Y813313D01*
X332367Y813313D01*
G74*
D01*
G03X343313Y802367I17633J6687*
G01*
X346063Y820000D02*
G75*
D01*
G03X346063Y820000I3937J0*
G01*
X233497Y846439D02*
G75*
D01*
G03X233497Y846439I45670J0*
G01*
X133497Y846439D02*
G75*
D01*
G03X133497Y846439I45670J0*
G01*
X121869Y830244D02*
X95362Y830244D01*
X95362Y803737D01*
G74*
D01*
G03X121869Y830244I16195J42702*
G01*
X95362Y889141D02*
X95362Y862634D01*
X121869Y862634D01*
G74*
D01*
G03X95362Y889141I42702J16195*
G01*
X62972Y803737D02*
X62972Y830244D01*
X36464Y830244D01*
G74*
D01*
G03X62972Y803737I42703J16195*
G01*
X36464Y862634D02*
X62972Y862634D01*
X62972Y889141D01*
G74*
D01*
G03X36464Y862634I16195J42702*
G01*
X61667Y846439D02*
G75*
D01*
G03X61667Y846439I17500J0*
G01*
X827142Y773000D02*
G75*
D01*
G03X827142Y773000I18858J0*
G01*
X590142Y746000D02*
G75*
D01*
G03X590142Y746000I18858J0*
G01*
X854816Y696269D02*
G75*
D01*
G03X838184Y713731I2184J18731*
G01*
G75*
D01*
G03X854816Y696269I-2184J-18731*
G01*
X765313Y677367D02*
X765313Y688313D01*
X754367Y688313D01*
G74*
D01*
G03X765313Y677367I17633J6687*
G01*
X768063Y695000D02*
G75*
D01*
G03X768063Y695000I3937J0*
G01*
X714114Y696972D02*
G75*
D01*
G03X714114Y696972I18858J0*
G01*
X754367Y701687D02*
X765313Y701687D01*
X765313Y712633D01*
G74*
D01*
G03X754367Y701687I6687J17633*
G01*
X778687Y712633D02*
X778687Y701687D01*
X789633Y701687D01*
G74*
D01*
G03X778687Y712633I17633J6687*
G01*
X789633Y688313D02*
X778687Y688313D01*
X778687Y677367D01*
G74*
D01*
G03X789633Y688313I6687J17633*
G01*
X233497Y746439D02*
G75*
D01*
G03X233497Y746439I45670J0*
G01*
X133497Y746439D02*
G75*
D01*
G03X133497Y746439I45670J0*
G01*
X121869Y730244D02*
X95362Y730244D01*
X95362Y703737D01*
G74*
D01*
G03X121869Y730244I16195J42702*
G01*
X95362Y789141D02*
X95362Y762634D01*
X121869Y762634D01*
G74*
D01*
G03X95362Y789141I42702J16195*
G01*
X36464Y762634D02*
X62972Y762634D01*
X62972Y789141D01*
G74*
D01*
G03X36464Y762634I16195J42702*
G01*
X61667Y746439D02*
G75*
D01*
G03X61667Y746439I17500J0*
G01*
X62972Y703737D02*
X62972Y730244D01*
X36464Y730244D01*
G74*
D01*
G03X62972Y703737I42703J16195*
G01*
X233497Y646439D02*
G75*
D01*
G03X233497Y646439I45670J0*
G01*
X133497Y646439D02*
G75*
D01*
G03X133497Y646439I45670J0*
G01*
X95362Y689141D02*
X95362Y662634D01*
X121869Y662634D01*
G74*
D01*
G03X95362Y689141I42702J16195*
G01*
X36464Y662634D02*
X62972Y662634D01*
X62972Y689141D01*
G74*
D01*
G03X36464Y662634I16195J42702*
G01*
X121869Y630244D02*
X95362Y630244D01*
X95362Y603737D01*
G74*
D01*
G03X121869Y630244I16195J42702*
G01*
X62972Y603737D02*
X62972Y630244D01*
X36464Y630244D01*
G74*
D01*
G03X62972Y603737I42703J16195*
G01*
X61667Y646439D02*
G75*
D01*
G03X61667Y646439I17500J0*
G01*
X616142Y438000D02*
G75*
D01*
G03X616142Y438000I18858J0*
G01*
X233497Y407000D02*
G75*
D01*
G03X233497Y407000I45670J0*
G01*
X133497Y407000D02*
G75*
D01*
G03X133497Y407000I45670J0*
G01*
X122919Y422660D02*
G74*
D01*
G03X94827Y450752I33337J5245*
G01*
X94827Y422660D01*
X122919Y422660D01*
X63506Y450752D02*
G74*
D01*
G03X35414Y422660I5246J33337*
G01*
X63506Y422660D01*
X63506Y450752D01*
X94827Y363248D02*
G74*
D01*
G03X122919Y391340I5245J33337*
G01*
X94827Y391340D01*
X94827Y363248D01*
X35414Y391340D02*
G74*
D01*
G03X63506Y363248I33338J5245*
G01*
X63506Y391340D01*
X35414Y391340D01*
X59582Y407000D02*
G75*
D01*
G03X59582Y407000I19585J0*
G01*
X233497Y307000D02*
G75*
D01*
G03X233497Y307000I45670J0*
G01*
X133497Y307000D02*
G75*
D01*
G03X133497Y307000I45670J0*
G01*
X95362Y349702D02*
X95362Y323195D01*
X121869Y323195D01*
G74*
D01*
G03X95362Y349702I42702J16195*
G01*
X36464Y323195D02*
X62972Y323195D01*
X62972Y349702D01*
G74*
D01*
G03X36464Y323195I16195J42702*
G01*
X121869Y290805D02*
X95362Y290805D01*
X95362Y264298D01*
G74*
D01*
G03X121869Y290805I16195J42702*
G01*
X62972Y264298D02*
X62972Y290805D01*
X36464Y290805D01*
G74*
D01*
G03X62972Y264298I42703J16195*
G01*
X61667Y307000D02*
G75*
D01*
G03X61667Y307000I17500J0*
G01*
X233497Y207000D02*
G75*
D01*
G03X233497Y207000I45670J0*
G01*
X133497Y207000D02*
G75*
D01*
G03X133497Y207000I45670J0*
G01*
X121869Y190805D02*
X95362Y190805D01*
X95362Y164298D01*
G74*
D01*
G03X121869Y190805I16195J42702*
G01*
X95362Y249702D02*
X95362Y223195D01*
X121869Y223195D01*
G74*
D01*
G03X95362Y249702I42702J16195*
G01*
X62972Y164298D02*
X62972Y190805D01*
X36464Y190805D01*
G74*
D01*
G03X62972Y164298I42703J16195*
G01*
X36464Y223195D02*
X62972Y223195D01*
X62972Y249702D01*
G74*
D01*
G03X36464Y223195I16195J42702*
G01*
X61667Y207000D02*
G75*
D01*
G03X61667Y207000I17500J0*
G01*
X928493Y147435D02*
X928493Y168202D01*
X907727Y168202D01*
G74*
D01*
G03X928493Y147435I33454J12688*
G01*
X763507Y272601D02*
X763507Y259688D01*
X784273Y259688D01*
G74*
D01*
G03X771025Y276528I33454J12688*
G01*
G75*
D01*
G03X730612Y276528I-20206J29527*
G01*
G74*
D01*
G03X717364Y259688I20207J29528*
G01*
X738131Y259688D01*
X738131Y272601D01*
G75*
D01*
G03X763507Y272601I12688J33454*
G01*
X738131Y221399D02*
X738131Y234312D01*
X717364Y234312D01*
G74*
D01*
G03X730612Y217472I33455J12688*
G01*
G75*
D01*
G03X771025Y217472I20207J-29527*
G01*
G74*
D01*
G03X784273Y234312I20206J29528*
G01*
X763507Y234312D01*
X763507Y221399D01*
G75*
D01*
G03X738131Y221399I-12688J-33454*
G01*
X737039Y247000D02*
G75*
D01*
G03X737039Y247000I13780J0*
G01*
X550131Y271601D02*
G75*
D01*
G03X575507Y271601I12688J33454*
G01*
X575507Y258688D01*
X596273Y258688D01*
G74*
D01*
G03X583025Y275528I33454J12688*
G01*
G75*
D01*
G03X542612Y275528I-20206J29527*
G01*
G74*
D01*
G03X529364Y258688I20207J29528*
G01*
X550131Y258688D01*
X550131Y271601D01*
X550131Y220399D02*
X550131Y233312D01*
X529364Y233312D01*
G74*
D01*
G03X542612Y216472I33455J12688*
G01*
G75*
D01*
G03X583025Y216472I20207J-29527*
G01*
G74*
D01*
G03X596273Y233312I20206J29528*
G01*
X575507Y233312D01*
X575507Y220399D01*
G75*
D01*
G03X550131Y220399I-12688J-33454*
G01*
X549039Y246000D02*
G75*
D01*
G03X549039Y246000I13780J0*
G01*
X233497Y107000D02*
G75*
D01*
G03X233497Y107000I45670J0*
G01*
X133497Y107000D02*
G75*
D01*
G03X133497Y107000I45670J0*
G01*
X95362Y149702D02*
X95362Y123195D01*
X121869Y123195D01*
G74*
D01*
G03X95362Y149702I42702J16195*
G01*
X121869Y90805D02*
X95362Y90805D01*
X95362Y64298D01*
G74*
D01*
G03X121869Y90805I16195J42702*
G01*
X36464Y123195D02*
X62972Y123195D01*
X62972Y149702D01*
G74*
D01*
G03X36464Y123195I16195J42702*
G01*
X61667Y107000D02*
G75*
D01*
G03X61667Y107000I17500J0*
G01*
X62972Y64298D02*
X62972Y90805D01*
X36464Y90805D01*
G74*
D01*
G03X62972Y64298I42703J16195*
G01*
X590063Y875000D02*
G75*
D01*
G03X590063Y875000I3937J0*
G01*
X1484687Y886633D02*
X1484687Y875687D01*
X1495633Y875687D01*
G74*
D01*
G03X1484687Y886633I17633J6687*
G01*
X1460367Y875687D02*
X1471313Y875687D01*
X1471313Y886633D01*
G74*
D01*
G03X1460367Y875687I6687J17633*
G01*
X1260063Y880000D02*
G75*
D01*
G03X1260063Y880000I3937J0*
G01*
X1270687Y897633D02*
X1270687Y886687D01*
X1281633Y886687D01*
G74*
D01*
G03X1270687Y897633I17633J6687*
G01*
X1246367Y886687D02*
X1257313Y886687D01*
X1257313Y897633D01*
G74*
D01*
G03X1246367Y886687I6687J17633*
G01*
X1121687Y877633D02*
X1121687Y866687D01*
X1132633Y866687D01*
G74*
D01*
G03X1121687Y877633I17633J6687*
G01*
X1097367Y866687D02*
X1108313Y866687D01*
X1108313Y877633D01*
G74*
D01*
G03X1097367Y866687I6687J17633*
G01*
X1816063Y830000D02*
G75*
D01*
G03X1816063Y830000I3937J0*
G01*
X1837633Y823313D02*
X1826687Y823313D01*
X1826687Y812367D01*
G74*
D01*
G03X1837633Y823313I6687J17633*
G01*
X1826687Y847633D02*
X1826687Y836687D01*
X1837633Y836687D01*
G74*
D01*
G03X1826687Y847633I17633J6687*
G01*
X1813313Y812367D02*
X1813313Y823313D01*
X1802367Y823313D01*
G74*
D01*
G03X1813313Y812367I17633J6687*
G01*
X1802367Y836687D02*
X1813313Y836687D01*
X1813313Y847633D01*
G74*
D01*
G03X1802367Y836687I6687J17633*
G01*
X1713142Y850000D02*
G75*
D01*
G03X1713142Y850000I18858J0*
G01*
X1522142Y814000D02*
G75*
D01*
G03X1522142Y814000I18858J0*
G01*
X1471313Y851367D02*
X1471313Y862313D01*
X1460367Y862313D01*
G74*
D01*
G03X1471313Y851367I17633J6687*
G01*
X1495633Y862313D02*
X1484687Y862313D01*
X1484687Y851367D01*
G74*
D01*
G03X1495633Y862313I6687J17633*
G01*
X1474063Y869000D02*
G75*
D01*
G03X1474063Y869000I3937J0*
G01*
X1297142Y830000D02*
G75*
D01*
G03X1297142Y830000I18858J0*
G01*
X1281633Y873313D02*
X1270687Y873313D01*
X1270687Y862367D01*
G74*
D01*
G03X1281633Y873313I6687J17633*
G01*
X1211142Y816000D02*
G75*
D01*
G03X1211142Y816000I18858J0*
G01*
X1257313Y862367D02*
X1257313Y873313D01*
X1246367Y873313D01*
G74*
D01*
G03X1257313Y862367I17633J6687*
G01*
X1111063Y860000D02*
G75*
D01*
G03X1111063Y860000I3937J0*
G01*
X1132633Y853313D02*
X1121687Y853313D01*
X1121687Y842367D01*
G74*
D01*
G03X1132633Y853313I6687J17633*
G01*
X1108313Y842367D02*
X1108313Y853313D01*
X1097367Y853313D01*
G74*
D01*
G03X1108313Y842367I17633J6687*
G01*
X1524142Y772000D02*
G75*
D01*
G03X1524142Y772000I18858J0*
G01*
X1334862Y716161D02*
G75*
D01*
G03X1352138Y729839I18138J-5161*
G01*
G75*
D01*
G03X1334862Y716161I-18138J5161*
G01*
X1338142Y770000D02*
G75*
D01*
G03X1338142Y770000I18858J0*
G01*
X1146063Y759000D02*
G75*
D01*
G03X1146063Y759000I3937J0*
G01*
X1143313Y741367D02*
X1143313Y752313D01*
X1132367Y752313D01*
G74*
D01*
G03X1143313Y741367I17633J6687*
G01*
X1167633Y752313D02*
X1156687Y752313D01*
X1156687Y741367D01*
G74*
D01*
G03X1167633Y752313I6687J17633*
G01*
X1156687Y776633D02*
X1156687Y765687D01*
X1167633Y765687D01*
G74*
D01*
G03X1156687Y776633I17633J6687*
G01*
X1132367Y765687D02*
X1143313Y765687D01*
X1143313Y776633D01*
G74*
D01*
G03X1132367Y765687I6687J17633*
G01*
X1174142Y733000D02*
G75*
D01*
G03X1174142Y733000I18858J0*
G01*
X1033063Y777000D02*
G75*
D01*
G03X1033063Y777000I3937J0*
G01*
X1054633Y770313D02*
X1043687Y770313D01*
X1043687Y759367D01*
G74*
D01*
G03X1054633Y770313I6687J17633*
G01*
X1043687Y794633D02*
X1043687Y783687D01*
X1054633Y783687D01*
G74*
D01*
G03X1043687Y794633I17633J6687*
G01*
X1030313Y759367D02*
X1030313Y770313D01*
X1019367Y770313D01*
G74*
D01*
G03X1030313Y759367I17633J6687*
G01*
X1019367Y783687D02*
X1030313Y783687D01*
X1030313Y794633D01*
G74*
D01*
G03X1019367Y783687I6687J17633*
G01*
X1668633Y685313D02*
X1657687Y685313D01*
X1657687Y674367D01*
G74*
D01*
G03X1668633Y685313I6687J17633*
G01*
X1657687Y709633D02*
X1657687Y698687D01*
X1668633Y698687D01*
G74*
D01*
G03X1657687Y709633I17633J6687*
G01*
X1644313Y674367D02*
X1644313Y685313D01*
X1633367Y685313D01*
G74*
D01*
G03X1644313Y674367I17633J6687*
G01*
X1647063Y692000D02*
G75*
D01*
G03X1647063Y692000I3937J0*
G01*
X1633367Y698687D02*
X1644313Y698687D01*
X1644313Y709633D01*
G74*
D01*
G03X1633367Y698687I6687J17633*
G01*
X1447142Y657000D02*
G75*
D01*
G03X1447142Y657000I18858J0*
G01*
X1070142Y689000D02*
G75*
D01*
G03X1070142Y689000I18858J0*
G01*
X1029142Y718000D02*
G75*
D01*
G03X1029142Y718000I18858J0*
G01*
X1810142Y501000D02*
G75*
D01*
G03X1810142Y501000I18858J0*
G01*
X1784142Y545000D02*
G75*
D01*
G03X1784142Y545000I18858J0*
G01*
X1696063Y483000D02*
G75*
D01*
G03X1696063Y483000I3937J0*
G01*
X1706687Y500633D02*
X1706687Y489687D01*
X1717633Y489687D01*
G74*
D01*
G03X1706687Y500633I17633J6687*
G01*
X1682367Y489687D02*
X1693313Y489687D01*
X1693313Y500633D01*
G74*
D01*
G03X1682367Y489687I6687J17633*
G01*
X1558142Y498000D02*
G75*
D01*
G03X1558142Y498000I18858J0*
G01*
X1330142Y517000D02*
G75*
D01*
G03X1330142Y517000I18858J0*
G01*
X1211142Y500000D02*
G75*
D01*
G03X1211142Y500000I18858J0*
G01*
X1163063Y494000D02*
G75*
D01*
G03X1163063Y494000I3937J0*
G01*
X1160313Y476367D02*
X1160313Y487313D01*
X1149367Y487313D01*
G74*
D01*
G03X1160313Y476367I17633J6687*
G01*
X1149367Y500687D02*
X1160313Y500687D01*
X1160313Y511633D01*
G74*
D01*
G03X1149367Y500687I6687J17633*
G01*
X1184633Y487313D02*
X1173687Y487313D01*
X1173687Y476367D01*
G74*
D01*
G03X1184633Y487313I6687J17633*
G01*
X1173687Y511633D02*
X1173687Y500687D01*
X1184633Y500687D01*
G74*
D01*
G03X1173687Y511633I17633J6687*
G01*
X1807142Y423000D02*
G75*
D01*
G03X1807142Y423000I18858J0*
G01*
X1693313Y465367D02*
X1693313Y476313D01*
X1682367Y476313D01*
G74*
D01*
G03X1693313Y465367I17633J6687*
G01*
X1717633Y476313D02*
X1706687Y476313D01*
X1706687Y465367D01*
G74*
D01*
G03X1717633Y476313I6687J17633*
G01*
X1649142Y422000D02*
G75*
D01*
G03X1649142Y422000I18858J0*
G01*
X1628142Y485000D02*
G75*
D01*
G03X1628142Y485000I18858J0*
G01*
X1275633Y448313D02*
X1264687Y448313D01*
X1264687Y437367D01*
G74*
D01*
G03X1275633Y448313I6687J17633*
G01*
X1264687Y472633D02*
X1264687Y461687D01*
X1275633Y461687D01*
G74*
D01*
G03X1264687Y472633I17633J6687*
G01*
X1251313Y437367D02*
X1251313Y448313D01*
X1240367Y448313D01*
G74*
D01*
G03X1251313Y437367I17633J6687*
G01*
X1254063Y455000D02*
G75*
D01*
G03X1254063Y455000I3937J0*
G01*
X1240367Y461687D02*
X1251313Y461687D01*
X1251313Y472633D01*
G74*
D01*
G03X1240367Y461687I6687J17633*
G01*
X1084063Y330000D02*
G75*
D01*
G03X1084063Y330000I3937J0*
G01*
X1070367Y336687D02*
X1081313Y336687D01*
X1081313Y347633D01*
G74*
D01*
G03X1070367Y336687I6687J17633*
G01*
X1094687Y347633D02*
X1094687Y336687D01*
X1105633Y336687D01*
G74*
D01*
G03X1094687Y347633I17633J6687*
G01*
X974635Y168202D02*
X953869Y168202D01*
X953869Y147435D01*
G74*
D01*
G03X974635Y168202I12688J33455*
G01*
X1765142Y258000D02*
G75*
D01*
G03X1765142Y258000I18858J0*
G01*
X1217063Y260000D02*
G75*
D01*
G03X1217063Y260000I3937J0*
G01*
X1214313Y242367D02*
X1214313Y253313D01*
X1203367Y253313D01*
G74*
D01*
G03X1214313Y242367I17633J6687*
G01*
X1238633Y253313D02*
X1227687Y253313D01*
X1227687Y242367D01*
G74*
D01*
G03X1238633Y253313I6687J17633*
G01*
X1227687Y277633D02*
X1227687Y266687D01*
X1238633Y266687D01*
G74*
D01*
G03X1227687Y277633I17633J6687*
G01*
X1203367Y266687D02*
X1214313Y266687D01*
X1214313Y277633D01*
G74*
D01*
G03X1203367Y266687I6687J17633*
G01*
X1081313Y312367D02*
X1081313Y323313D01*
X1070367Y323313D01*
G74*
D01*
G03X1081313Y312367I17633J6687*
G01*
X1105633Y323313D02*
X1094687Y323313D01*
X1094687Y312367D01*
G74*
D01*
G03X1105633Y323313I6687J17633*
G01*
X1773142Y208000D02*
G75*
D01*
G03X1773142Y208000I18858J0*
G01*
X1593063Y209000D02*
G75*
D01*
G03X1593063Y209000I3937J0*
G01*
X1590313Y191367D02*
X1590313Y202313D01*
X1579367Y202313D01*
G74*
D01*
G03X1590313Y191367I17633J6687*
G01*
X1614633Y202313D02*
X1603687Y202313D01*
X1603687Y191367D01*
G74*
D01*
G03X1614633Y202313I6687J17633*
G01*
X1603687Y226633D02*
X1603687Y215687D01*
X1614633Y215687D01*
G74*
D01*
G03X1603687Y226633I17633J6687*
G01*
X1579367Y215687D02*
X1590313Y215687D01*
X1590313Y226633D01*
G74*
D01*
G03X1579367Y215687I6687J17633*
G01*
X1274205Y100000D02*
G75*
D01*
G03X1274205Y100000I3937J0*
G01*
X1271454Y82367D02*
X1271454Y93313D01*
X1260509Y93313D01*
G74*
D01*
G03X1271454Y82367I17633J6687*
G01*
X1295774Y93313D02*
X1284829Y93313D01*
X1284829Y82367D01*
G74*
D01*
G03X1295774Y93313I6687J17633*
G01*
X1284829Y117633D02*
X1284829Y106687D01*
X1295774Y106687D01*
G74*
D01*
G03X1284829Y117633I17632J6687*
G01*
X1260509Y106687D02*
X1271454Y106687D01*
X1271454Y117633D01*
G74*
D01*
G03X1260509Y106687I6688J17633*
G01*
X1568054Y1543307D02*
X1568054Y1561867D01*
X2742969Y1561867D01*
X2742969Y12936D01*
X12936Y12936D01*
X12936Y1561867D01*
X670473Y1561867D01*
G75*
D01*
G03X687527Y1561867I8527J-44867*
G01*
X770473Y1561867D01*
G75*
D01*
G03X787527Y1561867I8527J-44867*
G01*
X970473Y1561867D01*
G75*
D01*
G03X987527Y1561867I8527J-44867*
G01*
X1305961Y1561867D01*
X1305961Y1543307D01*
G75*
D01*
G03X1318898Y1530371I12937J0*
G01*
X1555118Y1530371D01*
G75*
D01*
G03X1568054Y1543307I0J12936*
G01*
G54D12*
X1128000Y1271000D03*
X1438000Y1309000D03*
X801000Y1143000D03*
X1152000Y1142000D03*
X1048000Y718000D03*
X1353000Y711000D03*
X713000Y930000D03*
X1806000Y928000D03*
X654000Y1326000D03*
X732972Y696972D03*
X720000Y1460000D03*
X900665Y816665D03*
X879000Y798000D03*
X1193000Y733000D03*
X1334000Y735000D03*
X920000Y700000D03*
X1466000Y657000D03*
X857000Y715000D03*
X846000Y773000D03*
X1357000Y770000D03*
X1043000Y1012000D03*
X1689000Y1011000D03*
X1668000Y422000D03*
X1349000Y517000D03*
X1316000Y830000D03*
X2209165Y1066835D03*
X2139000Y1092000D03*
X1230000Y500000D03*
X1230000Y816000D03*
X1515000Y1140000D03*
X1094000Y986000D03*
X2342000Y986000D03*
X955000Y1090000D03*
X2425000Y1094000D03*
X1988000Y636000D03*
X2240000Y614000D03*
X1957000Y750000D03*
X2270000Y533000D03*
X1541000Y814000D03*
X1543000Y772000D03*
X1647000Y485000D03*
X1767000Y1023000D03*
X1803000Y545000D03*
X1787638Y1006362D03*
X1829000Y501000D03*
X755000Y955000D03*
X1943000Y1218000D03*
X809000Y959000D03*
X1169000Y1351000D03*
X840000Y1016000D03*
X2284000Y1375000D03*
X836000Y695000D03*
X1661000Y1384000D03*
X1089000Y689000D03*
X2680000Y730000D03*
X1808000Y1265000D03*
X2007000Y1236000D03*
X2087000Y1236000D03*
X635000Y438000D03*
X1953000Y655000D03*
X1826000Y423000D03*
X1577000Y498000D03*
X1922000Y303000D03*
X1792000Y208000D03*
X2227000Y880000D03*
X2270000Y750000D03*
X1784000Y258000D03*
X2294000Y1475000D03*
X1062000Y1421000D03*
X609000Y746000D03*
X578000Y1225000D03*
X922000Y1222000D03*
X2432000Y1367000D03*
X1764000Y1438000D03*
X928181Y835819D03*
X750819Y835819D03*
X931000Y992000D03*
X647000Y992000D03*
X1732000Y850000D03*
X2240000Y657000D03*
X2313000Y1475000D03*
X2059000Y827000D03*
X772000Y695000D03*
X1115000Y860000D03*
X804000Y1217000D03*
X594000Y875000D03*
X1037000Y777000D03*
X1203000Y1241000D03*
X350000Y820000D03*
X1150000Y759000D03*
X2167000Y988000D03*
X2448000Y1523000D03*
X2551000Y1525000D03*
X2352000Y1377000D03*
X2370000Y1377000D03*
X2303000Y1519000D03*
X1820000Y830000D03*
X1639000Y1185000D03*
X1302000Y960000D03*
X1478000Y869000D03*
X1651000Y692000D03*
X1728000Y1030000D03*
X1597000Y209000D03*
X1264000Y880000D03*
X1700000Y483000D03*
X2005000Y840000D03*
X1741000Y1228000D03*
X2343000Y1031000D03*
X1915000Y461000D03*
X1232000Y1450000D03*
X2074000Y293000D03*
X2297000Y410000D03*
X2186000Y614000D03*
X2106000Y489000D03*
X1167000Y494000D03*
X1088000Y330000D03*
X1221000Y260000D03*
X1258000Y455000D03*
X2093000Y1319000D03*
X2092000Y1299000D03*
X2143000Y1184000D03*
X2400000Y1192000D03*
X2400000Y1173000D03*
X2487000Y1183000D03*
X1278142Y100000D03*
X2073000Y1499000D03*
X2173000Y1414000D03*
X2548000Y1043000D03*
X530000Y1462000D03*
G54D13*
X2483945Y287181D03*
X2543000Y287181D03*
X2602055Y287181D03*
X562819Y186945D03*
X562819Y246000D03*
X562819Y305055D03*
X750819Y187945D03*
X750819Y247000D03*
X750819Y306055D03*
X2604055Y564819D03*
X2545000Y564819D03*
X2485945Y564819D03*
X2426890Y564819D03*
X748945Y1361181D03*
X808000Y1361181D03*
X867055Y1361181D03*
X926110Y1361181D03*
X985165Y1361181D03*
X1044220Y1361181D03*
X2602055Y778819D03*
X2543000Y778819D03*
X2483945Y778819D03*
X2424890Y778819D03*
X941181Y180890D03*
X941181Y239945D03*
X941181Y299000D03*
X941181Y358055D03*
X2629181Y1484055D03*
X2629181Y1425000D03*
X2629181Y1365945D03*
X2629181Y1306890D03*
X2629181Y1247835D03*
X2629181Y1188780D03*
G54D14*
X179167Y207000D03*
X179167Y407000D03*
X179167Y307000D03*
X179167Y107000D03*
X79167Y207000D03*
X79167Y307000D03*
X79167Y107000D03*
X279167Y407000D03*
X279167Y307000D03*
X279167Y207000D03*
X279167Y107000D03*
X179167Y746439D03*
X179167Y946439D03*
X179167Y846439D03*
X179167Y646439D03*
X79167Y746439D03*
X79167Y846439D03*
X79167Y646439D03*
X279167Y946439D03*
X279167Y846439D03*
X279167Y746439D03*
X279167Y646439D03*
X179167Y1285878D03*
X179167Y1485878D03*
X179167Y1385878D03*
X179167Y1185878D03*
X79167Y1285878D03*
X79167Y1385878D03*
X79167Y1185878D03*
X279167Y1485878D03*
X279167Y1385878D03*
X279167Y1285878D03*
X279167Y1185878D03*
X2044000Y82000D03*
X2144000Y82000D03*
X2344000Y82000D03*
X2244000Y82000D03*
X979000Y1517000D03*
X879000Y1517000D03*
X679000Y1517000D03*
X779000Y1517000D03*
G54D15*
X79167Y407000D03*
X79167Y946439D03*
X79167Y1485878D03*
X1944000Y82000D03*
X1079000Y1517000D03*
G54D16*
X68752Y396585D02*
X89582Y396585D01*
X89582Y417415D01*
X68752Y417415D01*
X68752Y396585D01*D02*
X68752Y936024D02*
X89582Y936024D01*
X89582Y956854D01*
X68752Y956854D01*
X68752Y936024D01*D02*
X68752Y1475463D02*
X89582Y1475463D01*
X89582Y1496293D01*
X68752Y1496293D01*
X68752Y1475463D01*D02*
X1933585Y71585D02*
X1954415Y71585D01*
X1954415Y92415D01*
X1933585Y92415D01*
X1933585Y71585D01*D02*
X1068585Y1506585D02*
X1089415Y1506585D01*
X1089415Y1527415D01*
X1068585Y1527415D01*
X1068585Y1506585D01*D02*

M02*
