G04 Generated by Ultiboard 14.1 *
%FSLAX24Y24*%
%MOIN*%

%ADD10C,0.0001*%
%ADD11C,0.0001*%
%ADD12R,0.0118X0.0610*%
%ADD13R,0.0610X0.0118*%
%ADD14C,0.0633*%
%ADD15R,0.0208X0.0208*%
%ADD16C,0.0392*%
%ADD17C,0.0416*%
%ADD18C,0.0236*%
%ADD19R,0.0157X0.0531*%
%ADD20R,0.0709X0.0748*%
%ADD21R,0.0906X0.0512*%
%ADD22R,0.0236X0.0118*%
%ADD23R,0.0118X0.0236*%
%ADD24R,0.0236X0.0276*%
%ADD25R,0.0315X0.0315*%
%ADD26R,0.0276X0.0236*%
%ADD27R,0.0197X0.0276*%
%ADD28C,0.0177*%
%ADD29R,0.0610X0.0236*%
%ADD30R,0.0362X0.0425*%
%ADD31R,0.0394X0.0236*%
%ADD32R,0.0394X0.0197*%
%ADD33O,0.0256X0.0118*%
%ADD34R,0.0256X0.0492*%
%ADD35R,0.0417X0.0108*%
%ADD36C,0.0167*%
%ADD37O,0.0118X0.0256*%
%ADD38R,0.0492X0.0256*%
%ADD39R,0.0118X0.0197*%
%ADD40R,0.0197X0.0118*%


G04 ColorRGB FF00CC for the following layer *
%LNSolder Mask Top*%
%LPD*%
G54D10*
G54D11*
G36*
X15424Y14354D02*
X15424Y14866D01*
X16329Y14866D01*
X16329Y14354D01*
X15424Y14354D01*
G37*
G36*
X14498Y14236D02*
X14498Y14984D01*
X15207Y14984D01*
X15207Y14236D01*
X14498Y14236D01*
G37*
G36*
X12471Y14354D02*
X12471Y14866D01*
X13376Y14866D01*
X13376Y14354D01*
X12471Y14354D01*
G37*
G36*
X13593Y14236D02*
X13593Y14984D01*
X14302Y14984D01*
X14302Y14236D01*
X13593Y14236D01*
G37*
G36*
X11353Y4289D02*
X11353Y4289D01*
X11353Y4407D01*
X11549Y4407D01*
X11549Y4328D01*
X11510Y4289D01*
X11353Y4289D01*
D02*
G37*
X11353Y4407D01*
X11549Y4407D01*
X11549Y4328D01*
X11510Y4289D01*
X11353Y4289D01*
G36*
X11589Y4053D02*
X11589Y4053D01*
X11707Y4053D01*
X11707Y4249D01*
X11628Y4249D01*
X11589Y4210D01*
X11589Y4053D01*
D02*
G37*
X11707Y4053D01*
X11707Y4249D01*
X11628Y4249D01*
X11589Y4210D01*
X11589Y4053D01*
G36*
X12691Y4053D02*
X12691Y4053D01*
X12573Y4053D01*
X12573Y4249D01*
X12652Y4249D01*
X12691Y4210D01*
X12691Y4053D01*
D02*
G37*
X12573Y4053D01*
X12573Y4249D01*
X12652Y4249D01*
X12691Y4210D01*
X12691Y4053D01*
G36*
X12927Y4289D02*
X12927Y4289D01*
X12927Y4407D01*
X12731Y4407D01*
X12731Y4328D01*
X12770Y4289D01*
X12927Y4289D01*
D02*
G37*
X12927Y4407D01*
X12731Y4407D01*
X12731Y4328D01*
X12770Y4289D01*
X12927Y4289D01*
G36*
X11589Y5627D02*
X11589Y5627D01*
X11707Y5627D01*
X11707Y5431D01*
X11628Y5431D01*
X11589Y5470D01*
X11589Y5627D01*
D02*
G37*
X11707Y5627D01*
X11707Y5431D01*
X11628Y5431D01*
X11589Y5470D01*
X11589Y5627D01*
G36*
X11353Y5391D02*
X11353Y5391D01*
X11353Y5273D01*
X11549Y5273D01*
X11549Y5352D01*
X11510Y5391D01*
X11353Y5391D01*
D02*
G37*
X11353Y5273D01*
X11549Y5273D01*
X11549Y5352D01*
X11510Y5391D01*
X11353Y5391D01*
G36*
X12691Y5627D02*
X12691Y5627D01*
X12573Y5627D01*
X12573Y5431D01*
X12652Y5431D01*
X12691Y5470D01*
X12691Y5627D01*
D02*
G37*
X12573Y5627D01*
X12573Y5431D01*
X12652Y5431D01*
X12691Y5470D01*
X12691Y5627D01*
G36*
X12927Y5391D02*
X12927Y5391D01*
X12927Y5273D01*
X12731Y5273D01*
X12731Y5352D01*
X12770Y5391D01*
X12927Y5391D01*
D02*
G37*
X12927Y5273D01*
X12731Y5273D01*
X12731Y5352D01*
X12770Y5391D01*
X12927Y5391D01*
G54D12*
X6345Y6395D03*
X6149Y6395D03*
X6739Y6395D03*
X6542Y6395D03*
X7133Y6395D03*
X6936Y6395D03*
X7527Y6395D03*
X7330Y6395D03*
X7920Y6395D03*
X7723Y6395D03*
X8314Y6395D03*
X8117Y6395D03*
X8708Y6395D03*
X8511Y6395D03*
X9101Y6395D03*
X8905Y6395D03*
X6345Y10923D03*
X6149Y10923D03*
X6739Y10923D03*
X6542Y10923D03*
X7133Y10923D03*
X6936Y10923D03*
X7527Y10923D03*
X7330Y10923D03*
X7920Y10923D03*
X7723Y10923D03*
X8314Y10923D03*
X8117Y10923D03*
X8708Y10923D03*
X8511Y10923D03*
X9101Y10923D03*
X8905Y10923D03*
X14924Y6336D03*
X15120Y6336D03*
X15514Y6336D03*
X15317Y6336D03*
X15711Y6336D03*
X15908Y6336D03*
X16302Y6336D03*
X16105Y6336D03*
X16498Y6336D03*
X16695Y6336D03*
X17089Y6336D03*
X16892Y6336D03*
X17286Y6336D03*
X17483Y6336D03*
X17876Y6336D03*
X17680Y6336D03*
X14924Y10864D03*
X15120Y10864D03*
X15514Y10864D03*
X15317Y10864D03*
X15711Y10864D03*
X15908Y10864D03*
X16302Y10864D03*
X16105Y10864D03*
X16498Y10864D03*
X16695Y10864D03*
X17089Y10864D03*
X16892Y10864D03*
X17286Y10864D03*
X17483Y10864D03*
X17876Y10864D03*
X17680Y10864D03*
G54D13*
X5361Y7182D03*
X9889Y7182D03*
X5361Y7576D03*
X5361Y7970D03*
X5361Y7773D03*
X5361Y7379D03*
X9889Y7576D03*
X9889Y7773D03*
X9889Y7970D03*
X9889Y7379D03*
X5361Y8364D03*
X5361Y8560D03*
X5361Y8757D03*
X5361Y8167D03*
X9889Y8364D03*
X9889Y8560D03*
X9889Y8757D03*
X9889Y8167D03*
X5361Y9151D03*
X5361Y9545D03*
X5361Y9348D03*
X5361Y8954D03*
X9889Y9151D03*
X9889Y9348D03*
X9889Y9545D03*
X9889Y8954D03*
X5361Y9938D03*
X5361Y10135D03*
X5361Y9741D03*
X9889Y9938D03*
X9889Y10135D03*
X9889Y9741D03*
X14136Y7124D03*
X18664Y7124D03*
X14136Y7911D03*
X14136Y7714D03*
X14136Y7517D03*
X14136Y7320D03*
X18664Y7517D03*
X18664Y7714D03*
X18664Y7911D03*
X18664Y7320D03*
X14136Y8698D03*
X14136Y8502D03*
X14136Y8305D03*
X14136Y8108D03*
X18664Y8698D03*
X18664Y8305D03*
X18664Y8502D03*
X18664Y8108D03*
X14136Y9486D03*
X14136Y9289D03*
X14136Y9092D03*
X14136Y8895D03*
X18664Y9092D03*
X18664Y9289D03*
X18664Y9486D03*
X18664Y8895D03*
X14136Y10076D03*
X14136Y9880D03*
X14136Y9683D03*
X18664Y9880D03*
X18664Y10076D03*
X18664Y9683D03*
G54D14*
X1792Y2070D03*
X1792Y4070D03*
X1792Y3070D03*
X1792Y1070D03*
X792Y2070D03*
X792Y3070D03*
X792Y1070D03*
X2792Y4070D03*
X2792Y3070D03*
X2792Y2070D03*
X2792Y1070D03*
X1792Y7464D03*
X1792Y9464D03*
X1792Y8464D03*
X1792Y6464D03*
X792Y7464D03*
X792Y8464D03*
X792Y6464D03*
X2792Y9464D03*
X2792Y8464D03*
X2792Y7464D03*
X2792Y6464D03*
X1792Y12859D03*
X1792Y14859D03*
X1792Y13859D03*
X1792Y11859D03*
X792Y12859D03*
X792Y13859D03*
X792Y11859D03*
X2792Y14859D03*
X2792Y13859D03*
X2792Y12859D03*
X2792Y11859D03*
G54D15*
X792Y4070D03*
X792Y9464D03*
X792Y14859D03*
G54D16*
X688Y3966D02*
X896Y3966D01*
X896Y4174D01*
X688Y4174D01*
X688Y3966D01*D02*
X688Y9360D02*
X896Y9360D01*
X896Y9568D01*
X688Y9568D01*
X688Y9360D01*D02*
X688Y14755D02*
X896Y14755D01*
X896Y14963D01*
X688Y14963D01*
X688Y14755D01*D02*
G54D17*
X9671Y15368D03*
X9080Y15368D03*
X8489Y15368D03*
X7899Y15368D03*
X7308Y15368D03*
X26322Y14831D03*
X26322Y14240D03*
X26322Y13649D03*
X26322Y13059D03*
X19729Y662D03*
X20320Y662D03*
X20911Y662D03*
X21501Y662D03*
X22092Y662D03*
X7489Y13612D03*
X8080Y13612D03*
X8671Y13612D03*
X9261Y13612D03*
X9852Y13612D03*
X10442Y13612D03*
X5628Y1869D03*
X5628Y2460D03*
X5628Y3051D03*
X7508Y1879D03*
X7508Y2470D03*
X7508Y3061D03*
X9412Y1809D03*
X9412Y2399D03*
X9412Y2990D03*
X9412Y3581D03*
X24839Y2872D03*
X25430Y2872D03*
X26021Y2872D03*
X26041Y5648D03*
X25450Y5648D03*
X24859Y5648D03*
X24269Y5648D03*
X26021Y7788D03*
X25430Y7788D03*
X24839Y7788D03*
X24249Y7788D03*
G54D18*
X15187Y13754D03*
X13613Y13754D03*
G54D19*
X14144Y13547D03*
X13888Y13547D03*
X14400Y13547D03*
X14912Y13547D03*
X14656Y13547D03*
G54D20*
X13947Y14600D03*
X14853Y14600D03*
G54D21*
X12924Y14600D03*
X15876Y14600D03*
G54D22*
X20785Y4508D03*
X20785Y4114D03*
X20785Y4311D03*
X22015Y4311D03*
X22015Y4114D03*
X22015Y4508D03*
X20785Y5295D03*
X20785Y4705D03*
X20785Y4902D03*
X20785Y5098D03*
X22015Y4705D03*
X22015Y5098D03*
X22015Y4902D03*
X22015Y5295D03*
X20785Y5492D03*
X20785Y5689D03*
X20785Y5886D03*
X22015Y5492D03*
X22015Y5689D03*
X22015Y5886D03*
G54D23*
X21105Y4114D03*
X21498Y4114D03*
X21302Y4114D03*
X21695Y4114D03*
X21105Y5886D03*
X21498Y5886D03*
X21302Y5886D03*
X21695Y5886D03*
G54D24*
X7606Y5600D03*
X8000Y5600D03*
X7794Y11800D03*
X7400Y11800D03*
X10800Y7600D03*
X11194Y7600D03*
X16000Y11600D03*
X16394Y11600D03*
X19794Y8400D03*
X19400Y8400D03*
X16194Y5600D03*
X15800Y5600D03*
X13400Y8800D03*
X13006Y8800D03*
X3806Y8600D03*
X4200Y8600D03*
X12026Y12160D03*
X12420Y12160D03*
X19150Y4260D03*
X19544Y4260D03*
X21146Y6570D03*
X21540Y6570D03*
X26554Y10470D03*
X26160Y10470D03*
X22060Y14140D03*
X22454Y14140D03*
X24480Y11420D03*
X24874Y11420D03*
X21734Y12400D03*
X21340Y12400D03*
X19260Y14190D03*
X19654Y14190D03*
X21695Y9520D03*
X21301Y9520D03*
X21695Y10250D03*
X21301Y10250D03*
X23830Y15210D03*
X23436Y15210D03*
X19060Y12610D03*
X19454Y12610D03*
X19146Y4947D03*
X19540Y4947D03*
X21510Y2920D03*
X21117Y2920D03*
X21517Y3520D03*
X21123Y3520D03*
X21517Y2320D03*
X21123Y2320D03*
X12214Y3540D03*
X11820Y3540D03*
X11820Y2960D03*
X12214Y2960D03*
X21044Y8660D03*
X20650Y8660D03*
X19230Y3570D03*
X19624Y3570D03*
G54D25*
X4800Y12890D03*
X4800Y13500D03*
X5800Y13500D03*
X5800Y12890D03*
X26500Y11930D03*
X26500Y11320D03*
X20030Y9510D03*
X20640Y9510D03*
X20640Y10240D03*
X20030Y10240D03*
G54D26*
X4800Y14600D03*
X4800Y14206D03*
X5800Y14206D03*
X5800Y14600D03*
X10800Y8606D03*
X10800Y9000D03*
X17400Y11994D03*
X17400Y11600D03*
X17000Y5206D03*
X17000Y5600D03*
X13400Y10000D03*
X13400Y9606D03*
X7080Y5540D03*
X7080Y5146D03*
X13240Y1490D03*
X13240Y1096D03*
X22600Y4490D03*
X22600Y4096D03*
X20180Y5460D03*
X20180Y5854D03*
X25430Y9130D03*
X25430Y8736D03*
X22670Y14740D03*
X22670Y15134D03*
X24660Y12584D03*
X24660Y12190D03*
X23080Y10300D03*
X23080Y10694D03*
X23800Y10316D03*
X23800Y10710D03*
X20710Y11900D03*
X20710Y11506D03*
X20730Y14280D03*
X20730Y14674D03*
X24720Y13576D03*
X24720Y13970D03*
X24750Y9120D03*
X24750Y8726D03*
X13490Y4840D03*
X13490Y4446D03*
X14080Y4820D03*
X14080Y4426D03*
X10820Y5230D03*
X10820Y4836D03*
X10890Y3636D03*
X10890Y4030D03*
G54D27*
X12530Y11080D03*
X11920Y11080D03*
X11920Y11454D03*
X12530Y11454D03*
G54D28*
X11280Y12710D03*
X14380Y13090D03*
X8010Y11430D03*
X11520Y11420D03*
X10480Y7180D03*
X13530Y7110D03*
X7130Y9300D03*
X18060Y9280D03*
X6540Y13260D03*
X7330Y6970D03*
X7200Y14600D03*
X9007Y8167D03*
X8790Y7980D03*
X11930Y7330D03*
X13340Y7350D03*
X9200Y7000D03*
X14660Y6570D03*
X8570Y7150D03*
X8460Y7730D03*
X13570Y7700D03*
X9300Y9620D03*
X15510Y9630D03*
X10430Y10120D03*
X16890Y10110D03*
X16680Y4220D03*
X17050Y2160D03*
X12480Y2110D03*
X10420Y2110D03*
X15040Y4860D03*
X15020Y8490D03*
X13490Y5170D03*
X13160Y8300D03*
X22092Y10668D03*
X21390Y10920D03*
X21760Y14750D03*
X12300Y5000D03*
X12300Y8160D03*
X20590Y8270D03*
X15150Y11400D03*
X10940Y9860D03*
X23420Y9860D03*
X9550Y10900D03*
X24250Y10940D03*
X19880Y6360D03*
X22400Y6140D03*
X19570Y7500D03*
X22700Y5330D03*
X15410Y8140D03*
X15430Y7720D03*
X17760Y2550D03*
X15860Y2630D03*
X16470Y4850D03*
X19440Y1830D03*
X17670Y10230D03*
X18030Y5450D03*
X17876Y10064D03*
X18290Y5010D03*
X7550Y9550D03*
X19430Y12180D03*
X8090Y9590D03*
X11690Y13510D03*
X8400Y10160D03*
X22840Y13750D03*
X8360Y6950D03*
X16610Y13840D03*
X10890Y6890D03*
X26800Y7300D03*
X22700Y7490D03*
X18080Y12650D03*
X20070Y12360D03*
X20870Y12360D03*
X6350Y4380D03*
X19530Y6550D03*
X18260Y4230D03*
X15770Y4980D03*
X9220Y12220D03*
X24320Y13670D03*
X9282Y8358D03*
X7508Y8358D03*
X9310Y9920D03*
X6320Y9920D03*
X17320Y8500D03*
X21720Y8680D03*
X22400Y6570D03*
X22600Y2930D03*
X21620Y14890D03*
X7720Y6950D03*
X11150Y8600D03*
X8040Y12170D03*
X5940Y8750D03*
X10370Y7770D03*
X12020Y12530D03*
X3500Y8200D03*
X11500Y7590D03*
X5280Y14610D03*
X18170Y8280D03*
X16410Y11880D03*
X12970Y10380D03*
X14780Y8680D03*
X16510Y6920D03*
X17280Y10300D03*
X16380Y1740D03*
X12640Y8800D03*
X17000Y4830D03*
X20050Y8400D03*
X17410Y12280D03*
X21680Y9910D03*
X19150Y4610D03*
X13930Y15170D03*
X20740Y2930D03*
X22970Y4100D03*
X21860Y6140D03*
X21060Y4890D03*
X11670Y4940D03*
X10860Y3290D03*
X12210Y2600D03*
X12580Y4550D03*
X20930Y13190D03*
X20920Y12990D03*
X21430Y11840D03*
X24000Y11920D03*
X24000Y11730D03*
X12720Y1000D03*
X20730Y14990D03*
X24980Y12190D03*
X23430Y10310D03*
X26150Y10090D03*
X23030Y15190D03*
X23520Y13770D03*
X23700Y13770D03*
X21730Y14140D03*
X24480Y15280D03*
X25540Y15290D03*
G54D29*
X16437Y2590D03*
X16437Y2090D03*
X18563Y2590D03*
X18563Y2090D03*
X16437Y3090D03*
X18563Y3090D03*
X16437Y3590D03*
X18563Y3590D03*
G54D30*
X17080Y13440D03*
X18340Y13440D03*
G54D31*
X11367Y1380D03*
X12273Y1006D03*
X12273Y1754D03*
G54D32*
X20110Y4330D03*
X20110Y4763D03*
G54D33*
X23216Y14486D03*
X24004Y14486D03*
X23216Y14230D03*
X23216Y13974D03*
X24004Y14230D03*
X24004Y13974D03*
G54D34*
X23610Y14230D03*
G54D35*
X24990Y15240D03*
X24990Y14640D03*
G54D36*
X24782Y15186D02*
X25198Y15186D01*
X25198Y15294D01*
X24782Y15294D01*
X24782Y15186D01*D02*
X24782Y14586D02*
X25198Y14586D01*
X25198Y14694D01*
X24782Y14694D01*
X24782Y14586D01*D02*
G54D37*
X23516Y11453D03*
X23713Y12240D03*
X23910Y12240D03*
X23319Y11453D03*
X23713Y11453D03*
X23910Y11453D03*
X23319Y12240D03*
X23516Y12240D03*
X20790Y12733D03*
X20396Y12733D03*
X20790Y13520D03*
X20199Y12733D03*
X20199Y13520D03*
X20396Y13520D03*
X20593Y13520D03*
X20593Y12733D03*
G54D38*
X23610Y11840D03*
X20490Y13120D03*
G54D39*
X11845Y4151D03*
X12042Y4151D03*
X12238Y4151D03*
X12435Y4151D03*
X11845Y5529D03*
X12042Y5529D03*
X12238Y5529D03*
X12435Y5529D03*
G54D40*
X11451Y4742D03*
X11451Y4545D03*
X12829Y4742D03*
X12829Y4545D03*
X11451Y4938D03*
X11451Y5135D03*
X12829Y4938D03*
X12829Y5135D03*

M02*
