M48
INCH,TZ
VER,1
FMAT,2
DETECT,ON
ATC,ON
T1C0.0350
T2C0.0392
T3C0.0276
T4C0.0236
T5C0.0079
%
T1
X1792Y2070
Y4070
Y3070
Y1070
X792Y2070
Y3070
Y1070
X2792Y4070
Y3070
Y2070
Y1070
X1792Y7464
Y9464
Y8464
Y6464
X792Y7464
Y8464
Y6464
X2792Y9464
Y8464
Y7464
Y6464
X1792Y12859
Y14859
Y13859
Y11859
X792Y12859
Y13859
Y11859
X2792Y14859
Y13859
Y12859
Y11859
T2
X792Y4070
Y9464
Y14859
T3
X9671Y15368
X9080
X8489
X7899
X7308
X26322Y14831
Y14240
Y13649
Y13059
X19729Y662
X20320
X20911
X21501
X22092
X7489Y13612
X8080
X8671
X9261
X9852
X10442
X5628Y1869
Y2460
Y3051
X7508Y1879
Y2470
Y3061
X9412Y1809
Y2399
Y2990
Y3581
X24839Y2872
X25430
X26021
X26041Y5648
X25450
X24859
X24269
X26021Y7788
X25430
X24839
X24249
T4
X15187Y13754
X13613
T5
X11280Y12710
X14380Y13090
X8010Y11430
X11520Y11420
X10480Y7180
X13530Y7110
X7130Y9300
X18060Y9280
X6540Y13260
X7330Y6970
X7200Y14600
X9007Y8167
X8790Y7980
X11930Y7330
X13340Y7350
X9200Y7000
X14660Y6570
X8570Y7150
X8460Y7730
X13570Y7700
X9300Y9620
X15510Y9630
X10430Y10120
X16890Y10110
X16680Y4220
X17050Y2160
X12480Y2110
X10420
X15040Y4860
X15020Y8490
X13490Y5170
X13160Y8300
X22092Y10668
X21390Y10920
X21760Y14750
X12300Y5000
Y8160
X20590Y8270
X15150Y11400
X10940Y9860
X23420
X9550Y10900
X24250Y10940
X19880Y6360
X22400Y6140
X19570Y7500
X22700Y5330
X15410Y8140
X15430Y7720
X17760Y2550
X15860Y2630
X16470Y4850
X19440Y1830
X17670Y10230
X18030Y5450
X17876Y10064
X18290Y5010
X7550Y9550
X19430Y12180
X8090Y9590
X11690Y13510
X8400Y10160
X22840Y13750
X8360Y6950
X16610Y13840
X10890Y6890
X26800Y7300
X22700Y7490
X18080Y12650
X20070Y12360
X20870
X6350Y4380
X19530Y6550
X18260Y4230
X15770Y4980
X9220Y12220
X24320Y13670
X9282Y8358
X7508
X9310Y9920
X6320
X17320Y8500
X21720Y8680
X22400Y6570
X22600Y2930
X21620Y14890
X7720Y6950
X11150Y8600
X8040Y12170
X5940Y8750
X10370Y7770
X12020Y12530
X3500Y8200
X11500Y7590
X5280Y14610
X18170Y8280
X16410Y11880
X12970Y10380
X14780Y8680
X16510Y6920
X17280Y10300
X16380Y1740
X12640Y8800
X17000Y4830
X20050Y8400
X17410Y12280
X21680Y9910
X19150Y4610
X13930Y15170
X20740Y2930
X22970Y4100
X21860Y6140
X21060Y4890
X11670Y4940
X10860Y3290
X12210Y2600
X12580Y4550
X20930Y13190
X20920Y12990
X21430Y11840
X24000Y11920
Y11730
X12720Y1000
X20730Y14990
X24980Y12190
X23430Y10310
X26150Y10090
X23030Y15190
X23520Y13770
X23700
X21730Y14140
X24480Y15280
X25540Y15290
M30
