G04 Generated by Ultiboard 14.1 *
%FSLAX25Y25*%
%MOIN*%

%ADD10C,0.00001*%
%ADD11C,0.00500*%
%ADD12C,0.01772*%
%ADD13C,0.04156*%
%ADD14C,0.06334*%
%ADD15R,0.02083X0.02083*%
%ADD16C,0.03917*%


G04 ColorRGB 990033 for the following layer *
%LNCopper Inner 2*%
%LPD*%
G54D10*
G54D11*
X73297Y69697D02*
X73297Y129703D01*
X71300Y131700D02*
X71300Y145300D01*
X72000Y146000D01*
X73297Y129703D02*
X71300Y131700D01*
X90067Y81667D02*
X90067Y33952D01*
X94118Y29900D01*
X87900Y79800D02*
X87900Y30213D01*
X94118Y23994D01*
X85700Y71500D02*
X85700Y76200D01*
X84600Y77300D01*
X134900Y51700D02*
X134900Y67100D01*
X131600Y70400D01*
X131600Y83000D01*
X213800Y53400D02*
X213800Y109100D01*
X123000Y50000D02*
X123000Y81600D01*
X242500Y109400D02*
X242500Y90600D01*
X237900Y86000D01*
X176700Y102300D02*
X176700Y58300D01*
X180300Y54700D01*
X178764Y100636D02*
X178764Y61436D01*
X182900Y57300D01*
X182900Y50100D01*
X75500Y95500D02*
X75500Y105700D01*
X80900Y95900D02*
X80900Y106700D01*
X106800Y132600D01*
X114400Y132600D01*
X116900Y135100D01*
X84000Y101600D02*
X100600Y118200D01*
X109300Y118200D01*
X215500Y137800D02*
X228100Y137800D01*
X83600Y69500D02*
X80900Y72200D01*
X80900Y89200D01*
X89800Y98100D01*
X89800Y102100D01*
X93800Y106100D01*
X102300Y106100D01*
X117600Y121400D01*
X132900Y121400D01*
X135800Y124300D01*
X152000Y124300D01*
X166100Y138400D01*
X227000Y53300D02*
X227000Y74900D01*
X75500Y105700D02*
X92100Y122300D01*
X237900Y51200D02*
X260206Y28894D01*
X237900Y86000D02*
X237900Y51200D01*
X234200Y49400D02*
X254300Y29300D01*
X254300Y28718D01*
X234200Y98600D02*
X234200Y49400D01*
X215511Y51689D02*
X213800Y53400D01*
X234400Y8217D02*
X220917Y21700D01*
X224400Y8200D02*
X215511Y17089D01*
X194400Y8200D02*
X203600Y17400D01*
X203600Y80400D01*
X215511Y17089D02*
X215511Y51689D01*
X220917Y21700D02*
X220917Y106683D01*
X75082Y30606D02*
X75082Y83582D01*
X61900Y97900D02*
X63200Y99200D01*
X61900Y75700D02*
X61900Y97900D01*
X56282Y70082D02*
X61900Y75700D01*
X56282Y30506D02*
X56282Y70082D01*
X203600Y80400D02*
X205900Y82700D01*
X178400Y25800D02*
X170500Y33700D01*
X170500Y42700D01*
X164700Y48500D01*
X178800Y20800D02*
X166800Y32800D01*
X166800Y42200D02*
X166800Y32800D01*
X131400Y140300D02*
X213000Y140300D01*
X215500Y137800D01*
X109300Y118200D02*
X131400Y140300D01*
G54D12*
X112800Y127100D03*
X143800Y130900D03*
X80100Y114300D03*
X115200Y114200D03*
X104800Y71800D03*
X135300Y71100D03*
X71300Y93000D03*
X180600Y92800D03*
X65400Y132600D03*
X73297Y69697D03*
X72000Y146000D03*
X90067Y81667D03*
X87900Y79800D03*
X119300Y73300D03*
X133400Y73500D03*
X92000Y70000D03*
X146600Y65700D03*
X85700Y71500D03*
X84600Y77300D03*
X135700Y77000D03*
X104300Y101200D03*
X168900Y101100D03*
X166800Y42200D03*
X134900Y51700D03*
X131600Y83000D03*
X220917Y106683D03*
X213900Y109200D03*
X123000Y50000D03*
X123000Y81600D03*
X151500Y114000D03*
X109400Y98600D03*
X234200Y98600D03*
X95500Y109000D03*
X242500Y109400D03*
X198800Y63600D03*
X224000Y61400D03*
X195700Y75000D03*
X227000Y53300D03*
X154100Y81400D03*
X154300Y77200D03*
X164700Y48500D03*
X176700Y102300D03*
X180300Y54500D03*
X178764Y100636D03*
X182900Y50100D03*
X75500Y95500D03*
X194300Y121800D03*
X80900Y95900D03*
X116900Y135100D03*
X84000Y101600D03*
X228400Y137500D03*
X83600Y69500D03*
X166100Y138400D03*
X108900Y68900D03*
X268000Y73000D03*
X180800Y126500D03*
X200700Y123600D03*
X208700Y123600D03*
X63500Y43800D03*
X195300Y65500D03*
X182600Y42300D03*
X157700Y49800D03*
X192200Y30300D03*
X179200Y20800D03*
X222700Y88000D03*
X227000Y75000D03*
X92200Y122200D03*
X243200Y136700D03*
X92818Y83582D03*
X75082Y83582D03*
X93100Y99200D03*
X63200Y99200D03*
X173200Y85000D03*
X205900Y82700D03*
X224000Y65700D03*
X178400Y25800D03*
X229400Y147500D03*
X106200Y142100D03*
X231300Y147500D03*
X176400Y143800D03*
X77200Y69500D03*
X111500Y86000D03*
X80400Y121700D03*
X59400Y87500D03*
X103700Y77700D03*
X120300Y124100D03*
X35000Y82000D03*
X115000Y75900D03*
X216700Y98800D03*
X244800Y152300D03*
X255100Y152500D03*
X235200Y137700D03*
X237000Y137700D03*
X230300Y151900D03*
X182000Y83000D03*
X163900Y118500D03*
X130200Y96000D03*
X147800Y86900D03*
X165100Y69200D03*
X172800Y103000D03*
X159700Y20900D03*
X126400Y88000D03*
X170000Y48300D03*
X200500Y84000D03*
X174100Y122800D03*
X234300Y103100D03*
X191500Y46100D03*
X123200Y145000D03*
X207400Y29300D03*
X229700Y41000D03*
X218600Y61400D03*
X210600Y48900D03*
X116700Y49400D03*
X108800Y33000D03*
X122100Y26000D03*
X125800Y45500D03*
X209300Y131900D03*
X209200Y129900D03*
X214300Y118400D03*
X240000Y119200D03*
X240000Y117300D03*
X248700Y118300D03*
X127814Y10000D03*
X207300Y149900D03*
X217300Y141400D03*
X254800Y104300D03*
X53000Y146200D03*
G54D13*
X248394Y28718D03*
X254300Y28718D03*
X260206Y28718D03*
X56282Y18694D03*
X56282Y24600D03*
X56282Y30506D03*
X75082Y18794D03*
X75082Y24700D03*
X75082Y30606D03*
X260406Y56482D03*
X254500Y56482D03*
X248594Y56482D03*
X242689Y56482D03*
X74894Y136118D03*
X80800Y136118D03*
X86706Y136118D03*
X92611Y136118D03*
X98517Y136118D03*
X104422Y136118D03*
X260206Y77882D03*
X254300Y77882D03*
X248394Y77882D03*
X242489Y77882D03*
X94118Y18089D03*
X94118Y23994D03*
X94118Y29900D03*
X94118Y35806D03*
X262918Y148406D03*
X262918Y142500D03*
X262918Y136594D03*
X262918Y130689D03*
X262918Y124783D03*
X262918Y118878D03*
G54D14*
X17917Y20700D03*
X17917Y40700D03*
X17917Y30700D03*
X17917Y10700D03*
X7917Y20700D03*
X7917Y30700D03*
X7917Y10700D03*
X27917Y40700D03*
X27917Y30700D03*
X27917Y20700D03*
X27917Y10700D03*
X17917Y74644D03*
X17917Y94644D03*
X17917Y84644D03*
X17917Y64644D03*
X7917Y74644D03*
X7917Y84644D03*
X7917Y64644D03*
X27917Y94644D03*
X27917Y84644D03*
X27917Y74644D03*
X27917Y64644D03*
X17917Y128588D03*
X17917Y148588D03*
X17917Y138588D03*
X17917Y118588D03*
X7917Y128588D03*
X7917Y138588D03*
X7917Y118588D03*
X27917Y148588D03*
X27917Y138588D03*
X27917Y128588D03*
X27917Y118588D03*
X204400Y8200D03*
X214400Y8200D03*
X234400Y8200D03*
X224400Y8200D03*
X97900Y151700D03*
X87900Y151700D03*
X67900Y151700D03*
X77900Y151700D03*
G54D15*
X7917Y40700D03*
X7917Y94644D03*
X7917Y148588D03*
X194400Y8200D03*
X107900Y151700D03*
G54D16*
X6876Y39659D02*
X8958Y39659D01*
X8958Y41741D01*
X6876Y41741D01*
X6876Y39659D01*D02*
X6876Y93603D02*
X8958Y93603D01*
X8958Y95685D01*
X6876Y95685D01*
X6876Y93603D01*D02*
X6876Y147547D02*
X8958Y147547D01*
X8958Y149629D01*
X6876Y149629D01*
X6876Y147547D01*D02*
X193359Y7159D02*
X195441Y7159D01*
X195441Y9241D01*
X193359Y9241D01*
X193359Y7159D01*D02*
X106859Y150659D02*
X108941Y150659D01*
X108941Y152741D01*
X106859Y152741D01*
X106859Y150659D01*D02*

M02*
