G04 Generated by Ultiboard 14.1 *
%FSLAX24Y24*%
%MOIN*%

%ADD10C,0.0001*%
%ADD11C,0.0050*%
%ADD12C,0.0100*%
%ADD13C,0.0200*%
%ADD14C,0.0420*%
%ADD15C,0.0300*%
%ADD16C,0.0001*%
%ADD17C,0.0400*%
%ADD18C,0.0416*%
%ADD19R,0.0236X0.0276*%
%ADD20R,0.0276X0.0236*%
%ADD21C,0.0177*%
%ADD22O,0.0256X0.0118*%
%ADD23R,0.0256X0.0492*%
%ADD24R,0.0417X0.0108*%
%ADD25C,0.0167*%
%ADD26R,0.0394X0.0197*%
%ADD27C,0.0633*%
%ADD28R,0.0208X0.0208*%
%ADD29C,0.0392*%
%ADD30R,0.0118X0.0197*%
%ADD31R,0.0197X0.0118*%
%ADD32R,0.0197X0.0276*%
%ADD33R,0.0315X0.0315*%
%ADD34R,0.0157X0.0531*%
%ADD35R,0.0709X0.0748*%
%ADD36R,0.0906X0.0512*%
%ADD37R,0.0362X0.0425*%
%ADD38R,0.0610X0.0236*%
%ADD39R,0.0394X0.0236*%
%ADD40R,0.0236X0.0118*%
%ADD41R,0.0118X0.0236*%
%ADD42R,0.0118X0.0610*%
%ADD43R,0.0610X0.0118*%
%ADD44O,0.0118X0.0256*%
%ADD45R,0.0492X0.0256*%
%ADD46R,0.0108X0.0417*%


G04 ColorRGB 00FF00 for the following layer *
%LNCopper Top*%
%LPD*%
G54D10*
G54D11*
X8314Y10923D02*
X8314Y12104D01*
X9120Y12910D01*
X14500Y12910D01*
X14656Y13066D01*
X14656Y13547D01*
X8511Y10923D02*
X8511Y11991D01*
X9230Y12710D01*
X11280Y12710D01*
X14380Y13090D02*
X14380Y13527D01*
X8905Y10923D02*
X8905Y11365D01*
X10020Y12480D01*
X11450Y12480D01*
X11700Y12730D01*
X14610Y12730D01*
X14912Y13032D01*
X14912Y13290D01*
X16930Y13290D02*
X17080Y13440D01*
X7920Y10923D02*
X7920Y11350D01*
X8000Y11430D01*
X9889Y7379D02*
X10281Y7379D01*
X10480Y7180D01*
X13530Y7110D02*
X14123Y7110D01*
X18060Y9280D02*
X18655Y9280D01*
X6540Y13210D02*
X6540Y13260D01*
X7330Y5790D02*
X7330Y6970D01*
X9889Y8167D02*
X9007Y8167D01*
X9889Y7970D02*
X8800Y7970D01*
X9101Y6395D02*
X10995Y6395D01*
X11930Y7330D01*
X13340Y7350D02*
X14107Y7350D01*
X14690Y6570D02*
X14924Y6336D01*
X8905Y6755D02*
X9150Y7000D01*
X9200Y7000D01*
X8905Y6395D02*
X8905Y6755D01*
X8708Y6395D02*
X8708Y7032D01*
X8590Y7150D01*
X13570Y7700D02*
X14122Y7700D01*
X9889Y10135D02*
X10415Y10135D01*
X16890Y10110D02*
X16890Y10862D01*
X12273Y1754D02*
X12976Y1754D01*
X13240Y1490D01*
X22454Y14140D02*
X22740Y14140D01*
X22830Y14230D01*
X23216Y14230D01*
X20199Y13520D02*
X20199Y13644D01*
X19654Y14190D01*
X20199Y12733D02*
X19576Y12733D01*
X24414Y13576D02*
X24720Y13576D01*
X23080Y10694D02*
X23080Y11213D01*
X23319Y11453D01*
X20030Y9510D02*
X18688Y9510D01*
X20030Y10240D02*
X19480Y9690D01*
X18671Y9690D01*
X25430Y7788D02*
X25430Y8736D01*
X24839Y7788D02*
X24839Y8637D01*
X24750Y8726D01*
X22015Y4705D02*
X22385Y4705D01*
X22600Y4490D01*
X20110Y4763D02*
X20168Y4705D01*
X20785Y4705D01*
X20290Y4330D02*
X20468Y4508D01*
X20785Y4508D01*
X19614Y4330D02*
X20290Y4330D01*
X19614Y4330D02*
X19544Y4260D01*
X20110Y4763D02*
X19724Y4763D01*
X19540Y4947D01*
X20514Y5854D02*
X20546Y5886D01*
X20785Y5886D01*
X21105Y5886D02*
X21105Y6528D01*
X21146Y6570D01*
X17680Y6336D02*
X17680Y3570D01*
X18160Y3090D01*
X18563Y3090D01*
X17483Y6336D02*
X17483Y2913D01*
X17160Y2590D01*
X16437Y2590D01*
X17286Y6336D02*
X17286Y3326D01*
X17050Y3090D01*
X16437Y3090D01*
X16695Y6336D02*
X16695Y4235D01*
X20180Y7500D02*
X19769Y7911D01*
X18664Y7911D01*
X11020Y5230D02*
X11115Y5135D01*
X11451Y4742D02*
X11232Y4742D01*
X10890Y4400D01*
X10890Y4030D01*
X10420Y5000D02*
X10650Y5230D01*
X11020Y5230D01*
X13480Y4840D02*
X13185Y5135D01*
X12829Y5135D01*
X13490Y4840D02*
X13490Y5170D01*
X13160Y8300D02*
X14131Y8300D01*
X21390Y10920D02*
X19730Y10920D01*
X18886Y10076D01*
X18664Y10076D01*
X11463Y4360D02*
X11610Y4360D01*
X12250Y5000D01*
X12300Y5000D01*
X12300Y8160D02*
X12960Y8160D01*
X13020Y8100D01*
X14128Y8100D01*
X11115Y5135D02*
X11645Y5135D01*
X11710Y5200D01*
X12410Y5200D01*
X16437Y3590D02*
X16320Y3590D01*
X15514Y4396D01*
X15514Y6336D01*
X20302Y8108D02*
X21146Y7264D01*
X21146Y6570D01*
X18664Y8108D02*
X20302Y8108D01*
X15150Y11400D02*
X15150Y10893D01*
X9889Y8560D02*
X10290Y8560D01*
X10620Y8230D01*
X11540Y8230D01*
X12402Y9092D01*
X14136Y9092D01*
X9889Y9348D02*
X10378Y9348D01*
X10890Y9860D01*
X10940Y9860D01*
X9101Y10923D02*
X9527Y10923D01*
X18664Y7124D02*
X19606Y7124D01*
X19880Y6850D01*
X19880Y6360D01*
X22400Y6140D02*
X22400Y5750D01*
X22339Y5689D01*
X22015Y5689D01*
X18664Y7714D02*
X19356Y7714D01*
X19570Y7500D01*
X22700Y5300D02*
X22620Y5300D01*
X22418Y5098D01*
X22015Y5098D01*
X15120Y6336D02*
X15120Y7850D01*
X15430Y8160D01*
X15317Y6336D02*
X15317Y7607D01*
X15430Y7720D01*
X16470Y4850D02*
X16470Y6308D01*
X17680Y10240D02*
X17680Y10864D01*
X17876Y10864D02*
X17876Y10064D01*
X6739Y6395D02*
X6739Y8369D01*
X7550Y9180D01*
X7550Y9550D01*
X19430Y12180D02*
X19430Y12586D01*
X19576Y12733D01*
X6936Y6395D02*
X6936Y8116D01*
X8090Y9270D01*
X8090Y9590D01*
X24325Y13665D02*
X24414Y13576D01*
X24016Y13974D02*
X24305Y13685D01*
X22840Y13750D02*
X22992Y13750D01*
X23216Y13974D01*
X8511Y6395D02*
X8511Y6799D01*
X8360Y6950D01*
X20199Y13520D02*
X19200Y13520D01*
X18700Y13020D01*
X18700Y11920D01*
X19130Y11490D01*
X19980Y11490D01*
X20290Y11180D01*
X22259Y11180D01*
X23319Y12240D01*
X9889Y7182D02*
X10078Y7182D01*
X10370Y6890D01*
X10890Y6890D01*
X25700Y13618D02*
X26322Y14240D01*
X20180Y5854D02*
X20180Y7500D01*
X20180Y5854D02*
X20514Y5854D01*
X19641Y750D02*
X19729Y662D01*
X6542Y6395D02*
X6542Y4988D01*
X7070Y4460D01*
X7940Y4460D01*
X8590Y3810D01*
X8590Y1380D01*
X9480Y490D01*
X17590Y490D01*
X17850Y750D01*
X19641Y750D01*
X20590Y8500D02*
X20392Y8698D01*
X18664Y8698D01*
X20590Y8270D02*
X20590Y8500D01*
X12829Y4938D02*
X12672Y4938D01*
X12410Y5200D01*
X7133Y7643D02*
X8420Y8930D01*
X7133Y6395D02*
X7133Y7643D01*
X8420Y8930D02*
X8420Y10140D01*
X6540Y11860D02*
X6540Y13210D01*
X10420Y1240D02*
X10420Y5000D01*
X10420Y1240D02*
X10780Y880D01*
X11670Y880D01*
X11840Y1050D01*
X12273Y1754D02*
X11840Y1321D01*
X11840Y1050D02*
X11840Y1321D01*
X14136Y8502D02*
X14628Y8502D01*
X14740Y8390D01*
X14740Y6960D01*
X13112Y5332D01*
X12829Y5332D01*
X13115Y5335D02*
X13725Y5335D01*
X13890Y5500D01*
X14260Y5500D01*
X10461Y9741D02*
X10950Y10230D01*
X12480Y10230D01*
X12930Y10680D01*
X14420Y10680D01*
X15514Y10424D02*
X15514Y10864D01*
X14770Y10330D02*
X15420Y10330D01*
X14420Y10680D02*
X14770Y10330D01*
X15420Y10330D02*
X15514Y10424D01*
X9584Y9741D02*
X10461Y9741D01*
X11920Y11080D02*
X11860Y11080D01*
X11520Y11420D01*
X6345Y8455D02*
X7130Y9240D01*
X6345Y6395D02*
X6345Y8455D01*
X7130Y9240D02*
X7130Y9300D01*
X18563Y2090D02*
X17930Y2090D01*
X18563Y2590D02*
X17830Y2590D01*
X16970Y1730D01*
X15890Y1730D01*
X15540Y2080D01*
X15540Y2550D01*
X15860Y2870D01*
X4800Y13500D02*
X4800Y14290D01*
X4840Y14330D01*
X26500Y11320D02*
X26260Y11080D01*
X26260Y10710D01*
X26800Y8700D02*
X25700Y9800D01*
X25700Y13618D01*
X26800Y7300D02*
X26800Y8700D01*
X22092Y10668D02*
X19878Y10668D01*
X19090Y9880D02*
X18664Y9880D01*
X19878Y10668D02*
X19090Y9880D01*
X18694Y9062D02*
X18664Y9092D01*
X18694Y9062D02*
X21972Y9062D01*
X20640Y10240D02*
X20790Y10090D01*
X21240Y10090D01*
X20640Y9510D02*
X21260Y9510D01*
X21450Y9320D01*
X22670Y10689D02*
X22675Y10694D01*
X21972Y9062D02*
X22670Y9760D01*
X22650Y9740D02*
X22650Y10510D01*
X22834Y10694D01*
X23080Y10694D01*
X6149Y6395D02*
X5295Y6395D01*
X4400Y5500D01*
X4400Y2678D01*
X2792Y1070D01*
X8117Y6395D02*
X8117Y5943D01*
X8430Y5630D01*
X10860Y5630D01*
X12747Y7517D01*
X14136Y7517D01*
X8314Y6395D02*
X8314Y6026D01*
X8500Y5840D01*
X10780Y5840D01*
X12851Y7911D01*
X14136Y7911D01*
X7133Y10923D02*
X7133Y12133D01*
X7380Y12380D01*
X8220Y12380D01*
X9261Y13421D01*
X9261Y13939D01*
X7899Y15301D02*
X9261Y13939D01*
X7899Y15368D02*
X7899Y15301D01*
X6936Y10923D02*
X6936Y12296D01*
X7300Y12660D01*
X7730Y12660D01*
X8671Y13601D01*
X8671Y14006D01*
X7308Y15368D02*
X8671Y14006D01*
X6739Y10923D02*
X6739Y12359D01*
X7992Y13612D01*
X8080Y13612D01*
X6542Y10923D02*
X6542Y11858D01*
X6540Y11860D01*
X5361Y9938D02*
X4962Y9938D01*
X4400Y10500D01*
X4400Y13250D01*
X2792Y14859D01*
X5361Y9741D02*
X4859Y9741D01*
X4200Y10400D01*
X4200Y12400D01*
X2792Y13808D01*
X5361Y9545D02*
X4755Y9545D01*
X4000Y10300D01*
X4000Y11900D01*
X3041Y12859D01*
X2792Y12859D01*
X5361Y9348D02*
X4652Y9348D01*
X2792Y11208D01*
X2792Y11859D01*
X5361Y9151D02*
X4349Y9151D01*
X4036Y9464D01*
X2792Y9464D01*
X5361Y8954D02*
X3546Y8954D01*
X3056Y8464D01*
X2792Y8464D01*
X5361Y8364D02*
X4422Y8364D01*
X3523Y7464D01*
X2792Y7464D01*
X5361Y8167D02*
X4467Y8167D01*
X2792Y6492D01*
X5361Y7970D02*
X4570Y7970D01*
X3700Y7100D01*
X3700Y5900D01*
X2792Y4992D01*
X2792Y4070D01*
X5361Y7773D02*
X4673Y7773D01*
X4000Y7100D01*
X4000Y4278D01*
X2792Y3070D01*
X5361Y7576D02*
X4776Y7576D01*
X4200Y7000D01*
X4200Y3900D01*
X3400Y3100D01*
X3400Y2678D01*
X2792Y2070D01*
X7330Y11730D02*
X7400Y11800D01*
X9282Y8358D02*
X9883Y8358D01*
X9889Y9938D02*
X9328Y9938D01*
X6345Y10923D02*
X6345Y11535D01*
X5810Y12070D01*
X5810Y12880D01*
X6149Y10923D02*
X5987Y10923D01*
X4800Y12110D01*
X4800Y12890D01*
X7330Y5790D02*
X7080Y5540D01*
X5800Y13500D02*
X5800Y14206D01*
X3806Y8600D02*
X3806Y8506D01*
G54D12*
X14912Y13290D02*
X16930Y13290D01*
X7794Y11800D02*
X8030Y12036D01*
X8030Y12190D01*
X4240Y8560D02*
X6160Y8560D01*
X6410Y8810D01*
X8117Y10923D02*
X8117Y10547D01*
X8020Y10450D01*
X8708Y10923D02*
X8708Y10558D01*
X8600Y10450D01*
X7330Y10450D02*
X8600Y10450D01*
X7920Y5680D02*
X7920Y6830D01*
X8666Y7576D01*
X10776Y7576D01*
X9889Y7773D02*
X10373Y7773D01*
X11194Y7600D02*
X11510Y7600D01*
X8605Y10455D02*
X12075Y10455D01*
X12530Y10910D01*
X8784Y8954D02*
X10754Y8954D01*
X8784Y8954D02*
X8090Y8260D01*
X8090Y7440D01*
X8310Y7220D01*
X13520Y9880D02*
X13400Y10000D01*
X14136Y9683D02*
X13476Y9683D01*
X13400Y9606D01*
X13495Y8895D02*
X13400Y8800D01*
X16105Y11495D02*
X16000Y11600D01*
X16302Y10864D02*
X16302Y11508D01*
X16394Y11600D01*
X17483Y11517D02*
X17400Y11600D01*
X16394Y11600D02*
X16394Y11854D01*
X17400Y11994D02*
X17400Y12280D01*
X19794Y8400D02*
X20040Y8400D01*
X16105Y5689D02*
X16194Y5600D01*
X17089Y5689D02*
X17000Y5600D01*
X12273Y1006D02*
X13150Y1006D01*
X13240Y1096D01*
X26322Y14831D02*
X26719Y14831D01*
X23010Y15190D02*
X23416Y15190D01*
X23610Y14530D02*
X23420Y14720D01*
X23420Y15194D01*
X23700Y13770D02*
X23520Y13770D01*
X23830Y14830D02*
X24004Y14656D01*
X24004Y14486D01*
X23830Y15210D02*
X23830Y14830D01*
X22060Y14140D02*
X21720Y14140D01*
X18340Y13440D02*
X19090Y14190D01*
X19260Y14190D01*
X19260Y14430D01*
X19400Y14570D01*
X20030Y14570D01*
X20320Y14280D01*
X20730Y14280D01*
X19060Y12610D02*
X19060Y12860D01*
X19320Y13120D01*
X20593Y13520D02*
X20593Y13223D01*
X20790Y12733D02*
X21007Y12733D01*
X21340Y12400D01*
X20593Y12733D02*
X20593Y12017D01*
X20730Y14674D02*
X20730Y15010D01*
X20790Y14220D02*
X20790Y13520D01*
X23610Y14230D02*
X24460Y14230D01*
X24720Y13970D01*
X23910Y12240D02*
X24270Y12600D01*
X24644Y12600D01*
X20790Y13520D02*
X21730Y13520D01*
X22125Y13125D01*
X25265Y13125D01*
X23910Y11453D02*
X24447Y11453D01*
X24660Y12190D02*
X24990Y12190D01*
X24874Y11420D02*
X24874Y11976D01*
X24660Y12190D01*
X23713Y11453D02*
X23713Y10797D01*
X23800Y10710D01*
X23713Y11943D02*
X23713Y12240D01*
X20490Y13120D02*
X19320Y13120D01*
X23096Y10316D02*
X23800Y10316D01*
X24750Y9120D02*
X25420Y9120D01*
X24480Y11420D02*
X24480Y11050D01*
X24750Y10780D01*
X24750Y9120D01*
X21734Y12736D02*
X21280Y13190D01*
X20930Y13190D01*
X20710Y11506D02*
X21096Y11506D01*
X21734Y12144D01*
X21734Y12736D01*
X21695Y4114D02*
X22582Y4114D01*
X22600Y4096D02*
X22986Y4096D01*
X19146Y4947D02*
X19146Y4264D01*
X20785Y4902D02*
X21068Y4902D01*
X21302Y5886D02*
X22015Y5886D01*
X21302Y4114D02*
X21498Y4114D01*
X20785Y4311D02*
X20941Y4311D01*
X21050Y4420D01*
X21230Y4420D01*
X21302Y4348D01*
X21302Y4114D01*
X21517Y2320D02*
X21517Y4096D01*
X21123Y2320D02*
X21123Y4096D01*
X21117Y2920D02*
X20760Y2920D01*
X18563Y3590D02*
X19210Y3590D01*
X19150Y4260D02*
X19150Y3970D01*
X19200Y3920D01*
X19530Y3920D01*
X19624Y3826D01*
X19624Y3570D01*
X17000Y5206D02*
X17000Y4830D01*
X18664Y8305D02*
X18195Y8305D01*
X21540Y6570D02*
X21540Y7150D01*
X23500Y9110D01*
X24740Y9110D01*
X21540Y6570D02*
X22470Y6570D01*
X23430Y5610D01*
X23430Y3730D01*
X22620Y2920D01*
X21510Y2920D01*
X11367Y2077D02*
X11820Y2530D01*
X11820Y3540D01*
X11620Y3740D01*
X11620Y4123D01*
X12214Y3540D02*
X12632Y3958D01*
X12214Y2564D02*
X12214Y3540D01*
X12632Y3958D02*
X12632Y4151D01*
X12829Y4545D02*
X12575Y4545D01*
X10922Y4938D02*
X10820Y4836D01*
X11451Y4545D02*
X11245Y4545D01*
X11160Y4460D01*
X11160Y3710D01*
X11086Y3636D01*
X10890Y3636D01*
X10890Y3300D01*
X13490Y4446D02*
X13490Y3490D01*
X12355Y2355D01*
X11645Y2355D01*
X21695Y5975D02*
X21880Y6160D01*
X10922Y4938D02*
X11678Y4938D01*
X17286Y10864D02*
X17286Y10296D01*
X16000Y11600D02*
X16000Y12210D01*
X16620Y12210D01*
X16860Y11970D01*
X16860Y11710D01*
X16970Y11600D01*
X17400Y11600D01*
X16930Y7190D02*
X17089Y7031D01*
X17089Y5689D02*
X17089Y7031D01*
X15908Y6968D02*
X16130Y7190D01*
X16930Y7190D01*
X15908Y5708D02*
X15908Y6968D01*
X16105Y5689D02*
X16105Y6795D01*
X16230Y6920D01*
X16820Y6920D01*
X16900Y6840D01*
X16900Y6344D01*
X17483Y10864D02*
X17483Y11517D01*
X17318Y8502D02*
X19298Y8502D01*
X17318Y8502D02*
X16105Y9715D01*
X16105Y11495D01*
X13520Y9880D02*
X14740Y9880D01*
X15265Y9355D01*
X16465Y9355D01*
X13495Y8895D02*
X14805Y8895D01*
X15265Y9355D01*
X16860Y7190D02*
X17318Y7648D01*
X17318Y8502D01*
X13006Y8800D02*
X12630Y8800D01*
X13400Y9606D02*
X13004Y9606D01*
X14136Y8698D02*
X14792Y8698D01*
X22930Y9450D02*
X23920Y9450D01*
X24290Y9820D01*
X24290Y10560D01*
X24140Y10710D01*
X23800Y10710D01*
X12530Y11080D02*
X12850Y11080D01*
X14250Y12480D01*
X17910Y12480D01*
X18080Y12650D01*
X20070Y12360D02*
X20250Y12360D01*
X20710Y11900D01*
X20790Y12733D02*
X20790Y12440D01*
X20870Y12360D01*
X6350Y4380D02*
X6350Y1879D01*
X6340Y1869D01*
X8680Y10455D02*
X8680Y9084D01*
X8810Y8954D01*
X9080Y15368D02*
X9080Y15030D01*
X9300Y14810D01*
X10790Y14810D01*
X11440Y15460D01*
X16700Y15460D01*
X17650Y14510D01*
X17650Y12480D01*
X19530Y6550D02*
X19530Y5800D01*
X19870Y5460D01*
X20180Y5460D01*
X18563Y3590D02*
X18563Y3927D01*
X18260Y4230D01*
X15770Y4980D02*
X15770Y5570D01*
X15908Y5708D01*
X11385Y2095D02*
X11385Y1398D01*
X16720Y1470D02*
X14550Y1470D01*
X13010Y3010D01*
X22600Y2920D02*
X22600Y2330D01*
X22100Y1830D01*
X19260Y1830D02*
X22100Y1830D01*
X19220Y3030D02*
X19220Y3560D01*
X18610Y1144D02*
X20186Y1144D01*
X20320Y1010D01*
X20320Y662D01*
X6410Y9350D02*
X7330Y10270D01*
X7330Y11730D01*
X6410Y8810D02*
X6410Y9350D01*
X13888Y13547D02*
X13888Y14541D01*
X12924Y14600D02*
X15876Y14600D01*
X13947Y14600D02*
X13947Y15173D01*
X13490Y4446D02*
X14056Y4446D01*
X14260Y4650D01*
X14260Y5106D01*
X22670Y15134D02*
X22974Y15134D01*
X11920Y11454D02*
X11920Y12053D01*
X12026Y12160D01*
X12026Y12546D01*
X12530Y10910D02*
X12530Y12050D01*
X12420Y12160D01*
X18900Y1470D02*
X16720Y1470D01*
X19260Y1830D02*
X18900Y1470D01*
X16437Y2090D02*
X15960Y2090D01*
X26920Y14630D02*
X26920Y12350D01*
X26719Y14831D02*
X26920Y14630D01*
X26920Y12350D02*
X26500Y11930D01*
X4840Y14930D02*
X5830Y14930D01*
X5850Y14910D01*
X5850Y15340D01*
X5910Y15400D01*
X26260Y10110D02*
X26260Y9690D01*
X26280Y9670D01*
X22930Y9450D02*
X22280Y8800D01*
X22270Y8800D01*
X21450Y8720D02*
X21720Y8450D01*
X21700Y8470D02*
X21700Y8290D01*
X21840Y10090D02*
X22300Y10090D01*
X22360Y10150D01*
X7920Y5680D02*
X8000Y5600D01*
X8000Y5230D02*
X8000Y5600D01*
X7916Y5146D02*
X8000Y5230D01*
X7080Y5146D02*
X7916Y5146D01*
X5628Y1869D02*
X7498Y1869D01*
X7723Y5717D02*
X7723Y6957D01*
X7723Y5717D02*
X7606Y5600D01*
X9889Y8757D02*
X10649Y8757D01*
X10800Y8606D01*
X11164Y8606D01*
X7527Y10923D02*
X7527Y11383D01*
X7794Y11650D01*
X7794Y11800D01*
X5361Y8757D02*
X5967Y8757D01*
X3806Y8506D02*
X3500Y8200D01*
G54D13*
X24520Y15240D02*
X25520Y15240D01*
X24016Y14486D02*
X24170Y14640D01*
X24990Y14640D01*
X23216Y14486D02*
X22924Y14486D01*
X25500Y13360D02*
X25500Y14640D01*
X24724Y12584D02*
X25500Y13360D01*
X21760Y14750D02*
X22660Y14750D01*
X22924Y14486D01*
X21760Y14750D02*
X21620Y14890D01*
X26041Y5648D02*
X26041Y7768D01*
G54D14*
X25821Y14831D02*
X25630Y14640D01*
X26322Y14831D02*
X25821Y14831D01*
X25630Y14640D02*
X24990Y14640D01*
G54D15*
X23610Y13760D02*
X23610Y14530D01*
X20490Y13120D02*
X20930Y13120D01*
X23610Y11840D02*
X24030Y11840D01*
G54D16*
G36*
X11353Y4289D02*
X11353Y4289D01*
X11353Y4407D01*
X11549Y4407D01*
X11549Y4328D01*
X11510Y4289D01*
X11353Y4289D01*
D02*
G37*
X11353Y4407D01*
X11549Y4407D01*
X11549Y4328D01*
X11510Y4289D01*
X11353Y4289D01*
G36*
X11589Y4053D02*
X11589Y4053D01*
X11707Y4053D01*
X11707Y4249D01*
X11628Y4249D01*
X11589Y4210D01*
X11589Y4053D01*
D02*
G37*
X11707Y4053D01*
X11707Y4249D01*
X11628Y4249D01*
X11589Y4210D01*
X11589Y4053D01*
G36*
X12691Y4053D02*
X12691Y4053D01*
X12573Y4053D01*
X12573Y4249D01*
X12652Y4249D01*
X12691Y4210D01*
X12691Y4053D01*
D02*
G37*
X12573Y4053D01*
X12573Y4249D01*
X12652Y4249D01*
X12691Y4210D01*
X12691Y4053D01*
G36*
X12927Y4289D02*
X12927Y4289D01*
X12927Y4407D01*
X12731Y4407D01*
X12731Y4328D01*
X12770Y4289D01*
X12927Y4289D01*
D02*
G37*
X12927Y4407D01*
X12731Y4407D01*
X12731Y4328D01*
X12770Y4289D01*
X12927Y4289D01*
G36*
X11589Y5627D02*
X11589Y5627D01*
X11707Y5627D01*
X11707Y5431D01*
X11628Y5431D01*
X11589Y5470D01*
X11589Y5627D01*
D02*
G37*
X11707Y5627D01*
X11707Y5431D01*
X11628Y5431D01*
X11589Y5470D01*
X11589Y5627D01*
G36*
X11353Y5391D02*
X11353Y5391D01*
X11353Y5273D01*
X11549Y5273D01*
X11549Y5352D01*
X11510Y5391D01*
X11353Y5391D01*
D02*
G37*
X11353Y5273D01*
X11549Y5273D01*
X11549Y5352D01*
X11510Y5391D01*
X11353Y5391D01*
G36*
X12691Y5627D02*
X12691Y5627D01*
X12573Y5627D01*
X12573Y5431D01*
X12652Y5431D01*
X12691Y5470D01*
X12691Y5627D01*
D02*
G37*
X12573Y5627D01*
X12573Y5431D01*
X12652Y5431D01*
X12691Y5470D01*
X12691Y5627D01*
G36*
X12927Y5391D02*
X12927Y5391D01*
X12927Y5273D01*
X12731Y5273D01*
X12731Y5352D01*
X12770Y5391D01*
X12927Y5391D01*
D02*
G37*
X12927Y5273D01*
X12731Y5273D01*
X12731Y5352D01*
X12770Y5391D01*
X12927Y5391D01*
G54D17*
X1792Y14859D02*
X1792Y2070D01*
X1792Y1070D01*
G54D18*
X9671Y15368D03*
X9080Y15368D03*
X8489Y15368D03*
X7899Y15368D03*
X7308Y15368D03*
X19729Y662D03*
X20320Y662D03*
X20911Y662D03*
X21501Y662D03*
X22092Y662D03*
X26322Y14831D03*
X26322Y14240D03*
X26322Y13649D03*
X26322Y13059D03*
X24839Y2872D03*
X25430Y2872D03*
X26021Y2872D03*
X5628Y1869D03*
X5628Y2460D03*
X5628Y3051D03*
X7508Y1879D03*
X7508Y2470D03*
X7508Y3061D03*
X26041Y5648D03*
X25450Y5648D03*
X24859Y5648D03*
X24269Y5648D03*
X7489Y13612D03*
X8080Y13612D03*
X8671Y13612D03*
X9261Y13612D03*
X9852Y13612D03*
X10442Y13612D03*
X26021Y7788D03*
X25430Y7788D03*
X24839Y7788D03*
X24249Y7788D03*
X9412Y1809D03*
X9412Y2399D03*
X9412Y2990D03*
X9412Y3581D03*
G54D19*
X7794Y11800D03*
X7400Y11800D03*
X10800Y7600D03*
X11194Y7600D03*
X16000Y11600D03*
X16394Y11600D03*
X19794Y8400D03*
X19400Y8400D03*
X21734Y12400D03*
X21340Y12400D03*
X19260Y14190D03*
X19654Y14190D03*
X22060Y14140D03*
X22454Y14140D03*
X24480Y11420D03*
X24874Y11420D03*
X21510Y2920D03*
X21117Y2920D03*
X19230Y3570D03*
X19624Y3570D03*
X19150Y4260D03*
X19544Y4260D03*
X16194Y5600D03*
X15800Y5600D03*
X11820Y2960D03*
X12214Y2960D03*
X12214Y3540D03*
X11820Y3540D03*
X21517Y2320D03*
X21123Y2320D03*
X21517Y3520D03*
X21123Y3520D03*
X19146Y4947D03*
X19540Y4947D03*
X7606Y5600D03*
X8000Y5600D03*
X21146Y6570D03*
X21540Y6570D03*
X3806Y8600D03*
X4200Y8600D03*
X12026Y12160D03*
X12420Y12160D03*
X23830Y15210D03*
X23436Y15210D03*
X19060Y12610D03*
X19454Y12610D03*
X13400Y8800D03*
X13006Y8800D03*
G54D20*
X10800Y8606D03*
X10800Y9000D03*
X13240Y1490D03*
X13240Y1096D03*
X22600Y4490D03*
X22600Y4096D03*
X20180Y5460D03*
X20180Y5854D03*
X25430Y9130D03*
X25430Y8736D03*
X20730Y14280D03*
X20730Y14674D03*
X18610Y750D03*
X18610Y1144D03*
X14260Y5500D03*
X14260Y5106D03*
X17400Y11994D03*
X17400Y11600D03*
X20710Y11900D03*
X20710Y11506D03*
X22670Y14740D03*
X22670Y15134D03*
X24750Y9120D03*
X24750Y8726D03*
X13400Y10000D03*
X13400Y9606D03*
X17000Y5206D03*
X17000Y5600D03*
X7080Y5540D03*
X7080Y5146D03*
X10820Y5230D03*
X10820Y4836D03*
X10890Y3636D03*
X10890Y4030D03*
X13490Y4840D03*
X13490Y4446D03*
X24720Y13576D03*
X24720Y13970D03*
X23080Y10300D03*
X23080Y10694D03*
X23800Y10316D03*
X23800Y10710D03*
X24660Y12584D03*
X24660Y12190D03*
G54D21*
X11280Y12710D03*
X14380Y13090D03*
X8010Y11430D03*
X11520Y11420D03*
X10480Y7180D03*
X13530Y7110D03*
X7130Y9300D03*
X18060Y9280D03*
X6540Y13260D03*
X7330Y6970D03*
X7200Y14600D03*
X9007Y8167D03*
X8790Y7980D03*
X11930Y7330D03*
X13340Y7350D03*
X9200Y7000D03*
X14660Y6570D03*
X8570Y7150D03*
X8460Y7730D03*
X13570Y7700D03*
X10430Y10120D03*
X16890Y10110D03*
X16680Y4220D03*
X13490Y5170D03*
X13160Y8300D03*
X22092Y10668D03*
X21390Y10920D03*
X21760Y14750D03*
X12300Y5000D03*
X12300Y8160D03*
X15150Y11400D03*
X10940Y9860D03*
X23420Y9860D03*
X9550Y10900D03*
X24250Y10940D03*
X19880Y6360D03*
X22400Y6140D03*
X19570Y7500D03*
X22700Y5330D03*
X15410Y8140D03*
X15430Y7720D03*
X16470Y4850D03*
X17670Y10230D03*
X18030Y5450D03*
X17876Y10064D03*
X18290Y5010D03*
X7550Y9550D03*
X19430Y12180D03*
X8090Y9590D03*
X11690Y13510D03*
X8400Y10160D03*
X22840Y13750D03*
X8360Y6950D03*
X16610Y13840D03*
X10890Y6890D03*
X26800Y7300D03*
X22700Y7490D03*
X18080Y12650D03*
X20070Y12360D03*
X20870Y12360D03*
X6350Y4380D03*
X19530Y6550D03*
X18260Y4230D03*
X15770Y4980D03*
X19220Y3030D03*
X17920Y2080D03*
X15860Y2870D03*
X22270Y8800D03*
X9220Y12220D03*
X24320Y13670D03*
X9282Y8358D03*
X7508Y8358D03*
X9310Y9920D03*
X6320Y9920D03*
X17320Y8500D03*
X22400Y6570D03*
X21620Y14890D03*
X20590Y8270D03*
X7720Y6950D03*
X11150Y8600D03*
X8040Y12170D03*
X5940Y8750D03*
X10370Y7770D03*
X12020Y12530D03*
X3500Y8200D03*
X11500Y7590D03*
X24480Y15230D03*
X25510Y15250D03*
X23520Y13770D03*
X23700Y13770D03*
X23030Y15190D03*
X18200Y8300D03*
X16410Y11880D03*
X13020Y9600D03*
X14780Y8680D03*
X16510Y6920D03*
X17280Y10300D03*
X15970Y2090D03*
X12640Y8800D03*
X17000Y4830D03*
X20050Y8400D03*
X17410Y12280D03*
X23430Y10310D03*
X19150Y4610D03*
X13930Y15170D03*
X20740Y2930D03*
X22970Y4100D03*
X21860Y6140D03*
X21060Y4890D03*
X11670Y4940D03*
X10860Y3290D03*
X12210Y2600D03*
X12580Y4550D03*
X20930Y13190D03*
X20920Y12990D03*
X21430Y11840D03*
X24000Y11920D03*
X24000Y11730D03*
X12720Y1000D03*
X20730Y14990D03*
X24980Y12190D03*
X21730Y14140D03*
X22340Y10140D03*
X21720Y8270D03*
X26260Y9710D03*
X5900Y15390D03*
G54D22*
X23216Y14486D03*
X24004Y14486D03*
X23216Y14230D03*
X23216Y13974D03*
X24004Y14230D03*
X24004Y13974D03*
G54D23*
X23610Y14230D03*
G54D24*
X24990Y15240D03*
X24990Y14640D03*
X21450Y9320D03*
X21450Y8720D03*
X26260Y10710D03*
X26260Y10110D03*
X4840Y14930D03*
X4840Y14330D03*
X5850Y14310D03*
X5850Y14910D03*
G54D25*
X24782Y15186D02*
X25198Y15186D01*
X25198Y15294D01*
X24782Y15294D01*
X24782Y15186D01*D02*
X24782Y14586D02*
X25198Y14586D01*
X25198Y14694D01*
X24782Y14694D01*
X24782Y14586D01*D02*
X21242Y9266D02*
X21658Y9266D01*
X21658Y9374D01*
X21242Y9374D01*
X21242Y9266D01*D02*
X21242Y8666D02*
X21658Y8666D01*
X21658Y8774D01*
X21242Y8774D01*
X21242Y8666D01*D02*
X21186Y9882D02*
X21294Y9882D01*
X21294Y10298D01*
X21186Y10298D01*
X21186Y9882D01*D02*
X21786Y9882D02*
X21894Y9882D01*
X21894Y10298D01*
X21786Y10298D01*
X21786Y9882D01*D02*
X26052Y10656D02*
X26468Y10656D01*
X26468Y10764D01*
X26052Y10764D01*
X26052Y10656D01*D02*
X26052Y10056D02*
X26468Y10056D01*
X26468Y10164D01*
X26052Y10164D01*
X26052Y10056D01*D02*
X4632Y14876D02*
X5048Y14876D01*
X5048Y14984D01*
X4632Y14984D01*
X4632Y14876D01*D02*
X4632Y14276D02*
X5048Y14276D01*
X5048Y14384D01*
X4632Y14384D01*
X4632Y14276D01*D02*
X5642Y14256D02*
X6058Y14256D01*
X6058Y14364D01*
X5642Y14364D01*
X5642Y14256D01*D02*
X5642Y14856D02*
X6058Y14856D01*
X6058Y14964D01*
X5642Y14964D01*
X5642Y14856D01*D02*
G54D26*
X20110Y4330D03*
X20110Y4763D03*
G54D27*
X1792Y2070D03*
X1792Y4070D03*
X1792Y3070D03*
X1792Y1070D03*
X792Y2070D03*
X792Y3070D03*
X792Y1070D03*
X2792Y4070D03*
X2792Y3070D03*
X2792Y2070D03*
X2792Y1070D03*
X1792Y7464D03*
X1792Y9464D03*
X1792Y8464D03*
X1792Y6464D03*
X792Y7464D03*
X792Y8464D03*
X792Y6464D03*
X2792Y9464D03*
X2792Y8464D03*
X2792Y7464D03*
X2792Y6464D03*
X1792Y12859D03*
X1792Y14859D03*
X1792Y13859D03*
X1792Y11859D03*
X792Y12859D03*
X792Y13859D03*
X792Y11859D03*
X2792Y14859D03*
X2792Y13859D03*
X2792Y12859D03*
X2792Y11859D03*
G54D28*
X792Y4070D03*
X792Y9464D03*
X792Y14859D03*
G54D29*
X688Y3966D02*
X896Y3966D01*
X896Y4174D01*
X688Y4174D01*
X688Y3966D01*D02*
X688Y9360D02*
X896Y9360D01*
X896Y9568D01*
X688Y9568D01*
X688Y9360D01*D02*
X688Y14755D02*
X896Y14755D01*
X896Y14963D01*
X688Y14963D01*
X688Y14755D01*D02*
G54D30*
X11845Y4151D03*
X12042Y4151D03*
X12238Y4151D03*
X12435Y4151D03*
X11845Y5529D03*
X12042Y5529D03*
X12238Y5529D03*
X12435Y5529D03*
G54D31*
X11451Y4742D03*
X11451Y4545D03*
X12829Y4742D03*
X12829Y4545D03*
X11451Y4938D03*
X11451Y5135D03*
X12829Y4938D03*
X12829Y5135D03*
G54D32*
X12530Y11080D03*
X11920Y11080D03*
X11920Y11454D03*
X12530Y11454D03*
G54D33*
X26500Y11930D03*
X26500Y11320D03*
X20640Y10240D03*
X20030Y10240D03*
X20030Y9510D03*
X20640Y9510D03*
X4800Y12890D03*
X4800Y13500D03*
X5800Y13500D03*
X5800Y12890D03*
G54D34*
X14144Y13547D03*
X13888Y13547D03*
X14400Y13547D03*
X14912Y13547D03*
X14656Y13547D03*
G54D35*
X13947Y14600D03*
X14853Y14600D03*
G54D36*
X12924Y14600D03*
X15876Y14600D03*
G54D37*
X17080Y13440D03*
X18340Y13440D03*
G54D38*
X16437Y2590D03*
X16437Y2090D03*
X18563Y2590D03*
X18563Y2090D03*
X16437Y3090D03*
X18563Y3090D03*
X16437Y3590D03*
X18563Y3590D03*
G54D39*
X11367Y1380D03*
X12273Y1006D03*
X12273Y1754D03*
G54D40*
X20785Y4508D03*
X20785Y4114D03*
X20785Y4311D03*
X22015Y4311D03*
X22015Y4114D03*
X22015Y4508D03*
X20785Y5295D03*
X20785Y4705D03*
X20785Y4902D03*
X20785Y5098D03*
X22015Y4705D03*
X22015Y5098D03*
X22015Y4902D03*
X22015Y5295D03*
X20785Y5492D03*
X20785Y5689D03*
X20785Y5886D03*
X22015Y5492D03*
X22015Y5689D03*
X22015Y5886D03*
G54D41*
X21105Y4114D03*
X21498Y4114D03*
X21302Y4114D03*
X21695Y4114D03*
X21105Y5886D03*
X21498Y5886D03*
X21302Y5886D03*
X21695Y5886D03*
G54D42*
X6345Y6395D03*
X6149Y6395D03*
X6739Y6395D03*
X6542Y6395D03*
X7133Y6395D03*
X6936Y6395D03*
X7527Y6395D03*
X7330Y6395D03*
X7920Y6395D03*
X7723Y6395D03*
X8314Y6395D03*
X8117Y6395D03*
X8708Y6395D03*
X8511Y6395D03*
X9101Y6395D03*
X8905Y6395D03*
X6345Y10923D03*
X6149Y10923D03*
X6739Y10923D03*
X6542Y10923D03*
X7133Y10923D03*
X6936Y10923D03*
X7527Y10923D03*
X7330Y10923D03*
X7920Y10923D03*
X7723Y10923D03*
X8314Y10923D03*
X8117Y10923D03*
X8708Y10923D03*
X8511Y10923D03*
X9101Y10923D03*
X8905Y10923D03*
X14924Y6336D03*
X15120Y6336D03*
X15514Y6336D03*
X15317Y6336D03*
X15711Y6336D03*
X15908Y6336D03*
X16302Y6336D03*
X16105Y6336D03*
X16498Y6336D03*
X16695Y6336D03*
X17089Y6336D03*
X16892Y6336D03*
X17286Y6336D03*
X17483Y6336D03*
X17876Y6336D03*
X17680Y6336D03*
X14924Y10864D03*
X15120Y10864D03*
X15514Y10864D03*
X15317Y10864D03*
X15711Y10864D03*
X15908Y10864D03*
X16302Y10864D03*
X16105Y10864D03*
X16498Y10864D03*
X16695Y10864D03*
X17089Y10864D03*
X16892Y10864D03*
X17286Y10864D03*
X17483Y10864D03*
X17876Y10864D03*
X17680Y10864D03*
G54D43*
X5361Y7182D03*
X9889Y7182D03*
X5361Y7576D03*
X5361Y7970D03*
X5361Y7773D03*
X5361Y7379D03*
X9889Y7576D03*
X9889Y7773D03*
X9889Y7970D03*
X9889Y7379D03*
X5361Y8364D03*
X5361Y8560D03*
X5361Y8757D03*
X5361Y8167D03*
X9889Y8364D03*
X9889Y8560D03*
X9889Y8757D03*
X9889Y8167D03*
X5361Y9151D03*
X5361Y9545D03*
X5361Y9348D03*
X5361Y8954D03*
X9889Y9151D03*
X9889Y9348D03*
X9889Y9545D03*
X9889Y8954D03*
X5361Y9938D03*
X5361Y10135D03*
X5361Y9741D03*
X9889Y9938D03*
X9889Y10135D03*
X9889Y9741D03*
X14136Y7124D03*
X18664Y7124D03*
X14136Y7911D03*
X14136Y7714D03*
X14136Y7517D03*
X14136Y7320D03*
X18664Y7517D03*
X18664Y7714D03*
X18664Y7911D03*
X18664Y7320D03*
X14136Y8698D03*
X14136Y8502D03*
X14136Y8305D03*
X14136Y8108D03*
X18664Y8698D03*
X18664Y8305D03*
X18664Y8502D03*
X18664Y8108D03*
X14136Y9486D03*
X14136Y9289D03*
X14136Y9092D03*
X14136Y8895D03*
X18664Y9092D03*
X18664Y9289D03*
X18664Y9486D03*
X18664Y8895D03*
X14136Y10076D03*
X14136Y9880D03*
X14136Y9683D03*
X18664Y9880D03*
X18664Y10076D03*
X18664Y9683D03*
G54D44*
X23516Y11453D03*
X23713Y12240D03*
X23910Y12240D03*
X23319Y11453D03*
X23713Y11453D03*
X23910Y11453D03*
X23319Y12240D03*
X23516Y12240D03*
X20790Y12733D03*
X20396Y12733D03*
X20790Y13520D03*
X20199Y12733D03*
X20199Y13520D03*
X20396Y13520D03*
X20593Y13520D03*
X20593Y12733D03*
G54D45*
X23610Y11840D03*
X20490Y13120D03*
G54D46*
X21240Y10090D03*
X21840Y10090D03*

M02*
