G04 Generated by Ultiboard 14.1 *
%FSLAX25Y25*%
%MOIN*%

%ADD10C,0.00001*%
%ADD11C,0.00004*%
%ADD12C,0.04156*%
%ADD13R,0.02362X0.02756*%
%ADD14R,0.02756X0.02362*%
%ADD15C,0.01772*%
%ADD16O,0.02559X0.01181*%
%ADD17R,0.02559X0.04921*%
%ADD18R,0.04168X0.01084*%
%ADD19C,0.01666*%
%ADD20R,0.03937X0.01969*%
%ADD21C,0.06334*%
%ADD22R,0.02083X0.02083*%
%ADD23C,0.03917*%
%ADD24R,0.01181X0.01969*%
%ADD25R,0.01969X0.01181*%
%ADD26R,0.01969X0.02756*%
%ADD27R,0.03150X0.03150*%
%ADD28C,0.02362*%
%ADD29R,0.01575X0.05315*%
%ADD30R,0.07087X0.07480*%
%ADD31R,0.09055X0.05118*%
%ADD32R,0.03622X0.04252*%
%ADD33R,0.06102X0.02362*%
%ADD34R,0.03937X0.02362*%
%ADD35R,0.02362X0.01181*%
%ADD36R,0.01181X0.02362*%
%ADD37R,0.01181X0.06102*%
%ADD38R,0.06102X0.01181*%
%ADD39O,0.01181X0.02559*%
%ADD40R,0.04921X0.02559*%


G04 ColorRGB FF00CC for the following layer *
%LNSolder Mask Top*%
%LPD*%
G54D10*
G54D11*
G36*
X113526Y42888D02*
X113526Y42888D01*
X113526Y44069D01*
X115494Y44069D01*
X115494Y43282D01*
X115101Y42888D01*
X113526Y42888D01*
D02*
G37*
X113526Y44069D01*
X115494Y44069D01*
X115494Y43282D01*
X115101Y42888D01*
X113526Y42888D01*
G36*
X115888Y40526D02*
X115888Y40526D01*
X117069Y40526D01*
X117069Y42494D01*
X116282Y42494D01*
X115888Y42101D01*
X115888Y40526D01*
D02*
G37*
X117069Y40526D01*
X117069Y42494D01*
X116282Y42494D01*
X115888Y42101D01*
X115888Y40526D01*
G36*
X126912Y40526D02*
X126912Y40526D01*
X125731Y40526D01*
X125731Y42494D01*
X126518Y42494D01*
X126912Y42101D01*
X126912Y40526D01*
D02*
G37*
X125731Y40526D01*
X125731Y42494D01*
X126518Y42494D01*
X126912Y42101D01*
X126912Y40526D01*
G36*
X129274Y42888D02*
X129274Y42888D01*
X129274Y44069D01*
X127306Y44069D01*
X127306Y43282D01*
X127699Y42888D01*
X129274Y42888D01*
D02*
G37*
X129274Y44069D01*
X127306Y44069D01*
X127306Y43282D01*
X127699Y42888D01*
X129274Y42888D01*
G36*
X115888Y56274D02*
X115888Y56274D01*
X117069Y56274D01*
X117069Y54306D01*
X116282Y54306D01*
X115888Y54699D01*
X115888Y56274D01*
D02*
G37*
X117069Y56274D01*
X117069Y54306D01*
X116282Y54306D01*
X115888Y54699D01*
X115888Y56274D01*
G36*
X113526Y53912D02*
X113526Y53912D01*
X113526Y52731D01*
X115494Y52731D01*
X115494Y53518D01*
X115101Y53912D01*
X113526Y53912D01*
D02*
G37*
X113526Y52731D01*
X115494Y52731D01*
X115494Y53518D01*
X115101Y53912D01*
X113526Y53912D01*
G36*
X126912Y56274D02*
X126912Y56274D01*
X125731Y56274D01*
X125731Y54306D01*
X126518Y54306D01*
X126912Y54699D01*
X126912Y56274D01*
D02*
G37*
X125731Y56274D01*
X125731Y54306D01*
X126518Y54306D01*
X126912Y54699D01*
X126912Y56274D01*
G36*
X129274Y53912D02*
X129274Y53912D01*
X129274Y52731D01*
X127306Y52731D01*
X127306Y53518D01*
X127699Y53912D01*
X129274Y53912D01*
D02*
G37*
X129274Y52731D01*
X127306Y52731D01*
X127306Y53518D01*
X127699Y53912D01*
X129274Y53912D01*
G36*
X154236Y143539D02*
X154236Y148657D01*
X163291Y148657D01*
X163291Y143539D01*
X154236Y143539D01*
G37*
G36*
X144984Y142358D02*
X144984Y149839D01*
X152071Y149839D01*
X152071Y142358D01*
X144984Y142358D01*
G37*
G36*
X124709Y143539D02*
X124709Y148657D01*
X133764Y148657D01*
X133764Y143539D01*
X124709Y143539D01*
G37*
G36*
X135929Y142358D02*
X135929Y149839D01*
X143016Y149839D01*
X143016Y142358D01*
X135929Y142358D01*
G37*
G54D12*
X96706Y153682D03*
X90800Y153682D03*
X84894Y153682D03*
X78989Y153682D03*
X73083Y153682D03*
X197294Y6618D03*
X203200Y6618D03*
X209106Y6618D03*
X215011Y6618D03*
X220917Y6618D03*
X263218Y148306D03*
X263218Y142400D03*
X263218Y136494D03*
X263218Y130589D03*
X248394Y28718D03*
X254300Y28718D03*
X260206Y28718D03*
X56282Y18694D03*
X56282Y24600D03*
X56282Y30506D03*
X75082Y18794D03*
X75082Y24700D03*
X75082Y30606D03*
X260406Y56482D03*
X254500Y56482D03*
X248594Y56482D03*
X242689Y56482D03*
X74894Y136118D03*
X80800Y136118D03*
X86706Y136118D03*
X92611Y136118D03*
X98517Y136118D03*
X104422Y136118D03*
X260206Y77882D03*
X254300Y77882D03*
X248394Y77882D03*
X242489Y77882D03*
X94118Y18089D03*
X94118Y23994D03*
X94118Y29900D03*
X94118Y35806D03*
G54D13*
X77937Y118000D03*
X74000Y118000D03*
X108000Y76000D03*
X111937Y76000D03*
X160000Y116000D03*
X163937Y116000D03*
X197937Y84000D03*
X194000Y84000D03*
X217337Y124000D03*
X213400Y124000D03*
X192600Y141900D03*
X196537Y141900D03*
X220600Y141400D03*
X224537Y141400D03*
X244800Y114200D03*
X248737Y114200D03*
X215104Y29200D03*
X211167Y29200D03*
X192300Y35700D03*
X196237Y35700D03*
X191500Y42600D03*
X195437Y42600D03*
X161937Y56000D03*
X158000Y56000D03*
X118200Y29600D03*
X122137Y29600D03*
X122137Y35400D03*
X118200Y35400D03*
X215167Y23200D03*
X211230Y23200D03*
X215167Y35200D03*
X211230Y35200D03*
X191463Y49472D03*
X195400Y49472D03*
X76063Y56000D03*
X80000Y56000D03*
X211463Y65700D03*
X215400Y65700D03*
X38063Y86000D03*
X42000Y86000D03*
X120263Y121600D03*
X124200Y121600D03*
X238300Y152100D03*
X234363Y152100D03*
X190600Y126100D03*
X194537Y126100D03*
X134000Y88000D03*
X130063Y88000D03*
X212863Y102400D03*
X216800Y102400D03*
X216900Y95100D03*
X212963Y95100D03*
G54D14*
X108000Y86063D03*
X108000Y90000D03*
X226000Y44900D03*
X226000Y40963D03*
X201800Y54600D03*
X201800Y58537D03*
X254300Y91300D03*
X254300Y87363D03*
X207300Y142800D03*
X207300Y146737D03*
X186100Y7500D03*
X186100Y11437D03*
X142600Y55000D03*
X142600Y51063D03*
X174000Y119937D03*
X174000Y116000D03*
X207100Y119000D03*
X207100Y115063D03*
X226700Y147400D03*
X226700Y151337D03*
X247500Y91200D03*
X247500Y87263D03*
X134000Y100000D03*
X134000Y96063D03*
X170000Y52063D03*
X170000Y56000D03*
X70800Y55400D03*
X70800Y51463D03*
X108200Y52300D03*
X108200Y48363D03*
X108900Y36363D03*
X108900Y40300D03*
X134900Y48400D03*
X134900Y44463D03*
X247200Y135763D03*
X247200Y139700D03*
X230800Y103000D03*
X230800Y106937D03*
X238000Y103163D03*
X238000Y107100D03*
X246600Y125837D03*
X246600Y121900D03*
X107300Y21400D03*
X107300Y17463D03*
X47800Y146250D03*
X47800Y142313D03*
X58100Y146250D03*
X58100Y142313D03*
G54D15*
X112800Y127100D03*
X143800Y130900D03*
X80100Y114300D03*
X115200Y114200D03*
X104800Y71800D03*
X135300Y71100D03*
X71300Y93000D03*
X180600Y92800D03*
X65400Y132600D03*
X73297Y69697D03*
X72000Y146000D03*
X90067Y81667D03*
X87900Y79800D03*
X119300Y73300D03*
X133400Y73500D03*
X92000Y70000D03*
X146600Y65700D03*
X85700Y71500D03*
X84600Y77300D03*
X135700Y77000D03*
X104300Y101200D03*
X168900Y101100D03*
X166800Y42200D03*
X134900Y51700D03*
X131600Y83000D03*
X220917Y106683D03*
X213900Y109200D03*
X217600Y147500D03*
X123000Y50000D03*
X123000Y81600D03*
X151500Y114000D03*
X109400Y98600D03*
X234200Y98600D03*
X95500Y109000D03*
X242500Y109400D03*
X198800Y63600D03*
X224000Y61400D03*
X195700Y75000D03*
X227000Y53300D03*
X154100Y81400D03*
X154300Y77200D03*
X164700Y48500D03*
X176700Y102300D03*
X180300Y54500D03*
X178764Y100636D03*
X182900Y50100D03*
X75500Y95500D03*
X194300Y121800D03*
X80900Y95900D03*
X116900Y135100D03*
X84000Y101600D03*
X228400Y137500D03*
X83600Y69500D03*
X166100Y138400D03*
X108900Y68900D03*
X268000Y73000D03*
X180800Y126500D03*
X200700Y123600D03*
X208700Y123600D03*
X63500Y43800D03*
X195300Y65500D03*
X182600Y42300D03*
X157700Y49800D03*
X192200Y30300D03*
X179200Y20800D03*
X158600Y28700D03*
X222700Y88000D03*
X92200Y122200D03*
X243200Y136700D03*
X92818Y83582D03*
X75082Y83582D03*
X93100Y99200D03*
X63200Y99200D03*
X205900Y82700D03*
X173200Y85000D03*
X216200Y148900D03*
X227000Y75000D03*
X224000Y65700D03*
X77200Y69500D03*
X111500Y86000D03*
X80400Y121700D03*
X59400Y87500D03*
X103700Y77700D03*
X120200Y125300D03*
X35000Y82000D03*
X115000Y75900D03*
X244800Y152300D03*
X255100Y152500D03*
X235200Y137700D03*
X237000Y137700D03*
X230300Y151900D03*
X182000Y83000D03*
X163900Y118500D03*
X130200Y96000D03*
X147800Y86900D03*
X165100Y69200D03*
X172800Y103000D03*
X159700Y20900D03*
X126400Y88000D03*
X170000Y48300D03*
X200500Y84000D03*
X174100Y122800D03*
X234300Y103100D03*
X191500Y46100D03*
X139300Y151700D03*
X207400Y29300D03*
X229700Y41000D03*
X218600Y61400D03*
X210600Y48900D03*
X116700Y49400D03*
X108800Y33000D03*
X122100Y26000D03*
X125800Y45500D03*
X209300Y131900D03*
X209200Y129900D03*
X214300Y118400D03*
X240000Y119200D03*
X240000Y117300D03*
X248700Y118300D03*
X127200Y10000D03*
X207300Y149900D03*
X217300Y141400D03*
X262600Y97100D03*
X53000Y146200D03*
X216700Y98800D03*
G54D16*
X232163Y144859D03*
X240037Y144859D03*
X232163Y142300D03*
X232163Y139741D03*
X240037Y142300D03*
X240037Y139741D03*
G54D17*
X236100Y142300D03*
G54D18*
X249900Y152400D03*
X249900Y146400D03*
X262600Y107100D03*
X262600Y101100D03*
G54D19*
X247816Y151858D02*
X251984Y151858D01*
X251984Y152942D01*
X247816Y152942D01*
X247816Y151858D01*D02*
X247816Y145858D02*
X251984Y145858D01*
X251984Y146942D01*
X247816Y146942D01*
X247816Y145858D01*D02*
X260516Y106558D02*
X264684Y106558D01*
X264684Y107642D01*
X260516Y107642D01*
X260516Y106558D01*D02*
X260516Y100558D02*
X264684Y100558D01*
X264684Y101642D01*
X260516Y101642D01*
X260516Y100558D01*D02*
G54D20*
X201100Y43300D03*
X201100Y47631D03*
G54D21*
X17917Y20700D03*
X17917Y40700D03*
X17917Y30700D03*
X17917Y10700D03*
X7917Y20700D03*
X7917Y30700D03*
X7917Y10700D03*
X27917Y40700D03*
X27917Y30700D03*
X27917Y20700D03*
X27917Y10700D03*
X17917Y74644D03*
X17917Y94644D03*
X17917Y84644D03*
X17917Y64644D03*
X7917Y74644D03*
X7917Y84644D03*
X7917Y64644D03*
X27917Y94644D03*
X27917Y84644D03*
X27917Y74644D03*
X27917Y64644D03*
X17917Y128588D03*
X17917Y148588D03*
X17917Y138588D03*
X17917Y118588D03*
X7917Y128588D03*
X7917Y138588D03*
X7917Y118588D03*
X27917Y148588D03*
X27917Y138588D03*
X27917Y128588D03*
X27917Y118588D03*
G54D22*
X7917Y40700D03*
X7917Y94644D03*
X7917Y148588D03*
G54D23*
X6876Y39659D02*
X8958Y39659D01*
X8958Y41741D01*
X6876Y41741D01*
X6876Y39659D01*D02*
X6876Y93603D02*
X8958Y93603D01*
X8958Y95685D01*
X6876Y95685D01*
X6876Y93603D01*D02*
X6876Y147547D02*
X8958Y147547D01*
X8958Y149629D01*
X6876Y149629D01*
X6876Y147547D01*D02*
G54D24*
X118447Y41510D03*
X120416Y41510D03*
X122384Y41510D03*
X124353Y41510D03*
X118447Y55290D03*
X120416Y55290D03*
X122384Y55290D03*
X124353Y55290D03*
G54D25*
X114510Y47416D03*
X114510Y45447D03*
X128290Y47416D03*
X128290Y45447D03*
X114510Y49384D03*
X114510Y51353D03*
X128290Y49384D03*
X128290Y51353D03*
G54D26*
X125300Y110800D03*
X119198Y110800D03*
X119198Y114540D03*
X125300Y114540D03*
G54D27*
X265000Y119302D03*
X265000Y113200D03*
X206400Y102400D03*
X200298Y102400D03*
X200298Y95100D03*
X206400Y95100D03*
X48000Y128898D03*
X48000Y135000D03*
X58000Y135000D03*
X58000Y128898D03*
G54D28*
X151874Y137535D03*
X136126Y137535D03*
G54D29*
X141441Y135469D03*
X138882Y135469D03*
X144000Y135469D03*
X149118Y135469D03*
X146559Y135469D03*
G54D30*
X139472Y146000D03*
X148528Y146000D03*
G54D31*
X129236Y146000D03*
X158764Y146000D03*
G54D32*
X170801Y134400D03*
X183399Y134400D03*
G54D33*
X164370Y25900D03*
X164370Y20900D03*
X185630Y25900D03*
X185630Y20900D03*
X164370Y30900D03*
X185630Y30900D03*
X164370Y35900D03*
X185630Y35900D03*
G54D34*
X113672Y13800D03*
X122728Y10060D03*
X122728Y17540D03*
G54D35*
X207848Y45079D03*
X207848Y41142D03*
X207848Y43110D03*
X220152Y43110D03*
X220152Y41142D03*
X220152Y45079D03*
X207848Y52953D03*
X207848Y47047D03*
X207848Y49016D03*
X207848Y50984D03*
X220152Y47047D03*
X220152Y50984D03*
X220152Y49016D03*
X220152Y52953D03*
X207848Y54921D03*
X207848Y56890D03*
X207848Y58858D03*
X220152Y54921D03*
X220152Y56890D03*
X220152Y58858D03*
G54D36*
X211047Y41142D03*
X214984Y41142D03*
X213016Y41142D03*
X216953Y41142D03*
X211047Y58858D03*
X214984Y58858D03*
X213016Y58858D03*
X216953Y58858D03*
G54D37*
X63455Y63950D03*
X61486Y63950D03*
X67392Y63950D03*
X65423Y63950D03*
X71329Y63950D03*
X69360Y63950D03*
X75266Y63950D03*
X73297Y63950D03*
X79203Y63950D03*
X77234Y63950D03*
X83140Y63950D03*
X81171Y63950D03*
X87077Y63950D03*
X85108Y63950D03*
X91014Y63950D03*
X89045Y63950D03*
X63455Y109226D03*
X61486Y109226D03*
X67392Y109226D03*
X65423Y109226D03*
X71329Y109226D03*
X69360Y109226D03*
X75266Y109226D03*
X73297Y109226D03*
X79203Y109226D03*
X77234Y109226D03*
X83140Y109226D03*
X81171Y109226D03*
X87077Y109226D03*
X85108Y109226D03*
X91014Y109226D03*
X89045Y109226D03*
X149236Y63362D03*
X151205Y63362D03*
X155142Y63362D03*
X153173Y63362D03*
X157110Y63362D03*
X159079Y63362D03*
X163016Y63362D03*
X161047Y63362D03*
X164984Y63362D03*
X166953Y63362D03*
X170890Y63362D03*
X168921Y63362D03*
X172858Y63362D03*
X174827Y63362D03*
X178764Y63362D03*
X176795Y63362D03*
X149236Y108638D03*
X151205Y108638D03*
X155142Y108638D03*
X153173Y108638D03*
X157110Y108638D03*
X159079Y108638D03*
X163016Y108638D03*
X161047Y108638D03*
X164984Y108638D03*
X166953Y108638D03*
X170890Y108638D03*
X168921Y108638D03*
X172858Y108638D03*
X174827Y108638D03*
X178764Y108638D03*
X176795Y108638D03*
G54D38*
X53612Y71824D03*
X98888Y71824D03*
X53612Y75761D03*
X53612Y79698D03*
X53612Y77730D03*
X53612Y73792D03*
X98888Y75761D03*
X98888Y77730D03*
X98888Y79698D03*
X98888Y73792D03*
X53612Y83635D03*
X53612Y85604D03*
X53612Y87572D03*
X53612Y81667D03*
X98888Y83635D03*
X98888Y85604D03*
X98888Y87572D03*
X98888Y81667D03*
X53612Y91509D03*
X53612Y95446D03*
X53612Y93478D03*
X53612Y89541D03*
X98888Y91509D03*
X98888Y93478D03*
X98888Y95446D03*
X98888Y89541D03*
X53612Y99383D03*
X53612Y101352D03*
X53612Y97415D03*
X98888Y99383D03*
X98888Y101352D03*
X98888Y97415D03*
X141362Y71236D03*
X186638Y71236D03*
X141362Y79110D03*
X141362Y77142D03*
X141362Y75173D03*
X141362Y73205D03*
X186638Y75173D03*
X186638Y77142D03*
X186638Y79110D03*
X186638Y73205D03*
X141362Y86984D03*
X141362Y85016D03*
X141362Y83047D03*
X141362Y81079D03*
X186638Y86984D03*
X186638Y83047D03*
X186638Y85016D03*
X186638Y81079D03*
X141362Y94858D03*
X141362Y92890D03*
X141362Y90921D03*
X141362Y88953D03*
X186638Y90921D03*
X186638Y92890D03*
X186638Y94858D03*
X186638Y88953D03*
X141362Y100764D03*
X141362Y98795D03*
X141362Y96827D03*
X186638Y98795D03*
X186638Y100764D03*
X186638Y96827D03*
G54D39*
X235163Y114526D03*
X237131Y122400D03*
X239100Y122400D03*
X233194Y114526D03*
X237131Y114526D03*
X239100Y114526D03*
X233194Y122400D03*
X235163Y122400D03*
X207900Y127326D03*
X203963Y127326D03*
X207900Y135200D03*
X201994Y127326D03*
X201994Y135200D03*
X203963Y135200D03*
X205931Y135200D03*
X205931Y127326D03*
G54D40*
X236100Y118400D03*
X204900Y131200D03*

M02*
